<?xml version="1.0" encoding="UTF-8"?><svg xmlns="http://www.w3.org/2000/svg" viewBox="0 0 32 32"><defs><style>.d{fill:#424359;}.e{fill:none;stroke:#424359;stroke-miterlimit:10;stroke-width:2px;}</style></defs><g id="a"/><g id="b"><g id="c"><g><circle class="e" cx="16" cy="16" r="15"/><g><g><circle class="d" cx="16.02" cy="7.61" r="2.3"/><circle class="d" cx="16.03" cy="24.01" r="2.3"/><circle class="d" cx="24.22" cy="15.81" r="2.3"/><path class="d" d="M23.15,22.3l1.12-1.86c.23-.38,.37-.81,.39-1.26l.04-.7c-.84,.15-1.73-.09-2.39-.73-.02-.02-.04-.04-.06-.06v1.16c0,.5-.12,.99-.34,1.44l-.52,1.04c-.23,.46-.07,1.02,.37,1.29,.47,.29,1.08,.14,1.37-.33Z"/><path class="d" d="M23.15,9.32l1.12,1.86c.23,.38,.37,.81,.39,1.26l.04,.7c-.84-.15-1.73,.09-2.39,.73-.02,.02-.04,.04-.06,.06v-1.16c0-.5-.12-.99-.34-1.44l-.52-1.04c-.23-.46-.07-1.02,.37-1.29,.47-.29,1.08-.14,1.37,.33Z"/><circle class="d" cx="7.82" cy="15.81" r="2.3"/><path class="d" d="M8.9,9.32l-1.12,1.86c-.23,.38-.37,.81-.39,1.26l-.04,.7c.84-.15,1.73,.09,2.39,.73,.02,.02,.04,.04,.06,.06v-1.16c0-.5,.12-.99,.34-1.44l.52-1.04c.23-.46,.07-1.02-.37-1.29-.47-.29-1.08-.14-1.37,.33Z"/><path class="d" d="M8.9,22.3l-1.12-1.86c-.23-.38-.37-.81-.39-1.26l-.04-.7c.84,.15,1.73-.09,2.39-.73,.02-.02,.04-.04,.06-.06v1.16c0,.5,.12,.99,.34,1.44l.52,1.04c.23,.46,.07,1.02-.37,1.29-.47,.29-1.08,.14-1.37-.33Z"/><path class="d" d="M21.55,8.6c.16-.1,.34-.16,.52-.19l-1.41-.85c-.38-.23-.81-.37-1.26-.39l-.7-.04c.15,.84-.09,1.73-.73,2.39-.02,.02-.04,.04-.06,.06h1.16c.5,0,.99,.12,1.44,.34l.36,.18c-.1-.57,.15-1.16,.67-1.48Z"/><path class="d" d="M13.35,7.12l-.7,.04c-.44,.03-.88,.16-1.26,.39l-1.4,.85c.18,.03,.35,.09,.51,.19,.52,.32,.78,.91,.67,1.49l.36-.18c.45-.22,.94-.34,1.44-.34h1.16s-.04-.04-.06-.06c-.64-.66-.88-1.55-.73-2.39Z"/><path class="d" d="M21.55,23.02c-.52-.32-.78-.91-.67-1.49l-.36,.18c-.45,.22-.94,.34-1.44,.34h-1.16s.04,.04,.06,.06c.64,.66,.88,1.55,.73,2.39l.7-.04c.44-.03,.88-.16,1.26-.39l1.4-.85c-.18-.03-.35-.09-.51-.19Z"/><path class="d" d="M11.53,21.71l-.36-.18c.1,.57-.15,1.16-.67,1.48-.16,.1-.34,.16-.52,.19l1.41,.85c.38,.23,.81,.37,1.26,.39l.7,.04c-.15-.84,.09-1.73,.73-2.39,.02-.02,.04-.04,.06-.06h-1.16c-.5,0-.99-.12-1.44-.34Z"/></g><g><path class="d" d="M16.01,12.86c.33,.06,.66,.13,.97,.29,.95,.48,1.53,1.52,1.42,2.56-.05,.49-.27,.92-.52,1.34-.27,.44-.56,.87-.73,1.37-.06,.17-.1,.34-.13,.52-.03,.15-.11,.25-.26,.25-.63,0-1.27,0-1.9,0-.15,0-.24-.08-.26-.23-.07-.48-.29-.91-.54-1.32-.26-.43-.55-.84-.73-1.31-.58-1.44,.41-3.19,2.07-3.43,.06,0,.12,0,.17-.03h.45Z"/><path class="d" d="M16.68,19.39h-1.73c-.16,0-.3,.13-.3,.3s.13,.3,.3,.3h1.73c.16,0,.3-.13,.3-.3s-.13-.3-.3-.3Z"/><path class="d" d="M15.74,20.72h.15c.29,0,.53-.24,.53-.53h-1.2c0,.29,.24,.53,.53,.53Z"/><rect class="d" x="11.51" y="14.78" width=".64" height="1.25" rx=".32" ry=".32" transform="translate(-3.58 27.24) rotate(-90)"/><rect class="d" x="19.42" y="14.78" width=".64" height="1.25" rx=".32" ry=".32" transform="translate(4.33 35.15) rotate(-90)"/><rect class="d" x="15.47" y="10.83" width=".64" height="1.25" rx=".32" ry=".32"/><rect class="d" x="12.67" y="17.58" width=".64" height="1.25" rx=".32" ry=".32" transform="translate(9.3 40.26) rotate(-135)"/><rect class="d" x="18.26" y="11.99" width=".64" height="1.25" rx=".32" ry=".32" transform="translate(22.8 34.67) rotate(-135)"/><rect class="d" x="12.67" y="11.99" width=".64" height="1.25" rx=".32" ry=".32" transform="translate(-5.11 12.88) rotate(-45)"/><rect class="d" x="18.26" y="17.58" width=".64" height="1.25" rx=".32" ry=".32" transform="translate(-7.43 18.47) rotate(-45)"/></g></g></g></g></g></svg>