<?xml version="1.0" encoding="UTF-8"?>
<svg width="485px" height="536px" viewBox="0 0 485 536" version="1.1" xmlns="http://www.w3.org/2000/svg" xmlns:xlink="http://www.w3.org/1999/xlink">
    <title>conector radial</title>
    <defs>
        <polygon id="path-1" points="0 0 19 0 19 14 0 14"></polygon>
    </defs>
    <g id="Page-1" stroke="none" stroke-width="1" fill="none" fill-rule="evenodd">
        <g id="Tein---Intro:-Integramos-Tecnología" transform="translate(-486, 105)">
            <g id="conector-radial" transform="translate(734.8415, 162.3434) rotate(-85) translate(-734.8415, -162.3434)translate(491.4984, -51.832)">
                <circle id="Oval" stroke="#424359" stroke-width="2" fill="#FFFFFF" transform="translate(361.5721, 352.9391) rotate(84) translate(-361.5721, -352.9391)" cx="361.572069" cy="352.939133" r="8"></circle>
                <path d="M226.072069,312.939133 C326.695893,312.939133 408.572069,231.310106 408.572069,130.966183 C408.572069,114.165554 406.266151,97.8782478 401.965346,82.414397 L400.978627,82.8742487 C405.225806,98.1990746 407.499549,114.325967 407.499549,130.966183 C407.499549,230.721923 326.106007,311.86971 226.072069,311.86971 C126.03813,311.86971 44.6445886,230.721923 44.6445886,130.966183 C44.6445886,111.941155 47.5940185,93.1941768 53.4070768,75.270654 L52.3881829,74.939133 C46.542949,92.9802923 43.5720686,111.823519 43.5720686,130.966183 C43.5720686,231.310106 125.437519,312.939133 226.072069,312.939133" id="Fill-36" fill="#424359" transform="translate(226.0721, 193.9391) rotate(84) translate(-226.0721, -193.9391)"></path>
                <path d="M504.572069,318.535714 C478.674351,249.922669 411.801405,200.939133 333.572069,200.939133 L333.572069,202.000761 C411.35101,202.000761 477.848627,250.71889 503.585489,318.939133 L504.572069,318.535714 Z" id="Fill-38" fill="#424359" transform="translate(419.0721, 259.9391) rotate(84) translate(-419.0721, -259.9391)"></path>
                <path d="M340.961568,141.395717 C335.150958,141.395717 330.423137,136.673031 330.423137,130.868732 C330.423137,125.075142 335.150958,120.352456 340.961568,120.352456 C346.772179,120.352456 351.5,125.075142 351.5,130.868732 C351.5,136.673031 346.772179,141.395717 340.961568,141.395717 M139.069657,304.590761 C133.259047,304.590761 128.531225,299.868075 128.531225,294.063775 C128.531225,288.259476 133.259047,283.53679 139.069657,283.53679 C144.869547,283.53679 149.597368,288.259476 149.597368,294.063775 C149.597368,299.868075 144.869547,304.590761 139.069657,304.590761 M343.191471,119.495732 C344.74597,109.332855 345.560742,98.9236687 345.560742,88.3324293 C345.560742,86.1906215 345.517859,84.0595227 345.453535,81.939133 L344.370746,81.939133 C344.445791,84.0595227 344.488673,86.1906215 344.488673,88.3324293 C344.488673,98.8701235 343.673901,109.225764 342.130123,119.335097 C341.744178,119.30297 341.358234,119.281552 340.961568,119.281552 C334.56132,119.281552 329.351068,124.475436 329.351068,130.868732 C329.351068,136.00907 332.728083,140.378358 337.370139,141.888333 C314.695894,225.568763 240.240747,288.195222 150.626554,293.185634 C150.176285,287.209991 145.169726,282.465886 139.069657,282.465886 C132.969588,282.465886 127.963029,287.199281 127.50204,293.174925 C60.562092,289.491016 0.236806109,253.969134 -35.527394,196.51514 L-36.4279314,197.07201 C-18.2242108,226.329104 7.22669174,250.788549 37.1910021,267.794503 C64.7431586,283.4297 95.7366545,292.45742 127.469878,294.23512 C127.555643,300.371399 132.433554,305.351102 138.533623,305.629537 L138.533623,358.939133 L139.605691,358.939133 L139.605691,305.629537 C145.684319,305.351102 150.56223,300.382108 150.658716,294.256538 C240.75534,289.255417 315.607152,226.296977 338.410046,142.177477 C339.224818,142.35953 340.082472,142.466621 340.961568,142.466621 C347.361816,142.466621 352.572069,137.262028 352.572069,130.868732 C352.572069,125.246486 348.530371,120.545218 343.191471,119.495732" id="Fill-42" fill="#424359" transform="translate(158.0721, 220.4391) rotate(84) translate(-158.0721, -220.4391)"></path>
                <path d="M84.8165686,198.439133 C84.8165686,199.957133 83.5845686,201.178133 82.0775686,201.178133 C80.5595686,201.178133 79.3275686,199.957133 79.3275686,198.439133 C79.3275686,196.921133 80.5595686,195.700133 82.0775686,195.700133 C83.5845686,195.700133 84.8165686,196.921133 84.8165686,198.439133" id="Fill-114" fill="#424359" transform="translate(82.0721, 198.4391) rotate(84) translate(-82.0721, -198.4391)"></path>
                <path d="M86.8165686,218.439133 C86.8165686,219.957133 85.5845686,221.178133 84.0775686,221.178133 C82.5595686,221.178133 81.3275686,219.957133 81.3275686,218.439133 C81.3275686,216.921133 82.5595686,215.700133 84.0775686,215.700133 C85.5845686,215.700133 86.8165686,216.921133 86.8165686,218.439133" id="Fill-116" fill="#424359" transform="translate(84.0721, 218.4391) rotate(84) translate(-84.0721, -218.4391)"></path>
                <path d="M73.8165686,210.439133 C73.8165686,211.957133 72.5845686,213.178133 71.0775686,213.178133 C69.5595686,213.178133 68.3275686,211.957133 68.3275686,210.439133 C68.3275686,208.921133 69.5595686,207.700133 71.0775686,207.700133 C72.5845686,207.700133 73.8165686,208.921133 73.8165686,210.439133" id="Fill-118" fill="#424359" transform="translate(71.0721, 210.4391) rotate(84) translate(-71.0721, -210.4391)"></path>
                <g id="Group-136" transform="translate(19.0721, 214.9391) rotate(84) translate(-19.0721, -214.9391)translate(9.5721, 207.9391)">
                    <mask id="mask-2" fill="white">
                        <use xlink:href="#path-1"></use>
                    </mask>
                    <g id="Clip-135"></g>
                    <polygon id="Fill-134" fill="#424359" mask="url(#mask-2)" points="0 0.128686327 19 0 9.60371179 14.0053619"></polygon>
                </g>
                <path d="M361.517065,357.889608 C358.750338,357.889608 356.517065,355.656335 356.517065,352.889608 C356.517065,350.131923 358.750338,347.889608 361.517065,347.889608 C364.274751,347.889608 366.517065,350.131923 366.517065,352.889608 C366.517065,355.656335 364.274751,357.889608 361.517065,357.889608 Z" id="Fill-160" fill="#424359" transform="translate(361.5171, 352.8896) rotate(84) translate(-361.5171, -352.8896)"></path>
                <path d="M266.577491,399.939133 C262.706073,399.939133 259.572069,396.802699 259.572069,392.939133 C259.572069,389.075567 262.706073,385.939133 266.577491,385.939133 C270.438064,385.939133 273.572069,389.075567 273.572069,392.939133 C273.572069,396.802699 270.438064,399.939133 266.577491,399.939133 Z" id="Fill-166" fill="#424359" transform="translate(266.5721, 392.9391) rotate(84) translate(-266.5721, -392.9391)"></path>
                <path d="M235.143069,359.439133 C235.143069,362.244133 232.877069,364.510133 230.072069,364.510133 C227.267069,364.510133 225.001069,362.244133 225.001069,359.439133 C225.001069,356.634133 227.267069,354.368133 230.072069,354.368133 C232.877069,354.368133 235.143069,356.634133 235.143069,359.439133" id="Fill-174" fill="#424359" transform="translate(230.0721, 359.4391) rotate(84) translate(-230.0721, -359.4391)"></path>
                <path d="M203.143069,345.439133 C203.143069,348.244133 200.877069,350.510133 198.072069,350.510133 C195.267069,350.510133 193.001069,348.244133 193.001069,345.439133 C193.001069,342.634133 195.267069,340.368133 198.072069,340.368133 C200.877069,340.368133 203.143069,342.634133 203.143069,345.439133" id="Fill-176" fill="#424359" transform="translate(198.0721, 345.4391) rotate(84) translate(-198.0721, -345.4391)"></path>
                <path d="M176.143069,327.439133 C176.143069,330.244133 173.877069,332.510133 171.072069,332.510133 C168.267069,332.510133 166.001069,330.244133 166.001069,327.439133 C166.001069,324.634133 168.267069,322.368133 171.072069,322.368133 C173.877069,322.368133 176.143069,324.634133 176.143069,327.439133" id="Fill-178" fill="#424359" transform="translate(171.0721, 327.4391) rotate(84) translate(-171.0721, -327.4391)"></path>
                <polygon id="Fill-184" fill="#424359" transform="translate(160.0721, 26.4391) rotate(84) translate(-160.0721, -26.4391)" points="167.572069 24.6704136 152.572069 33.939133 153.335509 18.939133"></polygon>
            </g>
        </g>
    </g>
</svg>