<?xml version="1.0" encoding="UTF-8"?><svg xmlns="http://www.w3.org/2000/svg" viewBox="0 0 32 32"><defs><style>.d{fill:#424359;}.e{fill:none;stroke:#424359;stroke-miterlimit:10;stroke-width:2px;}</style></defs><g id="a"/><g id="b"><g id="c"><g><circle class="e" cx="16" cy="16" r="15"/><g><path class="d" d="M9.69,16.09c.89,0,1.62-.72,1.62-1.62s-.72-1.62-1.62-1.62-1.62,.72-1.62,1.62,.72,1.62,1.62,1.62Z"/><path class="d" d="M16.27,18.68v-3.47c0-.62-.5-1.12-1.12-1.12s-1.12,.5-1.12,1.12v2.54h-3.2l-1.14,1.77-1.14-1.77h-1.81c-.69,0-1.24,.56-1.24,1.24v5.8h7.2v-4.92h2.38c.79,0,1.19-.44,1.19-1.2Z"/><path class="d" d="M26.41,23.97L16.84,7.38c-.12-.2-.33-.33-.56-.33s-.45,.12-.56,.33l-3.52,6.1c-.18,.31-.07,.71,.24,.89,.31,.18,.71,.07,.89-.24l2.96-5.12,2.92,5.06h-1.82c-.22,0-.41,.18-.41,.41s.18,.41,.41,.41h2.29l2.59,4.49h-4.88c-.22,0-.41,.18-.41,.41s.18,.41,.41,.41h.58l-3.46,3.46h-.42c-.36,0-.65,.29-.65,.65s.29,.65,.65,.65h11.79c.23,0,.45-.12,.56-.33,.12-.2,.12-.45,0-.65Zm-5.9-.33l2.67-2.67,.47,.82-1.85,1.85h-1.29Zm-2.44,0l3.46-3.46h1.19l.04,.06-3.4,3.4h-1.29Zm1.02-3.46h1.29l-3.46,3.46h-1.29l3.46-3.46Zm3.85,3.46l1.12-1.12,.65,1.12h-1.77Z"/><path class="d" d="M17.64,15.5c-.28,0-.5,.22-.5,.5s.22,.5,.5,.5,.5-.22,.5-.5-.22-.5-.5-.5Z"/><path class="d" d="M19.69,16.93c0-.28-.22-.5-.5-.5s-.5,.22-.5,.5,.22,.5,.5,.5,.5-.22,.5-.5Z"/><path class="d" d="M17.56,18.18c0,.28,.22,.5,.5,.5s.5-.22,.5-.5-.22-.5-.5-.5-.5,.22-.5,.5Z"/><path class="d" d="M20.88,18.32c0-.28-.22-.5-.5-.5s-.5,.22-.5,.5,.22,.5,.5,.5,.5-.22,.5-.5Z"/></g></g></g></g></svg>