<?xml version="1.0" encoding="UTF-8"?><svg xmlns="http://www.w3.org/2000/svg" viewBox="0 0 32 32"><defs><style>.d{fill:#424359;}.e{fill:none;stroke:#424359;stroke-miterlimit:10;stroke-width:2px;}</style></defs><g id="a"/><g id="b"><g id="c"><g><circle class="e" cx="16" cy="16" r="15"/><g><path class="d" d="M26.35,9.05c-.06-.2-.13-.41-.24-.65-.06-.13-.19-.22-.33-.22h-1.16c-.25-.35-.55-.65-.9-.89l-.03-1.17c0-.14-.09-.27-.22-.33-.43-.18-.88-.3-1.34-.35-.15-.02-.28,.05-.35,.18l-.59,1.01c-.21,.02-.42,.06-.62,.11-.2,.06-.4,.13-.59,.22l-1.03-.56c-.13-.07-.28-.06-.39,.03-.36,.28-.69,.61-.97,.99-.09,.11-.09,.27-.02,.39l.58,1.02c-.18,.39-.28,.8-.32,1.22l-.99,.61c-.12,.07-.19,.21-.17,.36,.03,.26,.08,.48,.13,.68,.06,.2,.13,.41,.24,.65,.06,.13,.19,.22,.33,.22h1.16c.25,.35,.55,.65,.9,.89l.03,1.17c0,.14,.09,.27,.22,.33,.43,.18,.88,.3,1.34,.35,.01,0,.03,0,.04,0,.13,0,.25-.07,.31-.18l.59-1.01c.21-.02,.42-.06,.62-.11h0c.2-.06,.4-.13,.59-.22l1.03,.56c.13,.07,.28,.06,.39-.03,.37-.28,.69-.61,.97-.99,.09-.11,.09-.27,.02-.39l-.58-1.02c.18-.39,.28-.8,.32-1.22l.99-.61c.12-.07,.19-.21,.17-.36-.03-.26-.08-.48-.13-.68Zm-4.78,2.2c-.49,0-.88-.4-.88-.88s.4-.88,.88-.88,.88,.4,.88,.88-.39,.88-.88,.88Z"/><path class="d" d="M19.51,17.92l-1.56-.31c-.11-.33-.24-.65-.41-.95l.86-1.34c.08-.13,.07-.3-.02-.42-.4-.52-.88-.99-1.41-1.38-.12-.09-.29-.1-.42,0l-1.32,.88c-.31-.16-.63-.29-.96-.39l-.34-1.55c-.03-.15-.16-.26-.31-.28-.33-.04-.65-.06-.99-.06-.32,0-.65,.03-.98,.08-.15,.02-.27,.14-.3,.29l-.31,1.56c-.33,.11-.65,.24-.95,.41l-1.34-.86c-.13-.08-.3-.07-.42,.02-.52,.41-.99,.88-1.38,1.41-.09,.12-.1,.29-.01,.42l.88,1.32c-.16,.31-.29,.63-.39,.96l-1.55,.34c-.15,.03-.26,.16-.28,.31-.04,.33-.06,.66-.06,.98,0,.32,.03,.66,.08,.99,.02,.15,.14,.27,.29,.3l1.56,.31c.11,.33,.24,.65,.41,.95l-.86,1.34c-.08,.13-.07,.3,.02,.42,.41,.52,.88,.99,1.41,1.38,.12,.09,.29,.1,.42,0l1.32-.88c.31,.16,.63,.29,.96,.39l.34,1.55c.03,.15,.16,.26,.31,.28,.31,.04,.61,.06,.91,.06h.08c.32,0,.65-.03,.98-.08,.15-.02,.27-.14,.3-.29l.31-1.56c.33-.11,.65-.24,.95-.41l1.34,.86c.13,.08,.29,.07,.42-.02,.52-.4,.99-.88,1.38-1.41,.09-.12,.1-.29,.01-.42l-.88-1.32c.16-.31,.29-.63,.39-.96l1.56-.34c.15-.03,.26-.16,.28-.31,.04-.34,.06-.67,.06-.99,0-.32-.03-.65-.08-.98-.02-.15-.14-.27-.29-.3Zm-3.88,.26l-2.69,2.69c-.11,.11-.24,.16-.38,.16s-.28-.05-.38-.16l-1.43-1.43c-.21-.21-.21-.56,0-.77,.21-.21,.56-.21,.77,0l1.04,1.04,2.31-2.31c.21-.21,.56-.21,.77,0,.21,.21,.21,.56,0,.77Z"/></g></g></g></g></svg>