<?xml version="1.0" encoding="UTF-8"?><svg xmlns="http://www.w3.org/2000/svg" viewBox="0 0 32 32"><defs><style>.d{fill:#424359;}.e{fill:none;stroke:#424359;stroke-miterlimit:10;stroke-width:2px;}</style></defs><g id="a"/><g id="b"><g id="c"><g><circle class="e" cx="16" cy="16" r="15"/><g><path class="d" d="M23.45,20.6c-.57-.08-1.19,.15-1.83,.68l-2.29,1.95s-.06,.05-.09,.07l-.03,.02s-.02,.02-.04,.02c-.24,.17-.52,.27-.88,.27h-2.83c-.1,0-.18-.08-.18-.18s.08-.18,.18-.18h2.83c.29,0,.53-.09,.71-.24l.08-.06c.48-.44,.61-1.26,.65-1.63h-4.7s-.06-.02-.09-.03c-2.73-1.45-4.07,.65-4.13,.74-.03,.05-.09,.09-.16,.09h-3.26v4.38h10.52c1.38,0,2.11-.79,2.12-.8l4.57-4.46c-.17-.19-.58-.57-1.15-.64Z"/><rect class="d" x="19.21" y="5.5" width="2.95" height="13.44" rx=".17" ry=".17"/><rect class="d" x="15.5" y="12.15" width="2.95" height="6.78" rx=".17" ry=".17"/><rect class="d" x="11.78" y="8.99" width="2.95" height="9.94" rx=".17" ry=".17"/><rect class="d" x="8.06" y="14.26" width="2.95" height="4.67" rx=".17" ry=".17"/></g></g></g></g></svg>