<?xml version="1.0" encoding="UTF-8"?>
<svg width="28px" height="31px" viewBox="0 0 28 31" version="1.1" xmlns="http://www.w3.org/2000/svg" xmlns:xlink="http://www.w3.org/1999/xlink">
    <title>Icono Copy</title>
    <defs>
        <polygon id="path-1" points="0 0 24.5 0 24.5 24.7559391 0 24.7559391"></polygon>
        <polygon id="path-3" points="0 0 11.6666667 0 11.6666667 11.8821023 0 11.8821023"></polygon>
    </defs>
    <g id="Page-1" stroke="none" stroke-width="1" fill="none" fill-rule="evenodd">
        <g id="Tein---Entorno-del-usuario" transform="translate(-466, -458)">
            <g id="Entornos---Links" transform="translate(466, 403.9048)">
                <g id="Icono-Copy" transform="translate(0, 55.0838)">
                    <g id="Group">
                        <g id="Group-3">
                            <mask id="mask-2" fill="white">
                                <use xlink:href="#path-1"></use>
                            </mask>
                            <g id="Clip-2"></g>
                            <path d="M24.5,12.3779605 C24.5,19.2140861 19.0155345,24.7559391 12.25,24.7559391 C5.48446548,24.7559391 0,19.2140861 0,12.3779605 C0,5.54174493 5.48446548,-1.80085235e-05 12.25,-1.80085235e-05 C19.0155345,-1.80085235e-05 24.5,5.54174493 24.5,12.3779605" id="Fill-1" fill="#F7D719" mask="url(#mask-2)"></path>
                            <rect id="Rectangle" fill="#5FC7C0" mask="url(#mask-2)" x="0" y="0" width="24.4085821" height="24.6635662" rx="4"></rect>
                        </g>
                        <path d="M24.8335609,26.2847403 L24.8335609,29.1214785 L27.1496587,27.7031094 L24.8335609,26.2847403 Z M24.4083902,29.9026321 C24.3206857,29.8489445 24.2666667,29.7496226 24.2666667,29.642155 L24.2666667,25.7639712 C24.2666667,25.6565962 24.3206857,25.5572742 24.4083902,25.5035867 C24.4960075,25.4498066 24.60422,25.4498066 24.6918373,25.5035867 L27.8582765,27.4428174 C27.945981,27.4965049 28,27.5957343 28,27.7031094 C28,27.8104844 27.945981,27.9098989 27.8582765,27.9635865 L24.6918373,29.9026321 C24.6480287,29.9294758 24.5989839,29.9428977 24.5501138,29.9428977 C24.5011563,29.9428977 24.4521988,29.9294758 24.4083902,29.9026321 Z" id="Fill-25" fill="#212529"></path>
                        <path d="M24.2699513,28.0567309 L3.78738309,28.0567309 C3.6286988,28.0567309 3.5,27.9266882 3.5,27.7664361 L3.5,3.82685752 C3.5,3.66651612 3.6286988,3.53656272 3.78738309,3.53656272 L27.479372,3.53656272 C27.6380563,3.53656272 27.7666667,3.66651612 27.7666667,3.82685752 L27.7666667,22.2574489 C27.7666667,22.4177903 27.6380563,22.5477437 27.479372,22.5477437 C27.3207762,22.5477437 27.1920774,22.4177903 27.1920774,22.2574489 L27.1920774,4.11715232 L4.07467772,4.11715232 L4.07467772,27.476052 L24.2699513,27.476052 C24.4286356,27.476052 24.557246,27.6060947 24.557246,27.7664361 C24.557246,27.9266882 24.4286356,28.0567309 24.2699513,28.0567309" id="Fill-27" fill="#212529"></path>
                    </g>
                    <g id="Group-3" transform="translate(14.7, 9.4163)">
                        <mask id="mask-4" fill="white">
                            <use xlink:href="#path-3"></use>
                        </mask>
                        <g id="Clip-2"></g>
                        <path d="M2.561258,7.73377894 C2.92102164,7.52239251 3.28057285,7.31057336 3.64023028,7.09875421 C3.46348192,6.75224924 3.36342365,6.35857719 3.36342365,5.94110523 C3.36342365,5.52363327 3.4633757,5.13006939 3.64001784,4.78356442 L2.56093934,4.14897243 C2.27860932,4.68241483 2.11843112,5.29266601 2.11843112,5.94110523 C2.11843112,6.5897608 2.27882176,7.20022835 2.561258,7.73377894 M8.99313522,7.93110178 L7.91426915,7.29661796 C7.47515994,7.99427971 6.70730301,8.45653876 5.83333333,8.45653876 C4.95946988,8.45653876 4.19161295,7.99438789 3.75250373,7.29683433 L2.67363767,7.93131814 C3.32847761,9.00761473 4.49869199,9.72453276 5.83333333,9.72453276 C7.1680809,9.72453276 8.33829528,9.00750655 8.99313522,7.93110178 M5.72042257,3.42815987 L5.72042257,2.15930042 C4.4332611,2.19846208 3.31063282,2.90467015 2.67416876,3.94991868 C3.03403863,4.16108874 3.39380227,4.37247516 3.75335348,4.58396977 C4.17355573,3.91735608 4.89414521,3.46602335 5.72042257,3.42815987 M5.9462441,2.1594086 L5.9462441,3.42826805 C7.25794214,3.4884169 8.3031368,4.59035247 8.3031368,5.94110523 C8.3031368,6.35900991 8.20297231,6.75311469 8.02590529,7.10005239 C8.38556272,7.311547 8.74532637,7.52293342 9.10519623,7.73410348 C9.38773869,7.20044471 9.54823555,6.58986898 9.54823555,5.94110523 C9.54823555,3.88998619 7.94560375,2.22020654 5.9462441,2.1594086 M5.83333333,0 C9.05495466,0 11.6666667,2.65985568 11.6666667,5.94110523 C11.6666667,9.22224659 9.05495466,11.8821023 5.83333333,11.8821023 C2.61171201,11.8821023 0,9.22224659 0,5.94110523 C0,2.65985568 2.61171201,0 5.83333333,0" id="Fill-1" fill="#212529" mask="url(#mask-4)"></path>
                    </g>
                </g>
            </g>
        </g>
    </g>
</svg>