<?xml version="1.0" encoding="utf-8"?>
<!-- Generator: Adobe Illustrator 26.1.0, SVG Export Plug-In . SVG Version: 6.00 Build 0)  -->
<svg version="1.1" id="Layer_1" xmlns="http://www.w3.org/2000/svg" xmlns:xlink="http://www.w3.org/1999/xlink" x="0px" y="0px"
	 viewBox="0 0 28 31" style="enable-background:new 0 0 28 31;" xml:space="preserve">
<style type="text/css">
	.st0{filter:url(#Adobe_OpacityMaskFilter);}
	.st1{fill-rule:evenodd;clip-rule:evenodd;fill:#FFFFFF;}
	.st2{mask:url(#mask-2_00000018934127154397757790000006524766316147448212_);fill-rule:evenodd;clip-rule:evenodd;fill:#F7D719;}
	.st3{filter:url(#Adobe_OpacityMaskFilter_00000167361497166329947780000013052139722409457570_);}
	.st4{mask:url(#mask-2_00000132775525578403091920000012268146653808674179_);fill-rule:evenodd;clip-rule:evenodd;fill:#A6E2DF;}
	.st5{fill-rule:evenodd;clip-rule:evenodd;fill:#212529;}
	.st6{filter:url(#Adobe_OpacityMaskFilter_00000177452249044428113760000003848376531607876768_);}
	.st7{mask:url(#mask-4_00000050638988949269649020000009296402532717959091_);fill-rule:evenodd;clip-rule:evenodd;fill:#212529;}
</style>
<g id="Page-1">
	<g id="Tein---Entorno-del-usuario" transform="translate(-466, -403)">
		<g id="Entornos---Links" transform="translate(466, 403.9048)">
			<g id="icono-copy-2" transform="translate(0, 0)">
				<g id="Group">
					<g id="Group-3">
						<g id="Clip-2">
						</g>
						<defs>
							<filter id="Adobe_OpacityMaskFilter" filterUnits="userSpaceOnUse" x="0" y="0" width="24.5" height="24.8">
								<feColorMatrix  type="matrix" values="1 0 0 0 0  0 1 0 0 0  0 0 1 0 0  0 0 0 1 0"/>
							</filter>
						</defs>
						
							<mask maskUnits="userSpaceOnUse" x="0" y="0" width="24.5" height="24.8" id="mask-2_00000018934127154397757790000006524766316147448212_">
							<g class="st0">
								<polygon id="path-1_00000155107468363861744320000000815894895899651463_" class="st1" points="0,0 24.5,0 24.5,24.8 
									0,24.8 								"/>
							</g>
						</mask>
						<path id="Fill-1" class="st2" d="M24.5,12.4c0,6.8-5.5,12.4-12.2,12.4S0,19.2,0,12.4C0,5.5,5.5,0,12.2,0S24.5,5.5,24.5,12.4"
							/>
						<defs>
							
								<filter id="Adobe_OpacityMaskFilter_00000163055999012732653560000006585083998670263954_" filterUnits="userSpaceOnUse" x="0" y="0" width="24.4" height="24.7">
								<feColorMatrix  type="matrix" values="1 0 0 0 0  0 1 0 0 0  0 0 1 0 0  0 0 0 1 0"/>
							</filter>
						</defs>
						
							<mask maskUnits="userSpaceOnUse" x="0" y="0" width="24.4" height="24.7" id="mask-2_00000132775525578403091920000012268146653808674179_">
							<g style="filter:url(#Adobe_OpacityMaskFilter_00000163055999012732653560000006585083998670263954_);">
								<polygon id="path-1_00000049926895868388238660000011756656868296330119_" class="st1" points="0,0 24.5,0 24.5,24.8 
									0,24.8 								"/>
							</g>
						</mask>
						<path id="Rectangle" class="st4" d="M4,0h16.4c2.2,0,4,1.8,4,4v16.7c0,2.2-1.8,4-4,4H4c-2.2,0-4-1.8-4-4V4C0,1.8,1.8,0,4,0z"
							/>
					</g>
					<path id="Fill-25" class="st5" d="M24.8,26.3v2.8l2.3-1.4L24.8,26.3z M24.6,29.9c0,0-0.1,0-0.1,0c-0.1-0.1-0.1-0.2-0.1-0.3
						v-3.9c0-0.1,0.1-0.2,0.1-0.3c0.1-0.1,0.2-0.1,0.3,0l3.2,1.9c0.1,0.1,0.1,0.2,0.1,0.3c0,0.1-0.1,0.2-0.1,0.3l-3.2,1.9
						C24.6,29.9,24.6,29.9,24.6,29.9L24.6,29.9z"/>
					<path id="Fill-27" class="st5" d="M24.3,28.1H3.8c-0.2,0-0.3-0.1-0.3-0.3V3.8c0-0.2,0.1-0.3,0.3-0.3h23.7
						c0.2,0,0.3,0.1,0.3,0.3v18.4c0,0.2-0.1,0.3-0.3,0.3c-0.2,0-0.3-0.1-0.3-0.3V4.1H4.1v23.4h20.2c0.2,0,0.3,0.1,0.3,0.3
						C24.6,27.9,24.4,28.1,24.3,28.1"/>
				</g>
				<g id="icono" transform="translate(14.7, 9.3669)">
					<g id="Clip-2_00000124163449339136809350000013423998533770655909_">
					</g>
					<defs>
						
							<filter id="Adobe_OpacityMaskFilter_00000161628504137468141080000004836402397247379846_" filterUnits="userSpaceOnUse" x="0" y="0" width="11.9" height="11.9">
							<feColorMatrix  type="matrix" values="1 0 0 0 0  0 1 0 0 0  0 0 1 0 0  0 0 0 1 0"/>
						</filter>
					</defs>
					
						<mask maskUnits="userSpaceOnUse" x="0" y="0" width="11.9" height="11.9" id="mask-4_00000050638988949269649020000009296402532717959091_">
						<g style="filter:url(#Adobe_OpacityMaskFilter_00000161628504137468141080000004836402397247379846_);">
							<polygon id="path-3_00000098186946845490508900000012392187146565120686_" class="st1" points="0,0 11.9,0 11.9,11.9 0,11.9 
															"/>
						</g>
					</mask>
					<path id="Fill-1_00000006668744859400025020000012963646712968519357_" class="st7" d="M4.7,6.2c0,0,0-0.1,0-0.1s0-0.1,0-0.1
						H3.3C3.2,5.7,3,5.5,2.7,5.5c-0.3,0-0.6,0.3-0.6,0.6s0.3,0.6,0.6,0.6c0.3,0,0.5-0.2,0.6-0.5H4.7z M5.4,7C5.3,7,5.2,6.9,5.2,6.9
						C5,7.3,4.7,7.7,4.5,8.1C4.2,8,4,8.1,3.8,8.4C3.7,8.7,3.7,9,4,9.2C4.3,9.4,4.7,9.3,4.8,9C5,8.7,4.9,8.4,4.7,8.2L5.4,7z M6.7,6.9
						C6.7,6.9,6.6,7,6.5,7l0.7,1.2C7,8.4,6.9,8.7,7.1,9c0.2,0.3,0.5,0.4,0.8,0.2C8.2,9,8.2,8.7,8.1,8.4C7.9,8.1,7.7,8,7.4,8.1
						C7.2,7.7,6.9,7.3,6.7,6.9L6.7,6.9z M7.2,5.9c0,0,0,0.1,0,0.1s0,0.1,0,0.1h1.4c0.1,0.3,0.3,0.5,0.6,0.5c0.3,0,0.6-0.3,0.6-0.6
						S9.5,5.5,9.2,5.5c-0.3,0-0.5,0.2-0.6,0.5H7.2z M6.5,4.9c0.1,0,0.1,0.1,0.2,0.1l0.7-1.2c0.3,0.1,0.6,0,0.7-0.3
						c0.2-0.3,0.1-0.7-0.2-0.8C7.6,2.5,7.2,2.6,7.1,2.9C6.9,3.2,7,3.5,7.2,3.7C7,4.1,6.8,4.5,6.5,4.9L6.5,4.9z M5.9,5
						c-0.6,0-1,0.5-1,1.1s0.5,1.1,1,1.1S7,6.7,7,6.1S6.5,5,5.9,5L5.9,5z M4.7,3.7C4.9,3.5,5,3.2,4.8,2.9C4.7,2.6,4.3,2.5,4,2.7
						C3.7,2.9,3.7,3.2,3.8,3.5C4,3.8,4.2,3.9,4.5,3.8L5.2,5c0.1,0,0.1-0.1,0.2-0.1C5.1,4.5,4.9,4.1,4.7,3.7L4.7,3.7z M5.9,0
						c3.3,0,6,2.7,6,5.9s-2.7,5.9-6,5.9C2.7,11.9,0,9.2,0,5.9S2.7,0,5.9,0L5.9,0z"/>
				</g>
			</g>
		</g>
	</g>
</g>
</svg>
