<?xml version="1.0" encoding="UTF-8"?>
<svg width="28px" height="31px" viewBox="0 0 28 31" version="1.1" xmlns="http://www.w3.org/2000/svg" xmlns:xlink="http://www.w3.org/1999/xlink">
    <title>icono copy 2</title>
    <defs>
        <polygon id="path-1" points="0 0 24.5 0 24.5 24.7559391 0 24.7559391"></polygon>
        <polygon id="path-3" points="0 0 11.9 0 11.9 11.8821023 0 11.8821023"></polygon>
    </defs>
    <g id="Page-1" stroke="none" stroke-width="1" fill="none" fill-rule="evenodd">
        <g id="Tein---Entorno-del-usuario" transform="translate(-466, -403)">
            <g id="Entornos---Links" transform="translate(466, 403.9048)">
                <g id="icono-copy-2" transform="translate(0, 0)">
                    <g id="Group">
                        <g id="Group-3">
                            <mask id="mask-2" fill="white">
                                <use xlink:href="#path-1"></use>
                            </mask>
                            <g id="Clip-2"></g>
                            <path d="M24.5,12.3779605 C24.5,19.2140861 19.0155345,24.7559391 12.25,24.7559391 C5.48446548,24.7559391 0,19.2140861 0,12.3779605 C0,5.54174493 5.48446548,-1.80085235e-05 12.25,-1.80085235e-05 C19.0155345,-1.80085235e-05 24.5,5.54174493 24.5,12.3779605" id="Fill-1" fill="#F7D719" mask="url(#mask-2)"></path>
                            <rect id="Rectangle" fill="#A6E2DF" mask="url(#mask-2)" x="0" y="0" width="24.4085821" height="24.6635662" rx="4"></rect>
                        </g>
                        <path d="M24.8335609,26.2847403 L24.8335609,29.1214785 L27.1496587,27.7031094 L24.8335609,26.2847403 Z M24.5501138,29.9428977 C24.5011563,29.9428977 24.4521988,29.9294758 24.4083902,29.9026321 C24.3206857,29.8489445 24.2666667,29.7496226 24.2666667,29.642155 L24.2666667,25.7639712 C24.2666667,25.6565962 24.3206857,25.5572742 24.4083902,25.5035867 C24.4960075,25.4498066 24.60422,25.4498066 24.6918373,25.5035867 L27.8582765,27.4428174 C27.945981,27.4965049 28,27.5957343 28,27.7031094 C28,27.8104844 27.945981,27.9098989 27.8582765,27.9635865 L24.6918373,29.9026321 C24.6480287,29.9294758 24.5989839,29.9428977 24.5501138,29.9428977 L24.5501138,29.9428977 Z" id="Fill-25" fill="#212529"></path>
                        <path d="M24.2699513,28.0567309 L3.78738309,28.0567309 C3.6286988,28.0567309 3.5,27.9266882 3.5,27.7664361 L3.5,3.82685752 C3.5,3.66651612 3.6286988,3.53656272 3.78738309,3.53656272 L27.479372,3.53656272 C27.6380563,3.53656272 27.7666667,3.66651612 27.7666667,3.82685752 L27.7666667,22.2574489 C27.7666667,22.4177903 27.6380563,22.5477437 27.479372,22.5477437 C27.3207762,22.5477437 27.1920774,22.4177903 27.1920774,22.2574489 L27.1920774,4.11715232 L4.07467772,4.11715232 L4.07467772,27.476052 L24.2699513,27.476052 C24.4286356,27.476052 24.557246,27.6060947 24.557246,27.7664361 C24.557246,27.9266882 24.4286356,28.0567309 24.2699513,28.0567309" id="Fill-27" fill="#212529"></path>
                    </g>
                    <g id="icono" transform="translate(14.7, 9.3669)">
                        <mask id="mask-4" fill="white">
                            <use xlink:href="#path-3"></use>
                        </mask>
                        <g id="Clip-2"></g>
                        <path d="M4.66666667,6.17232475 C4.66336185,6.13529897 4.66165614,6.09774424 4.66165614,6.05987216 C4.66165614,6.02200007 4.66336185,5.98444535 4.66666667,5.94741957 L3.28664091,5.94741957 C3.23365731,5.67311142 2.99070028,5.46576705 2.6987041,5.46576705 C2.36811624,5.46576705 2.1,5.73171795 2.1,6.05987216 C2.1,6.38802637 2.36811624,6.65397727 2.6987041,6.65397727 C2.99070028,6.65397727 3.23365731,6.4466329 3.28664091,6.17232475 L4.66666667,6.17232475 Z M5.36666667,7.0059433 C5.2996153,6.97373936 5.23577659,6.93541668 5.17608325,6.89161932 C4.95223324,7.29277306 4.7285905,7.69403414 4.50536229,8.09540257 C4.24689843,8.00265523 3.95319893,8.10946496 3.81142725,8.36376874 C3.65069051,8.65210134 3.74603403,9.0207291 4.02439567,9.18722347 C4.30265367,9.35361049 4.65853373,9.25485174 4.81916684,8.96651914 C4.96114579,8.71189332 4.90331787,8.39457717 4.69604934,8.20929717 L5.36666667,7.0059433 Z M6.72410783,6.89161932 C6.6642123,6.93552402 6.60037901,6.97384671 6.53333333,7.006158 L7.20389376,8.20951187 C6.99685007,8.39479186 6.93902705,8.71189332 7.08089032,8.96651914 C7.2415098,9.25485174 7.59735967,9.35361049 7.87569769,9.18722347 C8.15393208,9.0207291 8.24926751,8.65210134 8.08864803,8.36376874 C7.94678476,8.10935761 7.65311018,8.00265523 7.39477188,8.09550992 C7.17145899,7.69403414 6.94783522,7.29277306 6.72410783,6.89161932 L6.72410783,6.89161932 Z M7.23333333,5.94741957 C7.23674461,5.98444535 7.23845025,6.02200007 7.23845025,6.05987216 C7.23845025,6.09774424 7.23674461,6.13529897 7.23333333,6.17232475 L8.61330177,6.17232475 C8.66628317,6.4466329 8.90933671,6.65397727 9.20132076,6.65397727 C9.53189489,6.65397727 9.8,6.38802637 9.8,6.05987216 C9.8,5.73171795 9.53189489,5.46576705 9.20132076,5.46576705 C8.90933671,5.46576705 8.66628317,5.67311142 8.61330177,5.94741957 L7.23333333,5.94741957 Z M6.53333333,4.87719661 C6.59979521,4.9090886 6.66304286,4.94710127 6.7223505,4.99048295 L7.39339771,3.78664108 C7.65209098,3.88006205 7.94655545,3.77332591 8.08860346,3.51861956 C8.2493147,3.23019575 8.1539248,2.8614514 7.87553145,2.69490437 C7.59703441,2.52846472 7.24098124,2.6272547 7.08026999,2.91567851 C6.9381183,3.170707 6.99628541,3.48844566 7.2040695,3.6735695 C6.98083639,4.07495751 6.75718855,4.47613075 6.53333333,4.87719661 L6.53333333,4.87719661 Z M5.94994547,4.99048295 C5.37005972,4.99048295 4.9,5.46930897 4.9,6.05987216 C4.9,6.65043535 5.37005972,7.12926136 5.94994547,7.12926136 C6.52983121,7.12926136 7,6.65043535 7,6.05987216 C7,5.46930897 6.52983121,4.99048295 5.94994547,4.99048295 L5.94994547,4.99048295 Z M4.69591614,3.673629 C4.90380836,3.48840615 4.96197671,3.17068185 4.81982198,2.91566488 C4.6590036,2.62725411 4.3029428,2.52846859 4.02454348,2.69490071 C3.74604048,2.86144022 3.65064854,3.23016791 3.81146691,3.51857869 C3.95351796,3.77327353 4.24778137,3.88000484 4.50648018,3.78669548 L5.17754177,4.99048295 C5.23685067,4.94710323 5.30009968,4.90909228 5.36666667,4.87709436 C5.14280666,4.47604661 4.91915402,4.0748915 4.69591614,3.673629 L4.69591614,3.673629 Z M5.94994583,0 C9.23613784,0 11.9,2.65993964 11.9,5.94105114 C11.9,9.22216263 9.23613784,11.8821023 5.94994583,11.8821023 C2.66386216,11.8821023 0,9.22216263 0,5.94105114 C0,2.65993964 2.66386216,0 5.94994583,0 L5.94994583,0 Z" id="Fill-1" fill="#212529" style="mix-blend-mode: overlay;" mask="url(#mask-4)"></path>
                    </g>
                </g>
            </g>
        </g>
    </g>
</svg>