<?xml version="1.0" encoding="UTF-8"?>
<svg width="32px" height="32px" viewBox="0 0 32 32" version="1.1" xmlns="http://www.w3.org/2000/svg" xmlns:xlink="http://www.w3.org/1999/xlink">
    <title>Ico 1</title>
    <g id="Page-1" stroke="none" stroke-width="1" fill="none" fill-rule="evenodd">
        <g id="Tein-Soluciones--I" transform="translate(-266, -254)">
            <g id="ENTORNO-DE-USUARIO" transform="translate(49, 136)">
                <g id="Radial" transform="translate(121, 111)">
                    <g id="Ico-1" transform="translate(97, 8)">
                        <path d="M8.72577413,11 C8.75165217,11 8.77802786,10.9948381 8.80291059,10.9835759 C8.86909865,10.9540126 10.4247669,10.2473076 10.8711631,8.90475597 C11.316564,7.56267358 10.4670676,6.14504038 10.4307388,6.08544442 C10.3839593,6.00801659 10.2829354,5.97892249 10.1973388,6.015994 C10.1311507,6.04602661 8.57548244,6.75226228 8.12908626,8.09481394 C7.68318774,9.43689634 8.53268414,10.8549988 8.56901293,10.9145948 C8.60235579,10.9690289 8.66306965,11 8.72577413,11" id="Fill-1" fill="#212529"></path>
                        <path d="M7.19353894,14.9835837 C7.21843819,14.9943715 7.24483139,15 7.2712246,15 C7.33347273,15 7.3942269,14.9690435 7.4275919,14.914635 C7.46394481,14.8550671 8.3159972,13.4395093 7.87229253,12.0971214 C7.42808989,10.7542645 5.87288263,10.0455475 5.80714861,10.0159981 C5.72249115,9.97894408 5.61990624,10.0080245 5.57309564,10.0849468 C5.53624475,10.1445146 4.68369438,11.5605415 5.12789702,12.9024603 C5.57209967,14.2453172 7.12730693,14.9540342 7.19353894,14.9835837" id="Fill-3" fill="#212529"></path>
                        <path d="M8.85510303,19.9722516 C8.94144033,19.9589111 9.00435634,19.871397 8.99976393,19.7705423 C8.99654924,19.6926335 8.90653802,17.8441652 7.84982459,16.8180092 C6.79402964,15.7923868 5.21240381,16.0181091 5.14535463,16.0271807 C5.05901733,16.0405213 4.99564208,16.128569 5.00023449,16.22889 C5.00344918,16.3073325 5.09391964,18.1558007 6.15017383,19.1814231 C6.87347833,19.8842039 7.84293597,20 8.40366917,20 C8.66222183,20 8.83397795,19.9754534 8.85510303,19.9722516" id="Fill-5" fill="#212529"></path>
                        <path d="M12.9526945,22.4695273 C12.9009183,22.4118814 11.6690775,21.0548658 10.0532302,21.0018939 C8.42336022,20.944248 7.11169781,22.2212864 7.05668565,22.2758163 C6.98495412,22.3454069 6.98063944,22.456544 7.04751696,22.5308086 C7.09875377,22.5889738 8.33113395,23.9454701 9.94752056,23.998442 C9.98041999,23.9994807 10.0127801,24 10.0456795,24 C11.6162227,24 12.8890529,22.7780108 12.9435258,22.7250389 C13.0152573,22.654929 13.0190326,22.5437919 12.9526945,22.4695273" id="Fill-7" fill="#212529"></path>
                        <path d="M21.1972567,10.9835759 C21.2221419,10.9943689 21.2485203,11 21.2744009,11 C21.3371117,11 21.3978317,10.9690289 21.4311779,10.9145948 C21.4675104,10.8549988 22.3170923,9.43689634 21.8706512,8.09481394 C21.4247078,6.75226228 19.8688828,6.04555735 19.8031858,6.015994 C19.7170829,5.97892249 19.6165465,6.00801659 19.5692646,6.08544442 C19.5329321,6.14457112 18.6828525,7.56220432 19.1292936,8.90475597 C19.5757348,10.2473076 21.1315597,10.9540126 21.1972567,10.9835759" id="Fill-9" fill="#212529"></path>
                        <path d="M22.5725165,14.9150996 C22.6058766,14.9690418 22.6666217,15 22.7293584,15 C22.7552498,15 22.781639,14.9948403 22.8065346,14.9840519 C22.8727567,14.9545009 24.4282297,14.2452775 24.8723661,12.902819 C25.3160045,11.5603605 24.4635814,10.1447282 24.4272339,10.0851572 C24.3799324,10.0082309 24.2778607,9.97867989 24.1932159,10.0162049 C24.1269938,10.0457559 22.5720186,10.7545102 22.1278823,12.0974378 C21.6837459,13.4394272 22.5361691,14.8550595 22.5725165,14.9150996" id="Fill-11" fill="#212529"></path>
                        <path d="M24.855103,16.0271843 C24.7885131,16.0181115 23.2068873,15.7923591 22.1501738,16.8181183 C21.0939196,17.8438776 21.0034492,19.6925924 21.0002345,19.7710454 C20.9956421,19.8713798 21.0590173,19.9594393 21.1453546,19.9727816 C21.1664797,19.9754501 21.3377766,20 21.5963292,20 C22.1570624,20 23.1265201,19.8847222 23.8498246,19.1818476 C24.906538,18.1555547 24.9965492,16.3068398 24.9997639,16.2289205 C25.0043563,16.1280524 24.9414403,16.0405267 24.855103,16.0271843" id="Fill-13" fill="#212529"></path>
                        <path d="M19.9471481,21.0011827 C18.3313891,21.0541764 17.0990763,22.4112295 17.047303,22.4694186 C16.9809684,22.5437136 16.9847435,22.6548964 17.0564711,22.7245155 C17.110941,22.7775092 18.3837017,24 19.9546983,24 C19.9870567,24 20.0199543,24 20.0528519,23.9984414 C21.6691502,23.9454477 22.9009237,22.5883946 22.952697,22.530725 C23.0190316,22.45643 23.0152565,22.3452472 22.9435289,22.2751086 C22.8879804,22.2210758 21.5709966,20.9559822 19.9471481,21.0011827" id="Fill-15" fill="#212529"></path>
                        <path d="M12.8967809,16.1191295 L12.4617003,18.7798321 C12.4503288,18.8503693 12.4780158,18.9219437 12.5333897,18.9639548 C12.5882692,19.0064846 12.6619362,19.0116711 12.7217598,18.9779585 L15,17.721775 L17.2777458,18.9779585 C17.3044439,18.9929995 17.3326253,18.9997421 17.361301,18.9997421 C17.3983818,18.9997421 17.4354625,18.987813 17.4666103,18.9639548 C17.5219842,18.9219437 17.5496712,18.8503693 17.5382997,18.7798321 L17.1032191,16.1191295 L18.9458843,14.2348542 C18.9948309,14.1845446 19.0121352,14.1098582 18.99137,14.0419144 C18.9701104,13.9734518 18.9137477,13.9236609 18.846508,13.9138065 L16.2993089,13.5253335 L15.1606832,11.1047684 C15.1305242,11.0404551 15.0682285,11 15,11 C14.9317715,11 14.8694758,11.0404551 14.8393168,11.1047684 L13.7001967,13.5253335 L11.153492,13.9138065 C11.0862523,13.9236609 11.0298896,13.9734518 11.00863,14.0419144 C10.9878648,14.1098582 11.0051691,14.1845446 11.0541157,14.2348542 L12.8967809,16.1191295 Z" id="Fill-17" fill="#212529"></path>
                        <path d="M14.8666894,23.1491906 C14.8620947,23.1448155 14.8561216,23.1430655 14.8515269,23.1386904 C14.8469322,23.1343153 14.8450943,23.1281902 14.8404996,23.1242526 C14.8198235,23.1058772 14.7940933,23.0984396 14.7711198,23.0840018 C14.7430922,23.0665014 14.7173619,23.046376 14.6865775,23.0345632 C14.656712,23.023188 14.6254681,23.0201254 14.5942243,23.0140003 C14.5625209,23.0083127 14.5321959,23 14.5000331,23 C14.4678703,23 14.4375453,23.0083127 14.405842,23.0140003 C14.3745981,23.0201254 14.3438136,23.023188 14.3139482,23.0345632 C14.2831637,23.046376 14.256974,23.0665014 14.2289464,23.0840018 C14.2059729,23.098002 14.1807021,23.1058772 14.160026,23.1242526 C14.1549719,23.1281902 14.1535935,23.1343153 14.1489988,23.1386904 C14.1444041,23.1430655 14.1379715,23.1448155 14.1333768,23.1491906 L12.1333083,25.2002333 C11.9458449,25.3927373 11.9573316,25.6937436 12.1599575,25.8731224 C12.2559865,25.9579991 12.3782052,26 12.4999645,26 C12.6341295,26 12.767835,25.9488114 12.8666208,25.8477468 L14.5000331,24.1729619 L16.1334454,25.8477468 C16.2317718,25.9488114 16.3659367,26 16.5001017,26 C16.621861,26 16.7436203,25.9579991 16.8401088,25.8731224 C17.0427346,25.6937436 17.0542213,25.3927373 16.8662985,25.2002333 L14.8666894,23.1491906 Z" id="Fill-19" fill="#212529"></path>
                        <path d="M30,15 C30,23.2845 23.2845,30 15,30 C6.7155,30 0,23.2845 0,15 C0,6.7155 6.7155,0 15,0 C23.2845,0 30,6.7155 30,15 Z" id="Stroke-21" stroke="#000000"></path>
                    </g>
                </g>
            </g>
        </g>
    </g>
</svg>