<?xml version="1.0" encoding="UTF-8"?>
<svg width="28px" height="31px" viewBox="0 0 28 31" version="1.1" xmlns="http://www.w3.org/2000/svg" xmlns:xlink="http://www.w3.org/1999/xlink">
    <title>Icono Copy 3</title>
    <defs>
        <polygon id="path-1" points="0 0 24.5 0 24.5 24.9303452 0 24.9303452"></polygon>
        <polygon id="path-3" points="0 0 11.8461538 0 11.8461538 11.8461538 0 11.8461538"></polygon>
    </defs>
    <g id="Page-1" stroke="none" stroke-width="1" fill="none" fill-rule="evenodd">
        <g id="Tein---Entorno-del-usuario" transform="translate(-466, -569)">
            <g id="Entornos---Links" transform="translate(466, 403.9048)">
                <g id="Icono-Copy-3" transform="translate(0, 165.0952)">
                    <g id="Group">
                        <g id="Group-3">
                            <mask id="mask-2" fill="white">
                                <use xlink:href="#path-1"></use>
                            </mask>
                            <g id="Clip-2"></g>
                            <path d="M24.5,12.4651636 C24.5,19.3494498 19.0155345,24.9303452 12.25,24.9303452 C5.48446548,24.9303452 0,19.3494498 0,12.4651636 C0,5.58078665 5.48446548,-1.8135394e-05 12.25,-1.8135394e-05 C19.0155345,-1.8135394e-05 24.5,5.58078665 24.5,12.4651636" id="Fill-1" fill="#F7D719" mask="url(#mask-2)"></path>
                            <rect id="Rectangle" fill="#2A8E89" mask="url(#mask-2)" x="0" y="0" width="24.4085821" height="24.8373216" rx="4"></rect>
                        </g>
                        <path d="M24.8335609,26.4699169 L24.8335609,29.32664 L27.1496587,27.8982784 L24.8335609,26.4699169 Z M24.5501138,30.1538462 C24.5011563,30.1538462 24.4521988,30.1403297 24.4083902,30.1132968 C24.3206857,30.0592311 24.2666667,29.9592094 24.2666667,29.8509847 L24.2666667,25.945479 C24.2666667,25.8373475 24.3206857,25.7373258 24.4083902,25.6832601 C24.4960075,25.6291011 24.60422,25.6291011 24.6918373,25.6832601 L27.8582765,27.6361527 C27.945981,27.6902185 28,27.7901469 28,27.8982784 C28,28.00641 27.945981,28.1065249 27.8582765,28.1605906 L24.6918373,30.1132968 C24.6480287,30.1403297 24.5989839,30.1538462 24.5501138,30.1538462 L24.5501138,30.1538462 Z" id="Fill-25" fill="#212529"></path>
                        <path d="M24.2699513,28.2543913 L3.78738309,28.2543913 C3.6286988,28.2543913 3.5,28.1234324 3.5,27.9620513 L3.5,3.85381782 C3.5,3.69234681 3.6286988,3.56147789 3.78738309,3.56147789 L27.479372,3.56147789 C27.6380563,3.56147789 27.7666667,3.69234681 27.7666667,3.85381782 L27.7666667,22.4142531 C27.7666667,22.5757241 27.6380563,22.7065931 27.479372,22.7065931 C27.3207762,22.7065931 27.1920774,22.5757241 27.1920774,22.4142531 L27.1920774,4.14615775 L4.07467772,4.14615775 L4.07467772,27.6696214 L24.2699513,27.6696214 C24.4286356,27.6696214 24.557246,27.8005803 24.557246,27.9620513 C24.557246,28.1234324 24.4286356,28.2543913 24.2699513,28.2543913" id="Fill-27" fill="#212529"></path>
                    </g>
                    <g id="icono" transform="translate(15.0769, 7.5385)">
                        <mask id="mask-4" fill="white">
                            <use xlink:href="#path-3"></use>
                        </mask>
                        <g id="Clip-2"></g>
                        <path d="M7.30812652,6.62617133 C7.23478641,6.67535234 7.14645471,6.71827788 7.04625918,6.75484008 C6.74933957,6.86334031 6.33885065,6.92125743 5.92307692,6.92125743 C5.5073032,6.92125743 5.09681427,6.86334031 4.79989467,6.75484008 C4.69969913,6.71827788 4.61136744,6.67535234 4.53802732,6.62617133 L4.53813518,7.54044211 C4.53813518,7.89085686 5.15818269,8.06590245 5.92307692,8.06590245 C6.68797116,8.06590245 7.30812652,7.89085686 7.30812652,7.54044211 L7.30812652,6.62617133 Z M5.92307692,4.26947309 C5.15818269,4.26947309 4.53813518,4.44451868 4.53813518,4.79493343 C4.53813518,5.14524032 5.15818269,5.32028591 5.92307692,5.32028591 C6.68797116,5.32028591 7.30812652,5.14524032 7.30812652,4.79493343 C7.30812652,4.44451868 6.68797116,4.26947309 5.92307692,4.26947309 L5.92307692,4.26947309 Z M7.30812652,5.23357201 C7.22885449,5.29526399 7.13092387,5.34746489 7.0174624,5.39049828 C6.73790715,5.49651789 6.34888099,5.54958161 5.92307692,5.54958161 C5.49727286,5.54958161 5.1082467,5.49651789 4.82869145,5.39049828 C4.71522998,5.34746489 4.61729936,5.29526399 4.53802732,5.23357201 L4.53802732,6.2867576 C4.55959795,6.38436466 4.6882667,6.470755 4.87776461,6.53988884 C5.14912303,6.63900585 5.53135444,6.69196172 5.92307692,6.69196172 C6.31479941,6.69196172 6.69703082,6.63900585 6.96838923,6.53988884 C7.15788714,6.470755 7.2865559,6.38436466 7.30812652,6.2867576 L7.30812652,5.23357201 Z M5.53059947,9.66320696 C5.79235896,9.8032003 6.05379489,9.8032003 6.31555438,9.66320696 C8.55501629,8.49332431 9.18779047,6.65809585 9.28550538,4.37894399 C9.29877131,4.0633658 9.17862295,3.94224676 8.87005522,3.89673275 C7.89506313,3.74811117 7.00398076,3.34883897 6.25839223,2.7668636 C6.02359602,2.58211123 5.82255783,2.58211123 5.58776161,2.7668636 C4.84217309,3.34883897 3.95119857,3.74811117 2.97609863,3.89673275 C2.66763875,3.94224676 2.54738253,4.0633658 2.56075632,4.37894399 C2.65836338,6.65809585 3.29113756,8.49332431 5.53059947,9.66320696 L5.53059947,9.66320696 Z M5.92307692,0 C9.19436951,0 11.8461538,2.65178434 11.8461538,5.92307692 C11.8461538,9.19426165 9.19436951,11.8461538 5.92307692,11.8461538 C2.65189219,11.8461538 0,9.19426165 0,5.92307692 C0,2.65178434 2.65189219,0 5.92307692,0 L5.92307692,0 Z" id="Fill-1" fill="#212529" mask="url(#mask-4)"></path>
                    </g>
                </g>
            </g>
        </g>
    </g>
</svg>