<?xml version="1.0" encoding="UTF-8"?>
<svg width="32px" height="32px" viewBox="0 0 32 32" version="1.1" xmlns="http://www.w3.org/2000/svg" xmlns:xlink="http://www.w3.org/1999/xlink">
    <title>ico 2</title>
    <g id="Page-1" stroke="none" stroke-width="1" fill="none" fill-rule="evenodd">
        <g id="Tein-Soluciones--I" transform="translate(-354, -342)">
            <g id="ENTORNO-DE-USUARIO" transform="translate(49, 136)">
                <g id="Radial" transform="translate(121, 111)">
                    <g id="ico-2" transform="translate(185, 96)">
                        <path d="M30,15 C30,23.2845 23.2845,30 15,30 C6.7155,30 0,23.2845 0,15 C0,6.7155 6.7155,0 15,0 C23.2845,0 30,6.7155 30,15 Z" id="Stroke-1" stroke="#000000"></path>
                        <path d="M15.6027,5.8154 C15.5907,6.0549 15.3922,6.2449 15.1507,6.2449 C14.9087,6.2449 14.7102,6.0549 14.6982,5.8154 C14.6977,5.8079 14.6977,5.8004 14.6977,5.7924 C14.6977,5.5424 14.9007,5.3394 15.1507,5.3394 L15.1607,5.3394 C15.2427,5.3414 15.3192,5.3654 15.3852,5.4054 C15.3877,5.4069 15.3897,5.4084 15.3922,5.4099 C15.5187,5.4899 15.6032,5.6314 15.6032,5.7924 C15.6032,5.8004 15.6032,5.8079 15.6027,5.8154 M15.1507,4.3744 C14.3672,4.3744 13.7327,5.0094 13.7327,5.7924 C13.7327,6.4174 14.1372,6.9479 14.6982,7.1364 C14.8407,7.1844 14.9922,7.2099 15.1507,7.2099 C15.3087,7.2099 15.4607,7.1844 15.6027,7.1364 C16.1637,6.9479 16.5682,6.4174 16.5682,5.7924 C16.5682,5.0094 15.9337,4.3744 15.1507,4.3744" id="Fill-3" fill="#212529"></path>
                        <path d="M15.38515,5.4054 C15.31915,5.3654 15.24265,5.3414 15.16065,5.3394 C15.24215,5.3379 15.31865,5.3634 15.38515,5.4054" id="Fill-5" fill="#212529"></path>
                        <path d="M14.6883,23.9335 C14.7003,23.694 14.8988,23.504 15.1403,23.504 C15.3823,23.504 15.5808,23.694 15.5928,23.9335 C15.5933,23.941 15.5933,23.9485 15.5933,23.9565 C15.5933,24.2065 15.3903,24.4095 15.1403,24.4095 L15.1303,24.4095 C15.0483,24.4075 14.9718,24.3835 14.9058,24.3435 C14.9033,24.342 14.9013,24.3405 14.8988,24.339 C14.7723,24.259 14.6878,24.1175 14.6878,23.9565 C14.6878,23.9485 14.6878,23.941 14.6883,23.9335 M15.1403,25.3745 C15.9238,25.3745 16.5583,24.7395 16.5583,23.9565 C16.5583,23.3315 16.1538,22.801 15.5928,22.6125 C15.4503,22.5645 15.2988,22.539 15.1403,22.539 C14.9823,22.539 14.8303,22.5645 14.6883,22.6125 C14.1273,22.801 13.7228,23.3315 13.7228,23.9565 C13.7228,24.7395 14.3573,25.3745 15.1403,25.3745" id="Fill-7" fill="#212529"></path>
                        <path d="M14.90585,24.3435 C14.97185,24.3835 15.04835,24.4075 15.13035,24.4095 C15.04885,24.411 14.97235,24.3855 14.90585,24.3435" id="Fill-9" fill="#212529"></path>
                        <path d="M24.2046,15.33165 C23.9651,15.31965 23.7751,15.12115 23.7751,14.87965 C23.7751,14.63765 23.9651,14.43915 24.2046,14.42715 C24.2121,14.42665 24.2196,14.42665 24.2276,14.42665 C24.4776,14.42665 24.6806,14.62965 24.6806,14.87965 L24.6806,14.88965 C24.6786,14.97165 24.6546,15.04815 24.6146,15.11415 C24.6131,15.11665 24.6116,15.11865 24.6101,15.12115 C24.5301,15.24765 24.3886,15.33215 24.2276,15.33215 C24.2196,15.33215 24.2121,15.33215 24.2046,15.33165 M25.6456,14.87965 C25.6456,14.09615 25.0106,13.46165 24.2276,13.46165 C23.6026,13.46165 23.0721,13.86615 22.8836,14.42715 C22.8356,14.56965 22.8101,14.72115 22.8101,14.87965 C22.8101,15.03765 22.8356,15.18965 22.8836,15.33165 C23.0721,15.89265 23.6026,16.29715 24.2276,16.29715 C25.0106,16.29715 25.6456,15.66265 25.6456,14.87965" id="Fill-11" fill="#212529"></path>
                        <path d="M24.61455,15.1141 C24.65455,15.0481 24.67855,14.9716 24.68055,14.8896 C24.68205,14.9711 24.65655,15.0476 24.61455,15.1141" id="Fill-13" fill="#212529"></path>
                        <path d="M6.08645,14.41725 C6.32595,14.42925 6.51595,14.62775 6.51595,14.86925 C6.51595,15.11125 6.32595,15.30975 6.08645,15.32175 C6.07895,15.32225 6.07145,15.32225 6.06345,15.32225 C5.81345,15.32225 5.61045,15.11925 5.61045,14.86925 L5.61045,14.85925 C5.61245,14.77725 5.63645,14.70075 5.67645,14.63475 C5.67795,14.63225 5.67945,14.63025 5.68095,14.62775 C5.76095,14.50125 5.90245,14.41675 6.06345,14.41675 C6.07145,14.41675 6.07895,14.41675 6.08645,14.41725 M4.64545,14.86925 C4.64545,15.65275 5.28045,16.28725 6.06345,16.28725 C6.68845,16.28725 7.21895,15.88275 7.40745,15.32175 C7.45545,15.17925 7.48095,15.02775 7.48095,14.86925 C7.48095,14.71125 7.45545,14.55925 7.40745,14.41725 C7.21895,13.85625 6.68845,13.45175 6.06345,13.45175 C5.28045,13.45175 4.64545,14.08625 4.64545,14.86925" id="Fill-15" fill="#212529"></path>
                        <path d="M5.67645,14.6348 C5.63645,14.7008 5.61245,14.7773 5.61045,14.8593 C5.60895,14.7778 5.63445,14.7013 5.67645,14.6348" id="Fill-17" fill="#212529"></path>
                        <path d="M9.06305,8.14545 C9.22405,8.32345 9.21805,8.59795 9.04705,8.76895 C8.87605,8.93995 8.60155,8.94595 8.42355,8.78495 C8.41805,8.77995 8.41255,8.77445 8.40705,8.76895 C8.23055,8.59245 8.23055,8.30545 8.40705,8.12895 L8.41405,8.12145 C8.47355,8.06495 8.54455,8.02745 8.61955,8.00945 C8.62205,8.00845 8.62455,8.00845 8.62755,8.00745 C8.77355,7.97445 8.93355,8.01495 9.04705,8.12895 C9.05255,8.13445 9.05805,8.13995 9.06305,8.14545 M7.72455,7.44645 C7.17055,7.99995 7.17105,8.89795 7.72455,9.45145 C8.16655,9.89345 8.82755,9.98245 9.35755,9.71895 C9.49205,9.65245 9.61755,9.56345 9.72955,9.45145 C9.84155,9.33945 9.93055,9.21395 9.99705,9.07945 C10.26055,8.54945 10.17155,7.88845 9.72955,7.44645 C9.17605,6.89295 8.27805,6.89245 7.72455,7.44645" id="Fill-19" fill="#212529"></path>
                        <path d="M8.61935,8.00935 C8.54435,8.02735 8.47335,8.06535 8.41385,8.12185 C8.47035,8.06285 8.54285,8.02635 8.61935,8.00935" id="Fill-21" fill="#212529"></path>
                        <path d="M21.22795,21.60345 C21.06695,21.42545 21.07295,21.15095 21.24395,20.97995 C21.41495,20.80895 21.68945,20.80295 21.86745,20.96395 C21.87295,20.96895 21.87845,20.97445 21.88395,20.97995 C22.06045,21.15645 22.06045,21.44345 21.88395,21.61995 L21.87695,21.62745 C21.81745,21.68395 21.74645,21.72145 21.67145,21.73945 C21.66895,21.74045 21.66645,21.74045 21.66345,21.74145 C21.51745,21.77445 21.35745,21.73395 21.24395,21.61995 C21.23845,21.61445 21.23295,21.60895 21.22795,21.60345 M22.56645,22.30245 C23.12045,21.74895 23.11995,20.85095 22.56645,20.29745 C22.12445,19.85545 21.46345,19.76645 20.93345,20.02995 C20.79895,20.09645 20.67345,20.18545 20.56145,20.29745 C20.44945,20.40945 20.36045,20.53495 20.29395,20.66945 C20.03045,21.19945 20.11945,21.86045 20.56145,22.30245 C21.11495,22.85595 22.01295,22.85645 22.56645,22.30245" id="Fill-23" fill="#212529"></path>
                        <path d="M21.67165,21.73955 C21.74665,21.72155 21.81765,21.68355 21.87715,21.62705 C21.82065,21.68605 21.74815,21.72255 21.67165,21.73955" id="Fill-25" fill="#212529"></path>
                        <path d="M21.87455,8.792 C21.69655,8.953 21.42205,8.947 21.25105,8.776 C21.08005,8.605 21.07405,8.3305 21.23505,8.1525 C21.24005,8.147 21.24555,8.1415 21.25105,8.136 C21.42755,7.9595 21.71455,7.9595 21.89105,8.136 L21.89855,8.143 C21.95505,8.2025 21.99255,8.2735 22.01055,8.3485 C22.01155,8.351 22.01155,8.3535 22.01255,8.3565 C22.04555,8.5025 22.00505,8.6625 21.89105,8.776 C21.88555,8.7815 21.88005,8.787 21.87455,8.792 M22.57355,7.4535 C22.02005,6.8995 21.12205,6.9 20.56855,7.4535 C20.12655,7.8955 20.03755,8.5565 20.30105,9.0865 C20.36755,9.221 20.45655,9.3465 20.56855,9.4585 C20.68055,9.5705 20.80605,9.6595 20.94055,9.726 C21.47055,9.9895 22.13155,9.9005 22.57355,9.4585 C23.12705,8.905 23.12755,8.007 22.57355,7.4535" id="Fill-27" fill="#212529"></path>
                        <path d="M22.0106,8.3483 C21.9926,8.2733 21.9546,8.2023 21.8981,8.1428 C21.9571,8.1993 21.9936,8.2718 22.0106,8.3483" id="Fill-29" fill="#212529"></path>
                        <path d="M8.4165,20.9569 C8.5945,20.7959 8.869,20.8019 9.04,20.9729 C9.211,21.1439 9.217,21.4184 9.056,21.5964 C9.051,21.6019 9.0455,21.6074 9.04,21.6129 C8.8635,21.7894 8.5765,21.7894 8.4,21.6129 L8.3925,21.6059 C8.336,21.5464 8.2985,21.4754 8.2805,21.4004 C8.2795,21.3979 8.2795,21.3954 8.2785,21.3924 C8.2455,21.2464 8.286,21.0864 8.4,20.9729 C8.4055,20.9674 8.411,20.9619 8.4165,20.9569 M7.7175,22.2954 C8.271,22.8494 9.169,22.8489 9.7225,22.2954 C10.1645,21.8534 10.2535,21.1924 9.99,20.6624 C9.9235,20.5279 9.8345,20.4024 9.7225,20.2904 C9.6105,20.1784 9.485,20.0894 9.3505,20.0229 C8.8205,19.7594 8.1595,19.8484 7.7175,20.2904 C7.164,20.8439 7.1635,21.7419 7.7175,22.2954" id="Fill-31" fill="#212529"></path>
                        <path d="M8.28045,21.4006 C8.29845,21.4756 8.33645,21.5466 8.39295,21.6061 C8.33395,21.5496 8.29745,21.4771 8.28045,21.4006" id="Fill-33" fill="#212529"></path>
                        <path d="M15.0968,13.75665 C15.0658,13.69265 15.0298,13.63165 14.9893,13.57315 C14.9438,13.51965 14.8938,13.47015 14.8408,13.42415 C14.7823,13.38365 14.7208,13.34765 14.6568,13.31665 C14.5883,13.29215 14.5183,13.27265 14.4468,13.25915 C14.3728,13.25315 14.2988,13.25315 14.2253,13.25915 C14.1538,13.27265 14.0833,13.29215 14.0148,13.31665 C13.9508,13.34765 13.8898,13.38365 13.8313,13.42415 C13.7778,13.47015 13.7283,13.51965 13.6828,13.57315 C13.6423,13.63165 13.6063,13.69265 13.5753,13.75665 C13.5503,13.82565 13.5308,13.89665 13.5173,13.96865 C13.5078,14.09015 13.5123,14.21365 13.5123,14.33515 L13.5123,14.90115 L14.7578,14.90115 L15.1598,14.90115 L15.1598,14.89315 L15.1598,14.27665 C15.1598,14.17415 15.1623,14.07065 15.1543,13.96765 C15.1408,13.89615 15.1218,13.82565 15.0968,13.75665" id="Fill-35" fill="#212529"></path>
                        <path d="M17.8063,13.24745 L17.8063,14.23095 L17.8063,15.37695 L17.8063,16.31795 L17.8063,16.71345 C17.8063,16.84745 17.7503,16.96595 17.6618,17.06295 C17.5723,17.15995 17.4398,17.20195 17.3123,17.20745 C17.1888,17.21295 17.0483,17.14845 16.9628,17.06295 C16.8733,16.97295 16.8178,16.83995 16.8178,16.71345 C16.8178,16.71095 16.8178,16.70895 16.8178,16.70645 C16.8163,16.54645 16.8178,16.38595 16.8178,16.22595 L16.8178,15.24245 L16.8178,14.09645 L16.8178,13.15545 L16.8178,12.75995 C16.8178,12.62595 16.8738,12.50695 16.9628,12.41045 C17.0518,12.31345 17.1843,12.27145 17.3123,12.26545 C17.4353,12.25995 17.5758,12.32495 17.6618,12.41045 C17.7513,12.49995 17.8063,12.63295 17.8063,12.75995 C17.8063,12.76195 17.8063,12.76445 17.8063,12.76695 C17.8083,12.92695 17.8063,13.08745 17.8063,13.24745 L17.8063,13.24745 Z M16.1478,15.20295 L16.1478,16.22695 L16.1478,16.71345 C16.1478,16.84745 16.0918,16.96595 16.0033,17.06295 C15.9143,17.15995 15.7818,17.20195 15.6538,17.20745 C15.5308,17.21295 15.3903,17.14845 15.3043,17.06295 C15.2148,16.97295 15.1598,16.83995 15.1598,16.71345 L15.1598,16.36845 L15.1598,15.88995 L13.9143,15.88995 L13.5123,15.88995 L13.5123,16.71345 C13.5123,16.84745 13.4563,16.96595 13.3678,17.06295 C13.2788,17.15995 13.1458,17.20195 13.0183,17.20745 C12.8953,17.21295 12.7543,17.14845 12.6688,17.06295 C12.5793,16.97295 12.523795,16.83995 12.523795,16.71345 L12.523795,16.67995 L12.523795,16.00295 L12.523795,14.94745 L12.523795,14.16645 C12.523795,14.08695 12.5233,14.00795 12.5323,13.92895 C12.5503,13.76745 12.5743,13.60995 12.6348,13.45845 C12.6943,13.30995 12.7583,13.16745 12.8543,13.03895 C12.9488,12.91145 13.0468,12.79195 13.1713,12.69295 C13.2968,12.59295 13.4213,12.50295 13.5688,12.43895 C13.6598,12.39895 13.7513,12.35945 13.8473,12.33245 C13.9263,12.30995 14.0063,12.29795 14.0878,12.28695 C14.2308,12.26795 14.3693,12.25895 14.5128,12.27745 C14.6143,12.29045 14.7153,12.30245 14.8143,12.32945 C14.8918,12.35045 14.9653,12.38045 15.0393,12.41195 C15.1128,12.44295 15.1848,12.47445 15.2538,12.51495 C15.3383,12.56495 15.4148,12.62545 15.4923,12.68595 C15.6178,12.78495 15.7158,12.90295 15.8113,13.02995 C15.9083,13.15895 15.9728,13.29945 16.0333,13.44845 C16.1428,13.71945 16.1478,14.00845 16.1478,14.29545 L16.1478,15.20295 Z M15.1303,9.67095 C12.2653,9.67095 9.9423,11.99395 9.9423,14.85945 C9.9423,17.72495 12.2653,20.04745 15.1303,20.04745 C17.9958,20.04745 20.3188,17.72495 20.3188,14.85945 C20.3188,11.99395 17.9958,9.67095 15.1303,9.67095 L15.1303,9.67095 Z" id="Fill-37" fill="#212529"></path>
                        <path d="M15.13045,8.792 C15.28945,8.792 15.44695,8.798 15.60295,8.81 L15.60295,5.8155 C15.59045,6.055 15.39245,6.245 15.15045,6.245 C14.90895,6.245 14.71045,6.055 14.69845,5.8155 L14.69845,8.8075 C14.84095,8.7975 14.98495,8.792 15.13045,8.792" id="Fill-39" fill="#212529"></path>
                        <path d="M19.109,10.2786 C19.337,10.4766 19.5495,10.6916 19.7455,10.9211 L21.8745,8.7921 C21.6965,8.9531 21.422,8.9471 21.251,8.7761 C21.08,8.6051 21.074,8.3306 21.235,8.1526 L19.109,10.2786 Z" id="Fill-41" fill="#212529"></path>
                        <path d="M23.775,14.87945 C23.775,14.63795 23.965,14.43945 24.2045,14.42745 L21.185,14.42745 C21.184,14.42745 21.183,14.42745 21.1825,14.42745 C21.1925,14.56995 21.198,14.71395 21.198,14.85945 C21.198,15.01795 21.1915,15.17545 21.1795,15.33145 C21.1815,15.33145 21.183,15.33145 21.185,15.33145 L24.2045,15.33145 C23.965,15.31945 23.775,15.12095 23.775,14.87945" id="Fill-43" fill="#212529"></path>
                        <path d="M19.7323,18.82885 C19.7298,18.82635 19.7273,18.82435 19.7248,18.82235 C19.5278,19.05035 19.3143,19.26385 19.0858,19.46035 C19.0883,19.46285 19.0903,19.46585 19.0928,19.46835 L21.2278,21.60335 C21.0668,21.42535 21.0733,21.15085 21.2438,20.97985 C21.4148,20.80885 21.6893,20.80285 21.8673,20.96385 L19.7323,18.82885 Z" id="Fill-45" fill="#212529"></path>
                        <path d="M15.13045,20.92675 C14.98195,20.92675 14.83445,20.92125 14.68845,20.91075 C14.68845,20.91175 14.68845,20.91275 14.68845,20.91425 L14.68845,23.93375 C14.70045,23.69375 14.89895,23.50375 15.14045,23.50375 C15.38195,23.50375 15.58045,23.69375 15.59245,23.93375 L15.59245,20.91425 C15.59245,20.91225 15.59245,20.91075 15.59245,20.90925 C15.43995,20.92075 15.28595,20.92675 15.13045,20.92675" id="Fill-47" fill="#212529"></path>
                        <path d="M11.18435,19.46795 C10.95535,19.27145 10.74035,19.05845 10.54285,18.83045 L8.41635,20.95695 C8.59435,20.79595 8.86885,20.80195 9.03985,20.97295 C9.21085,21.14395 9.21685,21.41845 9.05585,21.59645 L11.18435,19.46795 Z" id="Fill-49" fill="#212529"></path>
                        <path d="M6.08645,15.3216 L9.08045,15.3216 C9.06895,15.1691 9.06295,15.0151 9.06295,14.8596 C9.06295,14.7106 9.06845,14.5631 9.07945,14.4171 L6.08645,14.4171 C6.32595,14.4291 6.51595,14.6276 6.51595,14.8696 C6.51595,15.1111 6.32595,15.3096 6.08645,15.3216" id="Fill-51" fill="#212529"></path>
                        <path d="M11.1757,10.2581 L9.0632,8.1456 C9.2242,8.3236 9.2177,8.5981 9.0472,8.7691 C8.8762,8.9396 8.6017,8.9461 8.4237,8.7851 L10.5357,10.8971 C10.7327,10.6686 10.9467,10.4551 11.1757,10.2581" id="Fill-53" fill="#212529"></path>
                    </g>
                </g>
            </g>
        </g>
    </g>
</svg>