<?xml version="1.0" encoding="UTF-8"?>
<svg width="28px" height="31px" viewBox="0 0 28 31" version="1.1" xmlns="http://www.w3.org/2000/svg" xmlns:xlink="http://www.w3.org/1999/xlink">
    <title>Icono Copy 2</title>
    <defs>
        <polygon id="path-1" points="0 0 24.5 0 24.5 24.7559391 0 24.7559391"></polygon>
        <polygon id="path-3" points="0 0 11.6666667 0 11.6666667 11.8821023 0 11.8821023"></polygon>
    </defs>
    <g id="Page-1" stroke="none" stroke-width="1" fill="none" fill-rule="evenodd">
        <g id="Tein---Entorno-del-usuario" transform="translate(-466, -513)">
            <g id="Entornos---Links" transform="translate(466, 403.9048)">
                <g id="Icono-Copy-2" transform="translate(0, 110.0384)">
                    <g id="Group">
                        <g id="Group-3">
                            <mask id="mask-2" fill="white">
                                <use xlink:href="#path-1"></use>
                            </mask>
                            <g id="Clip-2"></g>
                            <path d="M24.5,12.3779605 C24.5,19.2140861 19.0155345,24.7559391 12.25,24.7559391 C5.48446548,24.7559391 0,19.2140861 0,12.3779605 C0,5.54174493 5.48446548,-1.80085235e-05 12.25,-1.80085235e-05 C19.0155345,-1.80085235e-05 24.5,5.54174493 24.5,12.3779605" id="Fill-1" fill="#F7D719" mask="url(#mask-2)"></path>
                            <rect id="Rectangle" fill="#2EB9AE" mask="url(#mask-2)" x="0" y="0" width="24.4085821" height="24.6635662" rx="4"></rect>
                        </g>
                        <path d="M24.8335609,26.2847403 L24.8335609,29.1214785 L27.1496587,27.7031094 L24.8335609,26.2847403 Z M24.5501138,29.9428977 C24.5011563,29.9428977 24.4521988,29.9294758 24.4083902,29.9026321 C24.3206857,29.8489445 24.2666667,29.7496226 24.2666667,29.642155 L24.2666667,25.7639712 C24.2666667,25.6565962 24.3206857,25.5572742 24.4083902,25.5035867 C24.4960075,25.4498066 24.60422,25.4498066 24.6918373,25.5035867 L27.8582765,27.4428174 C27.945981,27.4965049 28,27.5957343 28,27.7031094 C28,27.8104844 27.945981,27.9098989 27.8582765,27.9635865 L24.6918373,29.9026321 C24.6480287,29.9294758 24.5989839,29.9428977 24.5501138,29.9428977 L24.5501138,29.9428977 Z" id="Fill-25" fill="#212529"></path>
                        <path d="M24.2699513,28.0567309 L3.78738309,28.0567309 C3.6286988,28.0567309 3.5,27.9266882 3.5,27.7664361 L3.5,3.82685752 C3.5,3.66651612 3.6286988,3.53656272 3.78738309,3.53656272 L27.479372,3.53656272 C27.6380563,3.53656272 27.7666667,3.66651612 27.7666667,3.82685752 L27.7666667,22.2574489 C27.7666667,22.4177903 27.6380563,22.5477437 27.479372,22.5477437 C27.3207762,22.5477437 27.1920774,22.4177903 27.1920774,22.2574489 L27.1920774,4.11715232 L4.07467772,4.11715232 L4.07467772,27.476052 L24.2699513,27.476052 C24.4286356,27.476052 24.557246,27.6060947 24.557246,27.7664361 C24.557246,27.9266882 24.4286356,28.0567309 24.2699513,28.0567309" id="Fill-27" fill="#212529"></path>
                    </g>
                    <g id="icono" transform="translate(14.2333, 7.3669)">
                        <mask id="mask-4" fill="white">
                            <use xlink:href="#path-3"></use>
                        </mask>
                        <g id="Clip-2"></g>
                        <path d="M3.3902217,3.67218363 C3.3902217,3.82222985 3.50971912,3.9439328 3.65704618,3.9439328 C3.80437323,3.9439328 3.92387065,3.82222985 3.92387065,3.67218363 C3.92387065,3.52213742 3.80437323,3.40043447 3.65704618,3.40043447 C3.50971912,3.40043447 3.3902217,3.52213742 3.3902217,3.67218363 L3.3902217,3.67218363 Z M4.1729564,3.67218363 C4.1729564,3.82222985 4.29234761,3.9439328 4.43967466,3.9439328 C4.58710793,3.9439328 4.70660536,3.82222985 4.70660536,3.67218363 C4.70660536,3.52213742 4.58710793,3.40043447 4.43967466,3.40043447 C4.29234761,3.40043447 4.1729564,3.52213742 4.1729564,3.67218363 L4.1729564,3.67218363 Z M4.95558489,3.67218363 C4.95558489,3.82222985 5.07508232,3.9439328 5.22240937,3.9439328 C5.36984264,3.9439328 5.48923385,3.82222985 5.48923385,3.67218363 C5.48923385,3.52213742 5.36984264,3.40043447 5.22240937,3.40043447 C5.07508232,3.40043447 4.95558489,3.52213742 4.95558489,3.67218363 L4.95558489,3.67218363 Z M3.3902217,6.12539054 C3.3902217,6.27543675 3.50971912,6.3971397 3.65704618,6.3971397 C3.80437323,6.3971397 3.92387065,6.27543675 3.92387065,6.12539054 C3.92387065,5.97534432 3.80437323,5.85364137 3.65704618,5.85364137 C3.50971912,5.85364137 3.3902217,5.97534432 3.3902217,6.12539054 L3.3902217,6.12539054 Z M4.1729564,6.12539054 C4.1729564,6.27543675 4.29234761,6.3971397 4.43967466,6.3971397 C4.58710793,6.3971397 4.70660536,6.27543675 4.70660536,6.12539054 C4.70660536,5.97534432 4.58710793,5.85364137 4.43967466,5.85364137 C4.29234761,5.85364137 4.1729564,5.97534432 4.1729564,6.12539054 L4.1729564,6.12539054 Z M4.95558489,6.12539054 C4.95558489,6.27543675 5.07508232,6.3971397 5.22240937,6.3971397 C5.36984264,6.3971397 5.48923385,6.27543675 5.48923385,6.12539054 C5.48923385,5.97534432 5.36984264,5.85364137 5.22240937,5.85364137 C5.07508232,5.85364137 4.95558489,5.97534432 4.95558489,6.12539054 L4.95558489,6.12539054 Z M5.72036843,8.36407571 C5.60331406,8.40150612 5.51090272,8.49562307 5.47415062,8.61483787 L3.84239996,8.61483787 C3.79438855,8.45927446 3.65173518,8.3464423 3.48316414,8.3464423 C3.27539795,8.3464423 3.10682691,8.51812459 3.10682691,8.72983363 C3.10682691,8.94154267 3.27539795,9.11311679 3.48316414,9.11311679 C3.65173518,9.11311679 3.79438855,9.00039281 3.84239996,8.8448294 L5.47415062,8.8448294 C5.52205581,9.00039281 5.66470918,9.11322497 5.83328022,9.11322497 C6.00185126,9.11322497 6.14450464,9.00039281 6.19240983,8.8448294 L7.8242667,8.8448294 C7.87227811,9.00028463 8.01493149,9.11311679 8.18350253,9.11311679 C8.39126872,9.11311679 8.55983976,8.94154267 8.55983976,8.72983363 C8.55983976,8.51801641 8.39126872,8.3464423 8.18350253,8.3464423 C8.01493149,8.3464423 7.87227811,8.45927446 7.8242667,8.61483787 L6.19240983,8.61483787 C6.15565773,8.49562307 6.06324638,8.40150612 5.94619202,8.36407571 L5.94619202,7.25879657 L5.72036843,7.25879657 L5.72036843,8.36407571 Z M3.0188768,5.22208421 C2.78933552,5.22208421 2.67599885,5.33491636 2.67599885,5.57139871 L2.67599885,6.67949054 C2.67599885,6.91391746 2.7908226,7.02869686 3.0188768,7.02869686 L8.64778987,7.02869686 C8.87584407,7.02869686 8.99077404,6.91240294 8.99077404,6.67949054 L8.99077404,5.57139871 C8.99077404,5.33837814 8.87637517,5.22208421 8.64778987,5.22208421 L3.0188768,5.22208421 Z M3.0188768,2.7688773 C2.78933552,2.7688773 2.67599885,2.88170946 2.67599885,3.11819181 L2.67599885,4.22628364 C2.67599885,4.46071056 2.7908226,4.57548996 3.0188768,4.57548996 L8.64778987,4.57548996 C8.87584407,4.57548996 8.99077404,4.45919603 8.99077404,4.22628364 L8.99077404,3.11819181 C8.99077404,2.88517123 8.87637517,2.7688773 8.64778987,2.7688773 L3.0188768,2.7688773 Z M5.83328022,0 C9.0550371,0 11.6666667,2.65983146 11.6666667,5.94105114 C11.6666667,9.22216263 9.0550371,11.8821023 5.83328022,11.8821023 C2.61162957,11.8821023 0,9.22216263 0,5.94105114 C0,2.65983146 2.61162957,0 5.83328022,0 L5.83328022,0 Z" id="Fill-1" fill="#212529" mask="url(#mask-4)"></path>
                    </g>
                </g>
            </g>
        </g>
    </g>
</svg>