<?xml version="1.0" encoding="UTF-8"?>
<svg width="32px" height="32px" viewBox="0 0 32 32" version="1.1" xmlns="http://www.w3.org/2000/svg" xmlns:xlink="http://www.w3.org/1999/xlink">
    <title>ico 3</title>
    <g id="Page-1" stroke="none" stroke-width="1" fill="none" fill-rule="evenodd">
        <g id="Tein-Soluciones--I" transform="translate(-266, -431)">
            <g id="ENTORNO-DE-USUARIO" transform="translate(49, 136)">
                <g id="Radial" transform="translate(121, 111)">
                    <g id="ico-3" transform="translate(97, 185)">
                        <path d="M30,15 C30,23.2845 23.2845,30 15,30 C6.7155,30 0,23.2845 0,15 C0,6.7155 6.7155,0 15,0 C23.2845,0 30,6.7155 30,15 Z" id="Stroke-1" stroke="#000000"></path>
                        <path d="M21.2514,6.55175 C20.7884,6.20825 20.2954,5.90375 19.7784,5.63925 L15.4819,9.93625 L15.4819,9.97625 C15.4819,9.98475 15.4774,9.99175 15.4769,9.99975 C16.1214,10.05975 16.7284,10.24425 17.2789,10.52425 L21.2514,6.55175 Z" id="Fill-3" fill="#212529"></path>
                        <path d="M15.48165,4.5 L15.48165,8.591 L18.85215,5.2205 C17.80015,4.805 16.66665,4.553 15.48165,4.5" id="Fill-5" fill="#212529"></path>
                        <path d="M19.2342,12.299 L23.1577,8.3755 C22.8022,7.9385 22.4122,7.531 21.9922,7.156 L18.0997,11.0485 C18.5447,11.398 18.9287,11.8205 19.2342,12.299" id="Fill-7" fill="#212529"></path>
                        <path d="M20.00025,14.52315 C20.00875,14.52265 20.01575,14.51815 20.02425,14.51815 L20.74525,14.51815 L24.58225,10.68115 C24.33975,10.14515 24.05575,9.63165 23.73075,9.14765 L19.68525,13.19315 C19.84725,13.61265 19.95675,14.05765 20.00025,14.52315" id="Fill-9" fill="#212529"></path>
                        <path d="M20.00025,15.4648 C19.76275,18.0153 17.61875,20.0118 15.00625,20.0118 C13.97275,20.0118 13.01225,19.6993 12.21425,19.1633 C12.20975,19.1698 12.20875,19.1773 12.20375,19.1833 L8.74525,23.4253 C10.49475,24.7278 12.66175,25.4998 15.00625,25.4998 C20.63975,25.4998 25.25025,21.0428 25.50025,15.4698 L20.02425,15.4698 C20.01575,15.4698 20.00875,15.4653 20.00025,15.4648" id="Fill-11" fill="#212529"></path>
                        <path d="M11.485,18.567 C10.5615,17.657 9.988,16.393 9.988,14.994 C9.988,14.248 10.155,13.543 10.447,12.9065 C10.4395,12.903 10.431,12.9015 10.4235,12.897 L5.683,10.1595 C4.929,11.608 4.5,13.2515 4.5,14.994 C4.5,18.1015 5.857,20.897 8.009,22.8225 L11.4665,18.582 C11.472,18.5755 11.4795,18.573 11.485,18.567" id="Fill-13" fill="#212529"></path>
                        <path d="M10.9183,12.0905 C11.7423,10.933 13.0423,10.139 14.5353,10 C14.5348,9.9915 14.5303,9.9845 14.5303,9.976 L14.5303,4.5 C11.0168,4.6575 7.9493,6.549 6.1598,9.337 L10.8993,12.0735 C10.9068,12.078 10.9113,12.0855 10.9183,12.0905" id="Fill-15" fill="#212529"></path>
                        <path d="M25.5,14.5183 C25.455,13.5183 25.2685,12.5553 24.962,11.6463 L22.0905,14.5183 L25.5,14.5183 Z" id="Fill-17" fill="#212529"></path>
                        <path d="M12.215,13.9628 C12.1435,13.9733 12.084,14.0233 12.0615,14.0923 C12.039,14.1613 12.058,14.2368 12.11,14.2873 L13.42,15.5648 L13.1105,17.3678 C13.0985,17.4393 13.1275,17.5113 13.1865,17.5538 C13.2195,17.5778 13.259,17.5903 13.298,17.5903 C13.3285,17.5903 13.359,17.5833 13.3865,17.5683 L15.006,16.7168 L16.6255,17.5683 C16.6895,17.6023 16.767,17.5968 16.8255,17.5538 C16.8845,17.5113 16.914,17.4393 16.9015,17.3683 L16.5925,15.5648 L17.902,14.2873 C17.954,14.2368 17.973,14.1613 17.9505,14.0923 C17.928,14.0233 17.8685,13.9733 17.797,13.9628 L15.9865,13.7003 L15.1765,12.0593 C15.1125,11.9298 14.8995,11.9298 14.8355,12.0593 L14.026,13.7003 L12.215,13.9628 Z" id="Fill-19" fill="#212529"></path>
                    </g>
                </g>
            </g>
        </g>
    </g>
</svg>