<?xml version="1.0" encoding="UTF-8"?>
<svg width="32px" height="32px" viewBox="0 0 32 32" version="1.1" xmlns="http://www.w3.org/2000/svg" xmlns:xlink="http://www.w3.org/1999/xlink">
    <title>ico 4</title>
    <g id="Page-1" stroke="none" stroke-width="1" fill="none" fill-rule="evenodd">
        <g id="Tein-Soluciones--I" transform="translate(-178, -342)">
            <g id="ENTORNO-DE-USUARIO" transform="translate(49, 136)">
                <g id="Radial" transform="translate(121, 111)">
                    <g id="ico-4" transform="translate(9, 96)">
                        <path d="M30,15 C30,23.2845 23.2845,30 15,30 C6.7155,30 0,23.2845 0,15 C0,6.7155 6.7155,0 15,0 C23.2845,0 30,6.7155 30,15 Z" id="Stroke-1" stroke="#000000"></path>
                        <path d="M14.50805,17.80225 C14.72555,17.80225 14.94355,17.71925 15.10955,17.55275 L18.88705,13.77625 C19.21955,13.44375 19.21955,12.90525 18.88705,12.57275 C18.55455,12.24025 18.01605,12.24025 17.68355,12.57275 L14.50805,15.74775 L12.97955,14.21925 C12.64705,13.88725 12.10855,13.88725 11.77605,14.21925 C11.44405,14.55175 11.44405,15.09025 11.77605,15.42275 L13.90655,17.55275 C14.07255,17.71925 14.29055,17.80225 14.50805,17.80225" id="Fill-3" fill="#212529"></path>
                        <path d="M25.4803,14.9269 C25.4543,14.8819 25.4063,14.8539 25.3538,14.8539 L23.7833,14.8539 C23.7053,10.0774 19.7948,6.2154 14.9998,6.2154 C12.6443,6.2154 10.4328,7.1349 8.7718,8.8049 C8.7263,8.8509 8.7163,8.9204 8.7468,8.9774 L9.7618,10.8574 C9.7848,10.8999 9.8278,10.9284 9.8758,10.9334 C9.9243,10.9344 9.9718,10.9184 10.0028,10.8809 C11.2388,9.3829 13.0603,8.5239 14.9998,8.5239 C18.5218,8.5239 21.3963,11.3504 21.4743,14.8539 L19.8498,14.8539 C19.7978,14.8539 19.7493,14.8819 19.7238,14.9269 C19.6973,14.9719 19.6973,15.0279 19.7238,15.0729 L22.4758,19.8394 C22.5013,19.8844 22.5498,19.9124 22.6018,19.9124 C22.6543,19.9124 22.7023,19.8844 22.7283,19.8394 L25.4803,15.0729 C25.5068,15.0279 25.5068,14.9719 25.4803,14.9269" id="Fill-5" fill="#212529"></path>
                        <path d="M20.23815,19.1425 C20.21515,19.1 20.17215,19.0715 20.12415,19.0665 C20.07215,19.0615 20.02815,19.0815 19.99715,19.119 C18.76115,20.617 16.93965,21.476 15.00015,21.476 C11.47815,21.476 8.60315,18.6495 8.52565,15.146 L10.15015,15.146 C10.20215,15.146 10.25065,15.118 10.27665,15.073 C10.30265,15.028 10.30265,14.972 10.27665,14.927 L7.52415,10.1605 C7.47265,10.0705 7.32365,10.0705 7.27165,10.1605 L4.51965,14.927 C4.49365,14.972 4.49365,15.028 4.51965,15.073 C4.54565,15.118 4.59365,15.146 4.64615,15.146 L6.21665,15.146 C6.29465,19.9225 10.20515,23.7845 15.00015,23.7845 C17.35515,23.7845 19.56715,22.865 21.22815,21.195 C21.27365,21.1495 21.28365,21.0795 21.25315,21.0225 L20.23815,19.1425 Z" id="Fill-7" fill="#212529"></path>
                    </g>
                </g>
            </g>
        </g>
    </g>
</svg>