<?xml version="1.0" encoding="UTF-8"?><svg xmlns="http://www.w3.org/2000/svg" viewBox="0 0 32 32"><defs><style>.d{fill:#424359;}.e{fill:none;stroke:#424359;stroke-miterlimit:10;stroke-width:2px;}</style></defs><g id="a"/><g id="b"><g id="c"><g><circle class="e" cx="16" cy="16" r="15"/><g><path class="d" d="M21.36,14.57h-.57c-.09-.3-.21-.59-.35-.87l.31-.31c.16-.16,.25-.38,.25-.61s-.09-.45-.25-.61l-.92-.92c-.16-.16-.38-.25-.61-.25s-.45,.09-.61,.25l-.31,.31c-.28-.14-.56-.26-.87-.35v-.57c0-.39-.32-.71-.71-.71h-1.43c-.39,0-.71,.32-.71,.71v.57c-.3,.09-.59,.21-.87,.35l-.31-.31c-.16-.16-.38-.25-.61-.25s-.45,.09-.61,.25l-.92,.92c-.16,.16-.25,.38-.25,.61s.09,.45,.25,.61l.31,.31c-.14,.28-.26,.56-.35,.87h-.57c-.39,0-.71,.32-.71,.71v1.43c0,.39,.32,.71,.71,.71h.57c.09,.3,.21,.59,.35,.87l-.31,.31c-.16,.16-.25,.38-.25,.61s.09,.45,.25,.61l.92,.92c.16,.16,.38,.25,.61,.25s.45-.09,.61-.25l.31-.31c.28,.14,.56,.26,.87,.35v.57c0,.39,.32,.71,.71,.71h1.43c.39,0,.71-.32,.71-.71v-.57c.3-.09,.59-.21,.87-.35l.31,.31c.16,.16,.38,.25,.61,.25s.45-.09,.61-.25l.92-.92c.16-.16,.25-.38,.25-.61s-.09-.45-.25-.61l-.31-.31c.14-.28,.26-.56,.35-.87h.57c.39,0,.71-.32,.71-.71v-1.43c0-.39-.32-.71-.71-.71Zm-5.36,3.57c-1.18,0-2.14-.96-2.14-2.14s.96-2.14,2.14-2.14,2.14,.96,2.14,2.14-.96,2.14-2.14,2.14Z"/><path class="d" d="M10.3,12.6c.03-.26,.13-.51,.28-.73l-.41-.41c-.07-.07-.16-.1-.25-.1h-1.12c-.16-.62-.71-1.07-1.38-1.07-.79,0-1.43,.64-1.43,1.43s.64,1.43,1.43,1.43c.66,0,1.22-.46,1.38-1.07h.97l.52,.52Z"/><path class="d" d="M9.21,9.21c.26,0,.51-.08,.72-.2l1.74,1.74h0c.18-.18,.4-.3,.63-.38l-1.86-1.86c.13-.21,.2-.46,.2-.72,0-.79-.64-1.43-1.43-1.43s-1.43,.64-1.43,1.43,.64,1.43,1.43,1.43Z"/><path class="d" d="M13.88,10.45c.04-.27,.14-.51,.31-.71l-.89-.89,.56-.56c.21,.13,.46,.2,.72,.2,.79,0,1.43-.64,1.43-1.43s-.64-1.43-1.43-1.43-1.43,.64-1.43,1.43c0,.26,.08,.51,.2,.72l-.81,.81c-.14,.14-.14,.37,0,.51l1.34,1.34Z"/><path class="d" d="M24.57,17.07c-.66,0-1.22,.46-1.38,1.07h-1.9c.19,.2,.31,.45,.37,.71h1.52c.16,.62,.71,1.07,1.38,1.07,.79,0,1.43-.64,1.43-1.43s-.64-1.43-1.43-1.43Z"/><path class="d" d="M23.5,22.43c-.26,0-.51,.08-.72,.2l-1.91-1.91-.51,.51,1.91,1.91c-.13,.21-.2,.46-.2,.72,0,.79,.64,1.43,1.43,1.43s1.43-.64,1.43-1.43-.64-1.43-1.43-1.43Z"/><path class="d" d="M18.98,21.69c-.31-.05-.6-.18-.84-.4h0v.06c0,.15-.03,.29-.07,.43l1.35,1.35-.56,.56c-.21-.13-.46-.2-.72-.2-.79,0-1.43,.64-1.43,1.43s.64,1.43,1.43,1.43,1.43-.64,1.43-1.43c0-.26-.08-.51-.2-.72l.81-.81c.14-.14,.14-.37,0-.51l-1.2-1.2Z"/><path class="d" d="M14.04,24.93s-.08,0-.12-.01c-1.92-.45-3.67-1.53-4.93-3.03-.19-.23-.16-.56,.07-.75,.23-.19,.56-.16,.75,.07,1.11,1.33,2.66,2.28,4.36,2.68,.29,.07,.47,.36,.4,.64-.06,.25-.28,.41-.52,.41Z"/><path class="d" d="M23.32,12.07c-.18,0-.36-.09-.46-.26-1.13-1.86-2.96-3.2-5.02-3.69-.29-.07-.47-.36-.4-.64,.07-.29,.36-.47,.64-.4,2.33,.55,4.41,2.07,5.69,4.17,.15,.25,.07,.58-.18,.74-.09,.05-.18,.08-.28,.08Z"/><path class="d" d="M24.57,13.32c0,.3-.24,.54-.54,.54s-.54-.24-.54-.54,.24-.54,.54-.54,.54,.24,.54,.54Z"/><path class="d" d="M8.86,20.11c0,.3-.24,.54-.54,.54s-.54-.24-.54-.54,.24-.54,.54-.54,.54,.24,.54,.54Z"/></g></g></g></g></svg>