<?xml version="1.0" encoding="UTF-8"?><svg xmlns="http://www.w3.org/2000/svg" viewBox="0 0 32 32"><defs><style>.d{fill:#424359;}.e{fill:none;stroke:#424359;stroke-miterlimit:10;stroke-width:2px;}</style></defs><g id="a"/><g id="b"><g id="c"><g><circle class="e" cx="16" cy="16" r="15"/><g><path class="d" d="M14.99,21.55c0,.65-.05,1.31-.02,1.95,0,.1,0,.19-.02,.25v2.74c-2.38,0-4.78,0-7.26,0-.46,0-.76-.48-.56-.89,.29-.61,.56-1.19,.84-1.75,.09-.18,.18-.36,.27-.53,.26-.5,.46-.99,.58-1.49,.29-1.16,.19-2.32-.34-3.54-.51-1.15-.97-2.33-1.29-3.55,.46,0,.92,0,1.38,.02,.49,.01,.96-.04,1.22-.53,.25-.48,.07-.89-.23-1.31-.65-.91-.29-2.01,.71-2.25,.61-.15,1.13,.06,1.47,.58,.35,.54,.35,1.11-.07,1.63-.27,.32-.51,.65-.42,1.09,.11,.57,.5,.84,1.05,.86,.79,.03,1.57,.05,2.36,.04,.33,0,.47,.08,.45,.44-.04,.69-.03,1.39-.05,2.09,0,.22,.02,.48-.22,.6-.26,.13-.46-.03-.67-.19-.91-.71-1.97-.66-2.74,.11-.72,.73-.78,1.84-.14,2.63,.66,.81,1.81,1,2.66,.43,.25-.17,.49-.49,.83-.29,.33,.19,.19,.57,.19,.87Z"/><path class="d" d="M8.46,14.13c-.48,0-.95-.02-1.43-.03-.69-3.26,.54-6.14,3.37-7.53,1.62-.79,3.24-1.14,4.86-1.07v.02c-.04,.79-.03,1.57-.05,2.36-.01,.47,.16,.85,.57,1.06,.39,.2,.78,.12,1.14-.15,.14-.11,.29-.22,.45-.3,.57-.28,1.3-.1,1.7,.41,.4,.51,.37,1.25-.06,1.74-.43,.5-1.15,.62-1.71,.3-.14-.08-.26-.17-.38-.28-.36-.31-.76-.4-1.19-.19-.42,.21-.57,.6-.57,1.07,0,.76-.04,1.53-.03,2.29,0,.32-.09,.42-.42,.41-.74-.03-1.48-.03-2.22-.05-.22,0-.47,.01-.59-.23-.12-.25,.04-.41,.18-.6,.78-1.07,.65-2.29-.31-2.97-.82-.58-1.89-.5-2.59,.19-.69,.69-.79,1.78-.22,2.6,.15,.22,.42,.39,.27,.7-.16,.34-.49,.25-.77,.24Z"/><path class="d" d="M15.85,7.6c0-.68,.03-1.37,.03-2.05,1.33,.14,2.65,.56,3.96,1.25,1.56,.82,2.54,2.14,2.74,3.93,.15,1.34,.6,2.55,1.31,3.67-.94-.03-1.88-.03-2.81-.05-.49,0-.96,0-1.24,.5-.29,.51-.1,.92,.22,1.36,.5,.66,.41,1.45-.16,1.94-.53,.46-1.33,.45-1.85-.03-.55-.51-.58-1.33-.03-2,.3-.36,.45-.75,.27-1.18-.19-.46-.59-.66-1.08-.66-.02,0-.05,0-.07,0q-1.41-.06-1.39-1.45c0-.4,.01-.81,.02-1.21,0-.22,0-.47,.25-.58,.24-.11,.42,.05,.6,.19,1,.77,2.25,.65,2.93-.26,.6-.81,.55-1.88-.12-2.6-.67-.72-1.82-.83-2.65-.24-.22,.15-.41,.4-.71,.26-.34-.17-.23-.5-.23-.78Z"/><path class="d" d="M24.74,17.24c-.17,.04-.4,.07-.69,.07-.51,0-.69,.16-.68,.68,.03,1.24,.02,2.48,.01,3.72,0,1.17-.25,1.42-1.45,1.44-.55,0-1.09-.01-1.64-.02-.24,0-.48,0-.73,0-1.01,0-1.46,.21-1.81,.93-.08,.16-.15,.35-.22,.56-.15,.45-.29,.91-.4,1.38-.08,.36-.25,.51-.63,.51h-.93v-2.75c-.01-.06-.01-.14,0-.23,0-.07,0-.13,0-.2h0c.03-.66,.01-1.31,.04-1.95,.02-.53-.06-1.01-.57-1.27-.48-.25-.89-.04-1.3,.26-.63,.47-1.35,.41-1.85-.07-.47-.45-.55-1.16-.21-1.73,.42-.7,1.35-.86,2.05-.32,.42,.32,.82,.59,1.34,.33,.55-.27,.6-.79,.6-1.33,0-.63,.04-1.26,.02-1.89-.01-.4,.14-.51,.51-.47,.31,.03,.63,.01,.94,.02,.2,0,.42,0,.54,.2,.14,.24-.02,.42-.15,.61-.7,1.01-.72,1.87-.07,2.65,.69,.83,1.89,.98,2.72,.35,.88-.67,1.08-1.86,.45-2.76-.17-.24-.44-.45-.27-.77,.17-.32,.52-.2,.8-.2,1.03,0,2.07,.04,3.1,.04h.02c.17,.28,.32,.57,.49,.85l.04,.07c.45,.78,.47,1.16-.07,1.3Z"/></g></g></g></g></svg>