<?xml version="1.0" encoding="UTF-8"?><svg xmlns="http://www.w3.org/2000/svg" viewBox="0 0 32 32"><defs><style>.d{fill:#424359;}.e{fill:none;stroke:#424359;stroke-miterlimit:10;stroke-width:2px;}</style></defs><g id="a"/><g id="b"><g id="c"><g><circle class="e" cx="16" cy="16" r="15"/><g><path class="d" d="M12.1,5.51c-.39-.04-.82,.13-1.08,.42-.24,.26-.37,.6-.37,.95v.61c0,.07,0,.13,0,.2,0,.21,.05,.4,.13,.59,.16,.36,.51,.64,.9,.73,.1,.02,.21,.04,.32,.04,.22,0,.44-.06,.64-.16,.19-.1,.34-.25,.47-.42,.18-.25,.24-.54,.24-.84v-.63c0-.06,0-.13,0-.19-.01-.22-.07-.43-.18-.62-.11-.19-.26-.34-.44-.46-.19-.12-.4-.18-.62-.2Zm.25,2.64s-.08,.05-.13,.07c-.05,.02-.1,.03-.15,.04-.03,0-.05,0-.08,0-.03,0-.05,0-.08,0-.05,0-.1-.02-.15-.04-.04-.02-.09-.05-.13-.07-.04-.03-.07-.07-.1-.1-.03-.04-.05-.08-.07-.13-.02-.05-.03-.1-.04-.15,0-.11,0-.23,0-.34v-.5c0-.05,0-.1,0-.15,0-.05,.02-.1,.04-.15,.02-.04,.05-.09,.07-.13,.03-.04,.07-.07,.1-.1,.04-.03,.08-.05,.13-.07,.05-.02,.1-.03,.15-.04,.05,0,.1,0,.16,0,.05,0,.1,.02,.15,.04,.04,.02,.09,.05,.13,.07,.04,.03,.07,.07,.1,.1,.03,.04,.05,.08,.07,.13,.02,.05,.03,.1,.04,.15,0,.11,0,.23,0,.34v.5c0,.05,0,.1,0,.15,0,.05-.02,.1-.04,.15-.02,.04-.05,.09-.07,.13-.03,.04-.07,.07-.1,.1Z"/><path class="d" d="M15.64,8.96c.19-.1,.34-.25,.47-.42,.18-.25,.24-.54,.24-.84v-.63c0-.06,0-.13,0-.19-.01-.22-.07-.43-.18-.62-.11-.19-.26-.34-.44-.46-.19-.12-.4-.18-.62-.2-.39-.04-.82,.13-1.08,.42-.24,.26-.37,.6-.37,.95v.61c0,.07,0,.13,0,.2,0,.21,.05,.4,.13,.59,.16,.36,.51,.64,.9,.73,.1,.02,.21,.04,.32,.04,.22,0,.44-.06,.64-.16Zm-1.09-.83s-.05-.08-.07-.13c-.02-.05-.03-.1-.04-.15,0-.11,0-.23,0-.34v-.5c0-.05,0-.1,0-.15,0-.05,.02-.1,.04-.15,.02-.04,.05-.09,.07-.13,.03-.04,.07-.07,.1-.1,.04-.03,.08-.05,.13-.07,.05-.02,.1-.03,.15-.04,.05,0,.1,0,.16,0,.05,0,.1,.02,.15,.04,.04,.02,.09,.05,.13,.07,.04,.03,.07,.07,.1,.1,.03,.04,.05,.08,.07,.13,.02,.05,.03,.1,.04,.15,0,.11,0,.23,0,.34v.5c0,.05,0,.1,0,.15,0,.05-.02,.1-.04,.15-.02,.04-.05,.09-.07,.13-.03,.04-.07,.07-.1,.1-.04,.03-.08,.05-.13,.07-.05,.02-.1,.03-.15,.04-.03,0-.05,0-.08,0-.03,0-.05,0-.08,0-.05,0-.1-.02-.15-.04-.04-.02-.09-.05-.13-.07-.04-.03-.07-.07-.1-.1Z"/><path class="d" d="M17.69,9.09c.1,.02,.21,.04,.32,.04,.22,0,.44-.06,.64-.16,.19-.1,.34-.25,.47-.42,.18-.25,.24-.54,.24-.84v-.63c0-.06,0-.13,0-.19-.01-.22-.07-.43-.18-.62-.11-.19-.26-.34-.44-.46-.19-.12-.4-.18-.62-.2-.39-.04-.82,.13-1.08,.42-.24,.26-.37,.6-.37,.95v.61c0,.07,0,.13,0,.2,0,.21,.05,.4,.13,.59,.16,.36,.51,.64,.9,.73Zm-.04-2.6s.08-.05,.13-.07c.05-.02,.1-.03,.15-.04,.05,0,.1,0,.16,0,.05,0,.1,.02,.15,.04,.04,.02,.09,.05,.13,.07,.04,.03,.07,.07,.1,.1,.03,.04,.05,.08,.07,.13,.02,.05,.03,.1,.04,.15,0,.11,0,.23,0,.34v.5c0,.05,0,.1,0,.15,0,.05-.02,.1-.04,.15-.02,.04-.05,.09-.07,.13-.03,.04-.07,.07-.1,.1-.04,.03-.08,.05-.13,.07-.05,.02-.1,.03-.15,.04-.03,0-.05,0-.08,0-.03,0-.05,0-.08,0-.05,0-.1-.02-.15-.04-.04-.02-.09-.05-.13-.07-.04-.03-.07-.07-.1-.1-.03-.04-.05-.08-.07-.13-.02-.05-.03-.1-.04-.15,0-.11,0-.23,0-.34v-.5c0-.05,0-.1,0-.15,0-.05,.02-.1,.04-.15,.02-.04,.05-.09,.07-.13,.03-.04,.07-.07,.1-.1Z"/><path class="d" d="M9.18,8.4v.34c0,.1,.04,.2,.11,.27,.07,.07,.18,.12,.27,.11,.21,0,.39-.17,.39-.39v-2.76c0-.21-.18-.39-.39-.39h-.61c-.1,0-.2,.04-.27,.11s-.12,.18-.11,.27c0,.21,.17,.39,.39,.39h.23v2.03Z"/><path class="d" d="M20.32,8.4v.34c0,.1,.04,.2,.11,.27,.07,.07,.18,.12,.27,.11,.21,0,.39-.17,.39-.39v-2.76c0-.21-.18-.39-.39-.39h-.61c-.1,0-.2,.04-.27,.11-.07,.07-.12,.18-.11,.27,0,.21,.17,.39,.39,.39h.23v2.03Z"/><path class="d" d="M22.2,6.37h.23v2.37c0,.1,.04,.2,.11,.27,.07,.07,.18,.12,.27,.11,.21,0,.39-.17,.39-.39v-2.76c0-.21-.18-.39-.39-.39h-.61c-.1,0-.2,.04-.27,.11-.07,.07-.12,.18-.11,.27,0,.21,.17,.39,.39,.39Z"/><path class="d" d="M22.82,9.8H9.18c-.89,0-1.61,.72-1.61,1.61h0c0,.57,.3,1.07,.74,1.36h10.57c.26,0,.47,.21,.47,.47s-.21,.47-.47,.47H8.51v1.71c0,3.48,2.37,6.4,5.58,7.25v3.26c.02,.39,.4,.67,.77,.54l2.66-.89c.24-.08,.39-.3,.39-.55v-1.3c-1.63-.21-2.5-.82-2.5-.82,1.04,.22,2.5-.25,2.5-.25,3.21-.85,5.58-3.77,5.58-7.25v-2.55c.55-.26,.94-.82,.94-1.46h0c0-.89-.72-1.61-1.61-1.61Z"/></g></g></g></g></svg>