<?xml version="1.0" encoding="UTF-8"?><svg xmlns="http://www.w3.org/2000/svg" viewBox="0 0 32 32"><defs><style>.d{fill:#424359;}.e{fill:none;stroke:#424359;stroke-miterlimit:10;stroke-width:2px;}</style></defs><g id="a"/><g id="b"><g id="c"><g><circle class="e" cx="16" cy="16" r="15"/><g><path class="d" d="M11.82,21.1c-.27,0-.49,.22-.49,.49v1.87c0,.27,.22,.49,.49,.49s.49-.22,.49-.49v-1.87c0-.27-.22-.49-.49-.49Z"/><path class="d" d="M17.39,19.91c-.27,0-.49,.22-.49,.49v2.36c0,.27,.22,.49,.49,.49s.49-.22,.49-.49v-2.36c0-.27-.22-.49-.49-.49Z"/><path class="d" d="M24.52,13.74L16.35,5.57c-.19-.19-.5-.19-.69,0L7.49,13.74c-.14,.14-.18,.35-.11,.53,.08,.18,.25,.3,.45,.3h3.51v4.36c0,.27,.22,.49,.49,.49h2.32s-.02,.09-.02,.13v5.19c0,.27,.22,.49,.49,.49s.49-.22,.49-.49v-5.19s0-.09-.02-.13h4.62v6.52c0,.27,.22,.49,.49,.49s.49-.22,.49-.49V14.57h3.51c.2,0,.37-.12,.45-.3,.08-.18,.03-.39-.11-.53Zm-5.36-1.28l-1.46,1.42,.34,2.01c.01,.06-.01,.12-.06,.16-.05,.04-.12,.04-.17,.01l-1.81-.95-1.81,.95s-.05,.02-.08,.02c-.03,0-.07-.01-.1-.03-.05-.04-.08-.1-.06-.16l.35-2.01-1.46-1.42s-.06-.11-.04-.17c.02-.06,.07-.1,.13-.11l2.02-.29,.9-1.83c.05-.11,.24-.11,.29,0l.9,1.83,2.02,.29c.06,0,.11,.05,.13,.11,.02,.06,0,.12-.04,.17Z"/></g></g></g></g></svg>