<?xml version="1.0" encoding="UTF-8"?><svg xmlns="http://www.w3.org/2000/svg" viewBox="0 0 32 32"><defs><style>.d{fill:#424359;}.e{fill:none;stroke:#424359;stroke-miterlimit:10;stroke-width:2px;}</style></defs><g id="a"/><g id="b"><g id="c"><g><circle class="e" cx="16" cy="16" r="15"/><g><path class="d" d="M17.51,12.68h5.37c.31,0,.55-.25,.55-.55v-.81c0-.31-.25-.55-.55-.55s-.55,.25-.55,.55v.26h-4.26V6.94h2.97c.31,0,.55-.25,.55-.55s-.25-.55-.55-.55h-3.52c-.31,0-.55,.25-.55,.55v5.74c0,.31,.25,.55,.55,.55Z"/><path class="d" d="M19.92,8.19c-.25-.25-.66-.25-.91,0-.25,.25-.25,.66,0,.91l1.58,1.58c.12,.12,.29,.19,.46,.19s.34-.07,.46-.19l3.09-3.09c.25-.25,.25-.66,0-.91s-.66-.25-.91,0l-2.63,2.63-1.13-1.13Z"/><path class="d" d="M17.51,19.42h5.37c.31,0,.55-.25,.55-.55v-.81c0-.31-.25-.55-.55-.55s-.55,.25-.55,.55v.26h-4.26v-3.71c0-.31-.25-.55-.55-.55s-.55,.25-.55,.55v4.26c0,.31,.25,.55,.55,.55Z"/><path class="d" d="M23.67,13.42l-2.63,2.63-1.13-1.13c-.25-.25-.66-.25-.91,0-.25,.25-.25,.66,0,.91l1.58,1.58c.12,.12,.29,.19,.46,.19s.34-.07,.46-.19l3.09-3.09c.25-.25,.25-.66,0-.91s-.66-.25-.91,0Z"/><path class="d" d="M22.88,24.6c-.31,0-.55,.25-.55,.55v.26h-4.26v-4.07c0-.31-.25-.55-.55-.55s-.55,.25-.55,.55v4.63c0,.31,.25,.55,.55,.55h5.37c.31,0,.55-.25,.55-.55v-.81c0-.31-.25-.55-.55-.55Z"/><path class="d" d="M23.67,20.53l-2.63,2.63-1.13-1.13c-.25-.25-.66-.25-.91,0-.25,.25-.25,.66,0,.91l1.58,1.58c.12,.12,.29,.19,.46,.19s.34-.07,.46-.19l3.09-3.09c.25-.25,.25-.66,0-.91s-.66-.25-.91,0Z"/><path class="d" d="M14.34,7.56l-2.12-.31-.95-1.92c-.12-.25-.54-.25-.66,0l-.95,1.92-2.12,.31c-.14,.02-.25,.12-.3,.25-.04,.13,0,.28,.09,.38l1.53,1.5-.36,2.11c-.02,.14,.03,.28,.15,.36,.06,.05,.14,.07,.22,.07,.06,0,.12-.01,.17-.04l1.9-1,1.9,1c.12,.07,.28,.06,.39-.03,.11-.08,.17-.22,.15-.36l-.36-2.11,1.53-1.5c.1-.1,.14-.25,.09-.38-.04-.13-.16-.23-.3-.25Z"/><path class="d" d="M14.34,14.87l-2.12-.31-.95-1.92c-.12-.25-.54-.25-.66,0l-.95,1.92-2.12,.31c-.14,.02-.26,.12-.3,.25-.04,.13,0,.28,.09,.38l1.53,1.5-.36,2.11c-.02,.14,.03,.28,.15,.36,.06,.05,.14,.07,.22,.07,.06,0,.12-.01,.17-.04l1.9-1,1.9,1c.12,.07,.28,.06,.39-.03,.11-.08,.17-.22,.15-.36l-.36-2.11,1.53-1.5c.1-.1,.14-.25,.09-.38-.04-.13-.16-.23-.3-.25Z"/><path class="d" d="M14.34,22.19l-2.12-.31-.95-1.92c-.12-.25-.54-.25-.66,0l-.95,1.92-2.12,.31c-.14,.02-.25,.12-.3,.25-.04,.13,0,.28,.09,.38l1.53,1.5-.36,2.11c-.02,.14,.03,.28,.15,.36,.06,.05,.14,.07,.22,.07,.06,0,.12-.01,.17-.04l1.9-1,1.9,1c.12,.07,.28,.05,.39-.03,.11-.08,.17-.22,.15-.36l-.36-2.11,1.53-1.5c.1-.1,.14-.25,.09-.38-.04-.13-.16-.23-.3-.25Z"/></g></g></g></g></svg>