<?xml version="1.0" encoding="UTF-8"?><svg xmlns="http://www.w3.org/2000/svg" viewBox="0 0 32 32"><defs><style>.d{fill:#424359;}.e{fill:none;stroke:#424359;stroke-miterlimit:10;stroke-width:2px;}</style></defs><g id="a"/><g id="b"><g id="c"><g><circle class="e" cx="16" cy="16" r="15"/><g><g><circle class="d" cx="11.52" cy="19.25" r="1.02"/><circle class="d" cx="16.76" cy="19.25" r="1.02"/><rect class="d" x="11.52" y="21.4" width="5.23" height="1.34" rx=".57" ry=".57"/><path class="d" d="M5.5,18.89v2.76c0,.42,.34,.76,.76,.76h.81v-4.28h-.81c-.42,0-.76,.34-.76,.76Z"/><path class="d" d="M22.01,17.88h-.81v4.28h.81c.42,0,.76-.34,.76-.76v-2.76c0-.42-.34-.76-.76-.76Z"/><path class="d" d="M18.8,16.64c.38,.35,.62,.86,.62,1.41v3.94c0,1.06-.86,1.93-1.93,1.93h-6.7c-1.06,0-1.93-.86-1.93-1.93v-3.94c0-1.06,.86-1.93,1.93-1.93h.83c.19,0,.38,.07,.52,.2l.51,.45c.24,.22,.56,.34,.89,.34h1.28c.34-.01,.66-.14,.9-.37l.42-.4c.14-.14,.34-.21,.54-.21h.07v-.69c-.63,0-1.16-.42-1.34-.98h-.85v-1.59c.38-.23,.63-.64,.63-1.11,0-.72-.58-1.3-1.3-1.3s-1.3,.58-1.3,1.3c0,.47,.25,.89,.63,1.11v1.59h-2.4c-1.86,0-3.36,1.51-3.36,3.36v4.4c0,1.86,1.51,3.36,3.36,3.36h6.63c1.86,0,3.36-1.51,3.36-3.36v-4.4c0-.82-.29-1.57-.78-2.15l-1.24,.97Z"/></g><g><circle class="d" cx="21.2" cy="10.45" r="1.08"/><path class="d" d="M25.65,6.41h-8.89c-.47,0-.85,.38-.85,.85v6.75c0,.47,.38,.85,.85,.85h0c.31,0,.56,.25,.56,.56v.88c0,.31,.36,.49,.61,.3l1.9-1.49c.2-.16,.45-.24,.7-.24h5.12c.47,0,.85-.38,.85-.85V7.27c0-.47-.38-.85-.85-.85Zm-1.37,4.32c0,.1-.07,.19-.17,.22l-.73,.18s-.05,.03-.06,.05c-.03,.08-.06,.16-.1,.23-.01,.02-.01,.05,0,.08l.39,.65c.05,.09,.04,.2-.03,.28l-.4,.4c-.07,.07-.19,.09-.28,.03l-.65-.39s-.05-.02-.08,0c-.08,.04-.15,.07-.23,.1-.03,0-.05,.03-.05,.06l-.18,.73c-.03,.1-.12,.17-.22,.17h-.57c-.1,0-.19-.07-.22-.17l-.18-.73s-.03-.05-.05-.06c-.08-.03-.16-.06-.23-.1-.02-.01-.05-.01-.08,0l-.65,.39c-.09,.05-.2,.04-.28-.03l-.4-.4c-.07-.07-.09-.19-.03-.28l.39-.65s.02-.05,0-.08c-.04-.08-.07-.15-.1-.23,0-.03-.03-.05-.06-.05l-.73-.18c-.1-.03-.17-.12-.17-.22v-.57c0-.1,.07-.19,.17-.22l.73-.18s.05-.03,.06-.05c.03-.08,.06-.16,.1-.23,.01-.02,.01-.05,0-.08l-.39-.65c-.05-.09-.04-.2,.03-.28l.4-.4c.07-.07,.19-.09,.28-.03l.65,.39s.05,.02,.08,0c.08-.04,.15-.07,.23-.1,.03,0,.05-.03,.05-.06l.18-.73c.03-.1,.12-.17,.22-.17h.57c.1,0,.19,.07,.22,.17l.18,.73s.03,.05,.05,.06c.08,.03,.16,.06,.23,.1,.02,.01,.05,.01,.08,0l.65-.39c.09-.05,.2-.04,.28,.03l.4,.4c.07,.07,.09,.19,.03,.28l-.39,.65s-.02,.05,0,.08c.04,.08,.07,.15,.1,.23,0,.03,.03,.05,.06,.05l.73,.18c.1,.03,.17,.12,.17,.22v.57Z"/></g></g></g></g></g></svg>