<?xml version="1.0" encoding="UTF-8"?><svg xmlns="http://www.w3.org/2000/svg" viewBox="0 0 32 32"><defs><style>.d{fill:#424359;}.e{fill:none;stroke:#424359;stroke-miterlimit:10;stroke-width:2px;}</style></defs><g id="a"/><g id="b"><g id="c"><g><circle class="e" cx="16" cy="16" r="15"/><g><path class="d" d="M18.13,23.26c-.21-.05-.36-.23-.36-.44v-3.09h-3.32v3.09c0,.21-.15,.39-.36,.44-.31,.07-.58,.22-.79,.44-.29,.29-.48,.7-.48,1.15v.43h6.57v-.43c0-.78-.54-1.42-1.27-1.59Zm-1.23-2.48c0,.26-.21,.47-.47,.47h-.62c-.26,0-.47-.21-.47-.47h0c0-.26,.21-.47,.47-.47h.62c.26,0,.47,.21,.47,.47h0Z"/><g><path class="d" d="M18.25,9.5c-.06-.43-.15-.86-.28-1.28-.12-.38-.27-.75-.46-1.1-.09-.16-.2-.32-.32-.46-.08-.11-.18-.21-.28-.29-.12-.1-.24-.19-.38-.25-.17-.08-.32-.12-.51-.14-.29-.03-.59,.07-.83,.23-.28,.19-.51,.44-.69,.73-.21,.32-.36,.67-.49,1.03-.14,.4-.24,.81-.32,1.22-.09,.5-.14,1.02-.16,1.53-.02,.5,0,1,.05,1.5,.05,.48,.13,.96,.25,1.42,.11,.4,.25,.8,.43,1.17,.15,.31,.34,.6,.57,.85,.21,.22,.48,.41,.78,.48,.13,.04,.28,.05,.42,.04,.19-.02,.34-.06,.51-.14,.14-.06,.26-.16,.37-.25,.11-.09,.2-.19,.28-.3,.12-.15,.22-.3,.32-.47,.1-.18,.18-.36,.26-.55,.35-.83,.5-1.75,.56-2.65,.02-.24,.02-.48,.02-.73,0-.53-.04-1.05-.11-1.57Zm-.78,2.92c-.07,.5-.18,.99-.34,1.47-.04,.11-.08,.22-.12,.33-.11,.25-.24,.49-.4,.71-.08,.1-.18,.2-.28,.29-.06,.04-.12,.08-.18,.11-.05,.02-.09,.03-.14,.04-.04,0-.08,0-.12,0-.05,0-.09-.02-.14-.04-.06-.03-.12-.07-.18-.11-.1-.08-.2-.18-.28-.29-.16-.22-.29-.46-.4-.71-.18-.45-.31-.91-.4-1.39-.03-.14-.05-.27-.07-.41-.09-.71-.11-1.44-.06-2.16,.01-.18,.03-.36,.05-.54,.07-.5,.18-1,.34-1.48,.04-.11,.08-.22,.12-.33,.11-.25,.24-.49,.4-.71,.08-.1,.18-.2,.28-.29,.06-.04,.12-.08,.18-.11,.05-.02,.09-.03,.14-.04,.04,0,.08,0,.12,0,.05,0,.09,.02,.14,.04,.06,.03,.12,.07,.18,.11,.1,.08,.2,.18,.28,.29,.16,.22,.29,.46,.4,.71,.18,.45,.31,.91,.4,1.39,.03,.14,.05,.28,.07,.42,.06,.45,.08,.9,.08,1.34,0,.45-.03,.9-.08,1.35Z"/><path class="d" d="M20.49,8.83c-.09-.32-.29-.58-.56-.76-.28-.19-.63-.27-.96-.31-.39-.05-.78,0-1.17,.05-.43,.07-.85,.18-1.26,.33-.5,.18-1,.4-1.47,.65-.43,.23-.84,.48-1.24,.77-.38,.27-.74,.56-1.08,.89-.29,.28-.56,.58-.79,.91-.2,.28-.37,.57-.48,.9-.04,.12-.08,.24-.1,.36-.02,.15-.04,.29-.02,.44,.01,.09,.02,.18,.04,.26,.02,.08,.06,.16,.09,.23,.06,.13,.15,.25,.26,.35,.23,.22,.54,.36,.85,.43,.36,.08,.74,.08,1.11,.04,.97-.1,1.9-.43,2.77-.85,.23-.11,.45-.23,.68-.36,.41-.24,.8-.5,1.17-.78,.36-.27,.7-.57,1.01-.89,.27-.28,.52-.58,.73-.91,.17-.27,.32-.57,.4-.88,.08-.28,.1-.59,.02-.87Zm-1.32,1.63c-.29,.36-.62,.69-.97,1-.1,.09-.21,.18-.32,.26-.36,.28-.74,.53-1.13,.75-.36,.21-.74,.4-1.13,.57-.48,.2-.97,.36-1.48,.47-.12,.02-.24,.04-.35,.06-.29,.04-.58,.05-.87,.01-.13-.02-.25-.05-.37-.1-.07-.03-.13-.07-.19-.11-.03-.03-.07-.06-.1-.1-.02-.03-.04-.07-.06-.1-.02-.04-.03-.09-.04-.14,0-.08,0-.15,0-.23,.02-.13,.06-.25,.11-.37,.12-.26,.27-.51,.45-.74,.29-.36,.62-.69,.97-1,.1-.09,.21-.17,.31-.26,.54-.42,1.13-.78,1.75-1.08,.17-.08,.34-.16,.52-.24,.48-.2,.97-.36,1.48-.47,.12-.02,.24-.04,.35-.06,.29-.04,.58-.05,.87-.01,.13,.02,.25,.05,.37,.1,.07,.03,.13,.07,.19,.11,.03,.03,.07,.06,.1,.1,.02,.03,.04,.07,.06,.1,.02,.04,.03,.09,.04,.14,0,.08,0,.15,0,.23-.02,.13-.06,.25-.11,.37-.12,.26-.27,.51-.45,.74Z"/><path class="d" d="M20.51,12.61c-.02-.12-.06-.25-.1-.36-.06-.17-.14-.33-.22-.48-.18-.33-.42-.63-.66-.91-.27-.3-.56-.58-.88-.84-.38-.31-.78-.6-1.19-.86-.43-.27-.89-.51-1.35-.71-.46-.2-.93-.38-1.42-.5-.41-.11-.84-.18-1.27-.19-.17,0-.34,0-.5,.02-.18,.02-.36,.05-.53,.11-.15,.05-.3,.11-.43,.2-.15,.11-.28,.23-.38,.38-.16,.23-.23,.53-.22,.81,.01,.33,.12,.63,.25,.92,.15,.32,.36,.62,.59,.9,.54,.67,1.23,1.23,1.95,1.71,.19,.13,.39,.25,.59,.36,.48,.27,.97,.51,1.48,.71,.42,.17,.86,.31,1.3,.4,.4,.08,.81,.14,1.22,.12,.36-.01,.72-.08,1.04-.24,.26-.13,.5-.35,.62-.61,.03-.08,.07-.15,.09-.24,.02-.09,.03-.17,.04-.26,.02-.15,0-.3-.03-.44Zm-.97,.76c-.06,.04-.13,.08-.19,.11-.12,.04-.24,.07-.37,.1-.29,.03-.59,.02-.88-.01-.49-.07-.96-.2-1.43-.37-.14-.05-.28-.1-.41-.16-.38-.17-.76-.35-1.12-.56-.39-.23-.78-.48-1.14-.76-.38-.3-.75-.63-1.07-.99-.08-.09-.15-.17-.22-.26-.17-.23-.33-.47-.44-.74-.05-.12-.09-.25-.11-.37,0-.08,0-.15,0-.23,0-.05,.02-.09,.04-.14,.02-.04,.04-.07,.06-.1,.03-.03,.06-.07,.1-.1,.06-.04,.13-.08,.19-.11,.12-.04,.24-.07,.37-.1,.29-.03,.59-.02,.88,.01,.49,.07,.96,.2,1.43,.37,.14,.05,.27,.1,.4,.16,.65,.28,1.28,.63,1.86,1.03,.14,.1,.28,.2,.42,.3,.38,.3,.74,.62,1.06,.99,.08,.09,.15,.17,.22,.26,.17,.23,.33,.47,.44,.74,.05,.12,.09,.25,.11,.37,0,.08,0,.15,0,.23,0,.05-.02,.09-.04,.14-.02,.04-.04,.07-.06,.1-.03,.03-.06,.07-.1,.1Z"/><circle class="d" cx="15.94" cy="11.08" r=".84"/></g><path class="d" d="M23.71,8.14h-2.93c.11,.17,.2,.35,.25,.55,.08,.29,.09,.61,.03,.95h2.49c.41,0,.74,.33,.74,.74v8.84c0,.1-.08,.18-.18,.18H8.1c-.1,0-.18-.08-.18-.18V10.38c0-.41,.33-.74,.74-.74h2.16c-.02-.11-.03-.22-.04-.33-.02-.42,.1-.84,.31-1.15h-2.6c-1.05,0-1.9,.84-1.9,1.89v10.11c0,1.05,.85,1.9,1.9,1.9h15.21c1.05,0,1.9-.85,1.9-1.9V10.04c0-1.05-.85-1.9-1.9-1.9Zm-6.82,12.64c0,.26-.21,.47-.47,.47h-.62c-.26,0-.47-.21-.47-.47h0c0-.26,.21-.47,.47-.47h.62c.26,0,.47,.21,.47,.47h0Z"/></g></g></g></g></svg>