<?xml version="1.0" encoding="UTF-8"?><svg xmlns="http://www.w3.org/2000/svg" viewBox="0 0 32 32"><defs><style>.d{fill:#424359;}.e{fill:none;stroke:#424359;stroke-miterlimit:10;stroke-width:2px;}</style></defs><g id="a"/><g id="b"><g id="c"><g><circle class="e" cx="16" cy="16" r="15"/><g><path class="d" d="M22.25,7.55c-.46-.34-.96-.65-1.47-.91l-4.3,4.3v.04s0,.02,0,.02c.64,.06,1.25,.24,1.8,.52l3.97-3.97Z"/><path class="d" d="M16.48,5.5v4.09l3.37-3.37c-1.05-.42-2.19-.67-3.37-.72Z"/><path class="d" d="M20.23,13.3l3.92-3.92c-.36-.44-.75-.84-1.17-1.22l-3.89,3.89c.45,.35,.83,.77,1.13,1.25Z"/><path class="d" d="M21,15.52s.02,0,.02,0h.72l3.84-3.84c-.24-.54-.53-1.05-.85-1.53l-4.05,4.05c.16,.42,.27,.86,.31,1.33Z"/><path class="d" d="M21,16.46c-.24,2.55-2.38,4.55-4.99,4.55-1.03,0-1.99-.31-2.79-.85,0,0,0,.01-.01,.02l-3.46,4.24c1.75,1.3,3.92,2.07,6.26,2.07,5.63,0,10.24-4.46,10.49-10.03h-5.48s-.02,0-.02,0Z"/><path class="d" d="M12.48,19.57c-.92-.91-1.5-2.17-1.5-3.57,0-.75,.17-1.45,.46-2.09,0,0-.02,0-.02,0l-4.74-2.74c-.75,1.45-1.18,3.09-1.18,4.83,0,3.11,1.36,5.9,3.51,7.83l3.46-4.24s.01,0,.02-.02Z"/><path class="d" d="M11.92,13.09c.82-1.16,2.12-1.95,3.62-2.09,0,0,0-.02,0-.02V5.5c-3.51,.16-6.58,2.05-8.37,4.84l4.74,2.74s.01,.01,.02,.02Z"/><path class="d" d="M26.5,15.52c-.04-1-.23-1.96-.54-2.87l-2.87,2.87h3.41Z"/><path class="d" d="M13.21,14.96c-.07,.01-.13,.06-.15,.13-.02,.07,0,.14,.05,.2l1.31,1.28-.31,1.8c-.01,.07,.02,.14,.08,.19,.03,.02,.07,.04,.11,.04,.03,0,.06,0,.09-.02l1.62-.85,1.62,.85c.06,.03,.14,.03,.2-.01,.06-.04,.09-.11,.08-.19l-.31-1.8,1.31-1.28c.05-.05,.07-.13,.05-.2-.02-.07-.08-.12-.15-.13l-1.81-.26-.81-1.64c-.06-.13-.28-.13-.34,0l-.81,1.64-1.81,.26Z"/></g></g></g></g></svg>