<?xml version="1.0" encoding="UTF-8"?>
<svg width="368px" height="368px" viewBox="0 0 368 368" version="1.1" xmlns="http://www.w3.org/2000/svg" xmlns:xlink="http://www.w3.org/1999/xlink">
    <title>Usuario Dinámico</title>
    <defs>
        <linearGradient x1="50%" y1="-5.80508771e-15%" x2="50%" y2="100%" id="linearGradient-1">
            <stop stop-color="#CCCCCC" offset="0%"></stop>
            <stop stop-color="#DCDCDC" offset="12%"></stop>
            <stop stop-color="#E8E8E8" offset="29%"></stop>
            <stop stop-color="#EFEFEF" offset="50%"></stop>
            <stop stop-color="#F2F2F2" offset="100%"></stop>
        </linearGradient>
    </defs>
    <g id="Page-1" stroke="none" stroke-width="1" fill="none" fill-rule="evenodd">
        <g id="Tein---Intro:-Integramos-Tecnología" transform="translate(-91, -249)">
            <g id="Dynamic-user---Option-2" transform="translate(91, 195)">
                <g id="Usuario-Dinámico" transform="translate(0, 54)">
                    <g id="radios" transform="translate(161.6546, 185) rotate(-180) translate(-161.6546, -185)translate(11.0662, 2)">
                        <path d="M117.17666,0 C218.797054,0 301.17666,81.9318908 301.17666,183 C301.17666,284.068109 218.797054,366 117.17666,366 L117.091204,366 L117.091583,338.272705 C117.11994,338.27272 117.148299,338.272727 117.17666,338.272727 C203.400025,338.272727 273.297873,268.754759 273.297873,183 C273.297873,97.2452407 203.400025,27.7272727 117.17666,27.7272727 C102.027806,27.7272727 87.3828883,29.8731592 73.5324478,33.8759718 L70.5782042,5.91956939 C85.4607185,2.05642322 101.077225,0 117.17666,0 Z" id="Combined-Shape" fill="#2A8E89"></path>
                        <path d="M119.905558,27.4204766 C206.115791,28.9252818 274.783107,100.032369 273.278302,186.242602 C271.788855,271.572967 202.110606,339.716676 117.091001,339.639547 L117.091479,311.760668 C186.936075,311.832359 244.180195,255.854058 245.40376,185.75605 C246.63985,114.940502 190.234554,56.5311084 119.419006,55.2950184 C83.2061035,54.6629199 50.2373931,69.1039655 26.499246,92.8371844 L18.4005657,62.6158595 C46.0073368,40.0376545 81.454194,26.7493056 119.905558,27.4204766 Z" id="Combined-Shape" fill="#2EB9AE"></path>
                        <path d="M130.582696,56.1325532 C201.021037,63.5359212 252.120979,126.639094 244.717611,197.077436 C237.789323,262.995699 182.080454,311.977848 117.229565,311.925209 L117.22972,284.044184 C167.977707,284.079616 211.569814,245.747643 216.991546,194.163309 C222.785487,139.03765 182.794227,89.6525583 127.668569,83.8586182 C76.3048877,78.4600777 29.9249928,112.810868 19.1470857,162.116858 L6.36526422e-14,131.476804 C21.9868662,82.089983 73.9106804,50.1760843 130.582696,56.1325532 Z" id="Combined-Shape" fill="#5FC7C0"></path>
                        <path d="M138.043434,85.8295499 C192.261476,97.3539506 226.871511,150.648731 215.347111,204.866773 C205.292431,252.170321 163.442067,284.54822 116.923598,284.383613 L116.9234,256.498992 C150.548277,256.650861 180.81075,233.258014 188.077541,199.070447 C196.400719,159.912972 171.404583,121.422298 132.247108,113.099119 C93.0896327,104.775941 54.5989581,129.772077 46.2757798,168.929553 C44.1941819,178.722701 44.1966494,188.474142 45.9834923,197.722394 L23.1170868,219.045695 C16.6614337,201.769199 14.8875127,182.510176 19.0062103,163.133227 C30.530611,108.915184 83.8253913,74.3051492 138.043434,85.8295499 Z" id="Combined-Shape" fill="#A6E2DF"></path>
                    </g>
                    <g id="user-inner" transform="translate(122, 111)" fill-rule="nonzero">
                        <path d="M72.94,145.88 C32.72,145.88 0,113.16 0,72.94 C0,32.72 32.72,0 72.94,0 C113.16,0 145.88,32.72 145.88,72.94 C145.88,113.16 113.16,145.88 72.94,145.88 Z M72.94,5.19 C35.58,5.19 5.19,35.58 5.19,72.94 C5.19,110.3 35.58,140.69 72.94,140.69 C110.3,140.69 140.69,110.3 140.69,72.94 C140.69,35.58 110.3,5.19 72.94,5.19 Z" id="Shape" fill="#424359"></path>
                        <g id="Group" transform="translate(4.09, 3.46)">
                            <circle id="Oval" fill="url(#linearGradient-1)" cx="68.85" cy="69.35" r="68.85"></circle>
                            <path d="M68.85,2.59 C106.44,2.59 136.99,32.72 137.68,70.14 C137.68,69.71 137.7,69.28 137.7,68.84 C137.7,30.82 106.87,-7.99360578e-15 68.85,-7.99360578e-15 C30.83,-7.99360578e-15 -3.55271368e-15,30.82 -3.55271368e-15,68.85 C-3.55271368e-15,69.28 -3.55271368e-15,69.72 0.02,70.15 C0.71,32.72 31.26,2.59 68.85,2.59 Z" id="Path" fill="#FFFFFF"></path>
                        </g>
                        <circle id="Oval" fill="#FFFFFF" cx="72.94" cy="73.6" r="59.77"></circle>
                        <g id="f" transform="translate(51.7064, 30.6582)" fill="#424359">
                            <g id="g" transform="translate(0, 0)">
                                <g id="j" transform="translate(-0, 0)">
                                    <path d="M14.2136127,7.78177734 C14.0436127,7.78177734 13.9236127,7.90177734 13.9236127,8.07177734 C13.9236127,8.24177734 14.0436127,8.36177734 14.2136127,8.36177734 L28.3036127,8.36177734 C28.4736127,9.82177734 29.7636127,10.9817773 31.3336127,10.9817773 C32.9036127,10.9817773 34.3036127,9.70177734 34.3036127,8.07177734 C34.3036127,6.44177734 32.9636127,5.16177734 31.3336127,5.16177734 C29.7036127,5.16177734 28.5436127,6.32177734 28.3636127,7.78177734 L14.2236127,7.78177734 L14.2136127,7.78177734 Z M31.3236127,6.38177734 C32.2536127,6.38177734 33.0736127,7.14177734 33.0736127,8.07177734 C33.0736127,9.00177734 32.3136127,9.76177734 31.3236127,9.76177734 C30.3936127,9.76177734 29.5736127,9.00177734 29.5736127,8.07177734 C29.5736127,7.14177734 30.3336127,6.38177734 31.3236127,6.38177734 Z" id="k"></path>
                                    <path d="M30.0436127,17.0417773 L26.3136127,13.4317773 C26.2536127,13.3717773 26.1436127,13.3117773 26.0836127,13.3117773 L11.9436127,13.3117773 C11.7736127,13.3117773 11.5936127,13.4317773 11.5936127,13.6017773 C11.5936127,13.7717773 11.7136127,13.8917773 11.9436127,13.8917773 L25.9736127,13.8917773 L29.7036127,17.5017773 C29.7636127,17.5617773 29.8236127,17.6217773 29.9336127,17.6217773 L34.6436127,17.6217773 C34.8136127,19.0817773 36.1036127,20.2417773 37.6736127,20.2417773 C39.3636127,20.2417773 40.7036127,18.9017773 40.7036127,17.2717773 C40.7036127,15.6417773 39.3636127,14.3017773 37.6736127,14.3017773 C36.1036127,14.3017773 34.8236127,15.4617773 34.6436127,16.9217773 L30.0436127,16.9217773 L30.0436127,17.0417773 L30.0436127,17.0417773 Z M37.6736127,15.6417773 C38.6636127,15.6417773 39.4236127,16.4017773 39.4236127,17.3317773 C39.4236127,18.2617773 38.6136127,19.0217773 37.6736127,19.0217773 C36.6836127,19.0217773 35.9236127,18.2617773 35.9236127,17.3317773 C35.9236127,16.4017773 36.6836127,15.6417773 37.6736127,15.6417773 Z" id="l"></path>
                                    <path d="M15.2636127,43.6917773 C14.8536127,42.5817773 14.5036127,42.2317773 14.2736127,42.1217773 C13.5736127,41.6017773 12.7036127,41.6017773 10.6036127,41.7117773 C9.79361267,41.7717773 8.56361267,41.8317773 7.92361267,41.8317773 C7.69361267,41.8317773 7.22361267,41.7117773 6.81361267,41.5417773 C6.05361267,41.1317773 5.76361267,40.6117773 5.76361267,39.5017773 C5.76361267,38.9217773 5.82361267,38.3917773 5.99361267,37.7017773 C6.22361267,36.5417773 5.87361267,35.9017773 5.58361267,35.5517773 L5.41361267,35.3817773 C5.18361267,35.1517773 4.77361267,34.7417773 4.65361267,34.5717773 C4.71361267,34.4017773 4.88361267,33.9917773 5.00361267,33.7617773 C5.17361267,33.4717773 5.06361267,33.1217773 4.77361267,32.9517773 C4.48361267,32.7817773 4.19361267,32.5417773 4.07361267,32.3717773 C4.13361267,32.3117773 4.13361267,32.2017773 4.19361267,32.1417773 C4.42361267,31.6717773 4.66361267,31.1517773 4.66361267,30.5117773 C4.60361267,29.2917773 3.67361267,28.8217773 3.03361267,28.5317773 L2.68361267,28.3617773 C1.75361267,27.8417773 1.28361267,27.3117773 1.28361267,26.7917773 C1.28361267,26.3817773 1.75361267,25.8617773 2.15361267,25.4517773 C2.32361267,25.2817773 2.50361267,25.1017773 2.62361267,24.9317773 C2.85361267,24.6417773 3.14361267,24.3517773 3.43361267,24.0017773 C3.84361267,23.5317773 4.30361267,23.0717773 4.65361267,22.5417773 L4.65361267,22.4817773 C5.00361267,21.9017773 5.35361267,21.3217773 5.41361267,20.8517773 C5.53361267,19.9817773 5.35361267,19.3417773 4.94361267,18.4617773 C4.65361267,17.7617773 4.77361267,16.3617773 4.94361267,15.6117773 C5.17361267,14.6817773 5.58361267,13.2217773 6.28361267,11.0117773 C6.40361267,10.7217773 6.57361267,10.2017773 6.86361267,9.61177734 C8.37361267,6.18177734 12.7436127,0.591777344 24.3236127,1.29177734 C24.6736127,1.29177734 24.9636127,1.06177734 24.9636127,0.711777344 C24.9636127,0.361777344 24.7336127,0.0717773437 24.3836127,0.0717773437 C18.9736127,-0.278222656 14.4836127,0.651777344 10.9936127,2.86177734 C8.02361267,4.78177734 6.45361267,7.23177734 5.64361267,8.97177734 C5.35361267,9.61177734 5.12361267,10.1317773 5.06361267,10.4817773 C4.13361267,13.3917773 3.84361267,14.5517773 3.66361267,15.1917773 C3.54361267,15.8317773 3.25361267,17.6917773 3.78361267,18.8017773 C4.13361267,19.5617773 4.19361267,19.9617773 4.13361267,20.4917773 C4.13361267,20.6617773 3.90361267,21.0117773 3.55361267,21.6017773 L3.55361267,21.6617773 C3.26361267,22.0717773 2.85361267,22.4717773 2.50361267,22.8817773 C2.21361267,23.2317773 1.86361267,23.5817773 1.57361267,23.9317773 C1.45361267,24.0517773 1.34361267,24.2217773 1.16361267,24.4017773 C0.643612675,24.9817773 -0.0563873253,25.7417773 0.00361267466,26.6717773 C0.0636126747,28.1817773 1.57361267,29.0017773 2.04361267,29.2917773 C2.21361267,29.3517773 2.33361267,29.4617773 2.45361267,29.5217773 C3.15361267,29.8717773 3.38361267,30.0417773 3.38361267,30.4517773 C3.38361267,30.7417773 3.21361267,31.0917773 3.03361267,31.4417773 C2.97361267,31.6117773 2.86361267,31.7317773 2.80361267,31.9117773 C2.57361267,32.5517773 3.09361267,33.1917773 3.56361267,33.6017773 C3.44361267,33.8317773 3.33361267,34.1817773 3.33361267,34.4117773 C3.27361267,35.1117773 3.85361267,35.6317773 4.44361267,36.2717773 L4.61361267,36.4417773 C4.78361267,36.6117773 4.78361267,36.9617773 4.73361267,37.4317773 C4.61361267,38.0117773 4.50361267,38.7117773 4.50361267,39.5317773 C4.50361267,40.6417773 4.73361267,41.9717773 6.36361267,42.6717773 C6.83361267,42.8417773 7.47361267,43.0817773 7.99361267,43.0817773 L7.99361267,43.0817773 C8.69361267,43.0817773 9.85361267,43.0217773 10.7336127,42.9617773 C12.6536127,42.8417773 13.2336127,42.9017773 13.5836127,43.1317773 C13.5836127,43.1317773 13.8136127,43.3017773 14.1636127,44.1817773 C14.5736127,45.1717773 14.9236127,46.6217773 15.2736127,48.3717773 C15.3336127,48.6617773 15.6236127,48.8917773 15.9136127,48.8917773 L16.0336127,48.8917773 C16.3836127,48.8317773 16.6136127,48.4817773 16.5536127,48.1317773 C16.0836127,46.2117773 15.7436127,44.7517773 15.2736127,43.7117773 L15.2736127,43.7117773 L15.2636127,43.6917773 Z" id="m"></path>
                                    <path d="M28.2936127,25.2417773 L8.38361267,25.2417773 C8.21361267,25.2417773 8.09361267,25.3617773 8.09361267,25.5317773 C8.09361267,25.7017773 8.21361267,25.8217773 8.38361267,25.8217773 L28.2936127,25.8217773 C28.4636127,27.2817773 29.7536127,28.4417773 31.3236127,28.4417773 C32.8936127,28.4417773 34.2936127,27.1617773 34.2936127,25.5317773 C34.2936127,23.9017773 32.9536127,22.6217773 31.3236127,22.6217773 C29.6936127,22.6217773 28.4736127,23.7817773 28.2936127,25.2417773 Z M33.0036127,25.5317773 C33.0036127,26.4617773 32.2436127,27.2217773 31.2536127,27.2217773 C30.2636127,27.2217773 29.5036127,26.4617773 29.5036127,25.5317773 C29.5036127,24.6017773 30.2636127,23.8417773 31.2536127,23.8417773 C32.2436127,23.8417773 33.0036127,24.6017773 33.0036127,25.5317773 Z" id="n"></path>
                                    <path d="M31.2036127,40.0917773 C29.6336127,40.0917773 28.3536127,41.2517773 28.1736127,42.7117773 L21.1936127,42.7117773 C21.0236127,42.7117773 20.8436127,42.8317773 20.8436127,43.0017773 C20.8436127,43.1717773 20.9636127,43.2917773 21.1936127,43.2917773 L28.1736127,43.2917773 C28.3436127,44.7517773 29.6336127,45.9117773 31.2036127,45.9117773 C32.8936127,45.9117773 34.2836127,44.6317773 34.2836127,43.0017773 C34.2836127,41.3717773 32.8836127,40.0917773 31.2036127,40.0917773 L31.2036127,40.0917773 Z M31.2036127,44.6917773 C30.2136127,44.6917773 29.4536127,43.9317773 29.4536127,43.0017773 C29.4536127,42.0717773 30.2636127,41.3117773 31.2036127,41.3117773 C32.1936127,41.3117773 32.9536127,42.0717773 32.9536127,43.0017773 C32.9536127,43.9317773 32.1936127,44.6917773 31.2036127,44.6917773 Z" id="o"></path>
                                    <path d="M37.6736127,30.7717773 C36.1036127,30.7717773 34.8236127,31.9317773 34.6436127,33.3917773 L29.9336127,33.3917773 C29.8736127,33.3917773 29.7636127,33.4517773 29.7036127,33.5117773 L25.9736127,37.1217773 L12.5236127,37.1217773 C12.3536127,37.1217773 12.1736127,37.2417773 12.1736127,37.4117773 C12.1736127,37.5817773 12.2936127,37.7017773 12.5236127,37.7017773 L26.0836127,37.7017773 C26.1436127,37.7017773 26.2536127,37.6417773 26.3136127,37.5817773 L30.0436127,33.9717773 L34.6436127,33.9717773 C34.8136127,35.4317773 36.1036127,36.5917773 37.6736127,36.5917773 C39.3636127,36.5917773 40.7036127,35.2517773 40.7036127,33.6217773 C40.7036127,32.1117773 39.3636127,30.7717773 37.6736127,30.7717773 L37.6736127,30.7717773 Z M37.6736127,35.4317773 C36.6836127,35.4317773 35.9236127,34.6717773 35.9236127,33.7417773 C35.9236127,32.8117773 36.7336127,32.0517773 37.6736127,32.0517773 C38.6136127,32.0517773 39.4236127,32.8117773 39.4236127,33.7417773 C39.4236127,34.6717773 38.6136127,35.4317773 37.6736127,35.4317773 Z" id="p"></path>
                                </g>
                            </g>
                        </g>
                        <g id="Group" transform="translate(42.22, 88.68)" fill="#000000">
                            <path d="M6.73,9.39 C5.98,9.39 5.32,9.26 4.77,9.01 C4.21,8.76 3.79,8.36 3.48,7.83 C3.18,7.3 3.02,6.61 3.02,5.78 L3.02,0.49 C3.02,0.4 3.05,0.32 3.11,0.26 C3.17,0.2 3.24,0.17 3.33,0.17 L4.51,0.17 C4.61,0.17 4.68,0.2 4.74,0.26 C4.8,0.32 4.82,0.4 4.82,0.49 L4.82,5.78 C4.82,6.49 4.99,7.02 5.33,7.36 C5.67,7.7 6.13,7.87 6.72,7.87 C7.31,7.87 7.77,7.7 8.1,7.36 C8.43,7.02 8.6,6.49 8.6,5.78 L8.6,0.49 C8.6,0.4 8.63,0.32 8.69,0.26 C8.75,0.2 8.83,0.17 8.92,0.17 L10.09,0.17 C10.19,0.17 10.26,0.2 10.32,0.26 C10.38,0.32 10.4,0.4 10.4,0.49 L10.4,5.78 C10.4,6.61 10.25,7.29 9.95,7.83 C9.65,8.36 9.23,8.76 8.68,9.01 C8.13,9.27 7.47,9.39 6.71,9.39 L6.73,9.39 Z" id="Path"></path>
                            <path d="M15.53,9.39 C14.72,9.39 14.05,9.27 13.51,9.03 C12.97,8.79 12.56,8.48 12.28,8.09 C12,7.7 11.85,7.3 11.83,6.87 C11.83,6.79 11.86,6.73 11.91,6.67 C11.96,6.62 12.03,6.59 12.11,6.59 L13.27,6.59 C13.38,6.59 13.47,6.61 13.52,6.66 C13.58,6.71 13.63,6.77 13.67,6.83 C13.72,7 13.82,7.16 13.97,7.32 C14.12,7.48 14.32,7.61 14.57,7.72 C14.83,7.82 15.15,7.88 15.54,7.88 C16.16,7.88 16.63,7.78 16.94,7.57 C17.25,7.36 17.4,7.08 17.4,6.72 C17.4,6.47 17.32,6.27 17.15,6.12 C16.98,5.97 16.73,5.83 16.39,5.7 C16.05,5.58 15.6,5.44 15.03,5.3 C14.38,5.14 13.84,4.96 13.4,4.73 C12.96,4.51 12.63,4.23 12.41,3.89 C12.19,3.55 12.08,3.12 12.08,2.6 C12.08,2.08 12.22,1.65 12.49,1.26 C12.76,0.87 13.15,0.56 13.66,0.34 C14.17,0.11 14.77,0 15.47,0 C16.03,0 16.53,0.08 16.97,0.23 C17.4,0.38 17.76,0.58 18.05,0.83 C18.34,1.08 18.55,1.34 18.71,1.62 C18.87,1.9 18.94,2.18 18.95,2.45 C18.95,2.52 18.93,2.58 18.88,2.64 C18.83,2.7 18.77,2.72 18.68,2.72 L17.47,2.72 C17.4,2.72 17.33,2.7 17.26,2.67 C17.19,2.64 17.13,2.57 17.09,2.48 C17.04,2.21 16.87,1.98 16.58,1.79 C16.29,1.6 15.93,1.5 15.48,1.5 C15.03,1.5 14.64,1.59 14.35,1.76 C14.06,1.93 13.92,2.2 13.92,2.57 C13.92,2.81 13.99,3.01 14.13,3.17 C14.27,3.33 14.5,3.47 14.82,3.59 C15.14,3.71 15.55,3.84 16.07,3.98 C16.81,4.15 17.41,4.34 17.88,4.55 C18.35,4.77 18.69,5.04 18.91,5.38 C19.13,5.71 19.24,6.14 19.24,6.65 C19.24,7.22 19.09,7.71 18.78,8.11 C18.47,8.51 18.04,8.82 17.49,9.04 C16.94,9.26 16.29,9.37 15.55,9.37 L15.53,9.39 Z" id="Path"></path>
                            <path d="M24.35,9.39 C23.6,9.39 22.94,9.26 22.39,9.01 C21.83,8.76 21.41,8.36 21.1,7.83 C20.8,7.3 20.64,6.61 20.64,5.78 L20.64,0.49 C20.64,0.4 20.67,0.32 20.73,0.26 C20.79,0.2 20.86,0.17 20.95,0.17 L22.13,0.17 C22.23,0.17 22.3,0.2 22.36,0.26 C22.42,0.32 22.44,0.4 22.44,0.49 L22.44,5.78 C22.44,6.49 22.61,7.02 22.95,7.36 C23.29,7.7 23.75,7.87 24.34,7.87 C24.93,7.87 25.39,7.7 25.72,7.36 C26.05,7.02 26.22,6.49 26.22,5.78 L26.22,0.49 C26.22,0.4 26.25,0.32 26.31,0.26 C26.37,0.2 26.45,0.17 26.54,0.17 L27.71,0.17 C27.81,0.17 27.88,0.2 27.94,0.26 C28,0.32 28.02,0.4 28.02,0.49 L28.02,5.78 C28.02,6.61 27.87,7.29 27.57,7.83 C27.27,8.36 26.85,8.76 26.3,9.01 C25.75,9.27 25.09,9.39 24.33,9.39 L24.35,9.39 Z" id="Path"></path>
                            <path d="M29.24,9.26 C29.17,9.26 29.11,9.23 29.05,9.18 C28.99,9.13 28.97,9.06 28.97,8.98 C28.97,8.95 28.97,8.91 29,8.86 L32.13,0.47 C32.16,0.38 32.21,0.31 32.28,0.24 C32.35,0.18 32.45,0.14 32.59,0.14 L34.01,0.14 C34.14,0.14 34.24,0.17 34.31,0.24 C34.38,0.31 34.43,0.38 34.47,0.47 L37.6,8.86 C37.6,8.86 37.61,8.94 37.61,8.98 C37.61,9.06 37.58,9.12 37.53,9.18 C37.48,9.23 37.42,9.26 37.35,9.26 L36.22,9.26 C36.1,9.26 36.01,9.23 35.95,9.18 C35.89,9.12 35.86,9.07 35.84,9.02 L35.23,7.43 L31.37,7.43 L30.76,9.02 C30.74,9.07 30.71,9.13 30.65,9.18 C30.59,9.23 30.5,9.26 30.38,9.26 L29.25,9.26 L29.24,9.26 Z M31.81,5.93 L34.76,5.93 L33.28,1.91 L31.81,5.93 Z" id="Shape"></path>
                            <path d="M39.12,9.26 C39.03,9.26 38.96,9.23 38.9,9.17 C38.84,9.11 38.81,9.04 38.81,8.95 L38.81,0.49 C38.81,0.4 38.84,0.32 38.9,0.26 C38.96,0.2 39.03,0.17 39.12,0.17 L42.49,0.17 C43.54,0.17 44.37,0.41 44.97,0.9 C45.58,1.39 45.88,2.09 45.88,3.02 C45.88,3.66 45.72,4.19 45.41,4.62 C45.09,5.04 44.67,5.35 44.14,5.54 L46.04,8.86 C46.07,8.91 46.08,8.96 46.08,9 C46.08,9.08 46.05,9.14 46,9.2 C45.94,9.25 45.88,9.28 45.81,9.28 L44.63,9.28 C44.48,9.28 44.37,9.24 44.29,9.16 C44.21,9.08 44.15,9 44.11,8.93 L42.43,5.85 L40.62,5.85 L40.62,8.97 C40.62,9.06 40.59,9.13 40.54,9.19 C40.49,9.25 40.41,9.28 40.31,9.28 L39.13,9.28 L39.12,9.26 Z M40.61,4.36 L42.44,4.36 C42.97,4.36 43.36,4.24 43.62,4 C43.88,3.76 44.01,3.43 44.01,2.99 C44.01,2.55 43.88,2.22 43.63,1.97 C43.38,1.72 42.98,1.6 42.44,1.6 L40.61,1.6 L40.61,4.36 L40.61,4.36 Z" id="Shape"></path>
                            <path d="M47.87,9.26 C47.78,9.26 47.71,9.23 47.65,9.17 C47.59,9.11 47.56,9.04 47.56,8.95 L47.56,0.47 C47.56,0.38 47.59,0.31 47.65,0.25 C47.71,0.19 47.78,0.16 47.87,0.16 L49.09,0.16 C49.18,0.16 49.26,0.19 49.32,0.25 C49.38,0.31 49.4,0.38 49.4,0.47 L49.4,8.95 C49.4,9.04 49.37,9.11 49.32,9.17 C49.26,9.23 49.19,9.26 49.09,9.26 L47.87,9.26 Z" id="Path"></path>
                            <path d="M54.94,9.39 C54.17,9.39 53.51,9.26 52.95,9.01 C52.4,8.76 51.96,8.36 51.65,7.83 C51.34,7.3 51.17,6.63 51.14,5.83 C51.14,5.46 51.13,5.09 51.13,4.72 C51.13,4.35 51.13,3.98 51.14,3.6 C51.17,2.81 51.34,2.15 51.66,1.62 C51.98,1.09 52.42,0.69 52.98,0.42 C53.54,0.15 54.19,0.02 54.94,0.02 C55.69,0.02 56.34,0.15 56.9,0.42 C57.46,0.69 57.91,1.09 58.23,1.62 C58.55,2.15 58.72,2.81 58.75,3.6 C58.77,3.98 58.78,4.35 58.78,4.72 C58.78,5.09 58.78,5.45 58.75,5.83 C58.72,6.63 58.55,7.29 58.24,7.83 C57.93,8.37 57.49,8.76 56.93,9.01 C56.37,9.27 55.71,9.39 54.93,9.39 L54.94,9.39 Z M54.94,7.89 C55.5,7.89 55.96,7.72 56.32,7.39 C56.67,7.06 56.87,6.51 56.89,5.76 C56.91,5.38 56.92,5.03 56.92,4.7 C56.92,4.37 56.92,4.03 56.89,3.65 C56.87,3.15 56.78,2.74 56.61,2.42 C56.44,2.1 56.21,1.87 55.93,1.73 C55.64,1.59 55.31,1.52 54.94,1.52 C54.57,1.52 54.25,1.59 53.97,1.73 C53.68,1.87 53.46,2.1 53.29,2.42 C53.12,2.74 53.03,3.15 53.01,3.65 C53.01,4.02 53,4.37 53,4.7 C53,5.03 53,5.38 53.01,5.76 C53.04,6.51 53.23,7.06 53.58,7.39 C53.94,7.72 54.39,7.89 54.95,7.89 L54.94,7.89 Z" id="Shape"></path>
                            <path d="M0.31,23.26 C0.22,23.26 0.15,23.23 0.09,23.17 C0.03,23.11 -7.10542736e-15,23.04 -7.10542736e-15,22.95 L-7.10542736e-15,14.49 C-7.10542736e-15,14.4 0.03,14.32 0.09,14.26 C0.15,14.2 0.22,14.17 0.31,14.17 L3.48,14.17 C4.36,14.17 5.08,14.3 5.64,14.57 C6.21,14.84 6.64,15.24 6.93,15.77 C7.22,16.3 7.37,16.94 7.38,17.71 C7.4,18.09 7.41,18.43 7.41,18.72 C7.41,19.01 7.41,19.35 7.38,19.72 C7.36,20.53 7.22,21.19 6.94,21.72 C6.66,22.25 6.24,22.64 5.69,22.89 C5.13,23.15 4.42,23.27 3.55,23.27 L0.31,23.27 L0.31,23.26 Z M1.8,21.76 L3.48,21.76 C3.97,21.76 4.36,21.69 4.66,21.55 C4.96,21.41 5.19,21.19 5.33,20.88 C5.47,20.57 5.55,20.17 5.56,19.66 C5.56,19.4 5.58,19.17 5.58,18.98 C5.58,18.78 5.58,18.59 5.58,18.4 C5.58,18.2 5.57,17.98 5.56,17.73 C5.54,17.02 5.36,16.5 5.03,16.16 C4.7,15.82 4.15,15.65 3.42,15.65 L1.81,15.65 L1.81,21.76 L1.8,21.76 Z" id="Shape"></path>
                            <path d="M9.45,23.26 C9.36,23.26 9.29,23.23 9.23,23.17 C9.17,23.11 9.14,23.04 9.14,22.95 L9.14,14.47 C9.14,14.38 9.17,14.31 9.23,14.25 C9.29,14.19 9.36,14.16 9.45,14.16 L10.67,14.16 C10.77,14.16 10.84,14.19 10.9,14.25 C10.96,14.31 10.98,14.38 10.98,14.47 L10.98,22.95 C10.98,23.04 10.95,23.11 10.9,23.17 C10.85,23.23 10.77,23.26 10.67,23.26 L9.45,23.26 Z" id="Path"></path>
                            <path d="M13.34,23.26 C13.25,23.26 13.18,23.23 13.12,23.17 C13.06,23.11 13.03,23.04 13.03,22.95 L13.03,14.49 C13.03,14.4 13.06,14.32 13.12,14.26 C13.18,14.2 13.25,14.17 13.34,14.17 L14.34,14.17 C14.46,14.17 14.55,14.2 14.61,14.25 C14.67,14.31 14.7,14.35 14.72,14.37 L18.46,20.19 L18.46,14.48 C18.46,14.39 18.49,14.31 18.54,14.25 C18.6,14.19 18.67,14.16 18.77,14.16 L19.86,14.16 C19.96,14.16 20.03,14.19 20.09,14.25 C20.15,14.31 20.18,14.39 20.18,14.48 L20.18,22.93 C20.18,23.03 20.15,23.1 20.09,23.16 C20.03,23.22 19.96,23.25 19.87,23.25 L18.86,23.25 C18.74,23.25 18.65,23.22 18.6,23.16 C18.55,23.1 18.51,23.06 18.48,23.04 L14.75,17.35 L14.75,22.94 C14.75,23.03 14.72,23.1 14.66,23.16 C14.6,23.22 14.52,23.25 14.43,23.25 L13.34,23.25 L13.34,23.26 Z" id="Path"></path>
                            <path d="M21.66,23.26 C21.59,23.26 21.53,23.23 21.47,23.18 C21.41,23.13 21.39,23.06 21.39,22.98 C21.39,22.95 21.39,22.91 21.42,22.86 L24.55,14.47 C24.58,14.38 24.63,14.31 24.7,14.24 C24.77,14.18 24.88,14.14 25.01,14.14 L26.43,14.14 C26.56,14.14 26.66,14.17 26.73,14.24 C26.8,14.31 26.85,14.38 26.89,14.47 L30.02,22.86 C30.02,22.86 30.03,22.94 30.03,22.98 C30.03,23.06 30,23.12 29.95,23.18 C29.9,23.23 29.84,23.26 29.77,23.26 L28.64,23.26 C28.52,23.26 28.43,23.23 28.37,23.18 C28.31,23.12 28.28,23.07 28.26,23.02 L27.65,21.43 L23.79,21.43 L23.18,23.02 C23.16,23.07 23.13,23.13 23.07,23.18 C23.01,23.24 22.92,23.26 22.8,23.26 L21.67,23.26 L21.66,23.26 Z M24.23,19.93 L27.18,19.93 L25.7,15.91 L24.23,19.93 Z M25.13,13.51 C24.99,13.51 24.92,13.44 24.92,13.3 C24.92,13.23 24.94,13.17 24.99,13.13 L26.04,11.84 C26.13,11.75 26.2,11.68 26.26,11.65 C26.32,11.62 26.41,11.6 26.52,11.6 L27.91,11.6 C28.07,11.6 28.16,11.68 28.16,11.85 C28.16,11.91 28.14,11.96 28.1,12.01 L26.49,13.34 C26.42,13.4 26.35,13.44 26.29,13.47 C26.23,13.5 26.14,13.51 26.04,13.51 L25.14,13.51 L25.13,13.51 Z" id="Shape"></path>
                            <path d="M31.55,23.26 C31.46,23.26 31.38,23.23 31.32,23.17 C31.26,23.11 31.23,23.04 31.23,22.95 L31.23,14.49 C31.23,14.4 31.26,14.32 31.32,14.26 C31.38,14.2 31.46,14.17 31.55,14.17 L32.58,14.17 C32.7,14.17 32.79,14.2 32.85,14.27 C32.91,14.34 32.95,14.39 32.97,14.42 L35.48,19.1 L38.01,14.42 C38.01,14.42 38.07,14.34 38.13,14.27 C38.19,14.21 38.28,14.17 38.4,14.17 L39.41,14.17 C39.51,14.17 39.58,14.2 39.64,14.26 C39.7,14.32 39.73,14.4 39.73,14.49 L39.73,22.95 C39.73,23.04 39.7,23.11 39.64,23.17 C39.58,23.23 39.5,23.26 39.41,23.26 L38.32,23.26 C38.22,23.26 38.15,23.23 38.09,23.17 C38.03,23.11 38.01,23.04 38.01,22.95 L38.01,17.32 L36.19,20.79 C36.15,20.87 36.09,20.93 36.02,20.99 C35.95,21.05 35.86,21.07 35.75,21.07 L35.22,21.07 C35.1,21.07 35.01,21.04 34.94,20.99 C34.88,20.93 34.82,20.87 34.78,20.79 L32.96,17.32 L32.96,22.95 C32.96,23.04 32.93,23.11 32.87,23.17 C32.81,23.23 32.74,23.26 32.65,23.26 L31.56,23.26 L31.55,23.26 Z" id="Path"></path>
                            <path d="M42.08,23.26 C41.99,23.26 41.92,23.23 41.86,23.17 C41.8,23.11 41.77,23.04 41.77,22.95 L41.77,14.47 C41.77,14.38 41.8,14.31 41.86,14.25 C41.92,14.19 41.99,14.16 42.08,14.16 L43.3,14.16 C43.4,14.16 43.47,14.19 43.53,14.25 C43.59,14.31 43.61,14.38 43.61,14.47 L43.61,22.95 C43.61,23.04 43.58,23.11 43.53,23.17 C43.47,23.23 43.4,23.26 43.3,23.26 L42.08,23.26 Z" id="Path"></path>
                            <path d="M49.16,23.39 C48.35,23.39 47.67,23.25 47.11,22.97 C46.55,22.69 46.12,22.29 45.83,21.76 C45.54,21.24 45.37,20.61 45.34,19.87 C45.34,19.51 45.33,19.13 45.33,18.73 C45.33,18.33 45.33,17.93 45.34,17.56 C45.38,16.83 45.54,16.2 45.84,15.68 C46.14,15.15 46.57,14.75 47.13,14.46 C47.69,14.18 48.37,14.04 49.17,14.04 C49.76,14.04 50.29,14.12 50.76,14.27 C51.23,14.43 51.63,14.64 51.96,14.91 C52.29,15.18 52.54,15.5 52.73,15.87 C52.91,16.23 53.01,16.63 53.02,17.05 C53.02,17.13 53.01,17.19 52.95,17.25 C52.89,17.3 52.83,17.33 52.75,17.33 L51.51,17.33 C51.41,17.33 51.34,17.31 51.28,17.26 C51.22,17.21 51.18,17.13 51.15,17.02 C51.01,16.45 50.77,16.06 50.44,15.85 C50.11,15.64 49.68,15.54 49.18,15.54 C48.6,15.54 48.14,15.7 47.79,16.03 C47.44,16.35 47.26,16.89 47.23,17.64 C47.2,18.35 47.2,19.08 47.23,19.82 C47.26,20.56 47.44,21.1 47.79,21.43 C48.14,21.76 48.6,21.92 49.18,21.92 C49.68,21.92 50.1,21.81 50.44,21.6 C50.78,21.39 51.02,21 51.15,20.44 C51.18,20.32 51.22,20.24 51.28,20.19 C51.34,20.15 51.42,20.12 51.51,20.12 L52.75,20.12 C52.83,20.12 52.89,20.15 52.95,20.2 C53.01,20.25 53.03,20.32 53.02,20.4 C53.02,20.82 52.92,21.22 52.73,21.58 C52.54,21.94 52.29,22.26 51.96,22.54 C51.63,22.81 51.23,23.03 50.76,23.18 C50.29,23.34 49.76,23.41 49.17,23.41 L49.16,23.39 Z" id="Path"></path>
                            <path d="M58.04,23.39 C57.27,23.39 56.61,23.26 56.05,23.01 C55.5,22.76 55.06,22.36 54.75,21.83 C54.44,21.3 54.27,20.63 54.24,19.83 C54.24,19.46 54.23,19.09 54.23,18.72 C54.23,18.35 54.23,17.98 54.24,17.6 C54.27,16.81 54.44,16.15 54.76,15.62 C55.08,15.09 55.52,14.69 56.08,14.42 C56.64,14.15 57.29,14.02 58.04,14.02 C58.79,14.02 59.44,14.15 60,14.42 C60.56,14.69 61.01,15.09 61.33,15.62 C61.65,16.15 61.82,16.81 61.85,17.6 C61.87,17.98 61.88,18.35 61.88,18.72 C61.88,19.09 61.88,19.45 61.85,19.83 C61.82,20.63 61.66,21.29 61.34,21.83 C61.03,22.36 60.59,22.76 60.03,23.01 C59.47,23.27 58.81,23.39 58.03,23.39 L58.04,23.39 Z M58.04,21.89 C58.6,21.89 59.06,21.72 59.42,21.39 C59.77,21.06 59.96,20.51 59.99,19.76 C60.01,19.38 60.02,19.03 60.02,18.7 C60.02,18.37 60.02,18.03 59.99,17.65 C59.97,17.15 59.88,16.74 59.71,16.42 C59.54,16.1 59.31,15.87 59.03,15.73 C58.75,15.59 58.41,15.52 58.04,15.52 C57.67,15.52 57.35,15.59 57.07,15.73 C56.78,15.87 56.56,16.1 56.39,16.42 C56.22,16.74 56.13,17.15 56.11,17.65 C56.11,18.02 56.1,18.37 56.1,18.7 C56.1,19.03 56.1,19.38 56.11,19.76 C56.14,20.51 56.33,21.06 56.68,21.39 C57.04,21.72 57.49,21.89 58.05,21.89 L58.04,21.89 Z" id="Shape"></path>
                        </g>
                    </g>
                </g>
            </g>
        </g>
    </g>
</svg>