<?xml version="1.0" encoding="UTF-8"?><svg xmlns="http://www.w3.org/2000/svg" viewBox="0 0 32 32"><defs><style>.d{fill:#424359;}.e{fill:none;stroke:#424359;stroke-miterlimit:10;stroke-width:2px;}</style></defs><g id="a"/><g id="b"><g id="c"><g><circle class="e" cx="16" cy="16" r="15"/><g><path class="d" d="M16.01,5.5c-.78,0-1.42,.64-1.42,1.42,0,.63,.4,1.16,.97,1.34,.14,.05,.29,.07,.45,.07s.31-.03,.45-.07c.56-.19,.97-.72,.97-1.34,0-.78-.63-1.42-1.42-1.42Zm.45,1.44c-.01,.24-.21,.43-.45,.43s-.44-.19-.45-.43v-.02c0-.25,.2-.45,.45-.45h.01c.08,0,.16,.03,.22,.07h0c.13,.08,.21,.23,.21,.39v.02Z"/><path class="d" d="M16.24,6.53c-.07-.04-.14-.06-.22-.07,.08,0,.16,.02,.22,.07Z"/><path class="d" d="M15.99,26.5c.78,0,1.42-.64,1.42-1.42,0-.63-.4-1.16-.97-1.34-.14-.05-.29-.07-.45-.07s-.31,.03-.45,.07c-.56,.19-.97,.72-.97,1.34,0,.78,.63,1.42,1.42,1.42Zm-.45-1.44c.01-.24,.21-.43,.45-.43s.44,.19,.45,.43v.02c0,.25-.2,.45-.45,.45h-.01c-.08,0-.16-.03-.22-.07h0c-.13-.08-.21-.23-.21-.39v-.02Z"/><path class="d" d="M15.76,25.47c.07,.04,.14,.06,.22,.07-.08,0-.16-.02-.22-.07Z"/><path class="d" d="M26.5,16.01c0-.78-.64-1.42-1.42-1.42-.63,0-1.16,.4-1.34,.97-.05,.14-.07,.29-.07,.45s.03,.31,.07,.45c.19,.56,.72,.97,1.34,.97,.78,0,1.42-.63,1.42-1.42Zm-1.44,.45c-.24-.01-.43-.21-.43-.45s.19-.44,.43-.45h.02c.25,0,.45,.2,.45,.45h0c0,.09-.03,.17-.07,.23h0c-.08,.13-.22,.22-.38,.22h-.02Z"/><path class="d" d="M25.47,16.24c.04-.07,.06-.14,.07-.22,0,.08-.02,.16-.07,.22Z"/><path class="d" d="M5.5,15.99c0,.78,.64,1.42,1.42,1.42,.63,0,1.16-.4,1.34-.97,.05-.14,.07-.29,.07-.45s-.03-.31-.07-.45c-.19-.56-.72-.97-1.34-.97-.78,0-1.42,.63-1.42,1.42Zm1.44-.45c.24,.01,.43,.21,.43,.45s-.19,.44-.43,.45h-.02c-.25,0-.45-.2-.45-.45h0c0-.09,.03-.17,.07-.23h0c.08-.13,.22-.22,.38-.22h.02Z"/><path class="d" d="M6.53,15.76c-.04,.07-.06,.14-.07,.22,0-.08,.02-.16,.07-.22Z"/><path class="d" d="M8.58,8.57c-.55,.55-.55,1.45,0,2.01,.44,.44,1.1,.53,1.63,.27,.13-.07,.26-.16,.37-.27,.11-.11,.2-.24,.27-.37,.26-.53,.17-1.19-.27-1.63-.55-.55-1.45-.55-2.01,0Zm1.34,.7c.16,.18,.15,.45-.02,.62s-.45,.18-.62,.02l-.02-.02c-.18-.18-.18-.46,0-.64h0c.06-.06,.13-.1,.21-.12h0c.15-.03,.31,0,.42,.12l.02,.02Z"/><path class="d" d="M9.47,9.13c-.07,.02-.15,.06-.21,.11,.06-.06,.13-.1,.21-.11Z"/><path class="d" d="M23.42,23.43c.55-.55,.55-1.45,0-2.01-.44-.44-1.1-.53-1.63-.27-.13,.07-.26,.16-.37,.27-.11,.11-.2,.24-.27,.37-.26,.53-.17,1.19,.27,1.63,.55,.55,1.45,.55,2.01,0Zm-1.34-.7c-.16-.18-.15-.45,.02-.62s.45-.18,.62-.02l.02,.02c.18,.18,.18,.46,0,.64h0c-.06,.06-.13,.1-.21,.12h0c-.15,.03-.31,0-.42-.12l-.02-.02Z"/><path class="d" d="M22.53,22.87c.07-.02,.15-.06,.21-.11-.06,.06-.13,.1-.21,.11Z"/><path class="d" d="M23.43,8.58c-.55-.55-1.45-.55-2.01,0-.44,.44-.53,1.1-.27,1.63,.07,.13,.16,.26,.27,.37,.11,.11,.24,.2,.37,.27,.53,.26,1.19,.17,1.63-.27,.55-.55,.55-1.45,0-2.01Zm-.7,1.34c-.18,.16-.45,.15-.62-.02s-.18-.45-.02-.62l.02-.02c.18-.18,.46-.18,.64,0h0c.06,.07,.09,.14,.11,.21h0c.03,.15,0,.31-.12,.43l-.02,.02Z"/><path class="d" d="M22.87,9.47c-.02-.07-.06-.15-.11-.21,.06,.06,.1,.13,.11,.21Z"/><path class="d" d="M8.57,23.42c.55,.55,1.45,.55,2.01,0,.44-.44,.53-1.1,.27-1.63-.07-.13-.16-.26-.27-.37-.11-.11-.24-.2-.37-.27-.53-.26-1.19-.17-1.63,.27-.55,.55-.55,1.45,0,2.01Zm.7-1.34c.18-.16,.45-.15,.62,.02s.18,.45,.02,.62l-.02,.02c-.18,.18-.46,.18-.64,0h0c-.06-.07-.09-.14-.11-.21h0c-.03-.15,0-.31,.12-.43l.02-.02Z"/><path class="d" d="M9.13,22.53c.02,.07,.06,.15,.11,.21-.06-.06-.1-.13-.11-.21Z"/><g><path class="d" d="M15.95,14.88c-.03-.06-.07-.13-.11-.18-.05-.05-.1-.1-.15-.15-.06-.04-.12-.08-.18-.11-.07-.02-.14-.04-.21-.06-.07,0-.15,0-.22,0-.07,.01-.14,.03-.21,.06-.06,.03-.13,.07-.18,.11-.05,.05-.1,.1-.15,.15-.04,.06-.08,.12-.11,.18-.03,.07-.04,.14-.06,.21,0,.12,0,.25,0,.37v.57h1.65v-.62c0-.1,0-.21,0-.31-.01-.07-.03-.14-.06-.21Z"/><path class="d" d="M15.98,10.8c-2.87,0-5.19,2.32-5.19,5.19s2.32,5.19,5.19,5.19,5.19-2.32,5.19-5.19-2.32-5.19-5.19-5.19Zm1.02,5.53v1.51c0,.13-.06,.25-.14,.35-.09,.1-.22,.14-.35,.14-.12,0-.26-.06-.35-.14-.09-.09-.14-.22-.14-.35v-.82h-1.65v.82c0,.13-.06,.25-.14,.35-.09,.1-.22,.14-.35,.14-.12,0-.26-.06-.35-.14-.09-.09-.14-.22-.14-.35v-2.55c0-.08,0-.16,0-.24,.02-.16,.04-.32,.1-.47,.06-.15,.12-.29,.22-.42,.09-.13,.19-.25,.32-.35,.13-.1,.25-.19,.4-.25,.09-.04,.18-.08,.28-.11,.08-.02,.16-.03,.24-.05,.14-.02,.28-.03,.43,0,.1,.01,.2,.03,.3,.05,.08,.02,.15,.05,.23,.08,.07,.03,.15,.06,.21,.1,.08,.05,.16,.11,.24,.17,.13,.1,.22,.22,.32,.34,.1,.13,.16,.27,.22,.42,.11,.27,.11,.56,.11,.85v.91Zm1.66-1.96v3.47c0,.13-.06,.25-.14,.35-.09,.1-.22,.14-.35,.14-.12,0-.26-.06-.35-.14-.09-.09-.14-.22-.14-.35h0c0-.17,0-.33,0-.49v-3.47c0-.13,.06-.25,.14-.35,.09-.1,.22-.14,.35-.14,.12,0,.26,.06,.35,.14,.09,.09,.14,.22,.14,.35h0c0,.17,0,.33,0,.49Z"/></g><path class="d" d="M15.98,9.92c.16,0,.32,0,.47,.02v-2.99c-.01,.24-.21,.43-.45,.43s-.44-.19-.45-.43v2.99c.14-.01,.29-.02,.43-.02Z"/><path class="d" d="M19.96,11.4c.23,.2,.44,.41,.64,.64l2.13-2.13c-.18,.16-.45,.15-.62-.02s-.18-.45-.02-.62l-2.13,2.13Z"/><path class="d" d="M24.63,16.01c0-.24,.19-.44,.43-.45h-3.02c.01,.14,.02,.29,.02,.43,0,.16,0,.32-.02,.47h3.02c-.24-.01-.43-.21-.43-.45Z"/><path class="d" d="M20.59,19.95h0c-.2,.22-.41,.43-.64,.63h0l2.14,2.14c-.16-.18-.15-.45,.02-.62s.45-.18,.62-.02l-2.14-2.14Z"/><path class="d" d="M15.98,22.05c-.15,0-.3,0-.44-.02h0v3.02c.01-.24,.21-.43,.45-.43s.44,.19,.45,.43v-3.02h0c-.15,0-.31,.01-.46,.01Z"/><path class="d" d="M12.04,20.59c-.23-.2-.44-.41-.64-.64l-2.13,2.13c.18-.16,.45-.15,.62,.02s.18,.45,.02,.62l2.13-2.13Z"/><path class="d" d="M6.94,16.45h2.99c-.01-.15-.02-.31-.02-.46s0-.3,.02-.44h-2.99c.24,.01,.43,.21,.43,.45s-.19,.44-.43,.45Z"/><path class="d" d="M12.03,11.38l-2.11-2.11c.16,.18,.15,.45-.02,.62-.17,.17-.45,.18-.62,.02l2.11,2.11c.2-.23,.41-.44,.64-.64Z"/></g></g></g></g></svg>