<?xml version="1.0" encoding="UTF-8"?><svg xmlns="http://www.w3.org/2000/svg" viewBox="0 0 32 32"><defs><style>.d{fill:#424359;}.e{fill:none;stroke:#424359;stroke-miterlimit:10;stroke-width:2px;}</style></defs><g id="a"/><g id="b"><g id="c"><g><g><path class="d" d="M9.65,11.19s.05,0,.08-.02c.07-.03,1.63-.78,2.08-2.22,.45-1.43-.41-2.94-.44-3-.05-.08-.15-.11-.23-.07-.07,.03-1.63,.78-2.08,2.21-.45,1.43,.41,2.94,.44,3,.03,.06,.09,.09,.16,.09Z"/><path class="d" d="M8.26,15.28s.05,.02,.08,.02c.06,0,.12-.03,.16-.09,.04-.06,.89-1.57,.45-3-.45-1.43-2.01-2.19-2.07-2.22-.08-.04-.19,0-.23,.07-.04,.06-.89,1.57-.45,3,.45,1.43,2.01,2.19,2.07,2.22Z"/><path class="d" d="M9.7,19.83c.09-.01,.16-.09,.16-.19,0-.07-.1-1.81-1.25-2.77-1.15-.96-2.87-.75-2.94-.74-.09,.01-.16,.09-.16,.19,0,.07,.1,1.81,1.25,2.77,.79,.66,1.84,.77,2.45,.77,.28,0,.47-.02,.49-.03Z"/><path class="d" d="M14.06,21.96c-.05-.06-1.19-1.36-2.69-1.41-1.51-.06-2.73,1.17-2.78,1.23-.07,.07-.07,.17,0,.25,.05,.06,1.19,1.36,2.69,1.41,.03,0,.06,0,.09,0,1.46,0,2.64-1.18,2.69-1.23,.07-.07,.07-.17,0-.25Z"/><path class="d" d="M22.28,11.17s.05,.02,.08,.02c.06,0,.12-.03,.16-.09,.04-.06,.89-1.57,.44-3-.45-1.43-2.01-2.18-2.08-2.21-.09-.04-.19,0-.23,.07-.04,.06-.89,1.57-.44,3,.45,1.43,2.01,2.18,2.08,2.22Z"/><path class="d" d="M23.5,15.21c.03,.06,.09,.09,.16,.09,.03,0,.05,0,.08-.02,.07-.03,1.63-.79,2.07-2.22,.45-1.43-.41-2.94-.45-3-.05-.08-.15-.11-.24-.07-.07,.03-1.63,.79-2.07,2.22-.45,1.43,.41,2.94,.45,3Z"/><path class="d" d="M26.34,16.13c-.07,0-1.79-.22-2.94,.74-1.15,.96-1.25,2.69-1.25,2.77,0,.09,.06,.18,.16,.19,.02,0,.21,.03,.49,.03,.61,0,1.67-.11,2.45-.77,1.15-.96,1.25-2.69,1.25-2.77,0-.09-.06-.18-.16-.19Z"/><path class="d" d="M20.63,20.55c-1.5,.05-2.64,1.36-2.69,1.41-.06,.07-.06,.18,0,.25,.05,.05,1.23,1.23,2.69,1.23,.03,0,.06,0,.09,0,1.5-.05,2.64-1.36,2.69-1.41,.06-.07,.06-.18,0-.25-.05-.05-1.27-1.27-2.78-1.23Z"/><path class="d" d="M13.87,15.76l-.44,2.56c-.01,.07,.02,.14,.07,.18,.06,.04,.13,.05,.19,.01l2.3-1.21,2.3,1.21s.06,.02,.08,.02c.04,0,.08-.01,.11-.03,.06-.04,.08-.11,.07-.18l-.44-2.56,1.86-1.82s.07-.12,.05-.19c-.02-.07-.08-.11-.15-.12l-2.58-.37-1.15-2.33c-.03-.06-.09-.1-.16-.1s-.13,.04-.16,.1l-1.15,2.33-2.58,.37c-.07,0-.13,.06-.15,.12-.02,.07,0,.14,.05,.19l1.86,1.82Z"/><path class="d" d="M16.4,22.88s-.01,0-.02-.01c0,0,0-.01-.01-.02-.02-.02-.05-.03-.08-.05-.03-.02-.06-.04-.09-.06-.03-.01-.07-.02-.1-.02-.03,0-.07-.02-.1-.02-.04,0-.07,0-.1,.02-.03,0-.07,.01-.1,.02-.03,.01-.06,.04-.09,.06-.02,.02-.05,.03-.08,.05,0,0,0,.01-.01,.02,0,0-.01,0-.02,.01l-2.18,2.34c-.2,.22-.19,.56,.03,.77,.1,.1,.24,.15,.37,.15,.15,0,.29-.06,.4-.17l1.78-1.91,1.78,1.91c.11,.12,.25,.17,.4,.17,.13,0,.27-.05,.37-.15,.22-.2,.23-.55,.03-.77l-2.18-2.34Z"/></g><circle class="e" cx="16" cy="16" r="15"/></g></g></g></svg>