<?xml version="1.0" encoding="UTF-8"?><svg xmlns="http://www.w3.org/2000/svg" viewBox="0 0 32 32"><defs><style>.d{fill:#424359;}.e{fill:none;stroke:#424359;stroke-miterlimit:10;stroke-width:2px;}</style></defs><g id="a"/><g id="b"><g id="c"><g><circle class="e" cx="16" cy="16" r="15"/><g><path class="d" d="M15.51,18.8c.22,0,.44-.08,.6-.25l3.78-3.78c.33-.33,.33-.87,0-1.2-.33-.33-.87-.33-1.2,0l-3.18,3.18-1.53-1.53c-.33-.33-.87-.33-1.2,0s-.33,.87,0,1.2l2.13,2.13c.17,.17,.38,.25,.6,.25Z"/><path class="d" d="M26.48,15.93s-.07-.07-.13-.07h-1.57c-.08-4.78-3.99-8.64-8.78-8.64-2.36,0-4.57,.92-6.23,2.59-.05,.05-.06,.12-.02,.17l1.01,1.88s.07,.07,.11,.08c.05,0,.1-.01,.13-.05,1.24-1.5,3.06-2.36,5-2.36,3.52,0,6.4,2.83,6.47,6.33h-1.62c-.05,0-.1,.03-.13,.07-.03,.05-.03,.1,0,.15l2.75,4.77s.07,.07,.13,.07,.1-.03,.13-.07l2.75-4.77s.03-.1,0-.15Z"/><path class="d" d="M21.24,20.14s-.07-.07-.11-.08c-.05,0-.1,.01-.13,.05-1.24,1.5-3.06,2.36-5,2.36-3.52,0-6.4-2.83-6.47-6.33h1.62c.05,0,.1-.03,.13-.07,.03-.05,.03-.1,0-.15l-2.75-4.77c-.05-.09-.2-.09-.25,0l-2.75,4.77s-.03,.1,0,.15c.03,.04,.07,.07,.13,.07h1.57c.08,4.78,3.99,8.64,8.78,8.64,2.36,0,4.57-.92,6.23-2.59,.05-.05,.06-.12,.02-.17l-1.01-1.88Z"/></g></g></g></g></svg>