<?xml version="1.0" encoding="UTF-8"?>
<svg width="30px" height="34px" viewBox="0 0 30 34" version="1.1" xmlns="http://www.w3.org/2000/svg" xmlns:xlink="http://www.w3.org/1999/xlink">
    <title>Group 23</title>
    <g id="Page-1" stroke="none" stroke-width="1" fill="none" fill-rule="evenodd" stroke-linecap="round" stroke-linejoin="round">
        <g id="Tein---Entornos-OPTION-&quot;From-Left&quot;---Intro" transform="translate(-63, -279)" stroke="#FFFFFF" stroke-width="1.5">
            <g id="Group-23" transform="translate(64, 280)">
                <path d="M5.52344046,23.8823529 L3.88313867,23.8823529 C1.74744271,23.8823529 0,22.0978311 0,19.9168176 L0,3.96553533 C0,1.78452185 1.74744271,0 3.88313867,0 L24.1168613,0 C26.2525573,0 28,1.78452185 28,3.96553533 L28,19.9168176 C28,22.0978311 26.2525573,23.8823529 24.1168613,23.8823529 L22.3915439,23.8823529" id="Stroke-1"></path>
                <line x1="0" y1="5.77538126" x2="24.7058824" y2="5.77538126" id="Stroke-3"></line>
                <path d="M9.05882353,3.29411765 C9.05882353,3.7489636 8.69014007,4.11764706 8.23529412,4.11764706 C7.78044816,4.11764706 7.41176471,3.7489636 7.41176471,3.29411765 C7.41176471,2.83927169 7.78044816,2.47058824 8.23529412,2.47058824 C8.69014007,2.47058824 9.05882353,2.83927169 9.05882353,3.29411765 Z" id="Stroke-5"></path>
                <path d="M12.3529412,3.29411765 C12.3529412,3.7489636 11.9842577,4.11764706 11.5294118,4.11764706 C11.0745658,4.11764706 10.7058824,3.7489636 10.7058824,3.29411765 C10.7058824,2.83927169 11.0745658,2.47058824 11.5294118,2.47058824 C11.9842577,2.47058824 12.3529412,2.83927169 12.3529412,3.29411765 Z" id="Stroke-7"></path>
                <path d="M4.94117647,3.29411765 C4.94117647,3.7489636 4.57249301,4.11764706 4.11764706,4.11764706 C3.6628011,4.11764706 3.29411765,3.7489636 3.29411765,3.29411765 C3.29411765,2.83927169 3.6628011,2.47058824 4.11764706,2.47058824 C4.57249301,2.47058824 4.94117647,2.83927169 4.94117647,3.29411765 Z" id="Stroke-9"></path>
                <path d="M20.5127697,26.3529412 L8.31091508,26.3529412 C6.9104068,26.3529412 5.76470588,25.2087513 5.76470588,23.8100902 L5.76470588,17.3662252 C5.76470588,15.9677193 6.9104068,14.8235294 8.31091508,14.8235294 L20.5127697,14.8235294 C21.9131226,14.8235294 23.0588235,15.9677193 23.0588235,17.3662252 L23.0588235,23.8100902 C23.0588235,25.2087513 21.9131226,26.3529412 20.5127697,26.3529412 Z" id="Stroke-11"></path>
                <path d="M15.2035938,32.1176471 L13.6199356,32.1176471 C12.9231396,32.1176471 12.3529412,31.6269468 12.3529412,31.0272994 L12.3529412,30.7374065 C12.3529412,30.1376131 12.9231396,29.6470588 13.6199356,29.6470588 L15.2035938,29.6470588 C15.9003898,29.6470588 16.4705882,30.1376131 16.4705882,30.7374065 L16.4705882,31.0272994 C16.4705882,31.6269468 15.9003898,32.1176471 15.2035938,32.1176471 Z" id="Stroke-13"></path>
                <path d="M12.3529412,30.4705882 L10.9642393,30.4705882 C8.10448836,30.4705882 5.76470588,28.1153469 5.76470588,25.2367018 L5.76470588,23.0588235" id="Stroke-15"></path>
                <path d="M11.5294118,18.9411765 C11.5294118,19.8507579 10.7920552,20.5882353 9.88243082,20.5882353 C8.97265063,20.5882353 8.23529412,19.8507579 8.23529412,18.9411765 C8.23529412,18.031595 8.97265063,17.2941176 9.88243082,17.2941176 C10.7920552,17.2941176 11.5294118,18.031595 11.5294118,18.9411765 Z" id="Stroke-17"></path>
                <path d="M19.7647059,18.9411765 C19.7647059,19.8507579 19.0273494,20.5882353 18.1175692,20.5882353 C17.2079448,20.5882353 16.4705882,19.8507579 16.4705882,18.9411765 C16.4705882,18.031595 17.2079448,17.2941176 18.1175692,17.2941176 C19.0273494,17.2941176 19.7647059,18.031595 19.7647059,18.9411765 Z" id="Stroke-19"></path>
                <path d="M16.4705882,23.0588235 C15.3335243,24.1568627 13.4900051,24.1568627 12.3529412,23.0588235" id="Stroke-21"></path>
            </g>
        </g>
    </g>
</svg>