<?xml version="1.0" encoding="UTF-8"?>
<svg width="30px" height="27px" viewBox="0 0 30 27" version="1.1" xmlns="http://www.w3.org/2000/svg" xmlns:xlink="http://www.w3.org/1999/xlink">
    <title>ico - tecnology - stroke 1.5</title>
    <defs>
        <polygon id="path-1" points="0 25.0906667 28 25.0906667 28 0 0 0"></polygon>
    </defs>
    <g id="Page-1" stroke="none" stroke-width="1" fill="none" fill-rule="evenodd">
        <g id="Tein---Entornos-OPTION-&quot;From-Left&quot;---Intro" transform="translate(-66, -451)">
            <g id="ico---tecnology---stroke-1.5" transform="translate(67, 452)">
                <path d="M5.32844444,16.2170667 C2.75422222,16.2170667 0.667111111,14.1299556 0.667111111,11.5557333 C0.667111111,8.98062222 2.75422222,6.89351111 5.32844444,6.89351111 C5.58533333,6.89351111 5.83333333,6.92551111 6.07777778,6.96817778 C6.076,6.91662222 6.06177778,6.86773333 6.06177778,6.81617778 C6.06177778,3.41973333 8.81555556,0.666844444 12.2111111,0.666844444 C15.5417778,0.666844444 18.2377778,3.31928889 18.3408889,6.62506667 C18.6671111,6.52373333 19.0128889,6.46862222 19.372,6.46862222 C20.9017778,6.46862222 22.1888889,7.45795556 22.6626667,8.82684444 C22.956,8.75306667 23.2591111,8.7024 23.5755556,8.7024 C25.6511111,8.7024 27.3337778,10.3841778 27.3337778,12.4597333 C27.3337778,14.5344 25.6511111,16.2170667 23.5755556,16.2170667" id="Stroke-1" stroke="#FFFFFF" stroke-width="1.5" stroke-linejoin="round"></path>
                <path d="M12.2113778,2.98533333 C10.1384889,2.98533333 8.44426667,4.64044444 8.38293333,6.7" id="Stroke-3" stroke="#FFFFFF" stroke-width="1.5" stroke-linejoin="round"></path>
                <mask id="mask-2" fill="white">
                    <use xlink:href="#path-1"></use>
                </mask>
                <g id="Clip-6"></g>
                <polygon id="Stroke-5" stroke="#FFFFFF" stroke-width="1.5" stroke-linejoin="round" mask="url(#mask-2)" points="7.20533333 17.3128889 21.6977778 17.3128889 21.6977778 12.8684444 7.20533333 12.8684444"></polygon>
                <polygon id="Stroke-7" stroke="#FFFFFF" stroke-width="1.5" stroke-linejoin="round" mask="url(#mask-2)" points="8.98311111 19.9795556 19.92 19.9795556 19.92 17.3128889 8.98311111 17.3128889"></polygon>
                <polyline id="Stroke-8" stroke="#FFFFFF" stroke-width="1.5" stroke-linejoin="round" mask="url(#mask-2)" points="27.0740444 22.3805333 25.4971556 23.9583111 23.9193778 22.3805333"></polyline>
                <line x1="25.4967111" y1="23.9578667" x2="25.4967111" y2="17.9232" id="Stroke-9" stroke="#FFFFFF" stroke-width="1.5" stroke-linejoin="round" mask="url(#mask-2)"></line>
                <polyline id="Stroke-10" stroke="#FFFFFF" stroke-width="1.5" stroke-linejoin="round" mask="url(#mask-2)" points="2.26337778 20.5761778 3.84115556 18.9984 5.41804444 20.5761778"></polyline>
                <line x1="3.84071111" y1="18.9988444" x2="3.84071111" y2="25.0335111" id="Stroke-11" stroke="#FFFFFF" stroke-width="1.5" stroke-linejoin="round" mask="url(#mask-2)"></line>
                <line x1="8.82951111" y1="15.0906667" x2="9.7184" y2="15.0906667" id="Stroke-12" stroke="#FFFFFF" stroke-width="1.5" stroke-linejoin="round" mask="url(#mask-2)"></line>
                <line x1="10.6072889" y1="15.0906667" x2="11.4961778" y2="15.0906667" id="Stroke-13" stroke="#FFFFFF" stroke-width="1.5" stroke-linejoin="round" mask="url(#mask-2)"></line>
                <line x1="19.0313778" y1="15.0906667" x2="19.9202667" y2="15.0906667" id="Stroke-14" stroke="#FFFFFF" stroke-width="1.5" stroke-linejoin="round" mask="url(#mask-2)"></line>
                <polygon id="Stroke-15" stroke="#FFFFFF" stroke-width="1.5" stroke-linejoin="round" mask="url(#mask-2)" points="17.2533333 17.3128889 21.6977778 17.3128889 21.6977778 12.8684444 17.2533333 12.8684444"></polygon>
                <polygon id="Stroke-16" stroke="#FFFFFF" stroke-width="1.5" stroke-linejoin="round" mask="url(#mask-2)" points="7.20533333 24.424 21.6977778 24.424 21.6977778 19.9795556 7.20533333 19.9795556"></polygon>
                <line x1="20.0737778" y1="22.2017778" x2="19.1848889" y2="22.2017778" id="Stroke-17" stroke="#FFFFFF" stroke-width="1.5" stroke-linejoin="round" mask="url(#mask-2)"></line>
                <line x1="18.296" y1="22.2017778" x2="17.4071111" y2="22.2017778" id="Stroke-18" stroke="#FFFFFF" stroke-width="1.5" stroke-linejoin="round" mask="url(#mask-2)"></line>
                <line x1="9.872" y1="22.2017778" x2="8.98311111" y2="22.2017778" id="Stroke-19" stroke="#FFFFFF" stroke-width="1.5" stroke-linejoin="round" mask="url(#mask-2)"></line>
                <polygon id="Stroke-20" stroke="#FFFFFF" stroke-width="1.5" stroke-linejoin="round" mask="url(#mask-2)" points="7.20533333 24.424 11.6497778 24.424 11.6497778 19.9795556 7.20533333 19.9795556"></polygon>
            </g>
        </g>
    </g>
</svg>