<?xml version="1.0" encoding="UTF-8"?>
<svg width="30px" height="24px" viewBox="0 0 30 24" version="1.1" xmlns="http://www.w3.org/2000/svg" xmlns:xlink="http://www.w3.org/1999/xlink">
    <title>ico - datos</title>
    <g id="Page-1" stroke="none" stroke-width="1" fill="none" fill-rule="evenodd" stroke-linecap="round" stroke-linejoin="round">
        <g id="Tein---Entornos-OPTION-&quot;From-Left&quot;---Intro" transform="translate(-66, -367)" stroke="#FFFFFF" stroke-width="1.5">
            <g id="iconos-" transform="translate(66.7255, 137.2866)">
                <g id="ico---datos" transform="translate(0.2745, 230.7134)">
                    <path d="M1.73147229,2.6934342 C1.73147229,1.51742355 2.68411488,0.564041335 3.86086516,0.564041335 C5.03687581,0.564041335 5.99025802,1.51742355 5.99025802,2.6934342 L5.99025802,4.00183851 C5.99025802,5.17710953 5.03687581,6.13049175 3.86086516,6.13049175 C2.68411488,6.13049175 1.73147229,5.17710953 1.73147229,4.00183851 L1.73147229,2.6934342 Z" id="Stroke-1"></path>
                    <path d="M23.7412143,10.4790685 C23.7412143,9.30305784 24.6938569,8.34967562 25.8706071,8.34967562 C27.0466178,8.34967562 28,9.30305784 28,10.4790685 L28,11.7874728 C28,12.9627438 27.0466178,13.916126 25.8706071,13.916126 C24.6938569,13.916126 23.7412143,12.9627438 23.7412143,11.7874728 L23.7412143,10.4790685 Z" id="Stroke-3"></path>
                    <path d="M18.5638089,18.2647028 C18.5638089,17.0886921 19.5164515,16.1353099 20.6932017,16.1353099 C21.8692124,16.1353099 22.8225946,17.0886921 22.8225946,18.2647028 L22.8225946,19.5723674 C22.8225946,20.7483781 21.8692124,21.7017603 20.6932017,21.7017603 C19.5164515,21.7017603 18.5638089,20.7483781 18.5638089,19.5723674 L18.5638089,18.2647028 Z" id="Stroke-5"></path>
                    <path d="M18.5638089,2.6934342 C18.5638089,1.51742355 19.5164515,0.564041335 20.6932017,0.564041335 C21.8692124,0.564041335 22.8225946,1.51742355 22.8225946,2.6934342 L22.8225946,4.00183851 C22.8225946,5.17710953 21.8692124,6.13049175 20.6932017,6.13049175 C19.5164515,6.13049175 18.5638089,5.17710953 18.5638089,4.00183851 L18.5638089,2.6934342 Z" id="Stroke-7"></path>
                    <line x1="8.20899812" y1="0.564115298" x2="9.6882568" y2="0.564115298" id="Stroke-9"></line>
                    <line x1="9.6882568" y1="0.564115298" x2="9.6882568" y2="6.13056571" id="Stroke-11"></line>
                    <line x1="13.3864035" y1="0.564115298" x2="14.8656622" y2="0.564115298" id="Stroke-13"></line>
                    <line x1="14.8656622" y1="0.564115298" x2="14.8656622" y2="6.13056571" id="Stroke-15"></line>
                    <line x1="8.20899812" y1="6.13086156" x2="11.1675155" y2="6.13086156" id="Stroke-17"></line>
                    <line x1="13.3864035" y1="6.13086156" x2="16.3449209" y2="6.13086156" id="Stroke-19"></line>
                    <line x1="25.0413347" y1="0.36981467" x2="26.5205934" y2="0.36981467" id="Stroke-21"></line>
                    <line x1="26.5205934" y1="0.36981467" x2="26.5205934" y2="5.93626508" id="Stroke-23"></line>
                    <line x1="25.0413347" y1="5.93656093" x2="27.9998521" y2="5.93656093" id="Stroke-25"></line>
                    <line x1="13.3864035" y1="8.34974958" x2="14.8656622" y2="8.34974958" id="Stroke-27"></line>
                    <line x1="14.8656622" y1="8.34974958" x2="14.8656622" y2="13.9162" id="Stroke-29"></line>
                    <line x1="13.3864035" y1="13.9164958" x2="16.3449209" y2="13.9164958" id="Stroke-31"></line>
                    <line x1="18.5638089" y1="8.34974958" x2="20.0430676" y2="8.34974958" id="Stroke-33"></line>
                    <line x1="20.0430676" y1="8.34974958" x2="20.0430676" y2="13.9162" id="Stroke-35"></line>
                    <line x1="18.5638089" y1="13.9164958" x2="21.5223262" y2="13.9164958" id="Stroke-37"></line>
                    <line x1="13.3864035" y1="16.1353839" x2="14.8656622" y2="16.1353839" id="Stroke-39"></line>
                    <line x1="14.8656622" y1="16.1353839" x2="14.8656622" y2="21.7018343" id="Stroke-41"></line>
                    <line x1="13.3864035" y1="21.7020562" x2="16.3449209" y2="21.7020562" id="Stroke-43"></line>
                    <line x1="25.0413347" y1="16.1353839" x2="26.5205934" y2="16.1353839" id="Stroke-45"></line>
                    <line x1="26.5205934" y1="16.1353839" x2="26.5205934" y2="21.7018343" id="Stroke-47"></line>
                    <line x1="25.0413347" y1="21.7020562" x2="27.9998521" y2="21.7020562" id="Stroke-49"></line>
                    <line x1="2.8560787" y1="14.9933962" x2="4.91520678" y2="17.0517846" id="Stroke-51"></line>
                    <line x1="8.31158471" y1="13.6550369" x2="4.91520678" y2="17.0521544" id="Stroke-53"></line>
                    <path d="M5.58420152,21.7020562 C5.58420152,21.7020562 11.1676634,20.4875848 11.1676634,14.7140382 L11.1676634,10.1076266 C7.87483358,10.1076266 5.58420152,8.34952769 5.58420152,8.34952769 C5.58420152,8.34952769 3.29356945,10.1076266 0,10.1076266 L0,14.7140382 C0,20.4875848 5.58420152,21.7020562 5.58420152,21.7020562" id="Stroke-55"></path>
                </g>
            </g>
        </g>
    </g>
</svg>