<?xml version="1.0" encoding="utf-8"?>
<!-- Generator: Adobe Illustrator 26.1.0, SVG Export Plug-In . SVG Version: 6.00 Build 0)  -->
<svg version="1.1" id="Layer_1" xmlns="http://www.w3.org/2000/svg" xmlns:xlink="http://www.w3.org/1999/xlink" x="0px" y="0px"
	 viewBox="0 0 72 61" style="enable-background:new 0 0 72 61;" xml:space="preserve">
<style type="text/css">
	.st0{fill-rule:evenodd;clip-rule:evenodd;fill:#143840;}
</style>
<g id="Page-1">
	<g id="Tein---Entornos-OPTION-_x22_From-Left_x22_---Intro" transform="translate(-96, -145)">
		<g id="iconos-" transform="translate(66.7255, 137.2866)">
			<g id="user-dynamic-copy" transform="translate(30.0063, 8.0254)">
				<path id="Fill-1" class="st0" d="M19.7,38.3L0,38.3v3.1h19.7V38.3z M19.7,16.2L19.7,16.2v-3.1H8.4c0.2,1.1,0.5,2.1,0.9,3.1
					L19.7,16.2L19.7,16.2z M28,28.4c4.5,0,8.2,3.7,8.2,8.2v5.2h3.1v-5.2c0-6.3-5.1-11.3-11.3-11.3H11.3c-3,0-5.7,1.2-7.8,3.1H28z
					 M19.7,6.5L19.7,6.5L19.7,6.5l-10.3,0c-0.5,1-0.8,2-0.9,3.1h11.2V6.5z M19.7,31.8l-18.6,0c-0.5,1-0.8,2-0.9,3.1h19.5V31.8z
					 M67.8,54.8c0-1.1-0.9-2.1-2.1-2.1s-2.1,0.9-2.1,2.1s0.9,2.1,2.1,2.1S67.8,56,67.8,54.8L67.8,54.8z M48.7,46.4
					c0,1.1,0.9,2.1,2.1,2.1c1.1,0,2.1-0.9,2.1-2.1c0-1.1-0.9-2.1-2.1-2.1C49.6,44.4,48.7,45.3,48.7,46.4L48.7,46.4z M70.9,54.8
					c0,2.8-2.3,5.2-5.2,5.2c-2.3,0-4.3-1.5-4.9-3.6h-19L33.4,48H0v-3.1l45.8,0c0.7-2.1,2.6-3.6,4.9-3.6c2.8,0,5.2,2.3,5.2,5.2
					c0,2.8-2.3,5.2-5.2,5.2c-2.3,0-4.3-1.5-4.9-3.6h-8l5.3,5.3h17.7c0.7-2.1,2.6-3.6,4.9-3.6C68.6,49.7,70.9,52,70.9,54.8L70.9,54.8
					z M19.7,3.1h-7.8c2-1.9,4.8-3.1,7.8-3.1C25.9,0,31,5.1,31,11.4c0,6.3-5.1,11.4-11.4,11.4c-3,0-5.7-1.2-7.8-3.1h7.8l0,0
					c4.6,0,8.3-3.7,8.3-8.3C27.9,6.8,24.2,3.1,19.7,3.1z"/>
			</g>
		</g>
	</g>
</g>
</svg>
