<?xml version="1.0" encoding="UTF-8"?><svg xmlns="http://www.w3.org/2000/svg" viewBox="0 0 32 32"><defs><style>.d{fill:#424359;}.e{fill:none;stroke:#424359;stroke-miterlimit:10;stroke-width:2px;}</style></defs><g id="a"/><g id="b"><g id="c"><g><g><path class="d" d="M26.54,14.84c-.03-.18-.17-.33-.35-.37l-2.34-.46c-.16-.51-.37-1.01-.63-1.48l1.28-2.01c.1-.16,.09-.36-.02-.51-.59-.76-1.27-1.43-2.04-2-.15-.11-.35-.12-.51-.01l-1.98,1.32c-.47-.25-.97-.45-1.49-.6l-.51-2.32c-.04-.18-.19-.32-.38-.34-.48-.06-.96-.09-1.42-.09-.47,0-.95,.03-1.43,.09-.19,.02-.34,.16-.38,.34l-.51,2.32c-.52,.15-1.02,.35-1.49,.6l-1.98-1.32c-.16-.1-.36-.1-.51,.01-.77,.57-1.46,1.24-2.04,2-.11,.15-.12,.35-.02,.51l1.28,2.01c-.26,.47-.47,.96-.63,1.48l-2.34,.46c-.18,.04-.32,.18-.35,.37-.07,.48-.11,.97-.11,1.44,0,.46,.04,.95,.11,1.43,.03,.18,.17,.33,.35,.37l2.34,.46c.16,.51,.37,1.01,.63,1.48l-1.28,2.01c-.1,.16-.09,.36,.02,.51,.59,.76,1.27,1.43,2.04,2,.15,.11,.35,.12,.51,.01l1.98-1.32c.47,.25,.97,.45,1.49,.6l.51,2.32c.04,.18,.19,.32,.38,.34,.45,.06,.91,.09,1.35,.09h.08c.47,0,.95-.03,1.43-.09,.19-.02,.34-.16,.38-.34l.51-2.32c.52-.15,1.02-.35,1.49-.6l1.98,1.32c.16,.1,.36,.1,.51-.01,.77-.57,1.46-1.24,2.04-2,.11-.15,.12-.35,.02-.51l-1.28-2.01c.26-.47,.47-.96,.63-1.48l2.34-.46c.18-.04,.32-.18,.35-.37,.07-.48,.11-.96,.11-1.44,0-.47-.04-.95-.11-1.43Zm-5.67,2.73c0,2.8-4.46,4.56-4.65,4.64-.02,0-.04,.01-.06,.01s-.04,0-.06-.01c-.19-.07-4.65-1.84-4.65-4.64v-5.6c0-.05,.02-.1,.06-.13,.04-.03,.09-.05,.14-.04,.03,0,2.55,.35,4.39-1.42,.07-.07,.18-.07,.25,0,1.83,1.77,4.36,1.42,4.39,1.42,.05,0,.1,0,.14,.04,.04,.03,.06,.08,.06,.13v5.6Z"/><path class="d" d="M18.41,14.73l-2.5,2.5-1.22-1.22c-.28-.28-.72-.28-1,0-.28,.28-.28,.72,0,1l1.72,1.72c.13,.13,.31,.21,.5,.21s.37-.07,.5-.21l3-3c.28-.28,.28-.72,0-1-.28-.28-.72-.28-1,0Z"/></g><circle class="e" cx="16" cy="16" r="15"/></g></g></g></svg>