<?xml version="1.0" encoding="UTF-8"?><svg xmlns="http://www.w3.org/2000/svg" viewBox="0 0 32 32"><defs><style>.d{fill:#424359;}.e{fill:none;stroke:#424359;stroke-miterlimit:10;stroke-width:2px;}</style></defs><g id="a"/><g id="b"><g id="c"><g><circle class="e" cx="16" cy="16" r="15"/><g><rect class="d" x="7.45" y="17.8" width="2" height="5.72" rx="1" ry="1"/><rect class="d" x="10.45" y="15.95" width="2" height="7.57" rx="1" ry="1"/><rect class="d" x="13.46" y="14.05" width="2" height="9.46" rx="1" ry="1"/><path class="d" d="M8.45,15.95c.52,0,.95-.42,.95-.95,0-.03,0-.06,0-.09l1.31-.82,.27-.17c.14,.09,.31,.14,.49,.14,.52,0,.95-.42,.95-.95,0-.03,0-.06,0-.09l.04-.02,1.5-.95,.04-.02c.14,.09,.31,.14,.49,.14s.35-.05,.49-.14l.31,.2,1.27,.8s0,.06,0,.09c0,.52,.42,.95,.95,.95s.95-.42,.95-.95c0-.14-.03-.28-.09-.4l.25-.32,1.47-1.85,.23-.29c.06,.01,.13,.02,.2,.02,.52,0,.95-.42,.95-.95,0-.03,0-.05,0-.08l.74-.46,.89-.55c.14,.09,.31,.14,.49,.14,.52,0,.95-.42,.95-.95s-.42-.95-.95-.95-.95,.42-.95,.95c0,.03,0,.05,0,.08l-.61,.38-1.01,.63c-.14-.09-.31-.14-.49-.14-.52,0-.95,.42-.95,.95,0,.14,.03,.28,.09,.4h0l-1.46,1.85c-.16,.2-.33,.41-.49,.61-.06-.01-.13-.02-.19-.02-.18,0-.35,.05-.49,.14l-.31-.2-1.27-.8s0-.06,0-.09c0-.52-.42-.95-.95-.95s-.95,.42-.95,.95c0,.03,0,.06,0,.09l-1.31,.82-.27,.17c-.14-.09-.31-.14-.49-.14-.52,0-.95,.42-.95,.95,0,.03,0,.06,0,.09l-.04,.02-1.5,.95-.04,.02c-.14-.09-.31-.14-.49-.14-.52,0-.95,.42-.95,.95s.42,.95,.95,.95Z"/><path class="d" d="M21.75,16.97c-1.32-1.32-3.47-1.32-4.79,0s-1.32,3.47,0,4.79c1.21,1.21,3.1,1.31,4.43,.32l.2,.2c.25,.25,.44,.56,.55,.9h0c.11,.34,.3,.64,.55,.9l1.16,1.16c.38,.38,.99,.38,1.37,0h0c.38-.38,.38-.99,0-1.37l-1.16-1.16c-.25-.25-.56-.44-.9-.55h0c-.34-.11-.64-.3-.9-.55l-.2-.2c1-1.33,.89-3.22-.32-4.43Zm-4.24,4.24c-1.02-1.02-1.02-2.67,0-3.69,1.02-1.02,2.67-1.02,3.69,0,1.02,1.02,1.02,2.67,0,3.69-1.02,1.02-2.67,1.02-3.69,0Zm6.21,1.67l1.23,1.23c.07,.07,.07,.18,0,.24-.07,.07-.18,.07-.24,0l-1.23-1.23c-.07-.07-.07-.18,0-.24s.18-.07,.24,0Z"/><path class="d" d="M16.56,22.17s-.06-.06-.09-.09v.44c0,.55,.45,1,1,1h0c.31,0,.58-.14,.76-.35-.63-.18-1.2-.52-1.67-1Z"/><g><path class="d" d="M21.48,16.03v-2.87c0-.55-.45-1-1-1h0c-.55,0-1,.45-1,1v2.25c.72,.02,1.41,.23,2,.61Z"/><path class="d" d="M21.3,22.82c-.45,.25-.94,.42-1.45,.48,.17,.14,.39,.22,.63,.22h0c.4,0,.75-.24,.91-.59-.03-.04-.05-.08-.08-.11Z"/></g><path class="d" d="M23.3,19.1c.05,.78-.12,1.54-.5,2.21,.16,.13,.34,.23,.54,.3,.42,.14,.81,.38,1.12,.69l.02,.02V11.27c0-.55-.45-1-1-1h0c-.55,0-1,.45-1,1v5.67c.48,.62,.77,1.37,.82,2.16Z"/><path class="d" d="M22.29,24.48c-.08-.08-.15-.16-.22-.25H7.09c-.33,0-.59,.27-.59,.59h0c0,.33,.27,.59,.59,.59H23.22l-.93-.93Z"/></g></g></g></g></svg>