<?xml version="1.0" encoding="UTF-8"?><svg xmlns="http://www.w3.org/2000/svg" viewBox="0 0 32 32"><defs><style>.d{fill:#424359;}.e{fill:none;stroke:#424359;stroke-miterlimit:10;stroke-width:2px;}</style></defs><g id="a"/><g id="b"><g id="c"><g><circle class="e" cx="16" cy="16" r="15"/><g><path class="d" d="M13.27,18.18c-.64,0-1.21,.28-1.61,.71l-1.47-.95c.11-.26,.18-.55,.18-.86,0-1.2-.98-2.18-2.18-2.18s-2.18,.98-2.18,2.18,.98,2.18,2.18,2.18c.64,0,1.21-.28,1.61-.71l1.47,.95c-.11,.26-.18,.55-.18,.86,0,.26,.05,.52,.14,.75l-1.36,.78c-.4-.49-1.01-.8-1.69-.8-1.2,0-2.18,.98-2.18,2.18s.98,2.18,2.18,2.18,2.18-.98,2.18-2.18c0-.26-.05-.52-.14-.75l1.36-.78c.4,.49,1.01,.8,1.69,.8,1.2,0,2.18-.98,2.18-2.18s-.98-2.18-2.18-2.18Z"/><rect class="d" x="11.45" y="11.64" width="2.91" height="5.82"/><path class="d" d="M18.73,15.8v-6.34h-3.27v8h1.19c.55-.71,1.26-1.27,2.08-1.66Z"/><path class="d" d="M23.06,15.64h.03V6.18h-3.27V15.42c.41-.1,.83-.15,1.27-.15,.7,0,1.36,.13,1.97,.36Z"/><path class="d" d="M24.36,7.64c-.3,0-.55,.24-.55,.55v2.55c0,.3,.24,.55,.55,.55s.55-.24,.55-.55v-2.55c0-.3-.24-.55-.55-.55Z"/><path class="d" d="M24.91,12.55c0,.3-.24,.55-.55,.55s-.55-.24-.55-.55,.24-.55,.55-.55,.55,.24,.55,.55Z"/><path class="d" d="M21.09,16c-2.71,0-4.91,2.2-4.91,4.91s2.2,4.91,4.91,4.91,4.91-2.2,4.91-4.91-2.2-4.91-4.91-4.91Zm3.42,4.86l-.46,1.61c-.14,.48-.57,.81-1.07,.81h-4.98v-2.91h.51c.35,0,.66-.22,.78-.54l.73-1.95c.09-.25,.33-.42,.6-.42,.36,0,.64,.29,.64,.64v1.51l2.32,.02c.53,0,.96,.43,.96,.96,0,.09-.01,.18-.04,.26Z"/></g></g></g></g></svg>