<?xml version="1.0" encoding="UTF-8"?><svg xmlns="http://www.w3.org/2000/svg" viewBox="0 0 32 32"><defs><style>.d{fill:#505050;}.e{fill:none;stroke:#424359;stroke-miterlimit:10;stroke-width:2px;}</style></defs><g id="a"/><g id="b"><g id="c"><g><circle class="e" cx="16" cy="16" r="15"/><g><path class="d" d="M12.85,12.67h-.93v-.93c0-.31-.25-.56-.56-.56s-.56,.25-.56,.56v1.48c0,.31,.25,.56,.56,.56h1.48c.31,0,.56-.25,.56-.56s-.25-.56-.56-.56Z"/><path class="d" d="M11.93,8.04v-.93h.93c.31,0,.56-.25,.56-.56s-.25-.56-.56-.56h-1.48c-.31,0-.56,.25-.56,.56v1.48c0,.31,.25,.56,.56,.56s.56-.25,.56-.56Z"/><path class="d" d="M19.15,7.11h.93v.93c0,.31,.25,.56,.56,.56s.56-.25,.56-.56v-1.48c0-.31-.25-.56-.56-.56h-1.48c-.31,0-.56,.25-.56,.56s.25,.56,.56,.56Z"/><path class="d" d="M20.07,11.74v.93h-.93c-.31,0-.56,.25-.56,.56s.25,.56,.56,.56h1.48c.31,0,.56-.25,.56-.56v-1.48c0-.31-.25-.56-.56-.56s-.56,.25-.56,.56Z"/><path class="d" d="M24.52,23.04V11.19c0-.61-.5-1.11-1.11-1.11h-1.48v1.48h1.11v11.48H8.96V11.56h1.11v-1.48h-1.48c-.61,0-1.11,.5-1.11,1.11v11.85h-1.11v1.11c0,1.02,.83,1.85,1.85,1.85h15.56c1.02,0,1.85-.83,1.85-1.85v-1.11h-1.11Zm-7.04,1.85h-2.96c-.2,0-.37-.17-.37-.37s.17-.37,.37-.37h2.96c.2,0,.37,.17,.37,.37s-.17,.37-.37,.37Z"/><path class="d" d="M19.31,9.97c-.2-.44-1.1-2.12-3.31-2.12s-3.11,1.68-3.31,2.12c-.01,.03-.02,.07-.02,.1s0,.07,.02,.1c.2,.44,1.1,2.12,3.31,2.12s3.11-1.68,3.31-2.12c.01-.03,.02-.07,.02-.1s0-.07-.02-.1Zm-3.31,1.21c-.61,0-1.11-.5-1.11-1.11s.5-1.11,1.11-1.11,1.11,.5,1.11,1.11-.5,1.11-1.11,1.11Z"/><path class="d" d="M18.59,17.85h-.37v-1.11c0-1.23-1-2.22-2.22-2.22s-2.22,.99-2.22,2.22v1.11h-.37c-.41,0-.74,.33-.74,.74v2.96c0,.41,.33,.74,.74,.74h5.19c.41,0,.74-.33,.74-.74v-2.96c0-.41-.33-.74-.74-.74Zm-4.07-1.11c0-.82,.66-1.48,1.48-1.48s1.48,.66,1.48,1.48v1.11h-2.96v-1.11Zm1.11,4.6l-1.37-1.37,.52-.52,.85,.85,1.59-1.59,.52,.52-2.11,2.11Z"/></g></g></g></g></svg>