<?xml version="1.0" encoding="UTF-8"?><svg xmlns="http://www.w3.org/2000/svg" viewBox="0 0 32 32"><defs><style>.d{fill:#424359;}.e{fill:none;stroke:#424359;stroke-miterlimit:10;stroke-width:2px;}</style></defs><g id="a"/><g id="b"><g id="c"><g><circle class="e" cx="16" cy="16" r="15"/><g><path class="d" d="M22.87,24.17c.29-.17,.55-.44,.68-.74,.1-.21,.15-.4,.17-.63,.02-.18,0-.35-.03-.53-.16-.81-.93-1.39-1.74-1.4-.35,0-.71,.1-.99,.3-.32,.23-.55,.52-.69,.9-.01,.04-.03,.08-.04,.12h-1.5v-1.49h-.92v1.95c0,.25,.21,.46,.46,.46h1.96v.02c.1,.32,.29,.64,.55,.86,.18,.14,.34,.24,.55,.33,.16,.06,.33,.09,.51,.11,.35,.03,.72-.07,1.02-.24Zm-1-.86c-.06-.01-.12-.03-.17-.05-.05-.03-.1-.06-.15-.09-.04-.04-.08-.08-.12-.12-.03-.05-.06-.1-.09-.15-.02-.06-.04-.11-.05-.17,0-.06,0-.12,0-.18,.01-.06,.03-.12,.05-.17,.03-.05,.06-.1,.09-.15,.04-.04,.08-.08,.12-.12,.05-.03,.1-.06,.15-.09,.06-.02,.12-.04,.18-.05,.03,0,.06,0,.09,0,.03,0,.06,0,.09,0,.06,.01,.12,.03,.18,.05,.05,.03,.1,.06,.15,.09,.04,.04,.08,.08,.12,.12,.03,.05,.06,.1,.09,.15,.02,.06,.04,.11,.05,.17,0,.06,0,.12,0,.18-.01,.06-.03,.12-.05,.17-.03,.05-.06,.1-.09,.15-.04,.04-.08,.08-.12,.12-.05,.03-.1,.06-.15,.09-.06,.02-.11,.04-.17,.05-.06,0-.12,0-.18,0Z"/><path class="d" d="M16.74,25.55c.29-.17,.55-.44,.68-.74,.1-.21,.15-.4,.17-.63,.02-.18,0-.35-.03-.53-.12-.62-.6-1.11-1.18-1.3,0-.18,0-.88,0-1.65h-1.11v1.64c-.16,.05-.31,.12-.44,.22-.32,.23-.55,.52-.69,.9-.12,.33-.13,.72-.03,1.06,.09,.32,.28,.64,.54,.86,.18,.14,.34,.24,.55,.33,.16,.06,.33,.09,.51,.11,.35,.03,.72-.07,1.02-.24Zm-1-.86c-.06-.01-.12-.03-.17-.05-.05-.03-.1-.06-.15-.09-.04-.04-.08-.08-.12-.12-.03-.05-.06-.1-.09-.15-.02-.06-.04-.11-.05-.17,0-.06,0-.12,0-.18,.01-.06,.03-.12,.05-.17,.03-.05,.06-.1,.09-.15,.04-.04,.08-.08,.12-.12,.05-.03,.1-.06,.15-.09,.06-.02,.12-.04,.18-.05,.03,0,.06,0,.09,0,.03,0,.06,0,.09,0,.06,.01,.12,.03,.18,.05,.05,.03,.1,.06,.15,.09,.04,.04,.08,.08,.12,.12,.03,.05,.06,.1,.09,.15,.02,.06,.04,.11,.05,.17,0,.06,0,.12,0,.18-.01,.06-.03,.12-.05,.17-.03,.05-.06,.1-.09,.15-.04,.04-.08,.08-.12,.12-.05,.03-.1,.06-.15,.09-.06,.02-.11,.04-.17,.05-.06,0-.12,0-.18,0Z"/><path class="d" d="M10.62,24.17c.29-.17,.55-.44,.68-.74,.05-.11,.09-.22,.12-.32h1.97c.25,0,.46-.21,.46-.46v-1.95h-.92v1.49h-1.5c-.19-.77-.94-1.31-1.72-1.32-.35,0-.71,.1-.99,.3-.32,.23-.55,.52-.69,.9-.12,.33-.13,.72-.03,1.06,.09,.32,.28,.64,.54,.86,.18,.14,.34,.24,.55,.33,.16,.06,.33,.09,.51,.11,.35,.03,.72-.07,1.02-.24Zm-1-.86c-.06-.01-.12-.03-.17-.05-.05-.03-.1-.06-.15-.09-.04-.04-.08-.08-.12-.12-.03-.05-.06-.1-.09-.15-.02-.06-.04-.11-.05-.17,0-.06,0-.12,0-.18,.01-.06,.03-.12,.05-.17,.03-.05,.06-.1,.09-.15,.04-.04,.08-.08,.12-.12,.05-.03,.1-.06,.15-.09,.06-.02,.12-.04,.18-.05,.03,0,.06,0,.09,0,.03,0,.06,0,.09,0,.06,.01,.12,.03,.18,.05,.05,.03,.1,.06,.15,.09,.04,.04,.08,.08,.12,.12,.03,.05,.06,.1,.09,.15,.02,.06,.04,.11,.05,.17,0,.06,0,.12,0,.18-.01,.06-.03,.12-.05,.17-.03,.05-.06,.1-.09,.15-.04,.04-.08,.08-.12,.12-.05,.03-.1,.06-.15,.09-.06,.02-.11,.04-.17,.05-.06,0-.12,0-.18,0Z"/><g><path class="d" d="M21.25,9.35c-.14,0-.29,0-.43,.02,0,0-.02,.01-.06,.04-.19,.13-.77,.57-1.15,1.19-.06,.1-.21,.04-.19-.08,.14-.59,.42-1.36,1-1.91-.93-1.45-2.56-2.42-4.42-2.42-2.55,0-4.68,1.82-5.15,4.24-.2-.03-.41-.04-.62-.04-2.61,0-4.73,2.12-4.73,4.73s2.12,4.72,4.73,4.72h11.02c2.9,0,5.25-2.35,5.25-5.25s-2.35-5.25-5.25-5.25Zm-2.16,5.82c0,.11-.08,.21-.18,.24l-.79,.2s-.05,.03-.06,.06c-.03,.09-.06,.17-.1,.25-.01,.03-.01,.06,0,.08l.42,.7c.06,.1,.04,.22-.04,.3l-.44,.44c-.08,.08-.2,.09-.3,.04l-.7-.42s-.06-.02-.08,0c-.08,.04-.17,.07-.25,.1-.03,0-.05,.03-.06,.06l-.2,.79c-.03,.11-.12,.18-.24,.18h-.62c-.11,0-.21-.08-.24-.18l-.2-.79s-.03-.05-.06-.06c-.09-.03-.17-.06-.25-.1-.03-.01-.06-.01-.08,0l-.7,.42c-.1,.06-.22,.04-.3-.04l-.44-.44c-.08-.08-.09-.2-.04-.3l.42-.7s.02-.06,0-.08c-.04-.08-.07-.17-.1-.25,0-.03-.03-.05-.06-.06l-.79-.2c-.11-.03-.18-.12-.18-.24v-.62c0-.11,.08-.21,.18-.24l.79-.2s.05-.03,.06-.06c.03-.09,.06-.17,.1-.25,.01-.03,.01-.06,0-.08l-.42-.7c-.06-.1-.04-.22,.04-.3l.44-.44c.08-.08,.2-.09,.3-.04l.7,.42s.06,.02,.08,0c.08-.04,.17-.07,.25-.1,.03,0,.05-.03,.06-.06l.2-.79c.03-.11,.12-.18,.24-.18h.62c.11,0,.21,.08,.24,.18l.2,.79s.03,.05,.06,.06c.09,.03,.17,.06,.25,.1,.03,.01,.06,.01,.08,0l.7-.42c.1-.06,.22-.04,.3,.04l.44,.44c.08,.08,.09,.2,.04,.3l-.42,.7s-.02,.06,0,.08c.04,.08,.07,.17,.1,.25,0,.03,.03,.05,.06,.06l.79,.2c.11,.03,.18,.12,.18,.24v.62Z"/><circle class="d" cx="15.77" cy="14.86" r="1.16"/></g></g></g></g></g></svg>