<?xml version="1.0" encoding="UTF-8"?><svg xmlns="http://www.w3.org/2000/svg" xmlns:xlink="http://www.w3.org/1999/xlink" viewBox="0 0 145.88 145.88"><defs><style>.q{fill:url(#e);}.r{fill:#fff;}.s{fill:#424359;}</style><linearGradient id="e" x1="72.94" y1="3.96" x2="72.94" y2="141.66" gradientTransform="matrix(1, 0, 0, 1, 0, 0)" gradientUnits="userSpaceOnUse"><stop offset="0" stop-color="#ccc"/><stop offset=".12" stop-color="#dcdcdc"/><stop offset=".29" stop-color="#e8e8e8"/><stop offset=".5" stop-color="#efefef"/><stop offset="1" stop-color="#f2f2f2"/></linearGradient></defs><g id="a"/><g id="b"><g id="c"><g id="d"><path class="s" d="M72.94,145.88C32.72,145.88,0,113.16,0,72.94S32.72,0,72.94,0s72.94,32.72,72.94,72.94-32.72,72.94-72.94,72.94Zm0-140.69C35.58,5.19,5.19,35.58,5.19,72.94s30.39,67.75,67.75,67.75,67.75-30.39,67.75-67.75S110.3,5.19,72.94,5.19Z"/><g><circle class="q" cx="72.94" cy="72.81" r="68.85"/><path class="r" d="M72.94,6.05c37.59,0,68.14,30.13,68.83,67.55,0-.43,.02-.86,.02-1.3C141.79,34.28,110.96,3.46,72.94,3.46S4.09,34.28,4.09,72.31c0,.43,0,.87,.02,1.3C4.8,36.18,35.35,6.05,72.94,6.05Z"/></g><circle class="r" cx="72.94" cy="73.6" r="59.77"/><g id="f"><g id="g" transform="translate(-170, -282)"><g id="h" transform="translate(108, 198.1407)"><g id="i" transform="translate(0, 49.8593)"><g id="j" transform="translate(62, 34)"><path id="k" class="s" d="M65.92,38.44c-.17,0-.29,.12-.29,.29s.12,.29,.29,.29h14.09c.17,1.46,1.46,2.62,3.03,2.62s2.97-1.28,2.97-2.91-1.34-2.91-2.97-2.91-2.79,1.16-2.97,2.62h-14.14Zm17.11-1.4c.93,0,1.75,.76,1.75,1.69s-.76,1.69-1.75,1.69c-.93,0-1.75-.76-1.75-1.69s.76-1.69,1.75-1.69Z"/><path id="l" class="s" d="M81.75,47.7l-3.73-3.61c-.06-.06-.17-.12-.23-.12h-14.14c-.17,0-.35,.12-.35,.29s.12,.29,.35,.29h14.03l3.73,3.61c.06,.06,.12,.12,.23,.12h4.71c.17,1.46,1.46,2.62,3.03,2.62,1.69,0,3.03-1.34,3.03-2.97s-1.34-2.97-3.03-2.97c-1.57,0-2.85,1.16-3.03,2.62h-4.6v.12Zm7.63-1.4c.99,0,1.75,.76,1.75,1.69s-.81,1.69-1.75,1.69c-.99,0-1.75-.76-1.75-1.69s.76-1.69,1.75-1.69Z"/><path id="m" class="s" d="M66.97,74.35c-.41-1.11-.76-1.46-.99-1.57-.7-.52-1.57-.52-3.67-.41-.81,.06-2.04,.12-2.68,.12-.23,0-.7-.12-1.11-.29-.76-.41-1.05-.93-1.05-2.04,0-.58,.06-1.11,.23-1.8,.23-1.16-.12-1.8-.41-2.15l-.17-.17c-.23-.23-.64-.64-.76-.81,.06-.17,.23-.58,.35-.81,.17-.29,.06-.64-.23-.81-.29-.17-.58-.41-.7-.58,.06-.06,.06-.17,.12-.23,.23-.47,.47-.99,.47-1.63-.06-1.22-.99-1.69-1.63-1.98l-.35-.17c-.93-.52-1.4-1.05-1.4-1.57,0-.41,.47-.93,.87-1.34,.17-.17,.35-.35,.47-.52,.23-.29,.52-.58,.81-.93,.41-.47,.87-.93,1.22-1.46v-.06c.35-.58,.7-1.16,.76-1.63,.12-.87-.06-1.51-.47-2.39-.29-.7-.17-2.1,0-2.85,.23-.93,.64-2.39,1.34-4.6,.12-.29,.29-.81,.58-1.4,1.51-3.43,5.88-9.02,17.46-8.32,.35,0,.64-.23,.64-.58s-.23-.64-.58-.64c-5.41-.35-9.9,.58-13.39,2.79-2.97,1.92-4.54,4.37-5.35,6.11-.29,.64-.52,1.16-.58,1.51-.93,2.91-1.22,4.07-1.4,4.71-.12,.64-.41,2.5,.12,3.61,.35,.76,.41,1.16,.35,1.69,0,.17-.23,.52-.58,1.11v.06c-.29,.41-.7,.81-1.05,1.22-.29,.35-.64,.7-.93,1.05-.12,.12-.23,.29-.41,.47-.52,.58-1.22,1.34-1.16,2.27,.06,1.51,1.57,2.33,2.04,2.62,.17,.06,.29,.17,.41,.23,.7,.35,.93,.52,.93,.93,0,.29-.17,.64-.35,.99-.06,.17-.17,.29-.23,.47-.23,.64,.29,1.28,.76,1.69-.12,.23-.23,.58-.23,.81-.06,.7,.52,1.22,1.11,1.86l.17,.17c.17,.17,.17,.52,.12,.99-.12,.58-.23,1.28-.23,2.1,0,1.11,.23,2.44,1.86,3.14,.47,.17,1.11,.41,1.63,.41h0c.7,0,1.86-.06,2.74-.12,1.92-.12,2.5-.06,2.85,.17,0,0,.23,.17,.58,1.05,.41,.99,.76,2.44,1.11,4.19,.06,.29,.35,.52,.64,.52h.12c.35-.06,.58-.41,.52-.76-.47-1.92-.81-3.38-1.28-4.42h0Z"/><path id="n" class="s" d="M80,55.9h-19.91c-.17,0-.29,.12-.29,.29s.12,.29,.29,.29h19.91c.17,1.46,1.46,2.62,3.03,2.62s2.97-1.28,2.97-2.91-1.34-2.91-2.97-2.91-2.85,1.16-3.03,2.62Zm4.71,.29c0,.93-.76,1.69-1.75,1.69s-1.75-.76-1.75-1.69,.76-1.69,1.75-1.69,1.75,.76,1.75,1.69Z"/><path id="o" class="s" d="M82.91,70.75c-1.57,0-2.85,1.16-3.03,2.62h-6.98c-.17,0-.35,.12-.35,.29s.12,.29,.35,.29h6.98c.17,1.46,1.46,2.62,3.03,2.62,1.69,0,3.08-1.28,3.08-2.91s-1.4-2.91-3.08-2.91Zm0,4.6c-.99,0-1.75-.76-1.75-1.69s.81-1.69,1.75-1.69c.99,0,1.75,.76,1.75,1.69s-.76,1.69-1.75,1.69Z"/><path id="p" class="s" d="M89.38,61.43c-1.57,0-2.85,1.16-3.03,2.62h-4.71c-.06,0-.17,.06-.23,.12l-3.73,3.61h-13.45c-.17,0-.35,.12-.35,.29s.12,.29,.35,.29h13.56c.06,0,.17-.06,.23-.12l3.73-3.61h4.6c.17,1.46,1.46,2.62,3.03,2.62,1.69,0,3.03-1.34,3.03-2.97,0-1.51-1.34-2.85-3.03-2.85Zm0,4.66c-.99,0-1.75-.76-1.75-1.69s.81-1.69,1.75-1.69,1.75,.76,1.75,1.69-.81,1.69-1.75,1.69Z"/></g></g></g></g></g><g><path d="M48.95,98.07c-.75,0-1.41-.13-1.96-.38-.56-.25-.98-.65-1.29-1.18-.3-.53-.46-1.22-.46-2.05v-5.29c0-.09,.03-.17,.09-.23s.13-.09,.22-.09h1.18c.1,0,.17,.03,.23,.09,.06,.06,.08,.14,.08,.23v5.29c0,.71,.17,1.24,.51,1.58,.34,.34,.8,.51,1.39,.51s1.05-.17,1.38-.51c.33-.34,.5-.87,.5-1.58v-5.29c0-.09,.03-.17,.09-.23,.06-.06,.14-.09,.23-.09h1.17c.1,0,.17,.03,.23,.09,.06,.06,.08,.14,.08,.23v5.29c0,.83-.15,1.51-.45,2.05-.3,.53-.72,.93-1.27,1.18-.55,.26-1.21,.38-1.97,.38Z"/><path d="M57.75,98.07c-.81,0-1.48-.12-2.02-.36s-.95-.55-1.23-.94-.43-.79-.45-1.22c0-.08,.03-.14,.08-.2,.05-.05,.12-.08,.2-.08h1.16c.11,0,.2,.02,.25,.07,.06,.05,.11,.11,.15,.17,.05,.17,.15,.33,.3,.49,.15,.16,.35,.29,.6,.4,.26,.1,.58,.16,.97,.16,.62,0,1.09-.1,1.4-.31s.46-.49,.46-.85c0-.25-.08-.45-.25-.6-.17-.15-.42-.29-.76-.42-.34-.12-.79-.26-1.36-.4-.65-.16-1.19-.34-1.63-.57-.44-.22-.77-.5-.99-.84-.22-.34-.33-.77-.33-1.29s.14-.95,.41-1.34c.27-.39,.66-.7,1.17-.92,.51-.23,1.11-.34,1.81-.34,.56,0,1.06,.08,1.5,.23,.43,.15,.79,.35,1.08,.6,.29,.25,.5,.51,.66,.79s.23,.56,.24,.83c0,.07-.02,.13-.07,.19-.05,.06-.11,.08-.2,.08h-1.21c-.07,0-.14-.02-.21-.05-.07-.03-.13-.1-.17-.19-.05-.27-.22-.5-.51-.69-.29-.19-.65-.29-1.1-.29s-.84,.09-1.13,.26c-.29,.17-.43,.44-.43,.81,0,.24,.07,.44,.21,.6,.14,.16,.37,.3,.69,.42,.32,.12,.73,.25,1.25,.39,.74,.17,1.34,.36,1.81,.57,.47,.22,.81,.49,1.03,.83,.22,.33,.33,.76,.33,1.27,0,.57-.15,1.06-.46,1.46-.31,.4-.74,.71-1.29,.93-.55,.22-1.2,.33-1.94,.33Z"/><path d="M66.57,98.07c-.75,0-1.41-.13-1.96-.38-.56-.25-.98-.65-1.29-1.18-.3-.53-.46-1.22-.46-2.05v-5.29c0-.09,.03-.17,.09-.23s.13-.09,.22-.09h1.18c.1,0,.17,.03,.23,.09,.06,.06,.08,.14,.08,.23v5.29c0,.71,.17,1.24,.51,1.58,.34,.34,.8,.51,1.39,.51s1.05-.17,1.38-.51c.33-.34,.5-.87,.5-1.58v-5.29c0-.09,.03-.17,.09-.23,.06-.06,.14-.09,.23-.09h1.17c.1,0,.17,.03,.23,.09,.06,.06,.08,.14,.08,.23v5.29c0,.83-.15,1.51-.45,2.05-.3,.53-.72,.93-1.27,1.18-.55,.26-1.21,.38-1.97,.38Z"/><path d="M71.46,97.94c-.07,0-.13-.03-.19-.08-.06-.05-.08-.12-.08-.2,0-.03,0-.07,.03-.12l3.13-8.39c.03-.09,.08-.16,.15-.23,.07-.06,.17-.1,.31-.1h1.42c.13,0,.23,.03,.3,.1,.07,.07,.12,.14,.16,.23l3.13,8.39s.01,.08,.01,.12c0,.08-.03,.14-.08,.2-.05,.05-.11,.08-.18,.08h-1.13c-.12,0-.21-.03-.27-.08-.06-.06-.09-.11-.11-.16l-.61-1.59h-3.86l-.61,1.59c-.02,.05-.05,.11-.11,.16s-.15,.08-.27,.08h-1.13Zm2.57-3.33h2.95l-1.48-4.02-1.47,4.02Z"/><path d="M81.34,97.94c-.09,0-.16-.03-.22-.09s-.09-.13-.09-.22v-8.46c0-.09,.03-.17,.09-.23s.13-.09,.22-.09h3.37c1.05,0,1.88,.24,2.48,.73,.61,.49,.91,1.19,.91,2.12,0,.64-.16,1.17-.47,1.6-.32,.42-.74,.73-1.27,.92l1.9,3.32c.03,.05,.04,.1,.04,.14,0,.08-.03,.14-.08,.2-.06,.05-.12,.08-.19,.08h-1.18c-.15,0-.26-.04-.34-.12s-.14-.16-.18-.23l-1.68-3.08h-1.81v3.12c0,.09-.03,.16-.08,.22s-.13,.09-.23,.09h-1.18Zm1.49-4.9h1.83c.53,0,.92-.12,1.18-.36,.26-.24,.39-.57,.39-1.01s-.13-.77-.38-1.02c-.25-.25-.65-.37-1.19-.37h-1.83v2.76Z"/><path d="M90.09,97.94c-.09,0-.16-.03-.22-.09s-.09-.13-.09-.22v-8.48c0-.09,.03-.16,.09-.22s.13-.09,.22-.09h1.22c.09,0,.17,.03,.23,.09,.06,.06,.08,.13,.08,.22v8.48c0,.09-.03,.16-.08,.22-.06,.06-.13,.09-.23,.09h-1.22Z"/><path d="M97.16,98.07c-.77,0-1.43-.13-1.99-.38-.55-.25-.99-.65-1.3-1.18s-.48-1.2-.51-2c0-.37-.01-.74-.01-1.11s0-.74,.01-1.12c.03-.79,.2-1.45,.52-1.98s.76-.93,1.32-1.2,1.21-.4,1.96-.4,1.4,.13,1.96,.4c.56,.27,1.01,.67,1.33,1.2s.49,1.19,.52,1.98c.02,.38,.03,.75,.03,1.12s0,.73-.03,1.11c-.03,.8-.2,1.46-.51,2s-.75,.93-1.31,1.18c-.56,.26-1.22,.38-2,.38Zm0-1.5c.56,0,1.02-.17,1.38-.5,.35-.33,.55-.88,.57-1.63,.02-.38,.03-.73,.03-1.06s0-.67-.03-1.05c-.02-.5-.11-.91-.28-1.23-.17-.32-.4-.55-.68-.69-.29-.14-.62-.21-.99-.21s-.69,.07-.97,.21c-.29,.14-.51,.37-.68,.69-.17,.32-.26,.73-.28,1.23,0,.37-.01,.72-.01,1.05s0,.68,.01,1.06c.03,.75,.22,1.3,.57,1.63,.36,.33,.81,.5,1.37,.5Z"/><path d="M42.53,111.94c-.09,0-.16-.03-.22-.09s-.09-.13-.09-.22v-8.46c0-.09,.03-.17,.09-.23s.13-.09,.22-.09h3.17c.88,0,1.6,.13,2.16,.4,.57,.27,1,.67,1.29,1.2,.29,.53,.44,1.17,.45,1.94,.02,.38,.03,.72,.03,1.01s0,.63-.03,1c-.02,.81-.16,1.47-.44,2s-.7,.92-1.25,1.17c-.56,.26-1.27,.38-2.14,.38h-3.24Zm1.49-1.5h1.68c.49,0,.88-.07,1.18-.21,.3-.14,.53-.36,.67-.67s.22-.71,.23-1.22c0-.26,.02-.49,.02-.68,0-.2,0-.39,0-.58,0-.2-.01-.42-.02-.67-.02-.71-.2-1.23-.53-1.57s-.88-.51-1.61-.51h-1.61v6.11Z"/><path d="M51.67,111.94c-.09,0-.16-.03-.22-.09s-.09-.13-.09-.22v-8.48c0-.09,.03-.16,.09-.22s.13-.09,.22-.09h1.22c.1,0,.17,.03,.23,.09s.08,.13,.08,.22v8.48c0,.09-.03,.16-.08,.22s-.13,.09-.23,.09h-1.22Z"/><path d="M55.56,111.94c-.09,0-.16-.03-.22-.09s-.09-.13-.09-.22v-8.46c0-.09,.03-.17,.09-.23s.13-.09,.22-.09h1c.12,0,.21,.03,.27,.08,.06,.06,.09,.1,.11,.12l3.74,5.82v-5.71c0-.09,.03-.17,.08-.23,.06-.06,.13-.09,.23-.09h1.09c.1,0,.17,.03,.23,.09s.09,.14,.09,.23v8.45c0,.1-.03,.17-.09,.23s-.13,.09-.22,.09h-1.01c-.12,0-.21-.03-.26-.09-.05-.06-.09-.1-.12-.12l-3.73-5.69v5.59c0,.09-.03,.16-.09,.22s-.14,.09-.23,.09h-1.09Z"/><path d="M63.88,111.94c-.07,0-.13-.03-.19-.08-.06-.05-.08-.12-.08-.2,0-.03,0-.07,.03-.12l3.13-8.39c.03-.09,.08-.16,.15-.23,.07-.06,.18-.1,.31-.1h1.42c.13,0,.23,.03,.3,.1,.07,.07,.12,.14,.16,.23l3.13,8.39s.01,.08,.01,.12c0,.08-.03,.14-.08,.2-.05,.05-.11,.08-.18,.08h-1.13c-.12,0-.21-.03-.27-.08-.06-.06-.09-.11-.11-.16l-.61-1.59h-3.86l-.61,1.59c-.02,.05-.05,.11-.11,.16-.06,.06-.15,.08-.27,.08h-1.13Zm2.57-3.33h2.95l-1.48-4.02-1.47,4.02Zm.9-6.42c-.14,0-.21-.07-.21-.21,0-.07,.02-.13,.07-.17l1.05-1.29c.09-.09,.16-.16,.22-.19,.06-.03,.15-.05,.26-.05h1.39c.16,0,.25,.08,.25,.25,0,.06-.02,.11-.06,.16l-1.61,1.33c-.07,.06-.14,.1-.2,.13s-.15,.04-.25,.04h-.9Z"/><path d="M73.77,111.94c-.09,0-.17-.03-.23-.09s-.09-.13-.09-.22v-8.46c0-.09,.03-.17,.09-.23s.14-.09,.23-.09h1.03c.12,0,.21,.03,.27,.1,.06,.07,.1,.12,.12,.15l2.51,4.68,2.53-4.68s.06-.08,.12-.15c.06-.06,.15-.1,.27-.1h1.01c.1,0,.17,.03,.23,.09s.09,.14,.09,.23v8.46c0,.09-.03,.16-.09,.22s-.14,.09-.23,.09h-1.09c-.1,0-.17-.03-.23-.09-.06-.06-.08-.13-.08-.22v-5.63l-1.82,3.47c-.04,.08-.1,.14-.17,.2s-.16,.08-.27,.08h-.53c-.12,0-.21-.03-.28-.08-.06-.06-.12-.12-.16-.2l-1.82-3.47v5.63c0,.09-.03,.16-.09,.22s-.13,.09-.22,.09h-1.09Z"/><path d="M84.3,111.94c-.09,0-.16-.03-.22-.09s-.09-.13-.09-.22v-8.48c0-.09,.03-.16,.09-.22s.13-.09,.22-.09h1.22c.1,0,.17,.03,.23,.09,.06,.06,.08,.13,.08,.22v8.48c0,.09-.03,.16-.08,.22-.06,.06-.13,.09-.23,.09h-1.22Z"/><path d="M91.38,112.07c-.81,0-1.49-.14-2.05-.42-.56-.28-.99-.68-1.28-1.21-.29-.52-.46-1.15-.49-1.89,0-.36-.01-.74-.01-1.14s0-.8,.01-1.17c.04-.73,.2-1.36,.5-1.88,.3-.53,.73-.93,1.29-1.22,.56-.28,1.24-.42,2.04-.42,.59,0,1.12,.08,1.59,.23,.47,.16,.87,.37,1.2,.64s.58,.59,.77,.96c.18,.36,.28,.76,.29,1.18,0,.08-.01,.14-.07,.2-.06,.05-.12,.08-.2,.08h-1.24c-.1,0-.17-.02-.23-.07-.06-.05-.1-.13-.13-.24-.14-.57-.38-.96-.71-1.17s-.76-.31-1.26-.31c-.58,0-1.04,.16-1.39,.49-.35,.32-.53,.86-.56,1.61-.03,.71-.03,1.44,0,2.18s.21,1.28,.56,1.61c.35,.33,.81,.49,1.39,.49,.5,0,.92-.11,1.26-.32,.34-.21,.58-.6,.71-1.16,.03-.12,.07-.2,.13-.25,.06-.04,.14-.07,.23-.07h1.24c.08,0,.14,.03,.2,.08s.08,.12,.07,.2c0,.42-.1,.82-.29,1.18s-.44,.68-.77,.96c-.33,.27-.73,.49-1.2,.64-.47,.16-1,.23-1.59,.23Z"/><path d="M100.26,112.07c-.77,0-1.43-.13-1.99-.38-.55-.25-.99-.65-1.3-1.18-.31-.53-.48-1.2-.51-2,0-.37-.01-.74-.01-1.11s0-.74,.01-1.12c.03-.79,.2-1.45,.52-1.98,.32-.53,.76-.93,1.32-1.2,.56-.27,1.21-.4,1.96-.4s1.4,.13,1.96,.4c.56,.27,1.01,.67,1.33,1.2s.49,1.19,.52,1.98c.02,.38,.03,.75,.03,1.12s0,.73-.03,1.11c-.03,.8-.19,1.46-.51,2-.31,.53-.75,.93-1.31,1.18-.56,.26-1.22,.38-2,.38Zm0-1.5c.56,0,1.02-.17,1.38-.5,.35-.33,.54-.88,.57-1.63,.02-.38,.03-.73,.03-1.06s0-.67-.03-1.05c-.02-.5-.11-.91-.28-1.23s-.4-.55-.68-.69-.62-.21-.99-.21-.69,.07-.97,.21c-.29,.14-.51,.37-.68,.69s-.26,.73-.28,1.23c0,.37-.01,.72-.01,1.05s0,.68,.01,1.06c.03,.75,.22,1.3,.57,1.63,.36,.33,.81,.5,1.37,.5Z"/></g></g></g></g></svg>