<?xml version="1.0" encoding="UTF-8"?>
<svg width="365px" height="183px" viewBox="0 0 365 183" version="1.1" xmlns="http://www.w3.org/2000/svg" xmlns:xlink="http://www.w3.org/1999/xlink">
    <title>Usuarios</title>
    <defs>
        <linearGradient x1="50%" y1="38.1121508%" x2="89.8248522%" y2="61.8878492%" id="linearGradient-1">
            <stop stop-color="#FCB527" stop-opacity="0.963559878" offset="0%"></stop>
            <stop stop-color="#C3860A" stop-opacity="0.981177713" offset="96.9237606%"></stop>
            <stop stop-color="#32322E" offset="100%"></stop>
        </linearGradient>
    </defs>
    <g id="Page-1" stroke="none" stroke-width="1" fill="none" fill-rule="evenodd">
        <g id="Tein-Soluciones--I" transform="translate(-70, -187)" fill="url(#linearGradient-1)" fill-rule="nonzero">
            <g id="Users---Left-panel" transform="translate(1, -13.2401)">
                <g id="Usuarios-dinámicos---Título" transform="translate(70, 201.3949)">
                    <path id="Usuarios" d="M354.5,172.5 L363.5,177 L354.5,181.5 L354.5,177.5 L351.313403,177.5 L351.313403,176.5 L354.5,176.5 L354.5,172.5 Z M346.313403,176.5 L346.313403,177.5 L342.313403,177.5 L342.313403,176.5 L346.313403,176.5 Z M337.313403,176.5 L337.313403,177.5 L333.313403,177.5 L333.313403,176.5 L337.313403,176.5 Z M328.313403,176.5 L328.313403,177.5 L324.313403,177.5 L324.313403,176.5 L328.313403,176.5 Z M319.313403,176.5 L319.313403,177.5 L315.313403,177.5 L315.313403,176.5 L319.313403,176.5 Z M310.313403,176.5 L310.313403,177.5 L306.313403,177.5 L306.313403,176.5 L310.313403,176.5 Z M301.313403,176.5 L301.313403,177.5 L297.313403,177.5 L297.313403,176.5 L301.313403,176.5 Z M292.313403,176.5 L292.313403,177.5 L288.313403,177.5 L288.313403,176.5 L292.313403,176.5 Z M283.313403,176.5 L283.313403,177.5 L279.313403,177.5 L279.313403,176.5 L283.313403,176.5 Z M274.313403,176.5 L274.313403,177.5 L270.313403,177.5 L270.313403,176.5 L274.313403,176.5 Z M265.313403,176.5 L265.313403,177.5 L261.313403,177.5 L261.313403,176.5 L265.313403,176.5 Z M256.313403,176.5 L256.313403,177.5 L252.313403,177.5 L252.313403,176.5 L256.313403,176.5 Z M247.313403,176.5 L247.313403,177.5 L243.313403,177.5 L243.313403,176.5 L247.313403,176.5 Z M242.652546,169.160857 L242.652546,173.160857 L241.652546,173.160857 L241.652546,169.160857 L242.652546,169.160857 Z M242.652546,160.160857 L242.652546,164.160857 L241.652546,164.160857 L241.652546,160.160857 L242.652546,160.160857 Z M242.652546,151.160857 L242.652546,155.160857 L241.652546,155.160857 L241.652546,151.160857 L242.652546,151.160857 Z M242.652546,142.160857 L242.652546,146.160857 L241.652546,146.160857 L241.652546,142.160857 L242.652546,142.160857 Z M242.652546,133.160857 L242.652546,137.160857 L241.652546,137.160857 L241.652546,133.160857 L242.652546,133.160857 Z M242.652546,124.160857 L242.652546,128.160857 L241.652546,128.160857 L241.652546,124.160857 L242.652546,124.160857 Z M242.652546,115.160857 L242.652546,119.160857 L241.652546,119.160857 L241.652546,115.160857 L242.652546,115.160857 Z M117.290292,98.1094094 L117.290617,101.63691 C119.540436,101.885779 121.290292,103.793244 121.290292,106.109409 C121.290292,108.594691 119.275574,110.609409 116.790292,110.609409 C114.305011,110.609409 112.290292,108.594691 112.290292,106.109409 C112.290292,103.793244 114.040149,101.885779 116.289968,101.63691 L116.290292,98.1094094 L117.290292,98.1094094 Z M242.652546,106.160857 L242.652546,110.160857 L241.652546,110.160857 L241.652546,106.160857 L242.652546,106.160857 Z M242.652546,97.1608566 L242.652546,101.160857 L241.652546,101.160857 L241.652546,97.1608566 L242.652546,97.1608566 Z M117.290292,89.1094094 L117.290292,93.1094094 L116.290292,93.1094094 L116.290292,89.1094094 L117.290292,89.1094094 Z M242.652546,88.1608566 L242.652546,92.1608566 L241.652546,92.1608566 L241.652546,88.1608566 L242.652546,88.1608566 Z M108.400629,87.9846767 L112.400622,87.9919821 L112.398796,88.9919804 L108.398803,88.9846751 L108.400629,87.9846767 Z M99.400644,87.9682396 L103.400637,87.975545 L103.398811,88.9755433 L99.3988177,88.968238 L99.400644,87.9682396 Z M90.4006591,87.9518025 L94.4006524,87.9591079 L94.398826,88.9591062 L90.3988327,88.9518009 L90.4006591,87.9518025 Z M81.4006741,87.9353654 L85.4006674,87.9426708 L85.398841,88.9426691 L81.3988477,88.9353638 L81.4006741,87.9353654 Z M72.4006891,87.9189283 L76.4006824,87.9262337 L76.3988561,88.926232 L72.3988627,88.9189267 L72.4006891,87.9189283 Z M63.4007041,87.9024912 L67.4006974,87.9097966 L67.3988711,88.9097949 L63.3988777,88.9024896 L63.4007041,87.9024912 Z M54.4007191,87.8860541 L58.4007124,87.8933595 L58.3988861,88.8933578 L54.3988927,88.8860525 L54.4007191,87.8860541 Z M45.4007341,87.869617 L49.4007274,87.8769224 L49.3989011,88.8769207 L45.3989078,88.8696154 L45.4007341,87.869617 Z M36.4007491,87.8531799 L40.4007424,87.8604853 L40.3989161,88.8604836 L36.3989228,88.8531783 L36.4007491,87.8531799 Z M27.4007641,87.8367428 L31.4007575,87.8440482 L31.3989311,88.8440465 L27.3989378,88.8367412 L27.4007641,87.8367428 Z M18.4007791,87.8203057 L22.4007725,87.8276111 L22.3989461,88.8276094 L18.3989528,88.8203041 L18.4007791,87.8203057 Z M9.40079414,87.8038686 L13.4007875,87.811174 L13.3989611,88.8111723 L9.3989678,88.803867 L9.40079414,87.8038686 Z M0.400809154,87.7874315 L4.40080248,87.7947369 L4.39897614,88.7947352 L0.398982809,88.7874299 L0.400809154,87.7874315 Z M0.5,79.686597 L0.5,83.686597 L-0.5,83.686597 L-0.5,79.686597 L0.5,79.686597 Z M242.652546,79.1608566 L242.652546,83.1608566 L241.652546,83.1608566 L241.652546,79.1608566 L242.652546,79.1608566 Z M0.5,70.686597 L0.5,74.686597 L-0.5,74.686597 L-0.5,70.686597 L0.5,70.686597 Z M242.652546,70.1608566 L242.652546,74.1608566 L241.652546,74.1608566 L241.652546,70.1608566 L242.652546,70.1608566 Z M0.5,61.686597 L0.5,65.686597 L-0.5,65.686597 L-0.5,61.686597 L0.5,61.686597 Z M242.652546,61.1608566 L242.652546,65.1608566 L241.652546,65.1608566 L241.652546,61.1608566 L242.652546,61.1608566 Z M0.5,52.686597 L0.5,56.686597 L-0.5,56.686597 L-0.5,52.686597 L0.5,52.686597 Z M242.652546,52.1608566 L242.652546,56.1608566 L241.652546,56.1608566 L241.652546,52.1608566 L242.652546,52.1608566 Z M0.5,43.686597 L0.5,47.686597 L-0.5,47.686597 L-0.5,43.686597 L0.5,43.686597 Z M242.652546,43.1608566 L242.652546,47.1608566 L241.652546,47.1608566 L241.652546,43.1608566 L242.652546,43.1608566 Z M0.5,34.686597 L0.5,38.686597 L-0.5,38.686597 L-0.5,34.686597 L0.5,34.686597 Z M242.652546,34.1608566 L242.652546,38.1608566 L241.652546,38.1608566 L241.652546,34.1608566 L242.652546,34.1608566 Z M0.5,25.686597 L0.5,29.686597 L-0.5,29.686597 L-0.5,25.686597 L0.5,25.686597 Z M242.652546,25.1608566 L242.652546,29.1608566 L241.652546,29.1608566 L241.652546,25.1608566 L242.652546,25.1608566 Z M0.5,16.686597 L0.5,20.686597 L-0.5,20.686597 L-0.5,16.686597 L0.5,16.686597 Z M242.652546,16.1608566 L242.652546,20.1608566 L241.652546,20.1608566 L241.652546,16.1608566 L242.652546,16.1608566 Z M0.5,7.686597 L0.5,11.686597 L-0.5,11.686597 L-0.5,7.686597 L0.5,7.686597 Z M242.652546,7.16085657 L242.652546,11.1608566 L241.652546,11.1608566 L241.652546,7.16085657 L242.652546,7.16085657 Z M1.313403,-0.5 L1.313403,0.5 L0.5,0.5 L0.5,2.686597 L-0.5,2.686597 L-0.5,-0.5 L1.313403,-0.5 Z M242.652546,-0.5 L242.652546,2.16085657 L241.652546,2.16085657 L241.652,0.5 L240.313403,0.5 L240.313403,-0.5 L242.652546,-0.5 Z M226.313403,-0.5 L226.313403,0.5 L222.313403,0.5 L222.313403,-0.5 L226.313403,-0.5 Z M217.313403,-0.5 L217.313403,0.5 L213.313403,0.5 L213.313403,-0.5 L217.313403,-0.5 Z M208.313403,-0.5 L208.313403,0.5 L204.313403,0.5 L204.313403,-0.5 L208.313403,-0.5 Z M199.313403,-0.5 L199.313403,0.5 L195.313403,0.5 L195.313403,-0.5 L199.313403,-0.5 Z M190.313403,-0.5 L190.313403,0.5 L186.313403,0.5 L186.313403,-0.5 L190.313403,-0.5 Z M235.313403,-0.5 L235.313403,0.5 L231.313403,0.5 L231.313403,-0.5 L235.313403,-0.5 Z M172.313403,-0.5 L172.313403,0.5 L168.313403,0.5 L168.313403,-0.5 L172.313403,-0.5 Z M154.313403,-0.5 L154.313403,0.5 L150.313403,0.5 L150.313403,-0.5 L154.313403,-0.5 Z M145.313403,-0.5 L145.313403,0.5 L141.313403,0.5 L141.313403,-0.5 L145.313403,-0.5 Z M136.313403,-0.5 L136.313403,0.5 L132.313403,0.5 L132.313403,-0.5 L136.313403,-0.5 Z M127.313403,-0.5 L127.313403,0.5 L123.313403,0.5 L123.313403,-0.5 L127.313403,-0.5 Z M118.313403,-0.5 L118.313403,0.5 L114.313403,0.5 L114.313403,-0.5 L118.313403,-0.5 Z M109.313403,-0.5 L109.313403,0.5 L105.313403,0.5 L105.313403,-0.5 L109.313403,-0.5 Z M100.313403,-0.5 L100.313403,0.5 L96.313403,0.5 L96.313403,-0.5 L100.313403,-0.5 Z M91.313403,-0.5 L91.313403,0.5 L87.313403,0.5 L87.313403,-0.5 L91.313403,-0.5 Z M82.313403,-0.5 L82.313403,0.5 L78.313403,0.5 L78.313403,-0.5 L82.313403,-0.5 Z M73.313403,-0.5 L73.313403,0.5 L69.313403,0.5 L69.313403,-0.5 L73.313403,-0.5 Z M64.313403,-0.5 L64.313403,0.5 L60.313403,0.5 L60.313403,-0.5 L64.313403,-0.5 Z M55.313403,-0.5 L55.313403,0.5 L51.313403,0.5 L51.313403,-0.5 L55.313403,-0.5 Z M46.313403,-0.5 L46.313403,0.5 L42.313403,0.5 L42.313403,-0.5 L46.313403,-0.5 Z M37.313403,-0.5 L37.313403,0.5 L33.313403,0.5 L33.313403,-0.5 L37.313403,-0.5 Z M28.313403,-0.5 L28.313403,0.5 L24.313403,0.5 L24.313403,-0.5 L28.313403,-0.5 Z M19.313403,-0.5 L19.313403,0.5 L15.313403,0.5 L15.313403,-0.5 L19.313403,-0.5 Z M10.313403,-0.5 L10.313403,0.5 L6.313403,0.5 L6.313403,-0.5 L10.313403,-0.5 Z M163.313403,-0.5 L163.313403,0.5 L159.313403,0.5 L159.313403,-0.5 L163.313403,-0.5 Z M181.313403,-0.5 L181.313403,0.5 L177.313403,0.5 L177.313403,-0.5 L181.313403,-0.5 Z"></path>
                </g>
            </g>
        </g>
    </g>
</svg>