<svg width="389" height="121" viewBox="0 0 389 121" xmlns="http://www.w3.org/2000/svg">
  <path d="m5.5 113.825 9 4.5v-9zm89-.5v1h-5v-1zm-9 0v1h-5v-1zm-9 0v1h-5v-1zm-9 0v1h-5v-1zm-9 0v1h-5v-1zm-9 0v1h-5v-1zm-9 0v1h-5v-1zm-9 0v1h-5v-1zm-9 0v1h-5v-1zM7 .905a7 7 0 0 1 6.929 5.999L378 6.905c6.075 0 11 4.925 11 11v85.701c0 6.075-4.925 11-11 11l-261.071.001a7.002 7.002 0 0 1-13.929-1 7 7 0 0 1 13.93-1H378a9 9 0 0 0 9-9V17.905a9 9 0 0 0-9-9l-364.071.001A7.002 7.002 0 0 1 0 7.905a7 7 0 0 1 7-7" fill="#FCB527"/>
</svg>
