<?xml version="1.0" encoding="UTF-8"?>
<svg width="90px" height="10px" viewBox="0 0 90 10" version="1.1" xmlns="http://www.w3.org/2000/svg" xmlns:xlink="http://www.w3.org/1999/xlink">
    <title>Line</title>
    <g id="Page-1" stroke="none" stroke-width="1" fill="none" fill-rule="evenodd">
        <g id="Tein-Soluciones--I" transform="translate(-899, -318)" fill="#F04138" fill-rule="nonzero">
            <g id="Service---Recuadro" transform="translate(899.5, 216.9332)">
                <path id="Line" d="M0,105.920532 L9,110.420532 L9,101.420532 L0,105.920532 Z M89,105.420532 L89,106.420532 L84,106.420532 L84,105.420532 L89,105.420532 Z M80,105.420532 L80,106.420532 L75,106.420532 L75,105.420532 L80,105.420532 Z M71,105.420532 L71,106.420532 L66,106.420532 L66,105.420532 L71,105.420532 Z M62,105.420532 L62,106.420532 L57,106.420532 L57,105.420532 L62,105.420532 Z M53,105.420532 L53,106.420532 L48,106.420532 L48,105.420532 L53,105.420532 Z M44,105.420532 L44,106.420532 L39,106.420532 L39,105.420532 L44,105.420532 Z M35,105.420532 L35,106.420532 L30,106.420532 L30,105.420532 L35,105.420532 Z M26,105.420532 L26,106.420532 L21,106.420532 L21,105.420532 L26,105.420532 Z M17,105.420532 L17,106.420532 L12,106.420532 L12,105.420532 L17,105.420532 Z"></path>
            </g>
        </g>
    </g>
</svg>