<?xml version="1.0" encoding="UTF-8"?>
<svg width="389px" height="121px" viewBox="0 0 389 121" version="1.1" xmlns="http://www.w3.org/2000/svg" xmlns:xlink="http://www.w3.org/1999/xlink">
    <title>Line</title>
    <g id="Page-1" stroke="none" stroke-width="1" fill="none" fill-rule="evenodd">
        <g id="Tein-Soluciones--I" transform="translate(-894, -42)" fill="#FCB527" fill-rule="nonzero">
            <g id="Service---Recuadro" transform="translate(899.5, 49.9048)">
                <g id="Line" transform="translate(0, 0)">
                    <path d="M0,105.920532 L9,110.420532 L9,101.420532 L0,105.920532 Z M89,105.420532 L89,106.420532 L84,106.420532 L84,105.420532 L89,105.420532 Z M80,105.420532 L80,106.420532 L75,106.420532 L75,105.420532 L80,105.420532 Z M71,105.420532 L71,106.420532 L66,106.420532 L66,105.420532 L71,105.420532 Z M62,105.420532 L62,106.420532 L57,106.420532 L57,105.420532 L62,105.420532 Z M53,105.420532 L53,106.420532 L48,106.420532 L48,105.420532 L53,105.420532 Z M44,105.420532 L44,106.420532 L39,106.420532 L39,105.420532 L44,105.420532 Z M35,105.420532 L35,106.420532 L30,106.420532 L30,105.420532 L35,105.420532 Z M26,105.420532 L26,106.420532 L21,106.420532 L21,105.420532 L26,105.420532 Z M17,105.420532 L17,106.420532 L12,106.420532 L12,105.420532 L17,105.420532 Z"></path>
                    <path id="Path-3" d="M1.5,-7 C5.0261219,-7 7.94330235,-4.39281176 8.42896659,-1.00101007 L372.5,-1 C378.575132,-1 383.5,3.92486775 383.5,10 L383.5,95.7010851 C383.5,101.776217 378.575132,106.701085 372.5,106.701085 L111.428967,106.702095 C110.943302,110.093897 108.026122,112.701085 104.5,112.701085 C100.634007,112.701085 97.5,109.567078 97.5,105.701085 C97.5,101.835092 100.634007,98.7010851 104.5,98.7010851 C108.026469,98.7010851 110.943877,101.308787 111.42911,104.701077 L372.5,104.701085 C377.470563,104.701085 381.5,100.671648 381.5,95.7010851 L381.5,10 C381.5,5.02943725 377.470563,1 372.5,1 L8.42896659,1.00101007 C7.94330235,4.39281176 5.0261219,7 1.5,7 C-2.36599325,7 -5.5,3.86599325 -5.5,-3.35161668e-17 C-5.5,-3.86599325 -2.36599325,-7 1.5,-7 Z"></path>
                </g>
            </g>
        </g>
    </g>
</svg>