<?xml version="1.0" encoding="UTF-8"?>
<svg width="29px" height="26px" viewBox="0 0 29 26" version="1.1" xmlns="http://www.w3.org/2000/svg" xmlns:xlink="http://www.w3.org/1999/xlink">
    <title>ico - entorno usuario</title>
    <defs>
        <polygon id="path-1" points="0 0 11.8787879 0 11.8787879 16.1212121 0 16.1212121"></polygon>
        <polygon id="path-3" points="0 0 20.3636364 0 20.3636364 15.2727273 0 15.2727273"></polygon>
        <polygon id="path-5" points="0 0 6.78787879 0 6.78787879 0.848484848 0 0.848484848"></polygon>
    </defs>
    <g id="Page-1" stroke="none" stroke-width="1" fill="none" fill-rule="evenodd">
        <g id="Tein---Entornos-OPTION-&quot;From-Left&quot;---Intro" transform="translate(-66, -284)">
            <g id="iconos-" transform="translate(66.7255, 137.2866)">
                <g id="ico---entorno-usuario" transform="translate(0, 147)">
                    <path d="M12.020202,7.82492672 C11.4696054,7.82492672 10.9885267,8.13024361 10.7120267,8.58802285 L7.35159403,7.56971161 C7.34161007,6.6677816 6.65086834,5.93939394 5.7979798,5.93939394 C4.93880506,5.93939394 4.24242424,6.67807648 4.24242424,7.58922287 C4.24242424,8.50036925 4.93880506,9.23905179 5.7979798,9.23905179 C6.34857639,9.23905179 6.82965508,8.9337349 7.10615515,8.47605371 L10.4665878,9.49436495 C10.467882,9.62113911 10.4852615,9.74330509 10.5121627,9.86174529 L7.74679222,11.5726572 C7.46853572,11.2967543 7.09774275,11.1245846 6.68692151,11.1245846 C5.82774677,11.1245846 5.13136596,11.8632671 5.13136596,12.7744135 C5.13136596,13.6855599 5.82774677,14.4242424 6.68692151,14.4242424 C7.54600381,14.4242424 8.24247707,13.6855599 8.24247707,12.7744135 C8.24247707,12.6404819 8.22334116,12.512041 8.1948684,12.3873258 L10.9603313,10.6764139 C11.2384954,10.9524149 11.6093808,11.1245846 12.020202,11.1245846 C12.8793768,11.1245846 13.5757576,10.385902 13.5757576,9.47475565 C13.5757576,8.56360926 12.8793768,7.82492672 12.020202,7.82492672" id="Fill-1" fill="#FFFFFF"></path>
                    <g id="Group-5" transform="translate(16.1212, 9.3333)">
                        <mask id="mask-2" fill="white">
                            <use xlink:href="#path-1"></use>
                        </mask>
                        <g id="Clip-4"></g>
                        <path d="M8.71342352,3.11621584 C8.02768485,1.16277447 7.08755006,0.713937605 5.48248824,0 C5.48163297,3.25271117 5.48315345,3.96901574 5.4826783,5.43387487 C5.48248824,5.83803516 5.16679758,6.16398678 4.77736339,6.16398678 C4.64147006,6.16398678 4.50871273,6.12355103 4.3944863,6.04682172 C3.84910739,5.6802371 2.14692461,4.54004748 1.10026085,3.87581626 C0.996012606,3.8096397 0.874944,3.79287366 0.761572848,3.79326815 C0.334411636,3.79425439 0,4.16172663 0,4.54349931 C0,5.37529234 2.27027394,7.0575183 3.34715733,9.04676011 C4.06482618,10.3723625 5.11282036,10.9048323 5.9982177,11.1473482 C6.90081552,11.3946966 7.64081648,12.0661274 8.05818958,12.9327346 L9.59435442,16.1212417 L11.8787879,11.853889 C11.8787879,11.853889 10.0798642,7.0086009 8.71342352,3.11621584" id="Fill-3" fill="#FFFFFF" mask="url(#mask-2)"></path>
                    </g>
                    <g id="Group-8" transform="translate(0, 2.5455)">
                        <mask id="mask-4" fill="white">
                            <use xlink:href="#path-3"></use>
                        </mask>
                        <g id="Clip-7"></g>
                        <path d="M18.7437953,6.94214876 C19.1273127,6.94214876 19.4380542,7.25298837 19.4380542,7.63641177 C19.4380542,8.0197389 19.1273127,8.33057851 18.7437953,8.33057851 C18.3602779,8.33057851 18.0495365,8.0197389 18.0495365,7.63641177 C18.0495365,7.25298837 18.3602779,6.94214876 18.7437953,6.94214876 M16.366931,13.8061304 C16.241306,13.6728034 16.1219381,13.5455411 16.0069022,13.4215518 L1.85122217,13.4215518 L1.85122217,1.85117549 L17.1239543,1.85117549 L17.1239543,9.83240841 C17.1953824,9.86119163 17.2647891,9.89401799 17.3300563,9.93367916 C18.2534245,10.4986583 19.6431936,11.3913234 20.3636364,11.8563795 L20.3636364,1.38842975 C20.3636364,0.621582951 19.7419609,0 18.9752149,0 L1.3884792,0 C0.621636988,0 -3.85057599e-05,0.621582951 -3.85057599e-05,1.38842975 L-3.85057599e-05,13.8842975 C-3.85057599e-05,14.6511443 0.621636988,15.2727273 1.3884792,15.2727273 L17.6692921,15.2727273 C17.2619974,14.7557844 16.7967516,14.2618488 16.366931,13.8061304" id="Fill-6" fill="#FFFFFF" mask="url(#mask-4)"></path>
                    </g>
                    <path d="M15.4423866,19.5151515 L10.0121589,19.5151515 C9.63716706,19.5151515 9.33333333,19.7051091 9.33333333,19.9394234 C9.33333333,20.1736788 9.63716706,20.3636364 10.0121589,20.3636364 L15.4423866,20.3636364 C15.8173784,20.3636364 16.1212121,20.1736788 16.1212121,19.9394234 C16.1212121,19.7051091 15.8173784,19.5151515 15.4423866,19.5151515" id="Fill-9" fill="#FFFFFF"></path>
                    <g id="Group-13" transform="translate(2.5455, 0)">
                        <mask id="mask-6" fill="white">
                            <use xlink:href="#path-5"></use>
                        </mask>
                        <g id="Clip-12"></g>
                        <path d="M6.10905326,-5.88290045e-06 L0.678825529,-5.88290045e-06 C0.303833722,-5.88290045e-06 0,0.189952973 0,0.424268897 C0,0.658525993 0.303833722,0.848484848 0.678825529,0.848484848 L6.10905326,0.848484848 C6.48404507,0.848484848 6.78787879,0.658525993 6.78787879,0.424268897 C6.78787879,0.189952973 6.48404507,-5.88290045e-06 6.10905326,-5.88290045e-06" id="Fill-11" fill="#FFFFFF" mask="url(#mask-6)"></path>
                    </g>
                    <path d="M7.63636364,19.9393939 C7.63636364,20.173692 7.4464061,20.3636364 7.2120918,20.3636364 C6.97783633,20.3636364 6.78787879,20.173692 6.78787879,19.9393939 C6.78787879,19.7050959 6.97783633,19.5151515 7.2120918,19.5151515 C7.4464061,19.5151515 7.63636364,19.7050959 7.63636364,19.9393939" id="Fill-14" fill="#FFFFFF"></path>
                </g>
            </g>
        </g>
    </g>
</svg>