<?xml version="1.0" encoding="UTF-8"?>
<svg width="72px" height="61px" viewBox="0 0 72 61" version="1.1" xmlns="http://www.w3.org/2000/svg" xmlns:xlink="http://www.w3.org/1999/xlink">
    <title>user dynamic copy</title>
    <g id="Page-1" stroke="none" stroke-width="1" fill="none" fill-rule="evenodd">
        <g id="Tein---Entornos-OPTION-&quot;From-Left&quot;---Intro" transform="translate(-96, -145)" fill="#2A8E89">
            <g id="iconos-" transform="translate(66.7255, 137.2866)">
                <g id="user-dynamic-copy" transform="translate(30.0063, 8.0254)">
                    <path d="M19.6574698,38.3374016 L-7.10542736e-15,38.3347796 L-7.10542736e-15,41.4313629 L19.6574698,41.4313629 L19.6574698,38.3374016 Z M19.6574698,16.1781213 L19.6574698,16.1781213 L19.6574698,13.0819126 L8.43785322,13.0819126 C8.60461662,14.1715413 8.92465244,15.2091046 9.37922324,16.174001 L19.6574698,16.174001 L19.6574698,16.1781213 Z M27.9716558,28.355818 C32.516989,28.355818 36.2150142,32.0520904 36.2150142,36.5952692 L36.2150142,41.7830856 L39.3153144,41.7830856 L39.3153144,36.5952692 C39.3153144,30.3432949 34.2265949,25.2569873 27.9716558,25.2569873 L11.3432838,25.2569873 C8.33667093,25.2569873 5.60699768,26.4406335 3.57473272,28.355818 L27.9716558,28.355818 Z M19.6574698,6.54001985 L19.6574698,6.54001985 L19.6574698,6.54414014 L9.37922324,6.54414014 C8.92465244,7.50941111 8.60461662,8.54659983 8.43785322,9.63660314 L19.6574698,9.63660314 L19.6574698,6.54001985 Z M19.6574698,31.7973817 L1.08077672,31.7966326 C0.626955429,32.7619036 0.308043851,33.7994669 0.1424047,34.8890956 L19.6574698,34.8890956 L19.6574698,31.7973817 Z M67.8224868,54.835407 C67.8224868,53.6959602 66.8953573,52.7700193 65.7557449,52.7700193 C64.6161326,52.7700193 63.689003,53.6959602 63.689003,54.835407 C63.689003,55.9748538 64.6161326,56.9011693 65.7557449,56.9011693 C66.8953573,56.9011693 67.8224868,55.9748538 67.8224868,54.835407 L67.8224868,54.835407 Z M48.7054054,46.4307698 C48.7054054,47.5702166 49.6325349,48.4965321 50.7721473,48.4965321 C51.9117596,48.4965321 52.8388892,47.5702166 52.8388892,46.4307698 C52.8388892,45.2916976 51.9117596,44.3653821 50.7721473,44.3653821 C49.6325349,44.3653821 48.7054054,45.2916976 48.7054054,46.4307698 L48.7054054,46.4307698 Z M70.9224123,54.835407 C70.9224123,57.6829002 68.6045884,60 65.7557449,60 C63.4465403,60 61.4873514,58.4773665 60.8270433,56.3846351 L41.8647333,56.3846351 L33.4291286,47.9799979 L-7.10542736e-15,47.9799979 L-7.10542736e-15,44.8770469 L45.8438204,44.8815417 C46.5037538,42.7888103 48.4629426,41.2665514 50.7721473,41.2665514 C53.6209908,41.2665514 55.9388146,43.5832766 55.9388146,46.4307698 C55.9388146,49.278263 53.6209908,51.5953628 50.7721473,51.5953628 C48.4629426,51.5953628 46.5037538,50.0727293 45.8438204,47.9799979 L37.8204398,47.9799979 L43.1460008,53.2861789 L60.8270433,53.2861789 C61.4873514,51.1934475 63.4465403,49.6711886 65.7557449,49.6711886 C68.6045884,49.6711886 70.9224123,51.9879138 70.9224123,54.835407 L70.9224123,54.835407 Z M19.6574698,3.09845614 L11.8806742,3.09845614 C13.9159372,1.18327163 16.6482337,-3.55271368e-15 19.6574698,-3.55271368e-15 C25.9240261,-3.55271368e-15 31.0221144,5.09567183 31.0221144,11.3588833 C31.0221144,17.6228439 25.9240261,22.7181411 19.6574698,22.7181411 C16.6482337,22.7181411 13.9159372,21.5348695 11.8806742,19.619685 L19.6574698,19.619685 L19.6574698,19.619685 C24.2144202,19.619685 27.9221889,15.9140483 27.9221889,11.3588833 C27.9221889,6.80409282 24.2144202,3.09845614 19.6574698,3.09845614 Z" id="Fill-1"></path>
                </g>
            </g>
        </g>
    </g>
</svg>