<?xml version="1.0" encoding="UTF-8"?>
<svg width="120px" height="130px" viewBox="0 0 120 130" version="1.1" xmlns="http://www.w3.org/2000/svg" xmlns:xlink="http://www.w3.org/1999/xlink">
    <title>icono</title>
    <defs>
        <polygon id="path-1" points="0 0 105 0 105 106.096882 0 106.096882"></polygon>
        <polygon id="path-3" points="0 0 51 0 51 50.9232955 0 50.9232955"></polygon>
    </defs>
    <g id="Page-1" stroke="none" stroke-width="1" fill="none" fill-rule="evenodd">
        <g id="Tein-Soluciones--I" transform="translate(-540, -49)">
            <g id="Services" transform="translate(429, 0.5092)">
                <g id="Solution---Customer-&amp;-Digital-Experience" transform="translate(111, 49.3956)">
                    <g id="icono" transform="translate(0, -0)">
                        <g id="Group">
                            <g id="Group-3">
                                <mask id="mask-2" fill="white">
                                    <use xlink:href="#path-1"></use>
                                </mask>
                                <g id="Clip-2"></g>
                                <path d="M105,53.0484023 C105,82.3460832 81.495148,106.096882 52.5,106.096882 C23.504852,106.096882 0,82.3460832 0,53.0484023 C0,23.7503354 23.504852,-7.71793864e-05 52.5,-7.71793864e-05 C81.495148,-7.71793864e-05 105,23.7503354 105,53.0484023" id="Fill-1" fill="#F7D719" mask="url(#mask-2)"></path>
                                <rect id="Rectangle" fill="#FCB527" mask="url(#mask-2)" x="0" y="0" width="104.608209" height="105.700998" rx="10"></rect>
                            </g>
                            <path d="M106.429547,112.648887 L106.429547,124.806336 L116.35568,118.727612 L106.429547,112.648887 Z M105.214773,128.326705 C105.004956,128.326705 104.795138,128.269182 104.607387,128.154137 C104.23151,127.924048 104,127.498383 104,127.037807 L104,110.41702 C104,109.956841 104.23151,109.531175 104.607387,109.301086 C104.982889,109.0706 105.446657,109.0706 105.82216,109.301086 L119.392613,117.612075 C119.76849,117.842164 120,118.267433 120,118.727612 C120,119.18779 119.76849,119.613853 119.392613,119.843942 L105.82216,128.154137 C105.634409,128.269182 105.424217,128.326705 105.214773,128.326705 L105.214773,128.326705 Z" id="Fill-25" fill="#000000"></path>
                            <path d="M104.014077,120.243133 L16.2316418,120.243133 C15.5515663,120.243133 15,119.685806 15,118.999012 L15,16.4008179 C15,15.7136405 15.5515663,15.1566974 16.2316418,15.1566974 L117.768737,15.1566974 C118.448813,15.1566974 119,15.7136405 119,16.4008179 L119,95.3890666 C119,96.0762441 118.448813,96.6331872 117.768737,96.6331872 C117.089041,96.6331872 116.537475,96.0762441 116.537475,95.3890666 L116.537475,17.6449385 L17.4629045,17.6449385 L17.4629045,117.754508 L104.014077,117.754508 C104.694153,117.754508 105.24534,118.311835 105.24534,118.999012 C105.24534,119.685806 104.694153,120.243133 104.014077,120.243133" id="Fill-27" fill="#020617"></path>
                        </g>
                        <g transform="translate(63, 31.5724)">
                            <mask id="mask-4" fill="white">
                                <use xlink:href="#path-3"></use>
                            </mask>
                            <g id="Clip-2"></g>
                            <path d="M20,26.4528203 C19.9858365,26.2941384 19.9785263,26.1331896 19.9785263,25.9708807 C19.9785263,25.8085717 19.9858365,25.6476229 20,25.488941 L14.0856039,25.488941 C13.8585313,24.3133347 12.8172869,23.4247159 11.5658747,23.4247159 C10.1490696,23.4247159 9,24.5645055 9,25.9708807 C9,27.3772559 10.1490696,28.5170455 11.5658747,28.5170455 C12.8172869,28.5170455 13.8585313,27.6284267 14.0856039,26.4528203 L20,26.4528203 Z M23,30.0254713 C22.712637,29.8874544 22.4390425,29.7232143 22.1832139,29.5355114 C21.2238567,31.2547417 20.2653878,32.974432 19.3086955,34.6945825 C18.2009933,34.2970938 16.9422811,34.7548498 16.3346882,35.8447232 C15.6458165,37.0804343 16.0544316,38.6602676 17.24741,39.3738149 C18.4399443,40.0869021 19.9651446,39.6636503 20.6535722,38.4279392 C21.2620534,37.3366857 21.0142194,35.9767593 20.1259257,35.1827022 L23,30.0254713 Z M28.817605,29.5355114 C28.5609099,29.7236744 28.2873386,29.8879145 28,30.0263914 L30.8738304,35.1836223 C29.9865003,35.9776794 29.7386874,37.3366857 30.3466728,38.4279392 C31.035042,39.6636503 32.5601129,40.0869021 33.7529901,39.3738149 C34.9454232,38.6602676 35.3540036,37.0804343 34.6656344,35.8447232 C34.057649,34.7543898 32.7990436,34.2970938 31.6918795,34.6950425 C30.7348242,32.974432 29.7764367,31.2547417 28.817605,29.5355114 L28.817605,29.5355114 Z M31,25.488941 C31.0146198,25.6476229 31.0219296,25.8085717 31.0219296,25.9708807 C31.0219296,26.1331896 31.0146198,26.2941384 31,26.4528203 L36.9141504,26.4528203 C37.1412136,27.6284267 38.1828716,28.5170455 39.4342318,28.5170455 C40.8509781,28.5170455 42,27.3772559 42,25.9708807 C42,24.5645055 40.8509781,23.4247159 39.4342318,23.4247159 C38.1828716,23.4247159 37.1412136,24.3133347 36.9141504,25.488941 L31,25.488941 Z M28,20.9022712 C28.2848366,21.0389511 28.555898,21.2018626 28.8100736,21.3877841 L31.6859902,16.2284618 C32.7946756,16.6288373 34.0566662,16.1713968 34.6654434,15.0797981 C35.3542059,13.8436961 34.945392,12.2633631 33.7522776,11.5495901 C32.5587189,10.8362774 31.0327767,11.259663 30.3440143,12.495765 C29.7347927,13.5887443 29.9840803,14.9504814 30.8745836,15.7438693 C29.9178702,17.4641036 28.9593795,19.1834175 28,20.9022712 L28,20.9022712 Z M25.4997663,21.3877841 C23.0145417,21.3877841 21,23.4398956 21,25.9708807 C21,28.5018658 23.0145417,30.5539773 25.4997663,30.5539773 C27.9849909,30.5539773 30,28.5018658 30,25.9708807 C30,23.4398956 27.9849909,21.3877841 25.4997663,21.3877841 L25.4997663,21.3877841 Z M20.1253549,15.7441243 C21.0163216,14.9503121 21.2656145,13.5886365 20.6563799,12.4957066 C19.9671583,11.2596605 18.4411834,10.8362939 17.2480435,11.5495745 C16.0544592,12.2633152 15.6456366,13.8435768 16.3348582,15.0796229 C16.9436484,16.1711723 18.2047773,16.6285922 19.3134865,16.2286949 L22.1894647,21.3877841 C22.4436457,21.201871 22.7147129,21.0389669 23,20.901833 C22.0406,19.1830569 21.0820887,17.4638207 20.1253549,15.7441243 L20.1253549,15.7441243 Z M25.4997678,0 C39.5834479,0 51,11.3997413 51,25.4616477 C51,39.5235541 39.5834479,50.9232955 25.4997678,50.9232955 C11.4165521,50.9232955 0,39.5235541 0,25.4616477 C0,11.3997413 11.4165521,0 25.4997678,0 L25.4997678,0 Z" id="Fill-1" fill="#020617" mask="url(#mask-4)"></path>
                        </g>
                    </g>
                </g>
            </g>
        </g>
    </g>
</svg>