<?xml version="1.0" encoding="UTF-8"?>
<svg width="12px" height="28px" viewBox="0 0 12 28" version="1.1" xmlns="http://www.w3.org/2000/svg" xmlns:xlink="http://www.w3.org/1999/xlink">
    <title>mouse</title>
    <defs>
        <polygon id="path-1" points="0 4.79282223e-15 7.63636361 4.79282223e-15 7.63636361 11.4545454 0 11.4545454"></polygon>
        <polygon id="path-3" points="-8.27272729 19.7272727 19.7272726 19.7272727 19.7272726 8.27272729 -8.27272729 8.27272729"></polygon>
    </defs>
    <g id="Page-1" stroke="none" stroke-width="1" fill="none" fill-rule="evenodd">
        <g id="mouse" transform="translate(0, -0)">
            <path d="M2.60504122,18.5450841 C2.47374783,18.4428568 2.29750403,18.4257297 2.14998337,18.5011959 C2.00246271,18.576573 1.90909081,18.7312521 1.90909081,18.9006498 L1.90909081,29.4630728 C1.90909081,29.6324705 2.00254949,29.7874172 2.1502437,29.862705 C2.21133461,29.8937479 2.27728502,29.9090909 2.34297511,29.9090909 C2.43617345,29.9090909 2.52867758,29.8782264 2.60564866,29.8181032 L9.3742436,24.5278821 C9.48219401,24.4434955 9.54554111,24.3119202 9.5454546,24.1724057 C9.54536756,24.0329804 9.48176012,23.9014943 9.37363616,23.8172861 L2.60504122,18.5450841 Z" id="Fill-1" fill="#212529" transform="translate(5.7273, 24.1818) rotate(90) translate(-5.7273, -24.1818)"></path>
            <g id="Group-5" transform="translate(5.7273, 3.8182) rotate(90) translate(-5.7273, -3.8182)translate(1.9091, -1.9091)">
                <mask id="mask-2" fill="white">
                    <use xlink:href="#path-1"></use>
                </mask>
                <g id="Clip-4"></g>
                <path d="M7.39555673,0.046650534 C7.2480354,-0.0288158514 7.0717908,-0.0116887285 6.94049681,0.0905387865 L0.171871029,5.36274893 C0.0637465705,5.44695728 5.20663522e-05,5.57844363 -3.47998187e-05,5.71786911 C-0.000121488155,5.8573838 0.0633126843,5.98887015 0.171263588,6.07334612 L6.93988937,11.3635754 C7.0168608,11.4236988 7.10936535,11.4545633 7.20256412,11.4545633 C7.2682545,11.4545633 7.33420521,11.4392202 7.3952964,11.4080881 C7.54299129,11.3328001 7.63636361,11.1779424 7.63636361,11.0085444 L7.63636361,0.446104995 C7.63636361,0.276707045 7.54307806,0.122027716 7.39555673,0.046650534" id="Fill-3" fill="#212529" mask="url(#mask-2)"></path>
            </g>
            <mask id="mask-4" fill="white">
                <use xlink:href="#path-3" transform="translate(5.7273, 14) rotate(90) translate(-5.7273, -14)"></use>
            </mask>
            <g id="Clip-7" transform="translate(5.7273, 14) rotate(90) translate(-5.7273, -14)"></g>
            <polygon id="Fill-6" fill="#212529" mask="url(#mask-4)" transform="translate(5.7273, 14) rotate(90) translate(-5.7273, -14)" points="-1.2727273 15.2727273 12.7272727 15.2727273 12.7272727 12.7272727 -1.2727273 12.7272727"></polygon>
        </g>
    </g>
</svg>