<?xml version="1.0" encoding="UTF-8"?>
<svg width="64px" height="70px" viewBox="0 0 64 70" version="1.1" xmlns="http://www.w3.org/2000/svg" xmlns:xlink="http://www.w3.org/1999/xlink">
    <title>Icono</title>
    <defs>
        <polygon id="path-1" points="0 0 56 0 56 56.5850036 0 56.5850036"></polygon>
        <polygon id="path-3" points="0 0 26.6666667 0 26.6666667 27.1590909 0 27.1590909"></polygon>
    </defs>
    <g id="Page-1" stroke="none" stroke-width="1" fill="none" fill-rule="evenodd">
        <g id="Tein-Soluciones--I" transform="translate(-403, -359)">
            <g id="Soluciones-Copy-2" transform="translate(332, 169.9048)">
                <g id="Icono" transform="translate(71, 190.0384)">
                    <g id="Group">
                        <g id="Group-3">
                            <mask id="mask-2" fill="white">
                                <use xlink:href="#path-1"></use>
                            </mask>
                            <g id="Clip-2"></g>
                            <path d="M56,28.2924812 C56,43.9179111 43.4640789,56.5850036 28,56.5850036 C12.5359211,56.5850036 0,43.9179111 0,28.2924812 C0,12.6668455 12.5359211,-4.11623394e-05 28,-4.11623394e-05 C43.4640789,-4.11623394e-05 56,12.6668455 56,28.2924812" id="Fill-1" fill="#F7D719" mask="url(#mask-2)"></path>
                            <rect id="Rectangle" fill="#F58228" mask="url(#mask-2)" x="0" y="0" width="55.7910448" height="56.3738655" rx="10"></rect>
                        </g>
                        <path d="M56.7624248,60.0794064 L56.7624248,66.5633794 L62.0563628,63.3213929 L56.7624248,60.0794064 Z M56.1145457,68.4409091 C56.002643,68.4409091 55.8907402,68.4102305 55.7906062,68.3488733 C55.5901387,68.226159 55.4666667,67.9991374 55.4666667,67.7534971 L55.4666667,58.8890771 C55.4666667,58.6436484 55.5901387,58.4166268 55.7906062,58.2939124 C55.9908742,58.1709865 56.2382172,58.1709865 56.4384853,58.2939124 L63.6760605,62.7264398 C63.876528,62.8491542 64,63.0759641 64,63.3213929 C64,63.5668216 63.876528,63.7940547 63.6760605,63.9167691 L56.4384853,68.3488733 C56.3383513,68.4102305 56.226249,68.4409091 56.1145457,68.4409091 L56.1145457,68.4409091 Z" id="Fill-25" fill="#000000"></path>
                        <path d="M55.4741745,64.1296707 L8.65687562,64.1296707 C8.29416868,64.1296707 8,63.8324301 8,63.4661398 L8,8.7471029 C8,8.38060828 8.29416868,8.08357194 8.65687562,8.08357194 L62.8099932,8.08357194 C63.1727002,8.08357194 63.4666667,8.38060828 63.4666667,8.7471029 L63.4666667,50.8741689 C63.4666667,51.2406635 63.1727002,51.5376998 62.8099932,51.5376998 C62.4474885,51.5376998 62.1533198,51.2406635 62.1533198,50.8741689 L62.1533198,9.41063386 L9.31354907,9.41063386 L9.31354907,62.8024045 L55.4741745,62.8024045 C55.8368814,62.8024045 56.1308479,63.0996451 56.1308479,63.4661398 C56.1308479,63.8324301 55.8368814,64.1296707 55.4741745,64.1296707" id="Fill-27" fill="#020617"></path>
                    </g>
                    <g id="icono" transform="translate(32.5333, 16.8386)">
                        <mask id="mask-4" fill="white">
                            <use xlink:href="#path-3"></use>
                        </mask>
                        <g id="Clip-2"></g>
                        <path d="M7.74907816,8.39356259 C7.74907816,8.73652537 8.02221514,9.01470353 8.35896269,9.01470353 C8.69571023,9.01470353 8.96884721,8.73652537 8.96884721,8.39356259 C8.96884721,8.05059982 8.69571023,7.77242165 8.35896269,7.77242165 C8.02221514,7.77242165 7.74907816,8.05059982 7.74907816,8.39356259 L7.74907816,8.39356259 Z M9.53818607,8.39356259 C9.53818607,8.73652537 9.81108026,9.01470353 10.1478278,9.01470353 C10.4848181,9.01470353 10.7579551,8.73652537 10.7579551,8.39356259 C10.7579551,8.05059982 10.4848181,7.77242165 10.1478278,7.77242165 C9.81108026,7.77242165 9.53818607,8.05059982 9.53818607,8.39356259 L9.53818607,8.39356259 Z M11.3270512,8.39356259 C11.3270512,8.73652537 11.6001882,9.01470353 11.9369357,9.01470353 C12.273926,9.01470353 12.5468202,8.73652537 12.5468202,8.39356259 C12.5468202,8.05059982 12.273926,7.77242165 11.9369357,7.77242165 C11.6001882,7.77242165 11.3270512,8.05059982 11.3270512,8.39356259 L11.3270512,8.39356259 Z M7.74907816,14.0008927 C7.74907816,14.3438554 8.02221514,14.6220336 8.35896269,14.6220336 C8.69571023,14.6220336 8.96884721,14.3438554 8.96884721,14.0008927 C8.96884721,13.6579299 8.69571023,13.3797517 8.35896269,13.3797517 C8.02221514,13.3797517 7.74907816,13.6579299 7.74907816,14.0008927 L7.74907816,14.0008927 Z M9.53818607,14.0008927 C9.53818607,14.3438554 9.81108026,14.6220336 10.1478278,14.6220336 C10.4848181,14.6220336 10.7579551,14.3438554 10.7579551,14.0008927 C10.7579551,13.6579299 10.4848181,13.3797517 10.1478278,13.3797517 C9.81108026,13.3797517 9.53818607,13.6579299 9.53818607,14.0008927 L9.53818607,14.0008927 Z M11.3270512,14.0008927 C11.3270512,14.3438554 11.6001882,14.6220336 11.9369357,14.6220336 C12.273926,14.6220336 12.5468202,14.3438554 12.5468202,14.0008927 C12.5468202,13.6579299 12.273926,13.3797517 11.9369357,13.3797517 C11.6001882,13.3797517 11.3270512,13.6579299 11.3270512,14.0008927 L11.3270512,14.0008927 Z M13.0751278,19.1178873 C12.807575,19.2034426 12.5963491,19.418567 12.5123443,19.691058 L8.78262849,19.691058 C8.67288812,19.3354845 8.34682327,19.0775824 7.96151803,19.0775824 C7.48662388,19.0775824 7.10131864,19.4699991 7.10131864,19.9539055 C7.10131864,20.4378118 7.48662388,20.8299812 7.96151803,20.8299812 C8.34682327,20.8299812 8.67288812,20.5723264 8.78262849,20.2167529 L12.5123443,20.2167529 C12.6218419,20.5723264 12.9479067,20.8302285 13.3332119,20.8302285 C13.7185172,20.8302285 14.044582,20.5723264 14.1540796,20.2167529 L17.8840382,20.2167529 C17.9937785,20.5720792 18.3198434,20.8299812 18.7051486,20.8299812 C19.1800428,20.8299812 19.565348,20.4378118 19.565348,19.9539055 C19.565348,19.4697518 19.1800428,19.0775824 18.7051486,19.0775824 C18.3198434,19.0775824 17.9937785,19.3354845 17.8840382,19.691058 L14.1540796,19.691058 C14.0700748,19.418567 13.8588489,19.2034426 13.591296,19.1178873 L13.591296,16.591535 L13.0751278,16.591535 L13.0751278,19.1178873 Z M6.90028983,11.9361925 C6.37562404,11.9361925 6.11656879,12.1940945 6.11656879,12.7346256 L6.11656879,15.2674069 C6.11656879,15.8032399 6.37902308,16.0655928 6.90028983,16.0655928 L19.7663768,16.0655928 C20.2876436,16.0655928 20.5503407,15.7997781 20.5503407,15.2674069 L20.5503407,12.7346256 C20.5503407,12.2020072 20.2888575,11.9361925 19.7663768,11.9361925 L6.90028983,11.9361925 Z M6.90028983,6.32886241 C6.37562404,6.32886241 6.11656879,6.58676448 6.11656879,7.12729557 L6.11656879,9.66007688 C6.11656879,10.1959099 6.37902308,10.4582628 6.90028983,10.4582628 L19.7663768,10.4582628 C20.2876436,10.4582628 20.5503407,10.1924481 20.5503407,9.66007688 L20.5503407,7.12729557 C20.5503407,6.59467711 20.2888575,6.32886241 19.7663768,6.32886241 L6.90028983,6.32886241 Z M13.3332119,0 C20.6972277,0 26.6666667,6.07961477 26.6666667,13.5795455 C26.6666667,21.0792289 20.6972277,27.1590909 13.3332119,27.1590909 C5.96943901,27.1590909 0,21.0792289 0,13.5795455 C0,6.07961477 5.96943901,0 13.3332119,0 L13.3332119,0 Z" id="Fill-1" fill="#020617" mask="url(#mask-4)"></path>
                    </g>
                </g>
            </g>
        </g>
    </g>
</svg>