<?xml version="1.0" encoding="utf-8"?>
<!-- Generator: Adobe Illustrator 26.1.0, SVG Export Plug-In . SVG Version: 6.00 Build 0)  -->
<svg version="1.1" id="Layer_1" xmlns="http://www.w3.org/2000/svg" xmlns:xlink="http://www.w3.org/1999/xlink" x="0px" y="0px"
	 viewBox="0 0 12 28" style="enable-background:new 0 0 12 28;" xml:space="preserve">
<style type="text/css">
	.st0{fill-rule:evenodd;clip-rule:evenodd;fill:#2EB9AE;}
	.st1{filter:url(#Adobe_OpacityMaskFilter);}
	.st2{fill-rule:evenodd;clip-rule:evenodd;fill:#FFFFFF;}
	.st3{mask:url(#mask-2_00000134216578746205356930000015900785641500597690_);fill-rule:evenodd;clip-rule:evenodd;fill:#2EB9AE;}
	.st4{filter:url(#Adobe_OpacityMaskFilter_00000074441872073692355200000013750940753723318177_);}
	.st5{mask:url(#mask-4_00000160172417930934577140000014106969101934366870_);fill-rule:evenodd;clip-rule:evenodd;fill:#2EB9AE;}
</style>
<g id="Page-1">
	<g id="mouse" transform="translate(0, -0)">
		<path id="Fill-1" class="st0" d="M11.4,21.1c0.1-0.1,0.1-0.3,0-0.5c-0.1-0.1-0.2-0.2-0.4-0.2H0.4c-0.2,0-0.3,0.1-0.4,0.2
			c0,0.1,0,0.1,0,0.2c0,0.1,0,0.2,0.1,0.3l5.3,6.8C5.5,27.9,5.6,28,5.7,28c0.1,0,0.3-0.1,0.4-0.2L11.4,21.1z"/>
		<g id="Group-5" transform="translate(5.7273, 3.8182) rotate(90) translate(-5.7273, -3.8182)translate(1.9091, -1.9091)">
			<g id="Clip-4">
			</g>
			<defs>
				<filter id="Adobe_OpacityMaskFilter" filterUnits="userSpaceOnUse">
					<feColorMatrix  type="matrix" values="1 0 0 0 0  0 1 0 0 0  0 0 1 0 0  0 0 0 1 0"/>
				</filter>
			</defs>
			<mask maskUnits="userSpaceOnUse" id="mask-2_00000134216578746205356930000015900785641500597690_">
				<g class="st1">
					<polygon id="path-1_00000100360304258549299300000012371351835961353858_" class="st2" points="0,0 7.6,0 7.6,11.5 0,11.5 
											"/>
				</g>
			</mask>
			<path id="Fill-3" class="st3" d="M7.4,0C7.2,0,7.1,0,6.9,0.1L0.2,5.4C0.1,5.4,0,5.6,0,5.7C0,5.9,0.1,6,0.2,6.1l6.8,5.3
				c0.1,0.1,0.2,0.1,0.3,0.1c0.1,0,0.1,0,0.2,0c0.1-0.1,0.2-0.2,0.2-0.4V0.4C7.6,0.3,7.5,0.1,7.4,0"/>
		</g>
		<g id="Clip-7" transform="translate(5.7273, 14) rotate(90) translate(-5.7273, -14)">
		</g>
		<defs>
			
				<filter id="Adobe_OpacityMaskFilter_00000001664377333274075300000000163842999664644792_" filterUnits="userSpaceOnUse" x="4.5" y="7" width="2.5" height="14">
				<feColorMatrix  type="matrix" values="1 0 0 0 0  0 1 0 0 0  0 0 1 0 0  0 0 0 1 0"/>
			</filter>
		</defs>
		
			<mask maskUnits="userSpaceOnUse" x="4.5" y="7" width="2.5" height="14" id="mask-4_00000160172417930934577140000014106969101934366870_">
			
				<g transform="translate(5.7273, 14) rotate(90) translate(-5.7273, -14)" style="filter:url(#Adobe_OpacityMaskFilter_00000001664377333274075300000000163842999664644792_);">
				<polygon id="path-3_00000089550577678007743500000011342270575208610446_" class="st2" points="0,0 0,28 11.5,28 11.5,0 				"/>
			</g>
		</mask>
		<polygon id="Fill-6" class="st5" points="4.5,7 4.5,21 7,21 7,7 		"/>
	</g>
</g>
</svg>
