<?xml version="1.0" encoding="UTF-8"?>
<svg width="30px" height="22px" viewBox="0 0 30 22" version="1.1" xmlns="http://www.w3.org/2000/svg" xmlns:xlink="http://www.w3.org/1999/xlink">
    <title>ciber - ico</title>
    <g id="Page-1" stroke="none" stroke-width="1" fill="none" fill-rule="evenodd" stroke-linecap="round" stroke-linejoin="round">
        <g id="Tein---Entornos-OPTION-&quot;From-Left&quot;---Intro" transform="translate(-64, -540)" stroke="#FFFFFF" stroke-width="1.5">
            <g id="ciber---ico" transform="translate(65, 541)">
                <path d="M15.8834134,8.35255397 L15.8834134,7.32208554 C15.8834134,6.28192261 15.0399919,5.43793075 13.9998289,5.43793075 C12.9579552,5.43793075 12.1162444,6.28192261 12.1162444,7.32208554 L12.1162444,8.35255397" id="Stroke-1"></path>
                <path d="M16.6090754,8.51405295 C16.9289939,8.51405295 17.1896049,8.77352342 17.1896049,9.09344196 L17.1896049,9.23885947 L17.1896049,12.031446 L17.1896049,12.9672505 C17.1896049,13.2865988 16.9289939,13.5472098 16.6090754,13.5472098 L11.3911527,13.5472098 C11.0700937,13.5472098 10.810053,13.2865988 10.810053,12.9672505 L10.810053,12.031446 L10.810053,9.23885947 L10.810053,9.09344196 C10.810053,8.77352342 11.0700937,8.51405295 11.3911527,8.51405295 L16.6090754,8.51405295 Z" id="Stroke-3"></path>
                <path d="M2.57132383,9.67573931 C2.57132383,10.3840081 1.99535642,10.9611161 1.28537678,10.9611161 C0.575397149,10.9611161 0,10.3840081 0,9.67573931 C0,8.96518941 0.575397149,8.389222 1.28537678,8.389222 C1.99535642,8.389222 2.57132383,8.96518941 2.57132383,9.67573931 Z" id="Stroke-5"></path>
                <path d="M3.14158859,4.25263544 C3.14158859,4.96204481 2.56562118,5.53801222 1.85564155,5.53801222 C1.14566191,5.53801222 0.570264766,4.96204481 0.570264766,4.25263544 C0.570264766,3.54208554 1.14566191,2.96725866 1.85564155,2.96725866 C2.56562118,2.96725866 3.14158859,3.54208554 3.14158859,4.25263544 Z" id="Stroke-7"></path>
                <line x1="5.90794297" y1="9.67459878" x2="2.57132383" y2="9.67459878" id="Stroke-9"></line>
                <polyline id="Stroke-11" points="2.76675356 5.16374745 4.42907536 6.82549898 5.90777189 6.82321792"></polyline>
                <path d="M3.14158859,15.0977026 C3.14158859,14.3882933 2.56562118,13.8123259 1.85564155,13.8123259 C1.14566191,13.8123259 0.570264766,14.3882933 0.570264766,15.0977026 C0.570264766,15.8082525 1.14566191,16.3830794 1.85564155,16.3830794 C2.56562118,16.3830794 3.14158859,15.8082525 3.14158859,15.0977026 Z" id="Stroke-13"></path>
                <polyline id="Stroke-15" points="2.76675356 14.1866477 4.42907536 12.5248961 6.19860692 12.5260367"></polyline>
                <path d="M25.4286762,9.67573931 C25.4286762,10.3840081 26.0046436,10.9611161 26.7146232,10.9611161 C27.4246029,10.9611161 28,10.3840081 28,9.67573931 C28,8.96518941 27.4246029,8.389222 26.7146232,8.389222 C26.0046436,8.389222 25.4286762,8.96518941 25.4286762,9.67573931 Z" id="Stroke-17"></path>
                <path d="M24.8584114,4.25263544 C24.8584114,4.96204481 25.4343788,5.53801222 26.1443585,5.53801222 C26.8543381,5.53801222 27.4297352,4.96204481 27.4297352,4.25263544 C27.4297352,3.54208554 26.8543381,2.96725866 26.1443585,2.96725866 C25.4343788,2.96725866 24.8584114,3.54208554 24.8584114,4.25263544 Z" id="Stroke-19"></path>
                <line x1="22.0909165" y1="9.67459878" x2="25.4286762" y2="9.67459878" id="Stroke-21"></line>
                <polyline id="Stroke-23" points="25.2331894 5.16374745 23.5708676 6.82549898 22.0910305 6.82321792"></polyline>
                <path d="M24.8584114,15.0977026 C24.8584114,14.3882933 25.4343788,13.8123259 26.1443585,13.8123259 C26.8543381,13.8123259 27.4297352,14.3882933 27.4297352,15.0977026 C27.4297352,15.8082525 26.8543381,16.3830794 26.1443585,16.3830794 C25.4343788,16.3830794 24.8584114,15.8082525 24.8584114,15.0977026 Z" id="Stroke-25"></path>
                <polyline id="Stroke-27" points="25.2331894 14.1866477 23.5708676 12.5248961 21.80989 12.5260367"></polyline>
                <path d="M14,19.3490835 C14,19.3490835 22.0909165,17.5892464 22.0909165,9.22175153 L22.0909165,2.54794297 C17.3189409,2.54794297 14,0 14,0 C14,0 10.6810591,2.54794297 5.90794297,2.54794297 L5.90794297,9.22175153 C5.90794297,17.5892464 14,19.3490835 14,19.3490835" id="Stroke-29"></path>
            </g>
        </g>
    </g>
</svg>