<?xml version="1.0" encoding="UTF-8"?>
<svg width="30px" height="12px" viewBox="0 0 30 12" version="1.1" xmlns="http://www.w3.org/2000/svg" xmlns:xlink="http://www.w3.org/1999/xlink">
    <title>Arrow button</title>
    <defs>
        <polygon id="path-1" points="0 0 5.81443299 0 5.81443299 12 0 12"></polygon>
        <polygon id="path-3" points="0 12 29 12 29 0 0 0"></polygon>
    </defs>
    <g id="Page-1" stroke="none" stroke-width="1" fill="none" fill-rule="evenodd">
        <g id="Tein---Entornos-OPTION-&quot;From-Left&quot;---Entorno-de-la-ciberseguridad" transform="translate(-916, -445)">
            <g id="Panel-Detail-Copy-3" transform="translate(796, 253)">
                <g id="Arrow-button" transform="translate(120.2577, 192)">
                    <g id="Group-3" transform="translate(23.1856, 0)">
                        <mask id="mask-2" fill="white">
                            <use xlink:href="#path-1"></use>
                        </mask>
                        <g id="Clip-2"></g>
                        <path d="M0.183331214,0.0490783784 C0.230072197,0.0161594595 0.280526626,-5.67567568e-05 0.330658146,-5.67567568e-05 C0.401294347,-5.67567568e-05 0.471446185,0.0320513514 0.529892596,0.094727027 L5.6835098,5.61813243 C5.76601288,5.70626757 5.81444914,5.84386216 5.81444914,5.99029459 C5.81444914,6.13615946 5.76601288,6.2744027 5.68399416,6.36245676 L0.530296231,11.9049162 C0.47160764,11.967673 0.40121362,12.0000243 0.330335238,12.0000243 C0.280203717,12.0000243 0.229910742,11.9841324 0.183734849,11.9511324 C0.0712820174,11.8725649 0,11.7102405 0,11.532673 L0,0.467537838 C0,0.290051351 0.0712820174,0.127727027 0.183331214,0.0490783784" id="Fill-1" fill="#2EB9AE" mask="url(#mask-2)"></path>
                    </g>
                    <mask id="mask-4" fill="white">
                        <use xlink:href="#path-3"></use>
                    </mask>
                    <g id="Clip-5"></g>
                    <polygon id="Fill-4" fill="#2EB9AE" mask="url(#mask-4)" points="11.6082474 6.80412371 23.9278354 6.80412371 23.9278354 5.07216495 11.6082474 5.07216495"></polygon>
                    <path d="M9.87628866,5.93814433 C9.87628866,6.4164163 9.43314839,6.80412371 8.88655753,6.80412371 C8.33996667,6.80412371 7.89690722,6.4164163 7.89690722,5.93814433 C7.89690722,5.45987236 8.33996667,5.07216495 8.88655753,5.07216495 C9.43314839,5.07216495 9.87628866,5.45987236 9.87628866,5.93814433" id="Fill-6" fill="#2EB9AE" mask="url(#mask-4)"></path>
                    <path d="M6.90721649,5.93814433 C6.90721649,6.4164163 6.46407622,6.80412371 5.91748536,6.80412371 C5.3708945,6.80412371 4.92783505,6.4164163 4.92783505,5.93814433 C4.92783505,5.45987236 5.3708945,5.07216495 5.91748536,5.07216495 C6.46407622,5.07216495 6.90721649,5.45987236 6.90721649,5.93814433" id="Fill-7" fill="#2EB9AE" mask="url(#mask-4)"></path>
                    <path d="M3.81443299,5.93814433 C3.81443299,6.4164163 3.37137354,6.80412371 2.82478268,6.80412371 C2.278111,6.80412371 1.83505155,6.4164163 1.83505155,5.93814433 C1.83505155,5.45987236 2.278111,5.07216495 2.82478268,5.07216495 C3.37137354,5.07216495 3.81443299,5.45987236 3.81443299,5.93814433" id="Fill-8" fill="#2EB9AE" mask="url(#mask-4)"></path>
                </g>
            </g>
        </g>
    </g>
</svg>