<?xml version="1.0" encoding="UTF-8"?>
<svg width="64px" height="70px" viewBox="0 0 64 70" version="1.1" xmlns="http://www.w3.org/2000/svg" xmlns:xlink="http://www.w3.org/1999/xlink">
    <title>Icono</title>
    <defs>
        <polygon id="path-1" points="0 0 56 0 56 56.5850036 0 56.5850036"></polygon>
        <polygon id="path-3" points="0 0 26.6666667 0 26.6666667 27.1590909 0 27.1590909"></polygon>
    </defs>
    <g id="Page-1" stroke="none" stroke-width="1" fill="none" fill-rule="evenodd">
        <g id="Tein-Soluciones--I" transform="translate(-403, -263)">
            <g id="Soluciones-Copy-2" transform="translate(332, 169.9048)">
                <g id="Icono" transform="translate(71, 94.0838)">
                    <g id="Group">
                        <g id="Group-3">
                            <mask id="mask-2" fill="white">
                                <use xlink:href="#path-1"></use>
                            </mask>
                            <g id="Clip-2"></g>
                            <path d="M56,28.2924812 C56,43.9179111 43.4640789,56.5850036 28,56.5850036 C12.5359211,56.5850036 0,43.9179111 0,28.2924812 C0,12.6668455 12.5359211,-4.11623394e-05 28,-4.11623394e-05 C43.4640789,-4.11623394e-05 56,12.6668455 56,28.2924812" id="Fill-1" fill="#F7D719" mask="url(#mask-2)"></path>
                            <rect id="Rectangle" fill="#F04138" mask="url(#mask-2)" x="0" y="0" width="55.7910448" height="56.3738655" rx="10"></rect>
                        </g>
                        <path d="M56.7624248,60.0794064 L56.7624248,66.5633794 L62.0563628,63.3213929 L56.7624248,60.0794064 Z M56.1145457,68.4409091 C56.002643,68.4409091 55.8907402,68.4102305 55.7906062,68.3488733 C55.5901387,68.226159 55.4666667,67.9991374 55.4666667,67.7534971 L55.4666667,58.8890771 C55.4666667,58.6436484 55.5901387,58.4166268 55.7906062,58.2939124 C55.9908742,58.1709865 56.2382172,58.1709865 56.4384853,58.2939124 L63.6760605,62.7264398 C63.876528,62.8491542 64,63.0759641 64,63.3213929 C64,63.5668216 63.876528,63.7940547 63.6760605,63.9167691 L56.4384853,68.3488733 C56.3383513,68.4102305 56.226249,68.4409091 56.1145457,68.4409091 L56.1145457,68.4409091 Z" id="Fill-25" fill="#000000"></path>
                        <path d="M55.4741745,64.1296707 L8.65687562,64.1296707 C8.29416868,64.1296707 8,63.8324301 8,63.4661398 L8,8.7471029 C8,8.38060828 8.29416868,8.08357194 8.65687562,8.08357194 L62.8099932,8.08357194 C63.1727002,8.08357194 63.4666667,8.38060828 63.4666667,8.7471029 L63.4666667,50.8741689 C63.4666667,51.2406635 63.1727002,51.5376998 62.8099932,51.5376998 C62.4474885,51.5376998 62.1533198,51.2406635 62.1533198,50.8741689 L62.1533198,9.41063386 L9.31354907,9.41063386 L9.31354907,62.8024045 L55.4741745,62.8024045 C55.8368814,62.8024045 56.1308479,63.0996451 56.1308479,63.4661398 C56.1308479,63.8324301 55.8368814,64.1296707 55.4741745,64.1296707" id="Fill-27" fill="#020617"></path>
                    </g>
                    <g id="Group-3" transform="translate(33.6, 14.6659)">
                        <mask id="mask-4" fill="white">
                            <use xlink:href="#path-3"></use>
                        </mask>
                        <g id="Clip-2"></g>
                        <path d="M5.85430399,17.677209 C6.6766209,17.19404 7.49845224,16.709882 8.32052636,16.2257239 C7.9165301,15.4337126 7.68782549,14.5338907 7.68782549,13.5796691 C7.68782549,12.6254475 7.91628731,11.7258729 8.32004079,10.9338615 L5.85357563,9.48336554 C5.20824988,10.7026625 4.84212826,12.0975223 4.84212826,13.5796691 C4.84212826,15.0623104 5.20873545,16.4576648 5.85430399,17.677209 M20.5557376,18.1282326 L18.0897581,16.6779839 C17.0860799,18.2726393 15.3309783,19.3292315 13.3333333,19.3292315 C11.3359311,19.3292315 9.5808296,18.2728866 8.57715139,16.6784785 L6.11117181,18.1287272 C7.60794882,20.5888337 10.2827245,22.2275034 13.3333333,22.2275034 C16.3841849,22.2275034 19.0589606,20.5885864 20.5557376,18.1282326 M13.0752516,7.83579398 L13.0752516,4.93554381 C10.1331682,5.02505618 7.56716074,6.63924606 6.11238574,9.02838555 C6.93494543,9.51105998 7.75726234,9.99422895 8.57909368,10.4776452 C9.53955594,8.95395676 11.1866176,7.92233909 13.0752516,7.83579398 M13.5914151,4.93579108 L13.5914151,7.83604125 C16.589582,7.97352434 18.9785984,10.4922342 18.9785984,13.5796691 C18.9785984,14.5348798 18.749651,15.4356907 18.3449264,16.2286912 C19.1670005,16.7121074 19.9893174,17.1952764 20.8118771,17.6779508 C21.4576884,16.4581593 21.8245384,15.0625577 21.8245384,13.5796691 C21.8245384,8.89139701 18.16138,5.0747578 13.5914151,4.93579108 M13.3333333,0 C20.6970392,0 26.6666667,6.07967013 26.6666667,13.5796691 C26.6666667,21.0794208 20.6970392,27.1590909 13.3333333,27.1590909 C5.96962744,27.1590909 0,21.0794208 0,13.5796691 C0,6.07967013 5.96962744,0 13.3333333,0" id="Fill-1" fill="#000000" mask="url(#mask-4)"></path>
                    </g>
                </g>
            </g>
        </g>
    </g>
</svg>