<?xml version="1.0" encoding="UTF-8"?>
<svg width="28px" height="28px" viewBox="0 0 28 28" version="1.1" xmlns="http://www.w3.org/2000/svg" xmlns:xlink="http://www.w3.org/1999/xlink">
    <title>icono copy 3</title>
    <defs>
        <polygon id="path-1" points="0 0 27.2 0 27.2 27.1590909 0 27.1590909"></polygon>
    </defs>
    <g id="Page-1" stroke="none" stroke-width="1" fill="none" fill-rule="evenodd">
        <g id="Tein-Soluciones--I" transform="translate(-665, -287)">
            <g id="Soluciones-Copy-2" transform="translate(332, 169.9048)">
                <g id="icono-copy-3" transform="translate(333.6, 117.8386)">
                    <mask id="mask-2" fill="white">
                        <use xlink:href="#path-1"></use>
                    </mask>
                    <g id="Clip-2"></g>
                    <path d="M10.6666667,14.1081709 C10.6591128,14.0235405 10.655214,13.9377011 10.655214,13.8511364 C10.655214,13.7645716 10.6591128,13.6787322 10.6666667,13.5941019 L7.51232209,13.5941019 C7.3912167,12.9671118 6.83588636,12.4931818 6.16846652,12.4931818 C5.41283713,12.4931818 4.8,13.1010696 4.8,13.8511364 C4.8,14.6012031 5.41283713,15.2090909 6.16846652,15.2090909 C6.83588636,15.2090909 7.3912167,14.7351609 7.51232209,14.1081709 L10.6666667,14.1081709 Z M12.2666667,16.0135847 C12.1134064,15.9399757 11.9674893,15.852381 11.8310474,15.7522727 C11.3193903,16.6691956 10.8082069,17.5863638 10.2979709,18.5037773 C9.70719642,18.2917834 9.03588326,18.5359199 8.71183372,19.1171857 C8.34443545,19.7762316 8.5623635,20.6188094 9.19861867,20.9993679 C9.83463696,21.3796811 10.6480771,21.1539468 11.0152385,20.4949009 C11.3397618,19.912899 11.2075837,19.187605 10.7338271,18.7641078 L12.2666667,16.0135847 Z M15.3693893,15.7522727 C15.2324853,15.8526263 15.0865806,15.9402211 14.9333333,16.0140754 L16.4660429,18.7645986 C15.9928002,19.1880957 15.8606333,19.912899 16.1848922,20.4949009 C16.5520224,21.1539468 17.3653935,21.3796811 18.0015947,20.9993679 C18.637559,20.6188094 18.8554686,19.7762316 18.4883384,19.1171857 C18.1640795,18.5356745 17.4928233,18.2917834 16.9023357,18.5040227 C16.3919063,17.5863638 15.8807662,16.6691956 15.3693893,15.7522727 L15.3693893,15.7522727 Z M16.5333333,13.5941019 C16.5411305,13.6787322 16.5450291,13.7645716 16.5450291,13.8511364 C16.5450291,13.9377011 16.5411305,14.0235405 16.5333333,14.1081709 L19.6875469,14.1081709 C19.8086473,14.7351609 20.3641982,15.2090909 21.0315903,15.2090909 C21.7871883,15.2090909 22.4,14.6012031 22.4,13.8511364 C22.4,13.1010696 21.7871883,12.4931818 21.0315903,12.4931818 C20.3641982,12.4931818 19.8086473,12.9671118 19.6875469,13.5941019 L16.5333333,13.5941019 Z M14.9333333,11.147878 C15.0852462,11.2207739 15.2298123,11.30766 15.3653726,11.4068182 L16.8991948,8.65517962 C17.4904937,8.86871325 18.1635553,8.62474494 18.4882365,8.04255899 C18.8555765,7.38330458 18.6375424,6.54046033 18.0012147,6.15978141 C17.3646501,5.77934793 16.5508143,6.00515361 16.1834743,6.66440802 C15.8585561,7.24733029 15.9915095,7.97359008 16.4664446,8.39673029 C15.9561975,9.31418859 15.4450024,10.231156 14.9333333,11.147878 L14.9333333,11.147878 Z M13.5998754,11.4068182 C12.2744222,11.4068182 11.2,12.5012776 11.2,13.8511364 C11.2,15.2009951 12.2744222,16.2954545 13.5998754,16.2954545 C14.9253285,16.2954545 16,15.2009951 16,13.8511364 C16,12.5012776 14.9253285,11.4068182 13.5998754,11.4068182 L13.5998754,11.4068182 Z M10.7335226,8.3968663 C11.2087048,7.97349978 11.3416611,7.2472728 11.0167359,6.66437687 C10.6491511,6.00515225 9.83529783,5.77935677 9.19895654,6.15977306 C8.56237824,6.54043478 8.34433951,7.38324095 8.71192437,8.04246557 C9.03661248,8.62462521 9.70921456,8.8685825 10.3005261,8.65530395 L11.8343812,11.4068182 C11.9699444,11.3076645 12.1145136,11.2207823 12.2666667,11.1476442 C11.7549866,10.2309637 11.2437806,9.31403771 10.7335226,8.3968663 L10.7335226,8.3968663 Z M13.5998762,0 C21.1111722,0 27.2,6.07986204 27.2,13.5795455 C27.2,21.0792289 21.1111722,27.1590909 13.5998762,27.1590909 C6.08882779,27.1590909 0,21.0792289 0,13.5795455 C0,6.07986204 6.08882779,0 13.5998762,0 L13.5998762,0 Z" id="Fill-1" fill="#F2B700" style="mix-blend-mode: overlay;" mask="url(#mask-2)"></path>
                </g>
            </g>
        </g>
    </g>
</svg>