<?xml version="1.0" encoding="UTF-8"?>
<svg width="64px" height="70px" viewBox="0 0 64 70" version="1.1" xmlns="http://www.w3.org/2000/svg" xmlns:xlink="http://www.w3.org/1999/xlink">
    <title>Icono</title>
    <defs>
        <polygon id="path-1" points="0 0 56 0 56 56.5850036 0 56.5850036"></polygon>
        <polygon id="path-3" points="0 0 26.6666667 0 26.6666667 27.1590909 0 27.1590909"></polygon>
    </defs>
    <g id="Page-1" stroke="none" stroke-width="1" fill="none" fill-rule="evenodd">
        <g id="Tein-Soluciones--I" transform="translate(-332, -454)">
            <g id="Soluciones-Copy-2" transform="translate(332, 169.9048)">
                <g id="Icono" transform="translate(0, 284.8636)">
                    <g id="Group">
                        <g id="Group-3">
                            <mask id="mask-2" fill="white">
                                <use xlink:href="#path-1"></use>
                            </mask>
                            <g id="Clip-2"></g>
                            <path d="M56,28.2924812 C56,43.9179111 43.4640789,56.5850036 28,56.5850036 C12.5359211,56.5850036 0,43.9179111 0,28.2924812 C0,12.6668455 12.5359211,-4.11623394e-05 28,-4.11623394e-05 C43.4640789,-4.11623394e-05 56,12.6668455 56,28.2924812" id="Fill-1" fill="#F7D719" mask="url(#mask-2)"></path>
                            <rect id="Rectangle" fill="#E0E31C" mask="url(#mask-2)" x="0" y="0" width="55.7910448" height="56.3738655" rx="10"></rect>
                        </g>
                        <path d="M56.7624248,60.0794064 L56.7624248,66.5633794 L62.0563628,63.3213929 L56.7624248,60.0794064 Z M56.1145457,68.4409091 C56.002643,68.4409091 55.8907402,68.4102305 55.7906062,68.3488733 C55.5901387,68.226159 55.4666667,67.9991374 55.4666667,67.7534971 L55.4666667,58.8890771 C55.4666667,58.6436484 55.5901387,58.4166268 55.7906062,58.2939124 C55.9908742,58.1709865 56.2382172,58.1709865 56.4384853,58.2939124 L63.6760605,62.7264398 C63.876528,62.8491542 64,63.0759641 64,63.3213929 C64,63.5668216 63.876528,63.7940547 63.6760605,63.9167691 L56.4384853,68.3488733 C56.3383513,68.4102305 56.226249,68.4409091 56.1145457,68.4409091 L56.1145457,68.4409091 Z" id="Fill-25" fill="#000000"></path>
                        <path d="M55.4741745,64.1296707 L8.65687562,64.1296707 C8.29416868,64.1296707 8,63.8324301 8,63.4661398 L8,8.7471029 C8,8.38060828 8.29416868,8.08357194 8.65687562,8.08357194 L62.8099932,8.08357194 C63.1727002,8.08357194 63.4666667,8.38060828 63.4666667,8.7471029 L63.4666667,50.8741689 C63.4666667,51.2406635 63.1727002,51.5376998 62.8099932,51.5376998 C62.4474885,51.5376998 62.1533198,51.2406635 62.1533198,50.8741689 L62.1533198,9.41063386 L9.31354907,9.41063386 L9.31354907,62.8024045 L55.4741745,62.8024045 C55.8368814,62.8024045 56.1308479,63.0996451 56.1308479,63.4661398 C56.1308479,63.8324301 55.8368814,64.1296707 55.4741745,64.1296707" id="Fill-27" fill="#020617"></path>
                    </g>
                    <g id="icono" transform="translate(34.1333, 17.3818)">
                        <mask id="mask-4" fill="white">
                            <use xlink:href="#path-3"></use>
                        </mask>
                        <g id="Clip-2"></g>
                        <path d="M16.4511939,15.1914952 C16.2860993,15.3042501 16.0872574,15.4026634 15.861709,15.4864877 C15.1933185,15.7352408 14.2692742,15.8680245 13.3333333,15.8680245 C12.3973925,15.8680245 11.4733481,15.7352408 10.8049577,15.4864877 C10.5794093,15.4026634 10.3805674,15.3042501 10.2154728,15.1914952 L10.2157156,17.2875986 C10.2157156,18.0909772 11.6114935,18.4922955 13.3333333,18.4922955 C15.0551732,18.4922955 16.4511939,18.0909772 16.4511939,17.2875986 L16.4511939,15.1914952 Z M13.3333333,9.78840974 C11.6114935,9.78840974 10.2157156,10.1897281 10.2157156,10.9931067 C10.2157156,11.7962379 11.6114935,12.1975563 13.3333333,12.1975563 C15.0551732,12.1975563 16.4511939,11.7962379 16.4511939,10.9931067 C16.4511939,10.1897281 15.0551732,9.78840974 13.3333333,9.78840974 L13.3333333,9.78840974 Z M16.4511939,11.9987517 C16.272746,12.1401898 16.0522962,12.2598682 15.7968851,12.3585287 C15.1675832,12.6015947 14.2918533,12.7232512 13.3333333,12.7232512 C12.3748134,12.7232512 11.4990835,12.6015947 10.8697816,12.3585287 C10.6143705,12.2598682 10.3939206,12.1401898 10.2154728,11.9987517 L10.2154728,14.4133382 C10.26403,14.637117 10.553674,14.8351799 10.9802493,14.9936796 C11.5910995,15.2209203 12.4515338,15.3423296 13.3333333,15.3423296 C14.2151329,15.3423296 15.0755672,15.2209203 15.6864173,14.9936796 C16.1129927,14.8351799 16.4026367,14.637117 16.4511939,14.4133382 L16.4511939,11.9987517 Z M12.4498343,22.1543566 C13.0390764,22.4753124 13.6275902,22.4753124 14.2168324,22.1543566 C19.2580453,19.4722245 20.682472,15.264687 20.9024364,10.0393883 C20.9322991,9.31587776 20.6618352,9.03819413 19.9672239,8.93384641 C17.7724365,8.59310907 15.7665368,7.67771744 14.0881557,6.34345131 C13.5596101,5.91987869 13.1070566,5.91987869 12.578511,6.34345131 C10.9001299,7.67771744 8.89447297,8.59310907 6.69944281,8.93384641 C6.00507423,9.03819413 5.7343676,9.31587776 5.76447309,10.0393883 C5.98419462,15.264687 7.40862134,19.4722245 12.4498343,22.1543566 L12.4498343,22.1543566 Z M13.3333333,0 C20.697282,0 26.6666667,6.07961477 26.6666667,13.5795455 C26.6666667,21.0792289 20.697282,27.1590909 13.3333333,27.1590909 C5.96962744,27.1590909 0,21.0792289 0,13.5795455 C0,6.07961477 5.96962744,0 13.3333333,0 L13.3333333,0 Z" id="Fill-1" fill="#020617" mask="url(#mask-4)"></path>
                    </g>
                </g>
            </g>
        </g>
    </g>
</svg>