<?xml version="1.0" encoding="UTF-8"?>
<svg width="34px" height="34px" viewBox="0 0 34 34" version="1.1" xmlns="http://www.w3.org/2000/svg" xmlns:xlink="http://www.w3.org/1999/xlink">
    <title>radial - II</title>
    <defs>
        <polygon id="path-1" points="0 0 34 0 34 34 0 34"></polygon>
    </defs>
    <g id="Page-1" stroke="none" stroke-width="1" fill="none" fill-rule="evenodd">
        <g id="Tein-Soluciones--I" transform="translate(-767, -244)">
            <g id="radial---II" transform="translate(767, 244)">
                <mask id="mask-2" fill="white">
                    <use xlink:href="#path-1"></use>
                </mask>
                <g id="Clip-2"></g>
                <path d="M7.77286136,23.3302499 C8.27371718,23.6193745 8.85877126,23.6308281 9.3497214,23.4125916 C10.852908,25.2055356 12.9665319,26.426731 15.2714593,26.8319388 C15.3274883,27.3665407 15.629921,27.8680202 16.1310863,28.1571448 C16.9622346,28.6369554 18.0252376,28.3524742 18.5050439,27.5213183 C18.6316508,27.3018437 18.7050147,27.0665817 18.7291598,26.8300815 C19.016734,26.7793144 19.3015223,26.7161652 19.583215,26.6406337 C21.5219418,26.1212 23.3052733,25.0194929 24.6490404,23.4119725 C25.4520194,23.7722948 26.4134892,23.4732644 26.8632689,22.6944235 C27.312739,21.9155825 27.0910995,20.9336732 26.3778907,20.4179542 C27.0979096,18.4507306 27.1604392,16.3556608 26.6410102,14.4166067 C26.5654794,14.135221 26.4775666,13.8569309 26.3778907,13.5826649 C26.5701227,13.443365 26.7369715,13.2625848 26.8632689,13.0437292 C27.3430751,12.2122639 27.0582869,11.1495607 26.2271386,10.6694405 C25.7262828,10.3803159 25.1415383,10.3688624 24.6505881,10.5874084 C23.1477111,8.79446442 21.032849,7.57295944 18.7285407,7.16775163 C18.6725117,6.63314972 18.370079,6.13197979 17.8689137,5.84254564 C17.0377654,5.36273501 15.9747624,5.64752583 15.4949561,6.47868166 C15.3683492,6.69784677 15.2949853,6.93341831 15.2708402,7.16991851 C14.9835755,7.22037602 14.6987873,7.28352529 14.4170946,7.35905677 C12.4780582,7.87849046 10.6950362,8.98050712 9.35126916,10.5880275 C8.54798063,10.2277052 7.5865108,10.5267356 7.13673113,11.3055765 C6.68726101,12.0844175 6.90890054,13.0663268 7.62210933,13.5820458 C6.90239994,15.5492694 6.83987035,17.6440297 7.35929932,19.5830837 C7.43483011,19.8644694 7.522743,20.1430691 7.62241888,20.4173351 C7.42987727,20.5563254 7.26302852,20.7374152 7.13673113,20.9562708 C6.65692487,21.7877361 6.9417131,22.8504393 7.77286136,23.3302499 Z M11.9301504,16.9326717 C11.4549874,16.4036418 11.3392148,15.6167524 11.6865326,14.9598762 L9.84129065,13.4328402 C9.41132234,13.8430009 8.79562256,14.0055174 8.21861685,13.8606455 C7.56546123,15.6820686 7.51345643,17.6189557 7.99450089,19.4131379 C8.06012601,19.6579961 8.1356568,19.9003778 8.22078371,20.1390449 C8.62970247,20.0368917 9.07607706,20.0827059 9.47323282,20.299085 L11.9301504,16.9326717 Z M13.5212499,17.4833705 C13.167741,17.5452816 12.7938017,17.4982292 12.4520558,17.3285929 L9.97997014,20.7157463 C10.4306785,21.2593254 10.5207582,22.0468339 10.1471284,22.6941139 C10.0737645,22.8210315 9.98708984,22.9349479 9.88958083,23.0352438 C11.2788521,24.672791 13.2157216,25.7909045 15.3284169,26.1753721 C15.3668014,26.0410252 15.4219017,25.9094642 15.4949561,25.7831657 C15.6562329,25.5039468 15.8831349,25.2863295 16.1453258,25.1389812 L13.5212499,17.4833705 Z M12.0979278,14.4466336 C12.5359445,14.0745482 13.138024,13.9402012 13.6973852,14.0990031 C14.4718854,12.327728 15.2488619,10.557072 16.025529,8.78672554 C15.6772825,8.551154 15.4389271,8.20723813 15.3296551,7.82710429 C15.0798463,7.87260891 14.8318948,7.92832886 14.5867293,7.99395457 C12.7922539,8.47469386 11.1411013,9.48817772 9.89019993,10.9647562 C10.380531,11.4699504 10.5244729,12.2373378 10.2232783,12.8954523 L12.0979278,14.4466336 Z M19.7141557,19.6032048 C19.2538512,19.2484545 19.0117812,18.6940411 19.0411887,18.135913 L14.7997014,16.5033186 C14.7783423,16.5494423 14.7545067,16.5952565 14.7285043,16.640142 C14.5793,16.8986207 14.3737572,17.1041653 14.1366401,17.2502754 L16.7687643,24.9297219 C16.9671874,24.9031001 17.1708729,24.9102199 17.3708438,24.9541767 L19.7141557,19.6032048 Z M21.9023817,19.5530569 C21.4640555,19.9251423 20.8622856,20.0594892 20.3029244,19.9006874 C19.5281146,21.672272 18.7511381,23.4426185 17.974471,25.213584 C18.3227175,25.448846 18.5613824,25.7924523 18.6703449,26.1728957 C18.9201537,26.1270815 19.1684147,26.0713616 19.4135802,26.0057359 C21.2080556,25.5249966 22.8592083,24.5115127 24.1098001,23.0352438 C23.6197786,22.5300496 23.4755271,21.7626622 23.7767217,21.1042382 L21.9023817,19.5530569 Z M22.0704687,17.0670187 C22.5456317,17.5957391 22.6610947,18.382938 22.3134674,19.0401238 L24.1590189,20.5671598 C24.5889872,20.1566896 25.204687,19.9941731 25.7816927,20.1393545 C26.4348483,18.3179314 26.4868531,16.3810443 26.0061182,14.5865526 C25.9401835,14.3416944 25.8649623,14.0996222 25.7795258,13.8606455 C25.3706071,13.9627987 24.9239229,13.9172941 24.5267672,13.7006055 L22.0704687,17.0670187 Z M19.2718052,17.3592389 C19.4210095,17.1010698 19.6265523,16.8955251 19.8636695,16.749415 L17.2315452,9.07027814 C17.0331221,9.0968999 16.8291271,9.08947057 16.6291562,9.04582328 L14.2858443,14.3958665 C14.7458393,14.7503073 14.9879092,15.3044112 14.9594304,15.8619202 C16.3734659,16.4054992 17.7862632,16.9531024 19.2002986,17.4969909 C19.2219673,17.4505577 19.2458028,17.4047435 19.2718052,17.3592389 L19.2718052,17.3592389 Z M18.6715831,7.8243183 C18.6331986,7.95866527 18.5780983,8.09022625 18.5050439,8.21683434 C18.3440766,8.49574362 18.1168651,8.71336095 17.8549838,8.8610188 L20.4790597,16.5160104 C20.8325686,16.4544089 21.2068174,16.5014613 21.5485633,16.6710976 C22.3725919,15.5424591 23.1972395,14.4141303 24.0209585,13.2851823 C23.5696311,12.7416033 23.4792418,11.9534757 23.8531811,11.3055765 C23.9262355,11.1789685 24.0132197,11.0647426 24.1104192,10.9644467 C22.7214574,9.32689944 20.7842784,8.20847635 18.6715831,7.8243183 L18.6715831,7.8243183 Z M17,0 C26.388725,0 34,7.61103473 34,16.9998452 C34,26.3889653 26.388725,34 17,34 C7.61127499,34 0,26.3889653 0,16.9998452 C0,7.61103473 7.61127499,0 17,0 L17,0 Z" id="Fill-1" fill="#212529" mask="url(#mask-2)"></path>
            </g>
        </g>
    </g>
</svg>