<?xml version="1.0" encoding="UTF-8"?>
<svg width="28px" height="28px" viewBox="0 0 28 28" version="1.1" xmlns="http://www.w3.org/2000/svg" xmlns:xlink="http://www.w3.org/1999/xlink">
    <title>Group 3</title>
    <defs>
        <polygon id="path-1" points="0 0 26.6666667 0 26.6666667 27.1590909 0 27.1590909"></polygon>
    </defs>
    <g id="Page-1" stroke="none" stroke-width="1" fill="none" fill-rule="evenodd">
        <g id="Tein-Soluciones--I" transform="translate(-693, -344)">
            <g id="Soluciones-Copy-2" transform="translate(332, 169.9048)">
                <g id="Solution---Data-Management" transform="translate(71, 94.0838)">
                    <g id="Icono-Copy" transform="translate(206, 60)">
                        <g id="Group-3" transform="translate(84.6, 20.6659)">
                            <mask id="mask-2" fill="white">
                                <use xlink:href="#path-1"></use>
                            </mask>
                            <g id="Clip-2"></g>
                            <path d="M5.85430399,17.677209 C6.6766209,17.19404 7.49845224,16.709882 8.32052636,16.2257239 C7.9165301,15.4337126 7.68782549,14.5338907 7.68782549,13.5796691 C7.68782549,12.6254475 7.91628731,11.7258729 8.32004079,10.9338615 L5.85357563,9.48336554 C5.20824988,10.7026625 4.84212826,12.0975223 4.84212826,13.5796691 C4.84212826,15.0623104 5.20873545,16.4576648 5.85430399,17.677209 M20.5557376,18.1282326 L18.0897581,16.6779839 C17.0860799,18.2726393 15.3309783,19.3292315 13.3333333,19.3292315 C11.3359311,19.3292315 9.5808296,18.2728866 8.57715139,16.6784785 L6.11117181,18.1287272 C7.60794882,20.5888337 10.2827245,22.2275034 13.3333333,22.2275034 C16.3841849,22.2275034 19.0589606,20.5885864 20.5557376,18.1282326 M13.0752516,7.83579398 L13.0752516,4.93554381 C10.1331682,5.02505618 7.56716074,6.63924606 6.11238574,9.02838555 C6.93494543,9.51105998 7.75726234,9.99422895 8.57909368,10.4776452 C9.53955594,8.95395676 11.1866176,7.92233909 13.0752516,7.83579398 M13.5914151,4.93579108 L13.5914151,7.83604125 C16.589582,7.97352434 18.9785984,10.4922342 18.9785984,13.5796691 C18.9785984,14.5348798 18.749651,15.4356907 18.3449264,16.2286912 C19.1670005,16.7121074 19.9893174,17.1952764 20.8118771,17.6779508 C21.4576884,16.4581593 21.8245384,15.0625577 21.8245384,13.5796691 C21.8245384,8.89139701 18.16138,5.0747578 13.5914151,4.93579108 M13.3333333,0 C20.6970392,0 26.6666667,6.07967013 26.6666667,13.5796691 C26.6666667,21.0794208 20.6970392,27.1590909 13.3333333,27.1590909 C5.96962744,27.1590909 0,21.0794208 0,13.5796691 C0,6.07967013 5.96962744,0 13.3333333,0" id="Fill-1" fill="#E5590D" mask="url(#mask-2)"></path>
                        </g>
                    </g>
                </g>
            </g>
        </g>
    </g>
</svg>