<?xml version="1.0" encoding="UTF-8"?>
<svg width="83px" height="22px" viewBox="0 0 83 22" version="1.1" xmlns="http://www.w3.org/2000/svg" xmlns:xlink="http://www.w3.org/1999/xlink">
    <title>Panel user - Flecha</title>
    <defs>
        <linearGradient x1="-1448.39523%" y1="100%" x2="899.138384%" y2="99.8585149%" id="linearGradient-1">
            <stop stop-color="#FF9510" offset="0.0628277972%"></stop>
            <stop stop-color="#DE841E" offset="21.1456512%"></stop>
            <stop stop-color="#020617" offset="100%"></stop>
        </linearGradient>
        <linearGradient x1="-646.56803%" y1="100%" x2="444.744083%" y2="99.8585149%" id="linearGradient-2">
            <stop stop-color="#FF9510" offset="0.0628277972%"></stop>
            <stop stop-color="#DE841E" offset="21.1456512%"></stop>
            <stop stop-color="#020617" offset="100%"></stop>
        </linearGradient>
    </defs>
    <g id="Page-1" stroke="none" stroke-width="1" fill="none" fill-rule="evenodd">
        <g id="Tein-Soluciones--I" transform="translate(-348, -347)">
            <g id="Users---Left-panel" transform="translate(1, -13.2401)">
                <g id="Panel-user---Flecha" transform="translate(347, 360.2401)">
                    <polygon id="Fill-1" fill="url(#linearGradient-1)" points="57 13 60 13 60 10 57 10"></polygon>
                    <polygon id="Fill-2" fill="url(#linearGradient-1)" points="45 13 48 13 48 10 45 10"></polygon>
                    <polygon id="Fill-3" fill="url(#linearGradient-1)" points="34 13 37 13 37 10 34 10"></polygon>
                    <polygon id="Fill-4" fill="url(#linearGradient-1)" points="23 13 26 13 26 10 23 10"></polygon>
                    <polygon id="Fill-5" fill="url(#linearGradient-1)" points="11 13 14 13 14 10 11 10"></polygon>
                    <polygon id="Fill-6" fill="url(#linearGradient-1)" points="0 13 3 13 3 10 0 10"></polygon>
                    <path d="M82.6624993,10.2998215 L69.3670454,0.173978452 C69.1091477,-0.0225350673 68.7629545,-0.0552587657 68.4731818,0.0895136174 C68.1834091,0.234286001 68,0.531369211 68,0.856721584 L68,21.1433587 C68,21.4688824 68.1835795,21.7663082 68.4736932,21.9109093 C68.5936932,21.9705315 68.7232386,22 68.8521022,22 C69.0353409,22 69.2170454,21.9407204 69.3682386,21.8252452 L82.6636925,11.6646225 C82.8757379,11.5025459 83.0003402,11.2498367 83,10.9820507 C82.9998288,10.7140933 82.8748857,10.4615554 82.6624993,10.2998215" id="Fill-7" fill="url(#linearGradient-2)"></path>
                </g>
            </g>
        </g>
    </g>
</svg>