<svg data-name="Line Art" xmlns="http://www.w3.org/2000/svg" xmlns:xlink="http://www.w3.org/1999/xlink" viewBox="0 0 293 293.85">
  <defs>
    <linearGradient id="a" x1="144.41" y1="3" x2="148.59" y2="292.7" gradientUnits="userSpaceOnUse">
      <stop offset=".14" stop-color="#f6bb20"/>
      <stop offset=".38" stop-color="#f69220"/>
      <stop offset=".52" stop-color="#ef6241"/>
      <stop offset=".64" stop-color="#f04037"/>
      <stop offset=".8" stop-color="#f25816"/>
      <stop offset=".94" stop-color="#f04037"/>
    </linearGradient>
    <linearGradient id="b" x1="144.38" y1="3" x2="148.56" y2="292.7" xlink:href="#a"/>
    <linearGradient id="c" x1="144.41" y1="3" x2="148.59" y2="292.7" xlink:href="#a"/>
    <linearGradient id="d" x1="144.4" y1="3" x2="148.58" y2="292.7" xlink:href="#a"/>
    <linearGradient id="e" x1="144.38" y1="3" x2="148.56" y2="292.7" xlink:href="#a"/>
    <linearGradient id="f" x1="144.39" y1="3" x2="148.57" y2="292.7" xlink:href="#a"/>
    <linearGradient id="g" x1="144.38" y1="3" x2="148.56" y2="292.7" xlink:href="#a"/>
    <linearGradient id="h" x1="144.37" y1="3" x2="148.56" y2="292.7" xlink:href="#a"/>
    <linearGradient id="i" x1="144.41" y1="3" x2="148.59" y2="292.7" xlink:href="#a"/>
    <linearGradient id="j" x1="144.41" y1="3" x2="148.59" y2="292.7" xlink:href="#a"/>
    <linearGradient id="k" x1="144.37" y1="3" x2="148.55" y2="292.7" xlink:href="#a"/>
    <linearGradient id="l" x1="144.41" y1="3" x2="148.59" y2="292.7" xlink:href="#a"/>
    <linearGradient id="m" x1="144.41" y1="3" x2="148.59" y2="292.7" xlink:href="#a"/>
    <linearGradient id="n" x1="144.4" y1="3" x2="148.58" y2="292.7" xlink:href="#a"/>
    <linearGradient id="o" x1="144.41" y1="3" x2="148.6" y2="292.7" xlink:href="#a"/>
    <linearGradient id="p" x1="144.39" y1="3" x2="148.57" y2="292.7" xlink:href="#a"/>
    <linearGradient id="q" x1="144.4" y1="3" x2="148.59" y2="292.7" xlink:href="#a"/>
    <linearGradient id="r" x1="144.41" y1="3" x2="148.6" y2="292.7" xlink:href="#a"/>
  </defs>
  <path d="M145.93 0a147.7 147.7 0 0 1 60.24 13.05 143 143 0 0 1 43.37 29.87A145.8 145.8 0 0 1 279.6 86.1a149.4 149.4 0 0 1 9.4 27.24 158.4 158.4 0 0 1 3.95 32.5 126 126 0 0 1-.94 17.39 146.3 146.3 0 0 1-11.61 43.36 142 142 0 0 1-13.11 23.53 146.13 146.13 0 0 1-59.49 50.33 145 145 0 0 1-42.68 12.3 159 159 0 0 1-34.39.32 149.6 149.6 0 0 1-43.36-11.61 130 130 0 0 1-12.24-6.09A146.2 146.2 0 0 1 4 181.68a153.4 153.4 0 0 1-4-32.57A139 139 0 0 1 3.54 116a146.1 146.1 0 0 1 38.84-71A145.3 145.3 0 0 1 145.8 2c0-.47.07-1 .07-1.69-.01-.21-.01-.31.06-.31m-.06 3.77h-.19c-2.2 0-4.06.08-6.15.18a140.4 140.4 0 0 0-27.36 3.83A142.87 142.87 0 0 0 43.76 46.5 135.7 135.7 0 0 0 27.57 66c-12 17.58-21.33 38.39-24.35 64.89a127.5 127.5 0 0 0-.94 16.81c.12 5.94.37 11.49 1 16.82a146.4 146.4 0 0 0 6.59 29.12A125 125 0 0 0 15 206.46 142.17 142.17 0 0 0 63.53 265a129 129 0 0 0 10.86 7A160.7 160.7 0 0 0 99 283.09a136 136 0 0 0 13.93 4 136.2 136.2 0 0 0 31.88 3.7 144 144 0 0 0 58.93-12.48 136 136 0 0 0 22.9-12.81 143 143 0 0 0 48.83-58.17 143.6 143.6 0 0 0 9.09-26.61c3.29-13.83 5.09-32.3 2.89-48.76-.71-5.34-1.5-10.46-2.57-15.31A139.1 139.1 0 0 0 263.09 67a141 141 0 0 0-16.19-19.56 143.6 143.6 0 0 0-48.45-31.88c-14.92-6-31.89-9.8-52.52-10-.03-.49-.02-1.21-.06-1.79" style="fill-rule:evenodd;fill:url(#a)"/>
  <path d="M145.93 8.41a139.7 139.7 0 0 1 44.43 7.34 115 115 0 0 1 12.36 4.9 149.3 149.3 0 0 1 22.09 12.42 137.4 137.4 0 0 1 18.83 15.69A139.9 139.9 0 0 1 272 89.43a131 131 0 0 1 8.79 25.72 136.8 136.8 0 0 1 3.76 30.75 137.65 137.65 0 0 1-24.16 79.39 135.7 135.7 0 0 1-44.68 41.61 141 141 0 0 1-30.12 13.1 137.5 137.5 0 0 1-21.4 4.46 142.7 142.7 0 0 1-32.44.37c-4.47-.48-8.87-1.34-13.06-2.07a118 118 0 0 1-15.31-4.08A132 132 0 0 1 91 273.8 135.4 135.4 0 0 1 49.73 246c-17.43-17.09-30.6-38.49-37.53-66-2.34-9.28-3.44-19.47-3.83-30.69-.1-2.8.06-5.69.19-8.47a137.5 137.5 0 0 1 24-70.91c2.35-3.43 4.81-6.71 7.41-9.85a136 136 0 0 1 74.61-46.19 133.6 133.6 0 0 1 31.32-3.64V8.6c-.04-.09-.04-.18.03-.19m0 3.69c-2 .07-4.11 0-6.09.14a135.43 135.43 0 0 0-117.48 80A131.5 131.5 0 0 0 14 117.48 135.4 135.4 0 0 0 17.85 191a132.5 132.5 0 0 0 10.41 23.22A134 134 0 0 0 50 242.86a136.4 136.4 0 0 0 18.3 15.31 133 133 0 0 0 21.4 12.24c15.49 7 33.35 11.65 55.16 12a127.3 127.3 0 0 0 23.16-2 137.3 137.3 0 0 0 32.25-9.79 125 125 0 0 0 21.53-12.05c19.85-13.85 35.55-31.7 46.06-54.79A134.2 134.2 0 0 0 279 164.42a141 141 0 0 0 .19-31.51 133.47 133.47 0 0 0-38.25-79.51 134.3 134.3 0 0 0-39.66-27.54A132.15 132.15 0 0 0 146 14c0-.48 0-1.47-.07-1.9" style="fill-rule:evenodd;fill:url(#b)"/>
  <path d="M145.93 16.76a130.4 130.4 0 0 1 29 3.38 122 122 0 0 1 24.35 8.1 130.1 130.1 0 0 1 65 64.7 117.7 117.7 0 0 1 8.28 24.16 130.6 130.6 0 0 1 3.58 28.8 132.2 132.2 0 0 1-11 53.85c-.8 1.87-1.78 3.69-2.63 5.52s-1.84 3.58-2.83 5.27c-2 3.43-4 6.82-6.15 10s-4.55 6.25-7 9.23a109 109 0 0 1-7.66 8.53 130.9 130.9 0 0 1-49.57 31.57 103 103 0 0 1-12.49 3.7 133.5 133.5 0 0 1-28.81 3.58 131.5 131.5 0 0 1-53.84-11.05 130 130 0 0 1-20.9-11.54 132.6 132.6 0 0 1-25.67-23c-2.49-2.89-4.77-6-7-9.16a126.3 126.3 0 0 1-20.27-44.62A123.6 123.6 0 0 1 16.78 149c0-21.4 4.43-38.8 11.11-53.78a131 131 0 0 1 18.64-30 129.35 129.35 0 0 1 98.85-46.69h.49v-1.59c-.01-.09-.01-.17.06-.18m-31.13 7.65C89.69 30.8 70.69 43.18 54.93 58.93a117 117 0 0 0-14.12 17.32 124.75 124.75 0 0 0-21.08 57.61 129.6 129.6 0 0 0 .27 29.62 125.84 125.84 0 0 0 21.9 56.73 124.5 124.5 0 0 0 31.57 31.37 107 107 0 0 0 20.14 11.36c3.69 1.54 7.33 3.23 11.24 4.46s8 2.43 12.3 3.45a123 123 0 0 0 28.28 3.15 125.3 125.3 0 0 0 51.71-11.17 121.9 121.9 0 0 0 37.34-25.61 125.7 125.7 0 0 0 25.85-37.08 123.1 123.1 0 0 0 11.3-51.53 125.9 125.9 0 0 0-16.19-62.44c-1.86-3.35-4-6.58-6.09-9.66A117.5 117.5 0 0 0 235 59.3a128.3 128.3 0 0 0-37.15-25.79 121.6 121.6 0 0 0-23.47-8 124.5 124.5 0 0 0-28.55-3.2v-1.84h-.37a126.8 126.8 0 0 0-30.66 3.94" style="fill-rule:evenodd;fill:url(#c)"/>
  <path d="M145.93 25.1a122.8 122.8 0 0 1 49.89 10.8 122.85 122.85 0 0 1 71 95.76 129 129 0 0 1 .25 28.55 118.7 118.7 0 0 1-12 41.11 122.3 122.3 0 0 1-74 62.5 121.6 121.6 0 0 1-25.66 4.64 118.5 118.5 0 0 1-34.64-2.38c-4.18-1-8.11-2.05-11.93-3.26a116.9 116.9 0 0 1-30.5-14.94 127 127 0 0 1-12.8-9.88 122.9 122.9 0 0 1-29.06-39.16 117.7 117.7 0 0 1-10.29-35.24 126.5 126.5 0 0 1-.37-28.55 119.9 119.9 0 0 1 9.54-36 122.6 122.6 0 0 1 24.47-36.11 116 116 0 0 1 16.44-13.87A119.6 119.6 0 0 1 145.87 27v-1.71c-.01-.09-.01-.18.06-.19m-.06 3.77c-1.85 0-3.68 0-5.46.12A115.15 115.15 0 0 0 96.1 39.91a118.65 118.65 0 0 0-58.49 59.24 118 118 0 0 0-9.47 34.64 127.3 127.3 0 0 0 .06 27.74 115.9 115.9 0 0 0 9.6 34.58 120.3 120.3 0 0 0 10.67 18.76 114.6 114.6 0 0 0 21 23.1 116.8 116.8 0 0 0 75.31 27.67 117.6 117.6 0 0 0 48.57-10.29 124 124 0 0 0 18.89-10.54 108 108 0 0 0 16.13-13.31 118.9 118.9 0 0 0 28.43-45 110 110 0 0 0 3.28-11.5c2.72-11.59 4.19-26.44 2.45-40.22-.56-4.41-1.27-8.63-2.14-12.62a111 111 0 0 0-7.34-22.09 114.6 114.6 0 0 0-24-34.89 116.56 116.56 0 0 0-83.15-34.51c0-.5.01-1.22-.03-1.8" style="fill-rule:evenodd;fill:url(#d)"/>
  <path d="M145.93 33.51c18.3.22 33.61 4.07 46.5 10a114.4 114.4 0 0 1 33.45 23 112.2 112.2 0 0 1 23.22 33.33 114.9 114.9 0 0 1 9.41 32.95 99 99 0 0 1 .94 13.18 113.3 113.3 0 0 1-9.6 46.88 117 117 0 0 1-10 18.19 122 122 0 0 1-12.74 15.51 101 101 0 0 1-15.25 13A113 113 0 0 1 184 254.09a113.9 113.9 0 0 1-49.51 5.71 89 89 0 0 1-12.18-1.94 126 126 0 0 1-21.27-7c-3.27-1.41-6.38-3-9.41-4.7a113 113 0 0 1-24.29-18.08A109.1 109.1 0 0 1 44 195c-6.06-13-9.91-27.77-10.48-46a102 102 0 0 1 .69-13.43A112.56 112.56 0 0 1 66 68.65a112.16 112.16 0 0 1 79.64-33.32c.16 0 .22 0 .19-.19V33.7c.03-.09.03-.18.1-.19m-5.21 3.83a107.8 107.8 0 0 0-41.1 10.17A110.21 110.21 0 0 0 45.4 192.66a96 96 0 0 0 4.64 9c1.65 2.92 3.42 5.74 5.27 8.41A108.17 108.17 0 0 0 100 247.44a106.4 106.4 0 0 0 32 9 102.5 102.5 0 0 0 19.33.63 128.4 128.4 0 0 0 18-2.51 115.7 115.7 0 0 0 20.52-6.84c1.59-.68 3.13-1.4 4.64-2.2s3.05-1.51 4.52-2.32a106 106 0 0 0 23.41-17.64c2.25-2.25 4.39-4.62 6.52-7.09a80 80 0 0 0 6-7.65 108.5 108.5 0 0 0 16.94-37.78c.84-3.75 1.64-7.51 2.14-11.55a105.6 105.6 0 0 0 .69-19.39c-.15-2.14-.27-4.29-.51-6.34a109.1 109.1 0 0 0-8.78-32.25 106.9 106.9 0 0 0-22.24-32.41 109.1 109.1 0 0 0-32.26-22.4 107.5 107.5 0 0 0-45-9.6c0-.59-.09-1.93-.09-1.93a3 3 0 0 1-.29 0c-1.73.09-3.13.09-4.82.17" style="fill-rule:evenodd;fill:url(#e)"/>
  <path d="M145.93 41.86c25.43.43 44.2 8.08 59.74 18.76a104.46 104.46 0 0 1 35.83 42.67 102.6 102.6 0 0 1 8.73 30.57 104.2 104.2 0 0 1-6.09 51c-.92 2.33-1.85 4.71-2.95 6.9a119 119 0 0 1-11 18.39 116 116 0 0 1-9 10.54 105.8 105.8 0 0 1-28.49 20.65 104.5 104.5 0 0 1-38.41 10.48 106.2 106.2 0 0 1-29.93-2.14c-2.21-.48-4.41-1-6.53-1.69s-4.2-1.21-6.21-1.95a111.6 111.6 0 0 1-21.9-10.79 103.63 103.63 0 0 1-38-43.68 101.3 101.3 0 0 1-9.67-39.47 104 104 0 0 1 .57-15.63 104.26 104.26 0 0 1 51.6-79.05 102.8 102.8 0 0 1 51.65-13.74v-1.63c-.01-.05-.01-.18.06-.19m-9 4.2a102 102 0 0 0-16.13 2.76 98.6 98.6 0 0 0-34.39 16 107.2 107.2 0 0 0-24.89 25.55 97 97 0 0 0-8.91 16.31 100 100 0 0 0-6.15 19.08 94 94 0 0 0-2.38 22.84 113.4 113.4 0 0 0 2.76 22.4 105 105 0 0 0 6.46 18.76 103.1 103.1 0 0 0 34.46 41.17 86.6 86.6 0 0 0 16.12 9.1c2.91 1.23 5.86 2.56 9 3.57a110 110 0 0 0 20.65 4.58 94.5 94.5 0 0 0 23.53 0c3.76-.53 7.34-1.05 10.79-1.81 1.67-.37 3.29-.93 4.9-1.39a99 99 0 0 0 13.93-5 100.2 100.2 0 0 0 36-26.92c1.94-2.26 3.72-4.72 5.46-7.15a99.3 99.3 0 0 0 12.8-25 96.7 96.7 0 0 0 5.53-32.32 100.1 100.1 0 0 0-13-50 98.76 98.76 0 0 0-30-33 105.7 105.7 0 0 0-16.07-9.17c-11.45-5.34-25-8.75-41.54-8.91 0-.5-.09-1.81-.09-1.81h-.35a84 84 0 0 0-8.53.36Z" style="fill-rule:evenodd;fill:url(#f)"/>
  <path d="M145.93 50.2a97.63 97.63 0 0 1 68.15 28.18 89.3 89.3 0 0 1 11 13.05 96.8 96.8 0 0 1 16.81 43.43 101.2 101.2 0 0 1-1.44 33 104 104 0 0 1-5.9 18.2c-.58 1.37-1.31 2.72-1.94 4.08a45 45 0 0 1-2.07 3.95c-1.53 2.54-3 5.07-4.59 7.47s-3.4 4.61-5.2 6.84A95.4 95.4 0 0 1 187 234.77a92 92 0 0 1-8.53 3.51 95.7 95.7 0 0 1-19.4 4.58 97.2 97.2 0 0 1-22.21.32 99 99 0 0 1-20-4.15 96.2 96.2 0 0 1-24.28-11.86 93 93 0 0 1-24.41-23.72 95.8 95.8 0 0 1-15.19-33 97.3 97.3 0 0 1-2.26-32.82 95.9 95.9 0 0 1 7.66-28.49 92.5 92.5 0 0 1 19.46-28.69 96.2 96.2 0 0 1 28.37-19.77 93.7 93.7 0 0 1 39.53-8.59h.13v-1.7c-.01-.09-.01-.18.06-.19m-12.49 4.58a88 88 0 0 0-9.73 1.89 91.76 91.76 0 0 0-44.3 25.16 90.3 90.3 0 0 0-18.83 27.49 94 94 0 0 0-5.83 17.32 100.5 100.5 0 0 0-2.14 26.48c.09 1.81.31 3.55.5 5.27a89.5 89.5 0 0 0 7.54 27.24A93 93 0 0 0 92 223.72a80.3 80.3 0 0 0 14.69 8.47c10.72 4.59 23 8.35 38 8.35a97 97 0 0 0 20.77-2.26 90.7 90.7 0 0 0 17.54-5.71 93.2 93.2 0 0 0 50-54.1c1-2.83 1.81-5.89 2.58-9a93.5 93.5 0 0 0 2-31.51 90.9 90.9 0 0 0-15.65-42.26 92.1 92.1 0 0 0-23.1-23.28A81.5 81.5 0 0 0 184.08 64c-10.66-4.61-23-8.3-38.15-8.22a18 18 0 0 0-.12-1.85h-.31a111 111 0 0 0-12.06.85" style="fill-rule:evenodd;fill:url(#g)"/>
  <path d="M145.93 58.61c21.54.31 37.21 6.91 50.2 15.75a87 87 0 0 1 30.13 35.84 82 82 0 0 1 5.64 16.31 88 88 0 0 1 2.45 19.49c0 21.72-6.43 37.54-15.25 50.71a87.11 87.11 0 0 1-71 38.59 87.3 87.3 0 0 1-50.83-15.12 86.54 86.54 0 0 1-30.47-35.49c-4.73-10-7.66-21.59-8.23-35.71a72 72 0 0 1 .51-10.54 87 87 0 0 1 7-26 87.3 87.3 0 0 1 79.76-52c.06 0 .06 0 .07-.06V58.8c-.05-.09-.05-.18.02-.19m-20.21 6.22c-2.83.79-5.55 1.46-8.16 2.38a85.1 85.1 0 0 0-32.25 20.46 82.6 82.6 0 0 0-17.07 25 85.06 85.06 0 0 0 17.13 94.51 83 83 0 0 0 40.48 22.71 74.5 74.5 0 0 0 13.74 2.11c3.36.15 6.74.15 10.1 0 1.67-.08 3.38-.12 5-.32a86.64 86.64 0 0 0 38.41-14.31 83.4 83.4 0 0 0 16.63-14.93 71 71 0 0 0 4.64-5.9 78.7 78.7 0 0 0 7.72-13.37c2.12-5 4.26-10 5.46-15.62a88 88 0 0 0 1.63-8.92 93 93 0 0 0 .13-19.76A84.18 84.18 0 0 0 194 79.26a82.4 82.4 0 0 0-29.18-13 80.6 80.6 0 0 0-18.89-2.07c0-.53-.09-1.9-.09-1.9h-.32c-7.23.25-13.88.87-19.8 2.54" style="fill-rule:evenodd;fill:url(#h)"/>
  <path d="M145.93 67a79.7 79.7 0 0 1 32.69 7.09 80.5 80.5 0 0 1 23.6 16.19 76 76 0 0 1 16.38 23.41 79 79 0 0 1 5.15 14.75 79.58 79.58 0 0 1-4.4 50.7 78.7 78.7 0 0 1-26.67 33 77.4 77.4 0 0 1-12.49 7.41 79.42 79.42 0 0 1-65.32.88A76.9 76.9 0 0 1 91 204.46a78.06 78.06 0 0 1-21.78-37.91A73.6 73.6 0 0 1 67 149a79.6 79.6 0 0 1 6.72-33.07 77.9 77.9 0 0 1 16.04-23.68 79.3 79.3 0 0 1 23.41-16.38 78.1 78.1 0 0 1 32.47-7.09h.2v-1.63c.02-.09.02-.15.09-.15m-19.27 6.21c-15.09 4-26.27 11.34-35.89 21a73.5 73.5 0 0 0-15.19 22.66 75.6 75.6 0 0 0-4.64 14.3 71.6 71.6 0 0 0-1.76 17.2 78.1 78.1 0 0 0 6.9 30.94 75.8 75.8 0 0 0 25.86 31 60.8 60.8 0 0 0 10.85 6.27c.41.18.78.46 1.2.63a83.2 83.2 0 0 0 22.27 6.15 81 81 0 0 0 25.86-1.38 77.37 77.37 0 0 0 45.43-30.31 66.2 66.2 0 0 0 7-12 75.68 75.68 0 0 0 .38-62.31 73 73 0 0 0-15.38-22.53 75.73 75.73 0 0 0-53.59-22.22c-.09-.5 0-1.23-.06-1.82h-.19a78.4 78.4 0 0 0-19.05 2.38Z" style="fill-rule:evenodd;fill:url(#i)"/>
  <path d="M145.93 75.31c17.19.46 30.24 5.41 40.66 12.8a73.3 73.3 0 0 1 17.89 17.69 71.62 71.62 0 0 1 12.74 48.64c-.31 2.7-.67 5.28-1.19 7.72a71.37 71.37 0 0 1-28.12 43.11C177.69 212.75 165 218 148 218.58a70.2 70.2 0 0 1-19.77-2.39 71.5 71.5 0 0 1-21.46-9.73 71.5 71.5 0 0 1-29.37-41.79 73 73 0 0 1-1.69-24.1 70.3 70.3 0 0 1 5.58-21.15 67.3 67.3 0 0 1 14.37-21.21 72.1 72.1 0 0 1 20.9-14.68 68.8 68.8 0 0 1 29.05-6.34h.29s.03-1.19.03-1.88m-9.35 4.39a64.8 64.8 0 0 0-19.52 5.83 69.6 69.6 0 0 0-19.89 13.94 66.4 66.4 0 0 0-13.68 20.08 70 70 0 0 0-4.21 12.67 71.7 71.7 0 0 0-1.28 23.1 65.6 65.6 0 0 0 5.46 19.89 67.45 67.45 0 0 0 61.12 40.23 68.9 68.9 0 0 0 28-5.78 65 65 0 0 0 20.21-13.61 69 69 0 0 0 7.84-9 71.6 71.6 0 0 0 8.6-16.76 67.43 67.43 0 0 0-15.63-69.59 65 65 0 0 0-9.2-7.7c-9.9-7-22.17-11.87-38.53-12.11 0-.28-.06-1.85-.06-1.85h-.37a82 82 0 0 0-8.86.66" style="fill-rule:evenodd;fill:url(#j)"/>
  <path d="M145.93 83.71a62.9 62.9 0 0 1 25.85 5.59 63.86 63.86 0 0 1 31.63 31.25 51 51 0 0 1 2.26 5.59 64.6 64.6 0 0 1 3.58 20c0 15.53-4.48 26.94-10.8 36.4a62.3 62.3 0 0 1-15.43 16 58 58 0 0 1-9.86 5.84 62.6 62.6 0 0 1-51.33.82 61.2 61.2 0 0 1-19-12.49C92.29 182.07 84.62 169 83.68 149a50 50 0 0 1 .31-7.59 62.9 62.9 0 0 1 10.48-28.74 59.8 59.8 0 0 1 15.63-15.78 61 61 0 0 1 35.51-11.35h.32l-.06-1.65s-.01-.16.06-.18m-14.43 5.53a59.27 59.27 0 0 0-28.31 16.13 57.7 57.7 0 0 0-12 17.57 59.45 59.45 0 0 0-5.2 24.41 59.59 59.59 0 0 0 34.57 54.28A57.3 57.3 0 0 0 141 206.9a58.8 58.8 0 0 0 28.12-4.83c1.72-.72 3.35-1.61 5-2.45a50 50 0 0 0 4.58-2.82 52.9 52.9 0 0 0 11.73-10.48c1.12-1.36 2.32-2.67 3.33-4.08a53.6 53.6 0 0 0 5.46-9.35 61 61 0 0 0 3.83-11 75.5 75.5 0 0 0 1.69-13.12 53 53 0 0 0-.38-7 56 56 0 0 0-4.64-17.57 57 57 0 0 0-12.05-17.57 58.8 58.8 0 0 0-17.44-12.17 57.6 57.6 0 0 0-24.35-5.15c0-.64-.06-1.86-.06-1.86h-.23a62 62 0 0 0-14.09 1.79" style="fill-rule:evenodd;fill:url(#k)"/>
  <path d="M145.93 92.06a56.2 56.2 0 0 1 22.4 4.83 54.83 54.83 0 0 1 22.41 18.45 48.2 48.2 0 0 1 5 8.6 56.9 56.9 0 0 1 5.14 22 54.7 54.7 0 0 1-4.45 22.78 53.8 53.8 0 0 1-10.8 16.44 55.8 55.8 0 0 1-15.81 11.42 54.05 54.05 0 0 1-21.78 5.27 53 53 0 0 1-12.49-1.13 48.5 48.5 0 0 1-10.35-3.26 53.9 53.9 0 0 1-27.93-26.55 52.2 52.2 0 0 1-5.2-22 54.65 54.65 0 0 1 4.45-22.78 52.9 52.9 0 0 1 11-16.25 54.4 54.4 0 0 1 16-11.24 53.6 53.6 0 0 1 22.34-4.83v-1.56c0-.09 0-.18.07-.19m-37.28 19.64a52 52 0 0 0-14.37 36.4 53.6 53.6 0 0 0 4.65 20.71 50.17 50.17 0 0 0 17.32 20.77 44.7 44.7 0 0 0 8 4.65 50.7 50.7 0 0 0 41.67.06 50 50 0 0 0 21-17.07 44 44 0 0 0 4.71-8 50.4 50.4 0 0 0 4.64-20.65c0-16.47-6.45-27.66-14.62-36.14a47.7 47.7 0 0 0-15-10.36 49 49 0 0 0-20.83-4.45c0-.68-.06-1.88-.06-1.88a2 2 0 0 1-.31.06c-17.01.62-27.91 7.02-36.8 15.9" style="fill-rule:evenodd;fill:url(#l)"/>
  <path d="M145.93 100.41a47.7 47.7 0 0 1 18.95 4.14 45.3 45.3 0 0 1 13.68 9.35c7.67 7.67 13.29 17.59 13.93 32.13a45.5 45.5 0 0 1-3.64 19.27 44.5 44.5 0 0 1-9.1 13.93A46 46 0 0 1 158 192.09a38 38 0 0 1-4.83.94 43 43 0 0 1-5.21.51 49 49 0 0 1-19.33-3.64 45.67 45.67 0 0 1-19.39-15.19c-4.92-6.63-8.27-14.65-8.79-25.73a44.25 44.25 0 0 1 3.64-19.27 43.6 43.6 0 0 1 15.5-19.07 44.07 44.07 0 0 1 26.17-8.35c0-.41 0-1.15.07-1.69.03-.09.03-.18.1-.19m-30.88 16.69a43 43 0 0 0-11.29 20.58 38 38 0 0 0-1.13 9.54 45.1 45.1 0 0 0 3.7 17.57 42.42 42.42 0 0 0 38.09 25.55 42.4 42.4 0 0 0 17.76-3.52 39.8 39.8 0 0 0 12.8-8.47 41.26 41.26 0 0 0 12.93-29.5 39.2 39.2 0 0 0-3.45-17.69 42.4 42.4 0 0 0-8.6-12.68c-7.14-7.14-16.22-12.17-30-12.49-.08-.57 0-1.3-.13-1.82-13.92.44-23.47 5.72-30.68 12.93" style="fill-rule:evenodd;fill:url(#m)"/>
  <path d="M145.93 108.82c12.09.43 20.41 4.72 26.73 11a38.1 38.1 0 0 1 7.85 11 36.6 36.6 0 0 1 3.64 15.18c.1 12.27-4.25 20.76-10.36 27.36a36.2 36.2 0 0 1-10.85 8 35.45 35.45 0 0 1-14.81 3.77 37.6 37.6 0 0 1-27.49-10.23 37.09 37.09 0 0 1-1.32-53c6.16-6.4 14.22-10.81 26.26-11.23h.32v-1.61s-.04-.23.03-.24m-14.87 7.09a34.08 34.08 0 0 0-17 17.19 33.5 33.5 0 0 0-3.06 14.06 34.4 34.4 0 0 0 9.72 24.41 33.4 33.4 0 0 0 9.92 7.16 35 35 0 0 0 13.93 3.2 35.18 35.18 0 0 0 24.54-9.48 33.1 33.1 0 0 0 7.15-9.92 34.8 34.8 0 0 0 3.27-13.74 33 33 0 0 0-5.78-19.7 31.3 31.3 0 0 0-6-6.78 33.1 33.1 0 0 0-21.9-7.91c-.09-.76-.13-1.88-.13-1.88h-.19a35.5 35.5 0 0 0-14.47 3.39" style="fill-rule:evenodd;fill:url(#n)"/>
  <path d="M145.93 117.16A31 31 0 0 1 158 119.8a27.6 27.6 0 0 1 8.72 6 30.3 30.3 0 0 1 9 20.08 28.6 28.6 0 0 1-2.2 12.49 29.72 29.72 0 0 1-14 15.38 29.59 29.59 0 0 1-39.41-13.18 28.7 28.7 0 0 1-3-11.55 28.23 28.23 0 0 1 8.09-21.27c4.65-5 11.21-8.39 20.3-8.72h.22l.07-1.63s.07-.23.14-.24M126.85 129a25.9 25.9 0 0 0-7.47 18.33 26.45 26.45 0 0 0 7.35 18.39 24.7 24.7 0 0 0 7.46 5.39 26.27 26.27 0 0 0 34.46-11.92 24.4 24.4 0 0 0 2.57-10.19 24.88 24.88 0 0 0-7.15-18.64c-4.18-4.4-9.9-7.42-18.2-7.59v-1.82c-8.64.31-14.64 3.41-19.02 8.05" style="fill-rule:evenodd;fill:url(#o)"/>
  <path d="M145.93 125.51c6.72.31 11.37 2.69 14.87 6.21 4.66 4.1 7.94 11.84 6.09 20.33a21.7 21.7 0 0 1-2.7 6.47 21.2 21.2 0 0 1-10 8.47 21.76 21.76 0 0 1-15.06.06 21.07 21.07 0 0 1-10.29-8.15 20.5 20.5 0 0 1 3.58-26.49 19.58 19.58 0 0 1 13.14-5h.22l.07-1.69s.01-.2.08-.21m-12.43 8.66a16.8 16.8 0 0 0-3.57 4.58 17.4 17.4 0 0 0-2 6.21 18.18 18.18 0 0 0 7.15 17 17.6 17.6 0 0 0 5.53 2.7 18.7 18.7 0 0 0 9.22 0c.29-.09 1.56-.57 1.88-.69a16.76 16.76 0 0 0 10.42-11 17.48 17.48 0 0 0-2-14.25c-3-4.44-7.37-7.46-14.3-7.66v-1.82h-.32a18.46 18.46 0 0 0-12.01 4.93" style="fill-rule:evenodd;fill:url(#p)"/>
  <path d="M145.93 133.92a14.5 14.5 0 0 1 5.46 1.19A13.42 13.42 0 0 1 159 145.9a14 14 0 0 1-.18 3.83 13.27 13.27 0 0 1-6.28 8.79 12.73 12.73 0 0 1-7.22 1.5 12.94 12.94 0 0 1-9.6-5.77 12.6 12.6 0 0 1-1.88-6.21 13 13 0 0 1 1.16-5.34 12 12 0 0 1 9-6.84 8 8 0 0 1 1.6-.17h.38v-1.58s-.12-.18-.05-.19m-2.7 4.08a10.16 10.16 0 0 0-4.27 2.51 9.76 9.76 0 0 0-2.82 7.84 9.25 9.25 0 0 0 11.17 8.35 11.3 11.3 0 0 0 2.76-1.13 8.18 8.18 0 0 0 3.58-3.89 8.41 8.41 0 0 0-2.7-10.61 8.38 8.38 0 0 0-5.08-1.63v-1.83a.8.8 0 0 1-.19 0 10.3 10.3 0 0 0-2.45.39" style="fill-rule:evenodd;fill:url(#q)"/>
  <path d="M145.87 144.09s.09-1.25.06-1.83a5 5 0 0 1 4.77 4.52c.27 3.08-2.57 5.68-5.46 4.77A5.3 5.3 0 0 1 143 150c-1.6-2.18-.33-5.82 2.69-5.89Z" style="fill-rule:evenodd;fill:url(#r)"/>
</svg>
