<?xml version="1.0" encoding="utf-8"?>
<!-- Generator: Adobe Illustrator 26.1.0, SVG Export Plug-In . SVG Version: 6.00 Build 0)  -->
<svg version="1.1" id="Layer_1" xmlns="http://www.w3.org/2000/svg" xmlns:xlink="http://www.w3.org/1999/xlink" x="0px" y="0px"
	 viewBox="0 0 177 178" style="enable-background:new 0 0 177 178;" xml:space="preserve">
<style type="text/css">
	.st0{fill-rule:evenodd;clip-rule:evenodd;fill:url(#Shape_00000160911452849526356210000002263646313201193866_);}
	.st1{fill-rule:evenodd;clip-rule:evenodd;fill:url(#Shape_00000012447158764841032410000007337906734457787794_);}
	.st2{fill-rule:evenodd;clip-rule:evenodd;fill:url(#Shape_00000093177371306917298070000002613057909370233741_);}
	.st3{fill-rule:evenodd;clip-rule:evenodd;fill:url(#Shape_00000010306789197911780050000001589392011358124957_);}
	.st4{fill-rule:evenodd;clip-rule:evenodd;fill:url(#Shape_00000139980846718911839800000005970279100265219200_);}
	.st5{fill-rule:evenodd;clip-rule:evenodd;fill:url(#Shape_00000162323236865602321150000000194833494094996669_);}
	.st6{fill-rule:evenodd;clip-rule:evenodd;fill:url(#Shape_00000054231511578651157350000007697300594930319756_);}
	.st7{fill-rule:evenodd;clip-rule:evenodd;fill:url(#Shape_00000049205451416232176970000013121553387471370117_);}
	.st8{fill-rule:evenodd;clip-rule:evenodd;fill:url(#Shape_00000057855477025581743100000000551979439414286224_);}
	.st9{fill-rule:evenodd;clip-rule:evenodd;fill:url(#Shape_00000083780420087851696450000016075770018060755624_);}
	.st10{fill-rule:evenodd;clip-rule:evenodd;fill:url(#Shape_00000060010097717702130690000006051553589980791218_);}
	.st11{fill-rule:evenodd;clip-rule:evenodd;fill:url(#Shape_00000009579472237057579630000000209860911102707623_);}
	.st12{fill-rule:evenodd;clip-rule:evenodd;fill:url(#Shape_00000157270803406259095070000004034228159440708025_);}
	.st13{fill-rule:evenodd;clip-rule:evenodd;fill:url(#Shape_00000165949498031669377240000018296163518185210266_);}
	.st14{fill-rule:evenodd;clip-rule:evenodd;fill:url(#Shape_00000093154398817195876260000013028184594344091536_);}
	.st15{fill-rule:evenodd;clip-rule:evenodd;fill:url(#Shape_00000137116011696687494100000009412019909360877194_);}
	.st16{fill-rule:evenodd;clip-rule:evenodd;fill:url(#Shape_00000091010539588231944160000005894605329125573045_);}
	.st17{fill-rule:evenodd;clip-rule:evenodd;fill:url(#Path_00000038400167906375791580000002662174502090533564_);}
</style>
<g id="Page-1">
	<g id="Tein-Soluciones--I" transform="translate(-117, -259)">
		<g id="Dynamic-user---Option-I" transform="translate(117, 198.1407)">
			<g id="Usuario-Dinámico" transform="translate(0, 60.8593)">
				<g id="Asset-5" transform="translate(88.5, 89) rotate(-360) translate(-88.5, -89)translate(0, 0)">
					
						<linearGradient id="Shape_00000003798546812884486550000008171623570094901382_" gradientUnits="userSpaceOnUse" x1="-865.5861" y1="627.4617" x2="-865.572" y2="626.4758" gradientTransform="matrix(177 0 0 -178 153296 111690)">
						<stop  offset="0.14" style="stop-color:#CCD2D9"/>
						<stop  offset="0.38" style="stop-color:#F7F9FA"/>
						<stop  offset="0.52" style="stop-color:#212529"/>
						<stop  offset="0.64" style="stop-color:#DFE2E6"/>
						<stop  offset="0.8" style="stop-color:#495057"/>
						<stop  offset="0.94" style="stop-color:#DFE2E6"/>
					</linearGradient>
					
						<path id="Shape" style="fill-rule:evenodd;clip-rule:evenodd;fill:url(#Shape_00000003798546812884486550000008171623570094901382_);" d="
						M88.2,0c14.4,0.1,26.2,3.4,36.4,7.9s18.8,10.7,26.2,18.1c7.4,7.4,13.5,15.9,18.2,26.2c2.3,5.1,4.3,10.5,5.7,16.5
						c1.4,6,2.2,12.6,2.4,19.7c0.1,3.6-0.2,7.2-0.6,10.5c-1.1,10-3.7,18.6-7,26.3c-2.2,5.1-4.9,9.9-7.9,14.3
						c-9,13.1-20.9,23.4-35.9,30.5c-3.7,1.7-7.8,3.3-12.1,4.6c-4.2,1.3-8.8,2.3-13.7,2.9c-6.3,0.8-14.1,0.9-20.8,0.2
						c-10-1.1-18.4-3.7-26.2-7c-2.6-1.1-5-2.4-7.4-3.7c-11.8-6.6-21.6-15.5-29.2-26.2c-6-8.6-11-18.6-13.8-30.5
						C1,104,0.2,97.5,0,90.3c-0.1-7.2,0.8-14,2.1-20.1c1.4-6.1,3.2-11.6,5.5-16.7c4.6-10.3,10.6-19,18-26.3
						C33,19.8,41.6,13.6,51.7,9c10.1-4.6,22-7.8,36.4-7.9c0-0.3,0-0.6,0-1C88.1,0.1,88.1,0,88.2,0L88.2,0z M88.1,2.3H88
						c-1.3,0-2.5,0.1-3.7,0.1c-6,0.3-11.5,1.1-16.5,2.3C50.5,9,37.3,17.3,26.4,28.2c-3.6,3.6-6.9,7.5-9.8,11.8
						C9.4,50.6,3.8,63.2,1.9,79.3C1.6,82.6,1.3,86,1.4,89.5c0.1,3.6,0.2,7,0.6,10.2c0.8,6.4,2.2,12.2,4,17.6
						c0.9,2.7,1.9,5.3,3.1,7.8c6.8,14.8,16.6,26.6,29.3,35.5c2.1,1.5,4.3,2.9,6.6,4.2c4.6,2.6,9.6,4.8,14.9,6.7
						c2.7,1,5.5,1.7,8.4,2.4c5.8,1.4,12.3,2.2,19.3,2.2c14,0,25.6-3.2,35.6-7.6c4.9-2.2,9.6-4.8,13.8-7.8c4.3-3,8.2-6.2,11.8-9.8
						c7.2-7.2,13.2-15.6,17.7-25.4c2.3-5,4.1-10.2,5.5-16.1c2-8.4,3.1-19.6,1.7-29.5c-0.4-3.2-0.9-6.3-1.6-9.3
						c-2.6-11.8-7.3-21.6-13.2-30.1c-2.9-4.2-6.2-8.2-9.8-11.8c-8-8.1-17.8-14.7-29.3-19.3c-9-3.6-19.3-5.9-31.7-6
						C88.1,3.1,88.2,2.6,88.1,2.3z"/>
					
						<linearGradient id="Shape_00000109707930508868615010000014721490552639040130_" gradientUnits="userSpaceOnUse" x1="-865.2919" y1="627.3409" x2="-865.2769" y2="626.2956" gradientTransform="matrix(167 0 0 -168 144591 105396)">
						<stop  offset="0.14" style="stop-color:#CCD2D9"/>
						<stop  offset="0.38" style="stop-color:#F7F9FA"/>
						<stop  offset="0.52" style="stop-color:#212529"/>
						<stop  offset="0.64" style="stop-color:#DFE2E6"/>
						<stop  offset="0.8" style="stop-color:#495057"/>
						<stop  offset="0.94" style="stop-color:#DFE2E6"/>
					</linearGradient>
					
						<path id="Shape_00000097500840861086783670000002691537338814220166_" style="fill-rule:evenodd;clip-rule:evenodd;fill:url(#Shape_00000109707930508868615010000014721490552639040130_);" d="
						M88.2,6c10.3,0,19.1,1.9,26.9,4.4c2.6,0.9,5.1,1.9,7.5,3c4.8,2.2,9.2,4.7,13.4,7.5c4.1,2.8,7.9,6,11.4,9.5
						c6.9,7,12.7,15,17.2,24.7c2.2,4.7,4,10,5.3,15.6c1.3,5.7,2.3,11.9,2.3,18.6c0,13.8-2.8,24.9-7.1,34.7
						c-2.1,4.8-4.6,9.3-7.5,13.4c-7,10.3-16,18.9-27,25.2c-5.5,3.2-11.5,5.9-18.2,7.9c-4,1.2-8.3,2.1-12.9,2.7
						c-6,0.8-13.2,0.9-19.6,0.2c-2.7-0.3-5.4-0.8-7.9-1.3c-3.2-0.6-6.3-1.5-9.3-2.5c-2.6-0.8-5.1-1.9-7.5-2.9
						c-9.7-4.2-18-10-24.9-16.9c-10.5-10.4-18.5-23.3-22.7-40C5.9,104.4,5.3,98.2,5,91.4c-0.1-1.7,0-3.5,0.1-5.1
						c0.2-4.9,0.9-9.6,1.9-13.8c2.5-11.4,7-21,12.6-29.2c1.4-2.1,2.9-4.1,4.5-6c7.8-9.4,17.7-17.3,29.5-22.7c4.8-2.2,9.9-4,15.6-5.3
						C75,8,81.2,7.1,88.2,7.1v-1C88.2,6.1,88.1,6,88.2,6L88.2,6z M88.2,8.2c-1.2,0-2.5,0-3.7,0.1c-12.1,0.6-21.9,3.5-30.6,7.5
						c-9.2,4.2-17.1,9.9-23.9,16.8c-6.8,6.8-12.2,14.8-16.5,24.2c-2.1,4.7-3.8,9.8-5.1,15.3c-1.3,5.6-2,11.7-2,18.4
						c0,10,1.8,18.6,4.4,26.2c1.7,5.1,3.9,9.7,6.3,14.1c3.7,6.5,8.1,12.3,13.2,17.4c3.4,3.4,7.1,6.5,11,9.3c4,2.8,8.3,5.3,12.9,7.4
						c9.4,4.3,20.2,7.1,33.4,7.3c5,0.1,9.8-0.5,14-1.2c7.3-1.2,13.7-3.4,19.5-5.9c4.7-2.1,9-4.5,13-7.3c12-8.4,21.5-19.2,27.8-33.2
						c3.2-7,5.6-14.9,6.7-23.9c0.7-6,0.8-12.9,0.1-19.1c-1-9.1-3.4-17.1-6.5-24c-4.3-9.5-9.8-17.3-16.6-24.2
						c-6.8-6.8-14.7-12.4-24-16.7c-9.3-4.3-20.2-7.1-33.4-7.2C88.2,9.1,88.2,8.5,88.2,8.2L88.2,8.2z"/>
					
						<linearGradient id="Shape_00000023991247364013931990000012177680784639433359_" gradientUnits="userSpaceOnUse" x1="-864.9601" y1="627.2047" x2="-864.9443" y2="626.0923" gradientTransform="matrix(157 0 0 -158 135886 99100)">
						<stop  offset="0.14" style="stop-color:#CCD2D9"/>
						<stop  offset="0.38" style="stop-color:#F7F9FA"/>
						<stop  offset="0.52" style="stop-color:#212529"/>
						<stop  offset="0.64" style="stop-color:#DFE2E6"/>
						<stop  offset="0.8" style="stop-color:#495057"/>
						<stop  offset="0.94" style="stop-color:#DFE2E6"/>
					</linearGradient>
					
						<path id="Shape_00000021116317230328674680000002634543039796451751_" style="fill-rule:evenodd;clip-rule:evenodd;fill:url(#Shape_00000023991247364013931990000012177680784639433359_);" d="
						M88.2,10c6.4,0,12.2,0.9,17.6,2.1c5.3,1.2,10.3,2.9,14.7,4.9c13.4,6.2,24.1,15.2,32.2,26.7c2.7,3.8,5,8,7.1,12.5
						c2.1,4.5,3.8,9.3,5,14.7c1.2,5.4,2.2,11.2,2.2,17.5c0,13.1-2.7,23.4-6.7,32.7c-0.5,1.1-1.1,2.2-1.6,3.3
						c-0.5,1.1-1.1,2.2-1.7,3.2c-1.2,2.1-2.4,4.1-3.7,6.1c-1.3,2-2.8,3.8-4.2,5.6c-1.5,1.8-3,3.5-4.6,5.2
						c-8.2,8.2-17.8,14.8-30,19.2c-2.4,0.9-4.9,1.7-7.6,2.2c-5.3,1.2-11.1,2.2-17.4,2.2c-12.8,0-23.5-2.7-32.6-6.7
						c-4.5-2-8.8-4.3-12.6-7c-5.8-3.9-11-8.7-15.5-13.9c-1.5-1.7-2.9-3.6-4.3-5.6c-5.4-7.6-9.7-16.5-12.3-27.1
						c-1.3-5.3-2.2-11.1-2.2-17.5c0-13,2.7-23.5,6.7-32.6c3.1-6.9,6.9-12.8,11.3-18.2c7.3-8.9,16.7-16.2,27.8-21.3
						c8.9-4.1,19.2-6.9,32-7c0.1,0,0.3,0,0.3,0s0-0.7,0-1C88.1,10.1,88.1,10,88.2,10L88.2,10z M69.3,14.7
						C54.1,18.5,42.6,26,33.1,35.6c-3.2,3.2-6,6.7-8.5,10.5c-6.4,9.4-11.2,20.7-12.8,35c-0.6,5.9-0.5,12.4,0.2,18
						c1.9,14,6.7,25,13.3,34.4c5.2,7.6,11.6,13.8,19.1,19c3.7,2.6,7.8,5,12.2,6.9c2.2,0.9,4.4,2,6.8,2.7c2.4,0.8,4.8,1.5,7.4,2.1
						c5.1,1.2,10.9,1.9,17.1,1.9c12.3,0,22.5-2.9,31.3-6.8c8.8-3.9,16.2-9.1,22.6-15.5c6.3-6.3,11.7-13.7,15.6-22.5
						c3.9-8.7,6.8-19.1,6.8-31.3c0-15.4-4.2-27.7-9.8-37.9c-1.1-2-2.4-4-3.7-5.9c-2.6-3.8-5.5-7.2-8.7-10.4
						c-6.3-6.4-13.7-11.6-22.5-15.6c-4.3-2-9.1-3.6-14.2-4.8c-5.2-1.2-11.1-2-17.3-1.9c0-0.4,0-1.1,0-1.1s-0.2,0-0.2,0
						C80.9,12.4,74.9,13.2,69.3,14.7L69.3,14.7z"/>
					
						<linearGradient id="Shape_00000127758015745161762000000002208908796566167223_" gradientUnits="userSpaceOnUse" x1="-864.5834" y1="627.0294" x2="-864.5662" y2="625.8407" gradientTransform="matrix(147 0 0 -147 127181 92177)">
						<stop  offset="0.14" style="stop-color:#CCD2D9"/>
						<stop  offset="0.38" style="stop-color:#F7F9FA"/>
						<stop  offset="0.52" style="stop-color:#212529"/>
						<stop  offset="0.64" style="stop-color:#DFE2E6"/>
						<stop  offset="0.8" style="stop-color:#495057"/>
						<stop  offset="0.94" style="stop-color:#DFE2E6"/>
					</linearGradient>
					
						<path id="Shape_00000150092354528894046860000005745867542962128048_" style="fill-rule:evenodd;clip-rule:evenodd;fill:url(#Shape_00000127758015745161762000000002208908796566167223_);" d="
						M88.2,17c12,0.1,21.8,2.7,30.2,6.5c12.6,5.6,22.6,14.2,30.2,24.8c5,7.1,9,15.5,11.4,25.2c0.6,2.5,1.1,5,1.4,7.7
						c0.7,5.3,0.7,11.6,0.2,17.2c-1,9.6-3.8,17.7-7.3,24.8c-6,12.2-14.9,21.9-26,29c-5.6,3.6-11.7,6.6-18.8,8.7
						c-4.7,1.4-9.9,2.3-15.6,2.8c-7.2,0.6-14.9,0-21-1.4c-2.5-0.6-4.9-1.2-7.2-2c-6.8-2.2-13.1-5.4-18.5-9c-2.8-1.9-5.3-3.8-7.8-6
						c-7.2-6.4-13.2-14.4-17.6-23.6c-3-6.3-5.1-13.1-6.2-21.2c-0.7-5.3-0.8-11.7-0.2-17.2c0.9-8.2,3-15.4,5.8-21.7
						C24.9,53,30.1,46,36,39.8c3-3.1,6.4-5.8,10-8.4c7.1-5.1,15.4-9.1,25.3-11.4c5.1-1.2,10.8-2,16.9-1.9
						C88.1,17.8,88.1,17.5,88.2,17C88.1,17.1,88.1,17,88.2,17L88.2,17z M88.1,19.3c-1.1,0-2.2,0-3.3,0.1C74.2,19.8,65.6,22.5,58,26
						c-8,3.7-15,8.6-21,14.7c-5.9,6-10.8,12.7-14.5,21.1c-2.7,6.1-4.8,13-5.7,20.9c-0.6,5.3-0.6,11.5,0,16.7c0.9,8,3,14.6,5.8,20.9
						c1.8,4.1,4.1,7.8,6.5,11.3c3.6,5.3,7.9,9.9,12.7,13.9c6.4,5.4,14,9.9,22.7,12.9c6.6,2.2,14.2,3.8,22.9,3.8
						c11.6,0,21.2-2.6,29.4-6.2c4.1-1.8,7.9-4,11.4-6.4c3.6-2.4,6.8-5.1,9.8-8c7.4-7.4,13.4-16.3,17.2-27.1c0.8-2.2,1.4-4.5,2-6.9
						c1.6-7,2.5-16,1.5-24.3c-0.3-2.7-0.8-5.2-1.3-7.6c-1.1-4.9-2.6-9.3-4.4-13.3c-3.8-8.3-8.5-15.1-14.5-21
						c-7.4-7.3-16.5-13.4-27.4-17.1c-6.7-2.3-14.2-3.7-23-3.7C88.2,20.1,88.2,19.7,88.1,19.3L88.1,19.3z"/>
					
						<linearGradient id="Shape_00000044137931482270755160000016562119993351063938_" gradientUnits="userSpaceOnUse" x1="-864.1515" y1="626.8498" x2="-864.133" y2="625.573" gradientTransform="matrix(137 0 0 -137 118476 85881)">
						<stop  offset="0.14" style="stop-color:#CCD2D9"/>
						<stop  offset="0.38" style="stop-color:#F7F9FA"/>
						<stop  offset="0.52" style="stop-color:#212529"/>
						<stop  offset="0.64" style="stop-color:#DFE2E6"/>
						<stop  offset="0.8" style="stop-color:#495057"/>
						<stop  offset="0.94" style="stop-color:#DFE2E6"/>
					</linearGradient>
					
						<path id="Shape_00000026877482911960781600000005107097358908572069_" style="fill-rule:evenodd;clip-rule:evenodd;fill:url(#Shape_00000044137931482270755160000016562119993351063938_);" d="
						M88.2,21c11.1,0.1,20.4,2.5,28.2,6.1c7.9,3.6,14.5,8.2,20.3,13.9c5.7,5.7,10.5,12.2,14.1,20.1c2.7,5.8,4.7,12.3,5.7,19.9
						c0.3,2.5,0.6,5.2,0.6,8c0,11.3-2.3,20.3-5.8,28.3c-1.8,4-3.8,7.6-6.1,11s-4.9,6.4-7.7,9.4c-2.7,2.9-5.9,5.5-9.2,7.8
						c-5.1,3.6-10.5,6.5-16.9,8.8c-4.2,1.5-8.8,2.5-13.8,3.3c-5,0.7-10.9,0.7-16.2,0.2c-2.5-0.2-5.1-0.6-7.4-1.2
						c-4.6-1.1-8.9-2.5-12.9-4.2c-2-0.9-3.9-1.8-5.7-2.8c-5.5-3-10.4-6.7-14.7-10.9c-5.8-5.6-10.6-12.2-14.2-20
						c-3.7-7.9-6-16.8-6.4-27.8c-0.1-2.8,0.2-5.5,0.4-8.1c0.8-7.6,2.8-14.3,5.4-20.2c3.5-7.9,8.2-14.6,13.9-20.3
						c5.7-5.7,12.3-10.5,20.2-14c7.8-3.5,17-6,28.1-6.1c0.1,0,0.1,0,0.1-0.1v-0.9C88.2,21.1,88.1,21,88.2,21L88.2,21z M85,23.3
						c-9.8,0.5-17.9,2.9-24.9,6.1c-9.4,4.3-17.2,10.5-23.4,17.9c-3.8,4.5-7,9.5-9.5,15.3c-3.4,7.6-5.8,16.5-5.8,27.3
						c0,10.7,2.5,19.5,5.9,27.2c0.8,1.9,1.8,3.7,2.8,5.5c1,1.8,2.1,3.5,3.2,5.1C40,137.4,49,145,60.3,150.2
						c5.8,2.6,12.1,4.6,19.4,5.5c3.6,0.4,7.7,0.7,11.7,0.4c4-0.3,7.5-0.8,10.9-1.5c4.5-1,8.6-2.5,12.4-4.1c1-0.4,1.9-0.8,2.8-1.3
						c0.9-0.5,1.8-0.9,2.7-1.4c5.3-2.9,10.1-6.6,14.2-10.6c1.4-1.4,2.7-2.8,4-4.3c1.3-1.5,2.6-3,3.6-4.6c2.2-3.3,4.4-6.7,6-10.5
						c1.7-3.9,3.2-7.8,4.2-12.3c0.5-2.3,1-4.5,1.3-7c0.4-3.6,0.7-7.8,0.4-11.7c-0.1-1.3-0.2-2.6-0.3-3.8c-0.8-7.4-2.8-13.9-5.3-19.5
						c-3.4-7.7-8-14.1-13.5-19.6c-5.5-5.5-12-10.1-19.6-13.5c-7.6-3.4-16.5-5.8-27.3-5.8c0-0.4-0.1-1.2-0.1-1.2s-0.1,0-0.2,0
						C86.9,23.3,86,23.3,85,23.3L85,23.3z"/>
					
						<linearGradient id="Shape_00000168814802833312681960000009600435294407625645_" gradientUnits="userSpaceOnUse" x1="-863.5971" y1="626.6415" x2="-863.5775" y2="625.2637" gradientTransform="matrix(126 0 0 -127 108901 79587)">
						<stop  offset="0.14" style="stop-color:#CCD2D9"/>
						<stop  offset="0.38" style="stop-color:#F7F9FA"/>
						<stop  offset="0.52" style="stop-color:#212529"/>
						<stop  offset="0.64" style="stop-color:#DFE2E6"/>
						<stop  offset="0.8" style="stop-color:#495057"/>
						<stop  offset="0.94" style="stop-color:#DFE2E6"/>
					</linearGradient>
					
						<path id="Shape_00000139973907033610450450000001754378550947489668_" style="fill-rule:evenodd;clip-rule:evenodd;fill:url(#Shape_00000168814802833312681960000009600435294407625645_);" d="
						M88.7,27c15.3,0.3,26.6,4.9,36,11.3c9.3,6.4,16.6,15.1,21.6,25.8c2.5,5.3,4.4,11.6,5.3,18.5c0.7,5.4,0.7,11.4,0,16.7
						c-0.7,5.1-1.9,9.8-3.6,14.1c-0.6,1.4-1.1,2.8-1.8,4.2c-2,4-4.1,7.7-6.7,11.1c-1.7,2.3-3.5,4.4-5.4,6.4
						c-4.9,5-10.6,9.2-17.2,12.5c-6.5,3.2-14,5.6-23.1,6.3c-6,0.5-12.6-0.1-18-1.3c-1.3-0.3-2.7-0.6-3.9-1c-1.3-0.4-2.5-0.7-3.7-1.2
						c-4.8-1.8-9.2-3.9-13.2-6.5c-9.9-6.4-17.7-15.4-22.9-26.4c-3.1-6.7-5.4-14.5-5.8-23.8c-0.1-3.2,0-6.3,0.3-9.4
						c1.3-11.8,5.3-21,10.7-28.8c5.3-7.8,12.2-14.2,20.5-19c8.4-4.8,18.2-8.2,31.1-8.3v-1C88.6,27.1,88.6,27,88.7,27L88.7,27z
						 M83.2,29.5c-3.5,0.3-6.7,0.9-9.7,1.7c-8,2-14.9,5.4-20.7,9.7c-5.8,4.3-10.9,9.5-15,15.4c-2,2.9-3.8,6.2-5.4,9.9
						c-1.5,3.5-2.8,7.3-3.7,11.5c-0.9,4.2-1.6,8.8-1.4,13.8c0.2,5,0.7,9.4,1.7,13.5c1,4.1,2.3,7.8,3.9,11.3c1.6,3.5,3.5,6.7,5.6,9.7
						c4.2,6.1,9.2,10.9,15.2,15.2c2.9,2.1,6.2,4,9.7,5.5c1.8,0.7,3.5,1.6,5.4,2.2c3.8,1.2,7.9,2.2,12.4,2.8c4.4,0.5,9.7,0.6,14.2,0
						c2.3-0.3,4.4-0.6,6.5-1.1c1-0.2,2-0.6,2.9-0.8c3-0.9,5.8-1.9,8.4-3c8.8-3.9,15.9-9.4,21.7-16.3c1.2-1.4,2.2-2.9,3.3-4.3
						c3.2-4.5,5.7-9.5,7.7-15.1c2-5.6,3.3-12.2,3.3-19.5c0-12.4-3.3-22.2-7.8-30.2c-4.5-8.1-10.7-14.8-18.1-19.9
						c-3-2.1-6.2-3.9-9.7-5.5c-6.9-3.2-15.1-5.3-25-5.4c0-0.3-0.1-1.1-0.1-1.1s-0.2,0-0.2,0C86.6,29.3,84.9,29.4,83.2,29.5
						L83.2,29.5z"/>
					
						<linearGradient id="Shape_00000003106047228709346540000010213342682517315243_" gradientUnits="userSpaceOnUse" x1="-863.0018" y1="626.4304" x2="-862.9808" y2="624.933" gradientTransform="matrix(116 0 0 -118 100195 73921)">
						<stop  offset="0.14" style="stop-color:#CCD2D9"/>
						<stop  offset="0.38" style="stop-color:#F7F9FA"/>
						<stop  offset="0.52" style="stop-color:#212529"/>
						<stop  offset="0.64" style="stop-color:#DFE2E6"/>
						<stop  offset="0.8" style="stop-color:#495057"/>
						<stop  offset="0.94" style="stop-color:#DFE2E6"/>
					</linearGradient>
					
						<path id="Shape_00000145051152602788555750000005100446896339972239_" style="fill-rule:evenodd;clip-rule:evenodd;fill:url(#Shape_00000003106047228709346540000010213342682517315243_);" d="
						M87.7,31c9.5,0.1,17.2,2.2,23.9,5.2c6.7,3,12.2,7.1,17.2,11.9c2.4,2.4,4.7,5.1,6.7,8c5,7.2,8.7,15.8,10.1,26.5
						c0.9,6.5,0.4,14.3-0.9,20.1c-0.9,4.1-2.1,7.7-3.6,11.1c-0.3,0.8-0.8,1.7-1.2,2.5c-0.4,0.8-0.8,1.7-1.2,2.4
						c-0.9,1.5-1.8,3.1-2.8,4.6c-1,1.5-2.1,2.8-3.1,4.2c-5.4,6.8-12.2,12.1-20.4,16.1c-1.6,0.8-3.4,1.5-5.1,2.1
						c-3.7,1.3-7.3,2.2-11.7,2.8c-4.1,0.6-8.9,0.6-13.4,0.2c-4.4-0.5-8.3-1.3-12-2.5c-5.5-1.8-10.3-4.3-14.6-7.2
						c-5.8-3.9-10.7-8.8-14.7-14.5c-4.1-5.7-7.2-12.3-9.2-20.1c-1.4-5.7-2.1-13-1.4-20c0.7-6.6,2.4-12.3,4.6-17.4
						c3-6.9,6.9-12.6,11.7-17.5c4.9-4.9,10.5-9,17.1-12.1c6.6-3.1,14.4-5.2,23.8-5.2h0.1c0-0.3,0-0.7,0-1C87.6,31.1,87.6,31,87.7,31
						L87.7,31z M80.2,33.8c-2,0.3-4,0.7-5.9,1.1c-11.2,2.7-19.7,8.3-26.7,15.3c-4.6,4.7-8.4,10.2-11.3,16.8
						c-1.4,3.2-2.6,6.7-3.5,10.6c-1.1,4.8-1.6,10.4-1.3,16.2c0.1,1.1,0.2,2.2,0.3,3.2c0.7,6.3,2.4,11.7,4.5,16.6
						c4.3,9.6,10.7,17.4,18.9,23.2c2.7,1.9,5.7,3.8,8.8,5.2c6.5,2.8,13.9,5.1,22.9,5.1c4.5,0,8.7-0.5,12.5-1.4
						c3.8-0.8,7.3-2.1,10.5-3.5c8.1-3.6,14.6-8.8,20-15.1c4.3-5,7.8-11.1,10.2-17.9c0.6-1.7,1.1-3.6,1.5-5.5
						c1.3-5.6,2-12.6,1.2-19.2c-1.2-10.6-4.7-18.8-9.5-25.8c-3.8-5.6-8.5-10.3-13.9-14.2c-2.7-2-5.7-3.7-8.9-5.1
						c-6.4-2.8-13.8-5.1-23-5c0-0.3-0.1-1.1-0.1-1.1s-0.1,0-0.2,0C84.9,33.3,82.4,33.5,80.2,33.8L80.2,33.8z"/>
					
						<linearGradient id="Shape_00000147916739233416798510000005359830853422277262_" gradientUnits="userSpaceOnUse" x1="-862.3714" y1="626.1479" x2="-862.348" y2="624.5089" gradientTransform="matrix(107 0 0 -108 92361 67626)">
						<stop  offset="0.14" style="stop-color:#CCD2D9"/>
						<stop  offset="0.38" style="stop-color:#F7F9FA"/>
						<stop  offset="0.52" style="stop-color:#212529"/>
						<stop  offset="0.64" style="stop-color:#DFE2E6"/>
						<stop  offset="0.8" style="stop-color:#495057"/>
						<stop  offset="0.94" style="stop-color:#DFE2E6"/>
					</linearGradient>
					
						<path id="Shape_00000077315367892015928930000010595295269845498529_" style="fill-rule:evenodd;clip-rule:evenodd;fill:url(#Shape_00000147916739233416798510000005359830853422277262_);" d="
						M88.2,36c13.1,0.2,22.6,4.2,30.6,9.6c7.8,5.4,14.2,12.8,18.3,21.9c1.4,3,2.6,6.3,3.4,10c0.8,3.7,1.5,7.7,1.5,11.9
						c0,13.3-3.9,22.9-9.3,31c-3.6,5.4-8,9.8-13.2,13.6c-2.6,1.9-5.3,3.5-8.4,5c-6,2.8-13.2,4.9-21.6,5c-4.3,0.1-8.5-0.4-12.2-1.2
						c-7.3-1.6-13.4-4.5-18.7-8.1c-8-5.4-14.2-12.6-18.5-21.7c-2.9-6.1-4.7-13.2-5-21.8c-0.1-2.2,0.1-4.4,0.3-6.4
						c0.6-6,2.2-11.3,4.2-15.9c2.8-6.3,6.4-11.5,10.8-16c4.5-4.5,9.6-8.3,15.7-11c6.1-2.7,13.3-4.8,22-4.8c0,0,0,0,0,0v-1
						C88.1,36.1,88.1,36,88.2,36L88.2,36z M75.9,39.8c-1.7,0.5-3.4,0.9-5,1.5c-7.9,2.8-14.3,7.1-19.6,12.5
						c-4.2,4.2-7.7,9.3-10.4,15.3S36.4,82,36.4,90.3c0,8.4,1.9,15.3,4.5,21.2c2.6,5.9,6.2,11.1,10.4,15.3
						c6.4,6.5,14.4,11.4,24.6,13.9c2.6,0.6,5.5,1.1,8.4,1.3c2,0.1,4.1,0.1,6.1,0c1,0,2.1-0.1,3-0.2c9.5-1.2,17.1-4.5,23.4-8.7
						c3.9-2.6,7.1-5.6,10.1-9.1c1-1.2,2-2.4,2.8-3.6c1.7-2.6,3.4-5.2,4.7-8.2c1.3-3,2.6-6.1,3.3-9.6c0.4-1.7,0.8-3.6,1-5.4
						c0.4-3.8,0.5-8.1,0.1-12.1c-1.3-11.6-5.7-20.2-11.5-27.1c-2.9-3.5-6.2-6.6-10-9.3c-5.1-3.6-10.8-6.3-17.8-7.9
						c-3.5-0.8-7.3-1.3-11.5-1.3c0-0.3-0.1-1.2-0.1-1.2s-0.2,0-0.2,0C83.5,38.4,79.5,38.8,75.9,39.8L75.9,39.8z"/>
					
						<linearGradient id="Shape_00000146476939186262448790000009648851768299513222_" gradientUnits="userSpaceOnUse" x1="-861.5334" y1="625.8077" x2="-861.5077" y2="623.9978" gradientTransform="matrix(97 0 0 -98 83656 61331)">
						<stop  offset="0.14" style="stop-color:#CCD2D9"/>
						<stop  offset="0.38" style="stop-color:#F7F9FA"/>
						<stop  offset="0.52" style="stop-color:#212529"/>
						<stop  offset="0.64" style="stop-color:#DFE2E6"/>
						<stop  offset="0.8" style="stop-color:#495057"/>
						<stop  offset="0.94" style="stop-color:#DFE2E6"/>
					</linearGradient>
					
						<path id="Shape_00000001625269525790148690000001187100170421837719_" style="fill-rule:evenodd;clip-rule:evenodd;fill:url(#Shape_00000146476939186262448790000009648851768299513222_);" d="
						M88.1,41c7.8,0.1,14.4,1.8,19.9,4.3c5.6,2.6,10.3,5.8,14.4,9.9c4,4,7.5,8.7,10,14.3c1.2,2.8,2.4,5.7,3.1,9
						c0.7,3.3,1.4,6.9,1.4,10.8c0,8.1-1.6,14.6-4.1,20.3c-3.7,8.5-9.2,15.1-16.3,20.2c-2.4,1.7-4.9,3.3-7.6,4.5
						c-5.5,2.6-11.9,4.4-19.6,4.6c-7.9,0.2-14.8-1.7-20.3-4c-5.7-2.5-10.5-5.7-14.5-9.8c-6.1-6-10.9-13.4-13.3-23.2
						c-0.8-3.3-1.4-6.9-1.4-10.8c0-8,1.6-14.5,4.1-20.2c2.5-5.6,5.8-10.5,9.8-14.5c4.1-4.1,8.7-7.5,14.3-10c5.5-2.5,12-4.3,19.8-4.3
						c0,0,0.1,0,0.1,0s0-0.6,0-1C88.1,41.1,88.1,41,88.1,41L88.1,41z M76.4,44.8c-9.2,2.4-16,6.9-21.9,12.8
						c-3.8,3.8-6.8,8.4-9.3,13.9c-1.2,2.7-2.1,5.6-2.8,8.8c-0.7,3.2-1.2,6.8-1.1,10.5c0.2,7.5,1.8,13.5,4.2,18.9
						c3.6,8,9,14.2,15.8,19c2,1.4,4.3,2.8,6.6,3.8c0.3,0.1,0.5,0.3,0.7,0.4c4,1.7,8.4,3.2,13.6,3.8c5.3,0.6,11.1,0.2,15.8-0.8
						c3.1-0.7,5.9-1.7,8.6-2.9c8-3.5,14.2-8.9,19.1-15.6c1.6-2.2,3.1-4.7,4.3-7.3c2.3-5.3,4.2-11.6,4.2-19c0-7.5-1.6-13.8-4-19.2
						c-2.4-5.5-5.5-9.9-9.4-13.8c-3.9-3.9-8.3-7.1-13.7-9.5c-5.3-2.4-11.4-4.1-19-4.1c-0.1-0.3,0-0.8,0-1.1H88
						C83.6,43.4,79.8,43.9,76.4,44.8L76.4,44.8z"/>
					
						<linearGradient id="Shape_00000088113829203245420900000006756467933680336548_" gradientUnits="userSpaceOnUse" x1="-860.5032" y1="625.3321" x2="-860.4738" y2="623.3105" gradientTransform="matrix(87 0 0 -87 74951 54406)">
						<stop  offset="0.14" style="stop-color:#CCD2D9"/>
						<stop  offset="0.38" style="stop-color:#F7F9FA"/>
						<stop  offset="0.52" style="stop-color:#212529"/>
						<stop  offset="0.64" style="stop-color:#DFE2E6"/>
						<stop  offset="0.8" style="stop-color:#495057"/>
						<stop  offset="0.94" style="stop-color:#DFE2E6"/>
					</linearGradient>
					
						<path id="Shape_00000132056608597105936400000013707363081005559216_" style="fill-rule:evenodd;clip-rule:evenodd;fill:url(#Shape_00000088113829203245420900000006756467933680336548_);" d="
						M88.2,46c10.5,0.3,18.5,3.3,24.9,7.8c4.3,3,7.9,6.5,10.9,10.7c3,4.2,5.4,9.1,6.8,14.9c1,4.2,1.6,9.5,1,14.7
						c-0.2,1.6-0.4,3.2-0.7,4.7c-1.3,6-3.5,10.8-6.5,15.2c-2.9,4.3-6.5,7.9-10.7,11c-6.3,4.5-14,7.7-24.4,8.1
						c-4.3,0.1-8.5-0.5-12.1-1.4c-5-1.3-9.3-3.4-13.1-5.9c-6.5-4.3-11.6-10.2-15.1-17.4c-1.2-2.5-2.2-5.1-2.9-8
						c-1.1-4.2-1.6-9.4-1-14.6c0.5-4.9,1.8-9.1,3.4-12.8c2.2-5.1,5.2-9.3,8.8-12.9c3.7-3.6,7.8-6.6,12.8-8.9
						c4.9-2.3,10.7-3.8,17.8-3.8c0,0,0.2,0,0.2,0S88.2,46.4,88.2,46L88.2,46z M82.4,48.7c-4.5,0.6-8.4,1.9-11.9,3.5
						c-4.7,2.2-8.7,5-12.2,8.5c-3.5,3.5-6.2,7.4-8.4,12.2c-1.1,2.3-1.9,4.9-2.6,7.7c-1,4.1-1.3,9.3-0.8,14c0.5,4.7,1.7,8.5,3.3,12.1
						c2.1,4.7,4.9,8.8,8.4,12.2c3.4,3.4,7.4,6.3,12.2,8.5c4.7,2.1,10.3,3.7,16.8,3.7c6.7,0,12.3-1.4,17.1-3.5
						c4.8-2.1,9-4.9,12.4-8.3c1.7-1.7,3.4-3.5,4.8-5.5c2.1-3,3.9-6.4,5.3-10.2c1.8-4.9,2.8-11.3,2.1-17.9c-0.5-4.6-1.8-8.7-3.3-12.1
						c-2.1-4.9-5-8.8-8.4-12.2c-1.7-1.7-3.6-3.2-5.6-4.7c-6.1-4.3-13.6-7.2-23.6-7.4c0-0.2,0-1.1,0-1.1s-0.2,0-0.2,0
						C86,48.3,84.1,48.4,82.4,48.7L82.4,48.7z"/>
					
						<linearGradient id="Shape_00000147189339590787797160000017377107026099618195_" gradientUnits="userSpaceOnUse" x1="-859.2048" y1="624.7936" x2="-859.1716" y2="622.5043" gradientTransform="matrix(77 0 0 -77 66246 48111)">
						<stop  offset="0.14" style="stop-color:#CCD2D9"/>
						<stop  offset="0.38" style="stop-color:#F7F9FA"/>
						<stop  offset="0.52" style="stop-color:#212529"/>
						<stop  offset="0.64" style="stop-color:#DFE2E6"/>
						<stop  offset="0.8" style="stop-color:#495057"/>
						<stop  offset="0.94" style="stop-color:#DFE2E6"/>
					</linearGradient>
					
						<path id="Shape_00000078759965659325345640000016649018455968436101_" style="fill-rule:evenodd;clip-rule:evenodd;fill:url(#Shape_00000147189339590787797160000017377107026099618195_);" d="
						M88.2,51c6.2,0.1,11.5,1.4,15.8,3.4c4.4,2,8.2,4.6,11.4,7.8c3.2,3.2,5.9,6.8,8,11.2c0.5,1,1,2.2,1.4,3.4
						c1.1,3.5,2.2,7.6,2.2,12.1c0,9.4-2.7,16.4-6.6,22.1c-2.6,3.8-5.7,7-9.5,9.7c-1.8,1.3-3.9,2.6-6,3.6c-4.4,2-9.5,3.5-15.3,3.6
						c-6.3,0.1-11.7-1.1-16.2-3.1c-4.5-2-8.4-4.4-11.6-7.6c-6.5-6.4-11.2-14.4-11.8-26.5c-0.1-1.5,0-3.1,0.2-4.6
						c0.8-7.1,3.3-12.8,6.4-17.5c2.6-3.8,5.8-7,9.6-9.6c5.6-3.9,12.5-6.8,21.8-6.9c0,0,0.2,0,0.2,0l0-1C88.1,51.1,88.1,51,88.2,51
						L88.2,51z M79.3,54.4c-7.2,1.8-12.8,5.3-17.3,9.8c-3,3-5.5,6.5-7.4,10.7c-1.9,4.2-3.2,9.1-3.2,14.9c0,8.7,2.8,15.4,6.4,20.7
						c3.7,5.4,8.7,9.5,14.8,12.4c3.6,1.7,7.8,2.9,12.6,3.2c3.7,0.3,7.2-0.1,10.4-0.7c2.5-0.5,4.8-1.4,6.8-2.2c1.1-0.4,2.1-1,3-1.5
						c1-0.5,1.9-1.1,2.8-1.7c2.8-1.8,5.1-3.9,7.2-6.4c0.7-0.8,1.4-1.6,2-2.5c1.3-1.8,2.4-3.7,3.3-5.7c0.9-2.1,1.8-4.3,2.3-6.7
						c0.6-2.5,0.9-5.1,1-8c0.1-1.4-0.1-2.9-0.2-4.3c-0.4-4.1-1.5-7.7-2.8-10.7c-1.8-4.2-4.4-7.7-7.4-10.7c-3-3-6.5-5.5-10.7-7.4
						c-4.1-1.9-9.1-3.1-14.9-3.1c0-0.4,0-1.1,0-1.1s-0.1,0-0.1,0C84.8,53.3,81.9,53.7,79.3,54.4L79.3,54.4z"/>
					
						<linearGradient id="Shape_00000034809952182246838990000014512425722903226787_" gradientUnits="userSpaceOnUse" x1="-857.3217" y1="624.0942" x2="-857.2844" y2="621.4573" gradientTransform="matrix(66 0 0 -67 56670 41816)">
						<stop  offset="0.14" style="stop-color:#CCD2D9"/>
						<stop  offset="0.38" style="stop-color:#F7F9FA"/>
						<stop  offset="0.52" style="stop-color:#212529"/>
						<stop  offset="0.64" style="stop-color:#DFE2E6"/>
						<stop  offset="0.8" style="stop-color:#495057"/>
						<stop  offset="0.94" style="stop-color:#DFE2E6"/>
					</linearGradient>
					
						<path id="Shape_00000104693653988288368950000000006336966768424856_" style="fill-rule:evenodd;clip-rule:evenodd;fill:url(#Shape_00000034809952182246838990000014512425722903226787_);" d="
						M87.7,56c5.3,0.1,9.8,1.2,13.6,2.9c5.7,2.5,10.1,6.4,13.6,11.3c1.1,1.6,2.2,3.3,3,5.2c1.7,3.8,3,8.2,3.1,13.4
						c0.1,5.5-1.1,10-2.7,13.9c-1.6,3.9-3.9,7.3-6.5,10c-2.7,2.8-5.9,5.1-9.6,7c-3.7,1.8-8.1,3-13.2,3.2c-2.7,0.1-5.2-0.2-7.6-0.7
						c-2.3-0.5-4.4-1.2-6.3-2c-5.8-2.6-10.4-6.2-13.9-11c-1.1-1.6-2.2-3.3-3.1-5.2c-1.7-3.7-3.1-8.2-3.2-13.4
						c-0.1-5.4,1-10,2.7-13.9c1.7-3.9,4-7.2,6.7-9.9c2.8-2.8,5.9-5.1,9.7-6.8c3.8-1.7,8.2-2.9,13.5-2.9v-1
						C87.6,56.1,87.6,56,87.7,56L87.7,56z M65,68c-2.5,2.5-4.5,5.6-6.1,9.3c-1.6,3.6-2.7,7.9-2.6,12.9c0.1,4.9,1.2,9,2.8,12.6
						c2.4,5.3,6,9.5,10.5,12.7c1.5,1,3.1,2.1,4.9,2.8c3.5,1.5,7.7,2.8,12.6,2.8c4.9,0,9.1-1.2,12.7-2.7c5.4-2.4,9.5-5.9,12.7-10.4
						c1.1-1.5,2.1-3.1,2.9-4.9c1.6-3.5,2.8-7.7,2.8-12.6c0-10-3.9-16.9-8.9-22c-2.5-2.6-5.6-4.7-9.1-6.3c-3.5-1.6-7.7-2.8-12.6-2.7
						c0-0.4,0-1.1,0-1.1s-0.1,0-0.2,0C77,58.6,70.4,62.5,65,68L65,68z"/>
					
						<linearGradient id="Shape_00000132803406377115035660000017052584699722911150_" gradientUnits="userSpaceOnUse" x1="-854.9683" y1="623.1509" x2="-854.9244" y2="620.0406" gradientTransform="matrix(56 0 0 -57 47965 35521)">
						<stop  offset="0.14" style="stop-color:#CCD2D9"/>
						<stop  offset="0.38" style="stop-color:#F7F9FA"/>
						<stop  offset="0.52" style="stop-color:#212529"/>
						<stop  offset="0.64" style="stop-color:#DFE2E6"/>
						<stop  offset="0.8" style="stop-color:#495057"/>
						<stop  offset="0.94" style="stop-color:#DFE2E6"/>
					</linearGradient>
					
						<path id="Shape_00000011732498519973546290000002083563543150668959_" style="fill-rule:evenodd;clip-rule:evenodd;fill:url(#Shape_00000132803406377115035660000017052584699722911150_);" d="
						M87.7,61c4.5,0.1,8.3,1.1,11.5,2.5c3.2,1.4,6,3.4,8.3,5.7c4.7,4.7,8.1,10.8,8.5,19.7c0.2,4.4-0.9,8.5-2.2,11.8
						c-1.4,3.3-3.3,6.2-5.5,8.5c-3.4,3.6-7.7,6.4-13.2,7.9c-0.9,0.2-1.9,0.4-2.9,0.6c-1,0.1-2.1,0.3-3.2,0.3
						c-4.5,0-8.4-0.8-11.8-2.2c-4.9-2.1-8.8-5.3-11.8-9.3c-3-4.1-5-9-5.3-15.7c-0.2-4.5,0.8-8.5,2.2-11.8c2.1-5,5.3-8.7,9.4-11.7
						c4-2.9,9.1-5.1,15.9-5.1c0-0.3,0-0.7,0-1C87.6,61.1,87.6,61,87.7,61L87.7,61z M68.9,71.2c-3.1,3.2-5.6,7.4-6.9,12.6
						c-0.4,1.8-0.7,3.8-0.7,5.8c0.1,4.1,0.9,7.7,2.3,10.8c1.3,3,3,5.6,5.2,7.8c4.3,4.3,9.9,7.6,18,7.8c4.1,0.1,7.8-0.9,10.8-2.1
						c3.1-1.3,5.7-3.1,7.8-5.2c3.3-3.3,5.8-7.1,7.1-12.3c0.5-1.8,0.6-3.6,0.7-5.7c0.2-4.1-0.7-7.9-2.1-10.8
						c-1.4-3.1-3.1-5.6-5.2-7.8c-4.3-4.4-9.9-7.4-18.2-7.6c0-0.3,0-0.8-0.1-1.1C79.1,63.6,73.3,66.8,68.9,71.2L68.9,71.2z"/>
					
						<linearGradient id="Shape_00000050657267879364289950000015002266262943536800_" gradientUnits="userSpaceOnUse" x1="-851.5928" y1="621.6036" x2="-851.5373" y2="617.8079" gradientTransform="matrix(46 0 0 -46 39260 28597)">
						<stop  offset="0.14" style="stop-color:#CCD2D9"/>
						<stop  offset="0.38" style="stop-color:#F7F9FA"/>
						<stop  offset="0.52" style="stop-color:#212529"/>
						<stop  offset="0.64" style="stop-color:#DFE2E6"/>
						<stop  offset="0.8" style="stop-color:#495057"/>
						<stop  offset="0.94" style="stop-color:#DFE2E6"/>
					</linearGradient>
					
						<path id="Shape_00000031920803684566982070000017378817371540640946_" style="fill-rule:evenodd;clip-rule:evenodd;fill:url(#Shape_00000050657267879364289950000015002266262943536800_);" d="
						M87.7,67c7.4,0.3,12.5,2.8,16.3,6.7c1.9,1.9,3.5,4,4.8,6.7c1.2,2.5,2.2,5.7,2.2,9.1c0.1,7.4-2.6,12.5-6.3,16.5
						c-1.8,1.9-4,3.6-6.6,4.8c-2.6,1.2-5.5,2.2-9,2.3c-3.7,0.1-7.1-0.5-9.8-1.7c-2.7-1.2-5-2.6-7-4.5c-3.9-3.6-6.9-8.5-7.2-15.6
						c-0.2-3.6,0.7-6.9,1.8-9.5c1.2-2.7,2.8-4.9,4.6-6.8c3.8-3.9,8.7-6.5,16-6.8c0,0,0.2,0,0.2,0l0-1C87.6,67.1,87.6,67,87.7,67
						L87.7,67z M78.6,71.3c-4.7,2.2-8.2,5.6-10.3,10.4c-1.1,2.4-1.9,5.2-1.9,8.5c0,6.6,2.6,11.2,5.9,14.7c1.7,1.8,3.7,3.2,6.1,4.3
						c2.4,1.1,5.2,1.8,8.5,1.9c3.3,0.1,6.2-0.7,8.7-1.7c2.5-1,4.6-2.4,6.3-4.1c1.8-1.7,3.2-3.7,4.4-6c1.1-2.3,1.9-5.1,2-8.3
						c0.2-4.9-1.6-8.9-3.5-11.9c-1-1.5-2.3-3-3.7-4.1c-3.4-2.7-7.4-4.7-13.4-4.8c0-0.5-0.1-1.1-0.1-1.1h-0.1
						C84,69.3,81.1,70.1,78.6,71.3L78.6,71.3z"/>
					
						<linearGradient id="Shape_00000096746913068854554570000005794641471142670494_" gradientUnits="userSpaceOnUse" x1="-846.3412" y1="619.413" x2="-846.2698" y2="614.5585" gradientTransform="matrix(36 0 0 -36 30555 22302)">
						<stop  offset="0.14" style="stop-color:#CCD2D9"/>
						<stop  offset="0.38" style="stop-color:#F7F9FA"/>
						<stop  offset="0.52" style="stop-color:#212529"/>
						<stop  offset="0.64" style="stop-color:#DFE2E6"/>
						<stop  offset="0.8" style="stop-color:#495057"/>
						<stop  offset="0.94" style="stop-color:#DFE2E6"/>
					</linearGradient>
					
						<path id="Shape_00000093895270158678709040000007083144095020629931_" style="fill-rule:evenodd;clip-rule:evenodd;fill:url(#Shape_00000096746913068854554570000005794641471142670494_);" d="
						M87.7,72c2.9,0,5.3,0.7,7.4,1.6c2,0.9,3.9,2.1,5.3,3.6c2.9,3,5.3,6.8,5.5,12.1c0.2,2.8-0.5,5.5-1.3,7.5
						c-1.8,4.2-4.6,7.2-8.6,9.3c-2,1-4.4,1.7-7.1,1.9c-2.9,0.2-5.5-0.5-7.7-1.3c-4.3-1.8-7.4-4.5-9.4-8.5c-1-2-1.7-4.3-1.8-7
						c-0.3-5.8,2.1-9.9,5-12.8c2.9-3,6.9-5.1,12.5-5.3c0,0,0.1,0,0.1,0l0-1C87.6,72.1,87.6,72,87.7,72L87.7,72z M75.9,79.2
						c-2.5,2.6-4.6,6.1-4.6,11.1c0,4.9,2,8.4,4.5,11.1c1.2,1.3,2.8,2.4,4.6,3.3c1.8,0.9,4,1.4,6.3,1.5c2.4,0.1,4.7-0.4,6.6-1.2
						c3.8-1.6,6.4-4,8.2-7.5c0.9-1.7,1.5-3.8,1.6-6.2c0.2-5.1-1.9-8.7-4.4-11.2c-2.6-2.7-6.1-4.5-11.2-4.6v-1.1
						C82.3,74.5,78.6,76.3,75.9,79.2L75.9,79.2z"/>
					
						<linearGradient id="Shape_00000170983736139385227090000010154468872140320432_" gradientUnits="userSpaceOnUse" x1="-837.0498" y1="615.5508" x2="-836.95" y2="608.7907" gradientTransform="matrix(26 0 0 -26 21850 16007)">
						<stop  offset="0.14" style="stop-color:#CCD2D9"/>
						<stop  offset="0.38" style="stop-color:#F7F9FA"/>
						<stop  offset="0.52" style="stop-color:#212529"/>
						<stop  offset="0.64" style="stop-color:#DFE2E6"/>
						<stop  offset="0.8" style="stop-color:#495057"/>
						<stop  offset="0.94" style="stop-color:#DFE2E6"/>
					</linearGradient>
					
						<path id="Shape_00000013185517744653020240000001536135653326666402_" style="fill-rule:evenodd;clip-rule:evenodd;fill:url(#Shape_00000170983736139385227090000010154468872140320432_);" d="
						M87.7,77c4.2,0.2,7.1,1.6,9.2,3.8c2.9,2.5,4.9,7.2,3.8,12.3c-0.3,1.5-1,2.8-1.7,3.9c-1.3,2.1-3.6,4.1-6.2,5.1
						c-2.7,1-6.3,1.2-9.3,0c-2.7-1-4.8-2.7-6.4-5c-1.5-2.2-2.5-5.4-1.9-8.9c0.6-3.1,2.1-5.5,4.1-7.2c2-1.7,4.5-3,8.2-3
						c0,0,0.1,0,0.1,0l0-1C87.6,77.1,87.6,77,87.7,77L87.7,77z M79.9,82.3C79,83.1,78.3,84,77.7,85c-0.6,1.1-1.1,2.4-1.2,3.8
						c-0.5,4.6,1.6,8.4,4.4,10.3c0.9,0.7,2.2,1.3,3.4,1.6c1.7,0.4,4.1,0.5,5.7,0c0.2-0.1,1-0.3,1.2-0.4c3.1-1.1,5.5-3.5,6.5-6.7
						c0.9-3,0.4-6.3-1.2-8.6c-1.8-2.7-4.6-4.5-8.9-4.6c0-0.4,0-1.1,0-1.1s-0.2,0-0.2,0C84.1,79.4,81.7,80.7,79.9,82.3L79.9,82.3z"/>
					
						<linearGradient id="Shape_00000067926256550129549080000009024001163029470336_" gradientUnits="userSpaceOnUse" x1="-812.5062" y1="606.8815" x2="-812.3602" y2="595.8032" gradientTransform="matrix(15 0 0 -16 12275 9712)">
						<stop  offset="0.14" style="stop-color:#CCD2D9"/>
						<stop  offset="0.38" style="stop-color:#F7F9FA"/>
						<stop  offset="0.52" style="stop-color:#212529"/>
						<stop  offset="0.64" style="stop-color:#DFE2E6"/>
						<stop  offset="0.8" style="stop-color:#495057"/>
						<stop  offset="0.94" style="stop-color:#DFE2E6"/>
					</linearGradient>
					
						<path id="Shape_00000170961875069197534380000015303737412543121844_" style="fill-rule:evenodd;clip-rule:evenodd;fill:url(#Shape_00000067926256550129549080000009024001163029470336_);" d="
						M88.2,82c1.3,0.1,2.3,0.3,3.2,0.7c2.3,1.1,4.3,3.5,4.6,6.6c0.1,0.9,0,1.6-0.1,2.3c-0.4,2.3-2,4.3-3.7,5.4
						c-1.1,0.7-2.7,1.1-4.3,0.9c-2.4-0.2-4.6-1.7-5.7-3.5c-0.6-1-1.1-2.4-1.1-3.8c0-1.2,0.2-2.4,0.6-3.3c0.9-2.1,2.8-3.8,5.3-4.2
						c0.3-0.1,0.5-0.1,1-0.1c0,0,0.2,0,0.2,0l0-1C88.1,82.1,88.1,82,88.2,82L88.2,82z M86.6,84.5c-1,0.3-1.9,0.9-2.5,1.5
						c-1,1-1.9,2.6-1.7,4.8c0.3,3.3,3.2,5.9,6.6,5.1c0.5-0.1,1.1-0.4,1.6-0.7c1-0.6,1.7-1.3,2.1-2.4c0.2-0.5,0.4-1,0.5-1.7
						c0.2-2.2-0.8-3.9-2.1-4.8c-0.8-0.6-1.8-1-3-1c0-0.2,0-1.1,0-1.1s-0.1,0-0.1,0C87.4,84.3,87,84.4,86.6,84.5L86.6,84.5z"/>
					
						<linearGradient id="Path_00000119082334981575117890000005673870020977789087_" gradientUnits="userSpaceOnUse" x1="-696.4721" y1="569.7037" x2="-696.1271" y2="539.1159" gradientTransform="matrix(5 0 0 -6 3570 3417)">
						<stop  offset="0.14" style="stop-color:#CCD2D9"/>
						<stop  offset="0.38" style="stop-color:#F7F9FA"/>
						<stop  offset="0.52" style="stop-color:#212529"/>
						<stop  offset="0.64" style="stop-color:#DFE2E6"/>
						<stop  offset="0.8" style="stop-color:#495057"/>
						<stop  offset="0.94" style="stop-color:#DFE2E6"/>
					</linearGradient>
					
						<path id="Path" style="fill-rule:evenodd;clip-rule:evenodd;fill:url(#Path_00000119082334981575117890000005673870020977789087_);" d="
						M88.1,88.2c0,0,0.1-0.8,0-1.2c1.5,0.2,2.7,1.2,2.8,2.9c0.2,2-1.5,3.6-3.2,3c-0.5-0.2-1.1-0.6-1.3-1c-0.9-1.4-0.2-3.7,1.6-3.7
						C88,88.2,88.1,88.2,88.1,88.2L88.1,88.2z"/>
				</g>
			</g>
		</g>
	</g>
</g>
</svg>
