<?xml version="1.0" encoding="UTF-8"?>
<svg width="238px" height="95px" viewBox="0 0 238 95" version="1.1" xmlns="http://www.w3.org/2000/svg" xmlns:xlink="http://www.w3.org/1999/xlink">
    <title>tein-white</title>
    <g id="Page-1" stroke="none" stroke-width="1" fill="none" fill-rule="evenodd">
        <g id="Tein-Soluciones--I" transform="translate(-50, -33)" fill="#FFFFFF">
            <g id="Users---Left-panel" transform="translate(1, -13.2401)">
                <g id="tein-white" transform="translate(49, 46.8494)">
                    <path d="M38,91.8806451 C38,92.8836298 37.2405512,93.6988636 36.3034894,93.6988636 L20.6965106,93.6988636 C19.7609799,93.6988636 19,92.8852767 19,91.8806451 L19,75.1444702 C19,74.1414854 19.7609799,73.3295455 20.6965106,73.3295455 L36.3019583,73.3295455 C37.2390201,73.3295455 37.9984689,74.1398385 37.9984689,75.1444702 L37.9984689,91.8806451 L38,91.8806451 Z" id="Path" opacity="0.91"></path>
                    <path d="M37,25.0445477 C37,26.3989117 35.9601947,27.4985795 34.6786873,27.4985795 L13.3229349,27.4985795 C12.0398053,27.4985795 11,26.3989117 11,25.0445477 L11,2.45747366 C11,1.09966783 12.0398053,7.11535114e-15 13.3229349,7.11535114e-15 L34.6786873,7.11535114e-15 C35.9601947,7.11535114e-15 37,1.09966783 37,2.45747366 L37,25.0445477 Z" id="Path"></path>
                    <path d="M55.8000248,43.0035006 C55.8000248,43.2603526 55.6047666,43.4675466 55.3643247,43.4675466 L36.637289,43.4675466 C36.3952334,43.4675466 36.1999752,43.2603526 36.1999752,43.0035006 L36.1999752,23.1933588 C36.1999752,22.9399315 36.3952334,22.7310251 36.637289,22.7310251 L55.3643247,22.7310251 C55.6031529,22.7310251 55.8000248,22.9382191 55.8000248,23.1933588 L55.8000248,43.0035006 Z M59,23.1933588 C59,21.0734733 57.3669315,19.3508523 55.3659384,19.3508523 L36.637289,19.3508523 C34.6314548,19.3508523 33,21.0734733 33,23.1933588 L33,43.0035006 C33,45.1268108 34.6314548,46.8494318 36.637289,46.8494318 L55.3643247,46.8494318 C57.3653178,46.8494318 58.9983863,45.1268108 58.9983863,43.0035006 L58.9983863,23.1933588 L59,23.1933588 Z" id="Shape"></path>
                    <path d="M54.1316569,75.8901972 C54.1316569,75.570325 54.3741728,75.3095596 54.6789563,75.3095596 L37.3210437,75.3095596 C37.6241886,75.3095596 37.8699817,75.570325 37.8699817,75.8901972 L37.8699817,57.5305753 C37.8699817,57.6835577 37.8109914,57.8365401 37.7077582,57.9408462 C37.6061637,58.0503677 37.4668809,58.1112129 37.3210437,58.1112129 L54.6789563,58.1112129 C54.3741728,58.1112129 54.1316569,57.8539244 54.1316569,57.5305753 L54.1316569,75.8901972 L54.1316569,75.8901972 Z M58.9983614,57.5305753 C58.9983614,55.0115817 57.0615113,52.9602273 54.6773177,52.9602273 L37.3210437,52.9602273 C34.9401273,52.9602273 33,55.0115817 33,57.5305753 L33,75.8901972 C33,77.1088408 33.4473435,78.2596854 34.2633768,79.1184727 C35.0810487,79.9842138 36.1674545,80.4588068 37.3210437,80.4588068 L54.6789563,80.4588068 C57.0631499,80.4588068 59,78.4074524 59,75.8884588 L59,57.5305753 L58.9983614,57.5305753 Z" id="Shape"></path>
                    <path d="M57,38.123629 L57,38.8437286 L51.8905089,41.1431591 L49.5446953,46.8494318 L35.1436761,46.8494318 C33.9597282,46.8494318 33,45.7909041 33,44.4879562 L33,22.7345541 C33,21.4278459 33.9580296,20.3693182 35.1436761,20.3693182 L54.8546252,20.3693182 C56.0385731,20.3693182 56.9983014,21.4278459 56.9983014,22.7345541 L56.9983014,38.123629 L57,38.123629 Z" id="Path"></path>
                    <path d="M29,63.3818308 C29,64.9370259 27.840198,66.2002841 26.4114803,66.2002841 L2.59016953,66.2002841 C1.15980203,66.2002841 0,64.9370259 0,63.3818308 L0,37.4462942 C0,35.8910991 1.15980203,34.6278409 2.59016953,34.6278409 L26.4098305,34.6278409 C27.8385482,34.6278409 28.9983502,35.8910991 28.9983502,37.4462942 L28.9983502,63.3818308 L29,63.3818308 Z" id="Path"></path>
                    <path d="M69.3663258,60.5640716 C69.3663258,61.0116311 69.0207226,61.3802094 68.597137,61.3802094 L49.4064076,61.3802094 C48.9810498,61.3802094 48.6336742,61.0135116 48.6336742,60.5640716 L48.6336742,40.2640534 C48.6336742,39.8164939 48.9792774,39.4479156 49.4064076,39.4479156 L68.597137,39.4479156 C69.0189502,39.4479156 69.3663258,39.8146134 69.3663258,40.2640534 L69.3663258,60.5640716 Z M72,40.2640534 C72,38.2801239 70.4740286,36.6647727 68.597137,36.6647727 L49.4064076,36.6647727 C47.529516,36.6647727 46,38.2801239 46,40.2640534 L46,60.5640716 C46,62.5480011 47.529516,64.1633523 49.4064076,64.1633523 L68.597137,64.1633523 C70.4740286,64.1633523 72,62.5480011 72,60.5640716 L72,40.2640534 Z" id="Shape"></path>
                    <path d="M55.9132664,75.6436631 C55.9132664,75.9415157 55.6875812,76.1809288 55.4103616,76.1809288 L36.5878614,76.1809288 C36.3088647,76.1809288 36.0814025,75.9415157 36.0814025,75.6436631 L36.0814025,55.7384392 C36.0814025,55.4443569 36.3088647,55.2011734 36.5878614,55.2011734 L55.4103616,55.2011734 C55.6875812,55.2011734 55.9132664,55.4443569 55.9132664,55.7384392 L55.9132664,75.6436631 Z M58.998223,55.7384392 C58.998223,53.6478157 57.3882168,51.9417614 55.4085845,51.9417614 L36.5878614,51.9417614 C34.6100062,51.9417614 33,53.6459305 33,55.7384392 L33,75.6436631 C33,77.7342866 34.6082291,79.4403409 36.5878614,79.4403409 L55.4103616,79.4403409 C57.3882168,79.4403409 59,77.7361717 59,75.6436631 L59,55.7384392 L58.998223,55.7384392 Z" id="Shape"></path>
                    <path d="M51.2535211,54.0231021 L51.2535211,41.0666746 C51.2535211,40.571832 51.6188096,40.1675094 52.0695139,40.1675094 L69.9341209,40.1675094 C70.3848251,40.1675094 70.7501136,40.571832 70.7501136,41.0666746 L70.7501136,60.7819279 C70.7501136,61.0213029 70.6646979,61.2445856 70.51204,61.4135562 C70.3557474,61.58655 70.1503862,61.67707 69.9341209,61.67707 L52.0695139,61.67707 C51.8532485,61.67707 51.6478873,61.58655 51.4915947,61.4135562 C51.3389368,61.2445856 51.2535211,61.0213029 51.2535211,60.7819279 L51.2535211,58.2956455 L49.0036347,58.2956455 L49.0036347,60.7819279 C49.0036347,61.6810931 49.3234893,62.5339925 49.9014085,63.1736671 C50.4829623,63.8093185 51.2498864,64.1633523 52.0695139,64.1633523 L69.9341209,64.1633523 C70.7537483,64.1633523 71.5243071,63.8093185 72.1022263,63.1736671 C72.6819627,62.5339925 73,61.6810931 73,60.7819279 L73,41.0666746 C73,39.1999513 71.6260791,37.6832386 69.9323035,37.6832386 L52.0676965,37.6832386 C50.3775557,37.6832386 49,39.1999513 49,41.0666746 L49,54.0231021 L51.2535211,54.0231021 Z" id="Path"></path>
                    <path d="M54,41.7571023 L54,44.2523688 C54,45.1229039 53.2597266,45.8309659 52.3449001,45.8309659 L50,45.8309659 L50,41.7571023 L53.1419558,41.7571023 L54,41.7571023 Z" id="Path" fill-rule="nonzero"></path>
                    <path d="M37,73.3295455 L37.6133333,73.3295455 C37.8266667,73.3295455 38,73.5169555 38,73.751218 L38,74.3480114 L37,74.3480114 L37,73.5484465 L37,73.3295455 L37,73.3295455 Z" id="Path" fill-rule="nonzero"></path>
                    <g id="Group" transform="translate(83, 10.1847)" fill-rule="nonzero">
                        <g transform="translate(12.0186, 77.8916)">
                            <polygon id="Path" points="1.54234516 0.686840554 0 0.686840554 0 0.0876072136 3.75103543 0.0876072136 3.75103543 0.686840554 2.20381458 0.686840554 2.20381458 5.53327161 1.54397039 5.53327161 1.54397039 0.686840554"></polygon>
                            <path d="M5.22187038,0.164701561 C5.55179247,0.0893593578 6.02473498,0.0490600396 6.47492424,0.0490600396 C7.173774,0.0490600396 7.62396326,0.189231581 7.93763303,0.494104684 C8.19441969,0.741157027 8.33418964,1.11085947 8.33418964,1.53137409 C8.33418964,2.24624896 7.91487979,2.72633649 7.38180369,2.91732021 L7.38180369,2.94535452 C7.77185937,3.08903035 8.00751801,3.47625423 8.12453471,4.04044469 C8.29030837,4.8008753 8.41057554,5.32651858 8.51459039,5.5367759 L7.83849388,5.5367759 C7.75560705,5.37557862 7.64509128,4.91476468 7.50207086,4.23668485 C7.35254952,3.48326281 7.08276101,3.20291973 6.48955133,3.17838971 L5.87033794,3.17838971 L5.87033794,5.5367759 L5.22024515,5.5367759 L5.22024515,0.164701561 L5.22187038,0.164701561 Z M5.87358841,2.64223356 L6.54318399,2.64223356 C7.24203374,2.64223356 7.68572207,2.2322318 7.68572207,1.60846844 C7.68572207,0.904106444 7.21277957,0.599233341 6.52043074,0.592224764 C6.2035105,0.592224764 5.98085372,0.627267649 5.87358841,0.657054102 L5.87358841,2.64223356 L5.87358841,2.64223356 Z" id="Shape"></path>
                            <path d="M10.9898187,3.81967451 L10.4632435,5.53502375 L9.78714704,5.53502375 L11.5082677,0.0911115021 L12.2981305,0.0911115021 L14.0257521,5.53502375 L13.3269023,5.53502375 L12.7873253,3.81967451 L10.9898187,3.81967451 Z M12.6508058,3.27125335 L12.15511,1.70658852 C12.0413438,1.35090323 11.9682084,1.0250044 11.8918225,0.711370574 L11.8755701,0.711370574 C11.8024347,1.03726941 11.7195479,1.36842468 11.622034,1.6978278 L11.1263382,3.27125335 L12.6508058,3.27125335 L12.6508058,3.27125335 Z" id="Shape"></path>
                            <path d="M15.678613,5.53327161 L15.678613,0.0893593578 L16.3904646,0.0893593578 L18.0156966,2.84373015 C18.3895,3.47975852 18.6820417,4.05446184 18.9242013,4.61339587 L18.9404536,4.602883 C18.88032,3.87749527 18.8640677,3.21693688 18.8640677,2.36889905 L18.8640677,0.0893593578 L19.4800306,0.0893593578 L19.4800306,5.53327161 L18.8201864,5.53327161 L17.2144572,2.77189224 C16.8585314,2.16565032 16.5221084,1.5436391 16.2653217,0.954918628 L16.2425685,0.965431493 C16.2799488,1.6505199 16.2962012,2.30406972 16.2962012,3.20642402 L16.2962012,5.53327161 L15.678613,5.53327161 Z" id="Path"></path>
                            <path d="M21.4400604,4.67472092 C21.7326022,4.86920893 22.1600382,5.0304062 22.6118527,5.0304062 C23.2814482,5.0304062 23.6715039,4.65369518 23.6715039,4.10352188 C23.6715039,3.59715219 23.3984649,3.30629624 22.7158675,3.02244887 C21.8902497,2.7070629 21.3799268,2.24624896 21.3799268,1.48231405 C21.3799268,0.630771938 22.0332701,0 23.0181607,0 C23.5349844,0 23.9136635,0.129658676 24.1363203,0.266325929 L23.9559195,0.84102925 C23.7901459,0.741157027 23.4537228,0.585216187 22.9937822,0.585216187 C22.3046838,0.585216187 22.0413962,1.02675654 22.0413962,1.39996327 C22.0413962,1.90633297 22.3485651,2.1568896 23.0474148,2.44774555 C23.9039121,2.80343083 24.3394743,3.24847548 24.3394743,4.04920541 C24.3394743,4.88848252 23.7625169,5.62263097 22.5647209,5.62263097 C22.0787766,5.62263097 21.5457005,5.4579294 21.275912,5.26694568 L21.4400604,4.67472092 Z" id="Path"></path>
                            <polygon id="Path" points="26.1418565 0.0893593578 28.8689958 0.0893593578 28.8689958 0.681584122 26.796825 0.681584122 26.796825 2.48804487 28.7145988 2.48804487 28.7145988 3.06975676 26.796825 3.06975676 26.796825 5.53327161 26.1434818 5.53327161 26.1434818 0.0893593578"></polygon>
                            <path d="M35.0367512,2.75437079 C35.0367512,4.62566088 33.9803504,5.62263097 32.688291,5.62263097 C31.3490998,5.62263097 30.4097157,4.50651507 30.4097157,2.86125159 C30.4097157,1.13363734 31.4092334,0 32.7614264,0 C34.1444989,0 35.0367512,1.13889378 35.0367512,2.75437079 Z M31.1069403,2.84373015 C31.1069403,4.00715395 31.693649,5.04792765 32.7224209,5.04792765 C33.7609441,5.04792765 34.3444024,4.02467539 34.3444024,2.78941368 C34.3444024,1.70834066 33.8210777,0.574703321 32.7321723,0.574703321 C31.6497677,0.574703321 31.1069403,1.64876776 31.1069403,2.84373015 Z" id="Shape"></path>
                            <path d="M36.7952522,0.164701561 C37.1251743,0.0893593578 37.5981168,0.0490600396 38.0483061,0.0490600396 C38.7471558,0.0490600396 39.1973451,0.189231581 39.5142653,0.494104684 C39.7678015,0.741157027 39.9108219,1.11085947 39.9108219,1.53137409 C39.9108219,2.24624896 39.4915121,2.72633649 38.9551855,2.91732021 L38.9551855,2.94535452 C39.3484917,3.08903035 39.5808999,3.47625423 39.701167,4.04044469 C39.8669407,4.8008753 39.9839574,5.32651858 40.0912227,5.5367759 L39.4151262,5.5367759 C39.3322394,5.37557862 39.2217236,4.91476468 39.0754527,4.23668485 C38.9259314,3.48326281 38.6528924,3.20291973 38.0629332,3.17838971 L37.4469703,3.17838971 L37.4469703,5.5367759 L36.793627,5.5367759 L36.793627,0.164701561 L36.7952522,0.164701561 Z M37.4485955,2.64223356 L38.1149406,2.64223356 C38.8137904,2.64223356 39.2574787,2.2322318 39.2574787,1.60846844 C39.2574787,0.904106444 38.7845362,0.599233341 38.0921874,0.592224764 C37.7785176,0.592224764 37.5526103,0.627267649 37.4485955,0.657054102 L37.4485955,2.64223356 Z" id="Shape"></path>
                            <path d="M46.0135681,3.14159468 C45.9761877,2.38466835 45.9306812,1.47180119 45.9371822,0.790217066 L45.9144289,0.790217066 C45.7405291,1.42974973 45.5308742,2.11834242 45.2757127,2.86125159 L44.3802099,5.49998087 L43.8845142,5.49998087 L43.0653972,2.90855949 C42.8248629,2.1411203 42.6217089,1.44026259 42.4786885,0.790217066 L42.4624362,0.790217066 C42.4494343,1.47180119 42.412054,2.38466835 42.3665475,3.19941544 L42.230028,5.53327161 L41.6075641,5.53327161 L41.9602395,0.0893593578 L42.7956087,0.0893593578 L43.6586069,2.72458434 C43.8682618,3.3956556 44.0421617,3.99138465 44.1689298,4.55557511 L44.191683,4.55557511 C44.3184511,4.00715395 44.4988519,3.40967275 44.7247591,2.72458434 L45.6267629,0.0893593578 L46.4588816,0.0893593578 L46.7758019,5.53327161 L46.1370857,5.53327161 L46.0135681,3.14159468 Z" id="Path"></path>
                            <path d="M49.5110673,3.81967451 L48.9877426,5.53502375 L48.3116461,5.53502375 L50.0327668,0.0911115021 L50.8193791,0.0911115021 L52.5486259,5.53502375 L51.8465257,5.53502375 L51.3069487,3.81967451 L49.5110673,3.81967451 Z M51.1704292,3.27125335 L50.6747334,1.70658852 C50.5609672,1.35090323 50.4878317,1.0250044 50.4114458,0.711370574 L50.4000692,0.711370574 C50.3236833,1.03726941 50.2407965,1.36842468 50.1432825,1.6978278 L49.6475868,3.27125335 L51.1704292,3.27125335 L51.1704292,3.27125335 Z" id="Shape"></path>
                            <path d="M54.1998616,5.53327161 L54.1998616,0.0893593578 L54.9133384,0.0893593578 L56.53532,2.84373015 C56.9091233,3.47975852 57.2049155,4.05446184 57.4438246,4.61339587 L57.460077,4.602883 C57.3999434,3.87749527 57.3836911,3.21693688 57.3836911,2.36889905 L57.3836911,0.0893593578 L58.0029044,0.0893593578 L58.0029044,5.53327161 L57.3398098,5.53327161 L55.7340806,2.77189224 C55.3814052,2.16565032 55.0417318,1.5436391 54.7849451,0.954918628 L54.7654423,0.965431493 C54.7995722,1.6505199 54.8158245,2.30406972 54.8158245,3.20642402 L54.8158245,5.53327161 L54.1998616,5.53327161 Z" id="Path"></path>
                            <path d="M60.0490715,0.164701561 C60.4488786,0.0998722235 60.9218211,0.0490600396 61.4386449,0.0490600396 C62.3812794,0.0490600396 63.0476245,0.289103805 63.4896876,0.730644161 C63.9398769,1.17568881 64.2031645,1.8047086 64.2031645,2.68428502 C64.2031645,3.57087002 63.9496283,4.29976204 63.4766858,4.79912316 C63.0037433,5.30899714 62.2203815,5.58233165 61.2354909,5.58233165 C60.7722998,5.58233165 60.3822441,5.55780163 60.0490715,5.51750231 L60.0490715,0.164701561 L60.0490715,0.164701561 Z M60.70404,4.97608973 C60.8730641,5.00762833 61.110348,5.01638905 61.3671347,5.01638905 C62.7632089,5.01638905 63.5221923,4.1753598 63.5221923,2.7070629 C63.5286932,1.42449329 62.8525967,0.606241918 61.4711495,0.606241918 C61.131476,0.606241918 60.8779398,0.641284803 60.7024148,0.681584122 L60.7024148,4.97608973 L60.70404,4.97608973 Z" id="Shape"></path>
                            <path d="M70.2896583,2.75437079 C70.2896583,4.62566088 69.230007,5.62263097 67.9379476,5.62263097 C66.6020069,5.62263097 65.6626228,4.50651507 65.6626228,2.86125159 C65.6626228,1.13363734 66.6621405,0 68.0143335,0 C69.3974059,0 70.2896583,1.13889378 70.2896583,2.75437079 Z M66.3598473,2.84373015 C66.3598473,4.00715395 66.9465561,5.04792765 67.9753279,5.04792765 C69.0138512,5.04792765 69.5973095,4.02467539 69.5973095,2.78941368 C69.5973095,1.70834066 69.0707343,0.574703321 67.9850793,0.574703321 C66.8994244,0.574703321 66.3598473,1.64876776 66.3598473,2.84373015 Z" id="Shape"></path>
                            <polygon id="Path" points="74.5493913 0.0893593578 75.1994841 0.0893593578 75.1994841 4.94455113 77.3642931 4.94455113 77.3642931 5.53327161 74.5493913 5.53327161"></polygon>
                            <path d="M79.8216439,3.81967451 L79.2983192,5.53502375 L78.6189722,5.53502375 L80.3400929,0.0911115021 L81.1299556,0.0911115021 L82.8575773,5.53502375 L82.1587275,5.53502375 L81.6191505,3.81967451 L79.8216439,3.81967451 Z M81.482631,3.27125335 L80.9869352,1.70658852 C80.8764195,1.35090323 80.8000336,1.0250044 80.7236476,0.711370574 L80.7073953,0.711370574 C80.6342599,1.03726941 80.5513731,1.36842468 80.4538591,1.6978278 L79.9581634,3.27125335 L81.482631,3.27125335 L81.482631,3.27125335 Z" id="Shape"></path>
                            <polygon id="Path" points="89.6299189 2.98039741 87.6650135 2.98039741 87.6650135 4.94455113 89.8558262 4.94455113 89.8558262 5.53327161 87.0084198 5.53327161 87.0084198 0.0893593578 89.7453104 0.0893593578 89.7453104 0.681584122 87.6666387 0.681584122 87.6666387 2.39868551 89.6315442 2.39868551 89.6315442 2.98039741"></polygon>
                            <path d="M94.3853477,5.53327161 L93.7417559,4.32779635 C93.4784683,3.86873455 93.3126946,3.56736574 93.1550471,3.25373191 L93.1387948,3.25373191 C92.9957744,3.56911788 92.852754,3.85997383 92.5894664,4.33830922 L91.9832549,5.53327161 L91.2307725,5.53327161 L92.7763681,2.77890081 L91.290906,0.0893593578 L92.0498894,0.0893593578 L92.719485,1.36842468 C92.9063866,1.72060567 93.0461566,1.99394018 93.1826761,2.28479613 L93.2086798,2.28479613 C93.3517002,1.96240158 93.4784683,1.7135971 93.66537,1.36842468 L94.3577188,0.0893593578 L95.1069508,0.0893593578 L93.5678561,2.74210578 L95.1459563,5.53502375 L94.3853477,5.53502375 L94.3853477,5.53327161 Z" id="Path"></path>
                            <path d="M96.8134443,0.154188696 C97.1271141,0.0998722235 97.539923,0.0473078953 98.0664982,0.0473078953 C98.7100901,0.0473078953 99.1846578,0.212009457 99.4853257,0.502865406 C99.7616152,0.762182758 99.9290141,1.15641522 99.9290141,1.64175918 C99.9290141,2.13411172 99.7924946,2.52133561 99.5357079,2.80167869 C99.192784,3.19941544 98.6272032,3.40091203 97.9901123,3.40091203 C97.7934592,3.40091203 97.6163089,3.39390345 97.4635371,3.35360414 L97.4635371,5.53327161 L96.8134443,5.53327161 L96.8134443,0.154188696 Z M97.4651624,2.77890081 C97.6081828,2.81920013 97.7885835,2.83672158 98.0079899,2.83672158 C98.7946021,2.83672158 99.277296,2.42671982 99.277296,1.67329778 C99.277296,0.954918628 98.8043535,0.606241918 98.0811253,0.606241918 C97.7950845,0.606241918 97.5789286,0.630771938 97.4651624,0.667566967 L97.4651624,2.77890081 Z" id="Shape"></path>
                            <polygon id="Path" points="104.339894 2.98039741 102.371738 2.98039741 102.371738 4.94455113 104.565801 4.94455113 104.565801 5.53327161 101.718394 5.53327161 101.718394 0.0893593578 104.452035 0.0893593578 104.452035 0.681584122 102.373363 0.681584122 102.373363 2.39868551 104.341519 2.39868551 104.341519 2.98039741"></polygon>
                            <path d="M106.321051,0.164701561 C106.654224,0.0893593578 107.127167,0.0490600396 107.577356,0.0490600396 C108.276206,0.0490600396 108.726395,0.189231581 109.040065,0.494104684 C109.293601,0.741157027 109.439872,1.11085947 109.439872,1.53137409 C109.439872,2.24624896 109.017311,2.72633649 108.484235,2.91732021 L108.484235,2.94535452 C108.874291,3.08903035 109.106699,3.47625423 109.226966,4.04044469 C109.39274,4.8008753 109.513007,5.32651858 109.617022,5.5367759 L108.940925,5.5367759 C108.858039,5.37557862 108.747523,4.91476468 108.604502,4.23668485 C108.454981,3.48326281 108.185193,3.20291973 107.588732,3.17838971 L106.97602,3.17838971 L106.97602,5.5367759 L106.319426,5.5367759 L106.319426,0.164701561 L106.321051,0.164701561 Z M106.977645,2.64223356 L107.64399,2.64223356 C108.34284,2.64223356 108.783278,2.2322318 108.783278,1.60846844 C108.783278,0.904106444 108.313586,0.599233341 107.621237,0.592224764 C107.304317,0.592224764 107.07841,0.627267649 106.977645,0.657054102 L106.977645,2.64223356 L106.977645,2.64223356 Z" id="Shape"></path>
                            <polygon id="Path" points="111.926477 0.0893593578 111.926477 5.53327161 111.273133 5.53327161 111.273133 0.0893593578"></polygon>
                            <polygon id="Path" points="116.599019 2.98039741 114.630863 2.98039741 114.630863 4.94455113 116.824926 4.94455113 116.824926 5.53327161 113.977519 5.53327161 113.977519 0.0893593578 116.71116 0.0893593578 116.71116 0.681584122 114.632488 0.681584122 114.632488 2.39868551 116.600644 2.39868551 116.600644 2.98039741"></polygon>
                            <path d="M118.583427,5.53327161 L118.583427,0.0893593578 L119.295278,0.0893593578 L120.91726,2.84373015 C121.294314,3.47975852 121.586856,4.05446184 121.829015,4.61339587 L121.842017,4.602883 C121.785134,3.87749527 121.768882,3.21693688 121.768882,2.36889905 L121.768882,0.0893593578 L122.384844,0.0893593578 L122.384844,5.53327161 L121.725,5.53327161 L120.116021,2.77189224 C119.763345,2.16565032 119.426922,1.5436391 119.170136,0.954918628 L119.147382,0.965431493 C119.181512,1.6505199 119.201015,2.30406972 119.201015,3.20642402 L119.201015,5.53327161 L118.583427,5.53327161 Z" id="Path"></path>
                            <path d="M127.972392,5.35630504 C127.731858,5.48245942 127.249164,5.62263097 126.636451,5.62263097 C125.204622,5.62263097 124.131969,4.64318232 124.131969,2.86125159 C124.131969,1.15641522 125.204622,0 126.776221,0 C127.408437,0 127.804993,0.147180119 127.978893,0.243548054 L127.81962,0.814747086 C127.572585,0.688592699 127.21991,0.592224764 126.797349,0.592224764 C125.61093,0.592224764 124.822692,1.40697185 124.822692,2.83672158 C124.822692,4.16835122 125.536169,5.02339763 126.768095,5.02339763 C127.164652,5.02339763 127.57096,4.93403827 127.834247,4.79737101 L127.972392,5.35630504 Z" id="Path"></path>
                            <polygon id="Path" points="130.353357 0.0893593578 130.353357 5.53327161 129.700014 5.53327161 129.700014 0.0893593578"></polygon>
                            <path d="M133.223517,3.81967451 L132.696941,5.53502375 L132.020845,5.53502375 L133.741966,0.0911115021 L134.528578,0.0911115021 L136.257825,5.53502375 L135.558975,5.53502375 L135.016147,3.81967451 L133.223517,3.81967451 Z M134.882878,3.27125335 L134.383932,1.70658852 C134.273416,1.35090323 134.197031,1.0250044 134.123895,0.711370574 L134.107643,0.711370574 C134.031257,1.03726941 133.94837,1.36842468 133.850856,1.6978278 L133.35516,3.27125335 L134.882878,3.27125335 L134.882878,3.27125335 Z" id="Shape"></path>
                        </g>
                        <path d="M21.1036374,19.9709404 L30.7282612,19.9709404 L30.7282612,29.4237587 L21.1036374,29.4237587 L21.1036374,54.8911757 C21.1036374,59.6657689 22.2152961,60.8589791 26.6586803,60.8589791 C28.0466284,60.8589791 29.3403131,60.7591069 30.7282612,60.4577381 L30.7282612,71.5050077 C28.5098195,71.9027445 25.6396599,72.0008645 23.0457896,72.0008645 C14.9943903,72.0008645 7.96038628,70.0086765 7.96038628,59.7638889 L7.96038628,29.4237587 L0,29.4237587 L0,19.9709404 L7.96038628,19.9709404 L7.96038628,4.55031867 L21.1036374,4.55031867 L21.1036374,19.9709404 L21.1036374,19.9709404 Z" id="Path"></path>
                        <path d="M43.9088926,49.1213646 C44.2810708,58.0730697 48.3522769,62.1538137 55.6658208,62.1538137 C60.9413239,62.1538137 65.1978065,58.6705509 66.0331757,55.4869048 L77.6032022,55.4869048 C73.8992985,67.6257603 66.0331757,72.7998423 55.2026297,72.7998423 C40.1156012,72.7998423 30.7656415,61.6544526 30.7656415,45.7379741 C30.7656415,30.3173523 40.6698053,18.5797379 55.2026297,18.5797379 C71.49233,18.5797379 79.3617032,33.301254 78.435321,49.1231168 L43.9088926,49.1231168 L43.9088926,49.1213646 Z M65.2904447,40.1661553 C64.087773,33.0033895 61.2176133,29.2257664 54.8304516,29.2257664 C46.5011377,29.2257664 44.0957943,36.1870356 43.9072674,40.1661553 L65.2904447,40.1661553 Z" id="Shape"></path>
                        <path d="M130.405364,17.7124264 C124.790188,17.7124264 119.660956,20.3476514 116.308102,24.8436536 L116.308102,19.9709404 L116.308102,19.1053811 L115.501987,19.1053811 L103.007203,19.1053811 L102.201088,19.1053811 L102.201088,19.9709404 L102.201088,71.4033833 L102.201088,72.2689426 L103.007203,72.2689426 L116.148829,72.2689426 L116.954944,72.2689426 L116.954944,71.4033833 L116.954944,44.4431394 C116.954944,34.6013451 119.672332,30.5871825 126.332533,30.5871825 C131.744555,30.5871825 133.951621,33.9986074 133.951621,42.3563356 L133.951621,71.4033833 L133.951621,72.2689426 L134.757736,72.2689426 L147.902612,72.2689426 L148.705477,72.2689426 L148.705477,71.4033833 L148.705477,39.7684185 C148.705477,28.8613204 146.530916,17.7124264 130.405364,17.7124264 Z" id="Path"></path>
                        <g transform="translate(144.9073, 1.1774)" id="Shape">
                            <path d="M9.41659414,2.70355861 C8.96965535,1.83449505 8.3374401,1.1634238 7.52807457,0.69735342 C6.72520997,0.231283044 5.89309119,0 5.05284625,0 C4.19959946,0 3.37073114,0.233035188 2.56786654,0.69735342 C1.75850101,1.1634238 1.12628577,1.83274291 0.672846043,2.70355861 C0.225907246,3.57963075 0,4.48724148 0,5.42814295 C0,6.36203585 0.219406318,7.25913372 0.669595579,8.12819727 C1.11003345,8.98674797 1.7324973,9.65431493 2.5353619,10.1344025 C3.33497604,10.6127379 4.17359575,10.8527816 5.05284625,10.8527816 C5.92234537,10.8527816 6.76096507,10.6127379 7.56057921,10.1344025 C8.36019335,9.65606708 8.98590767,8.98850011 9.42634553,8.12819727 C9.87003387,7.25913372 10.0926907,6.36203585 10.0926907,5.42814295 C10.0926907,4.48548933 9.8667834,3.57963075 9.41659414,2.70355861 Z M8.6982416,7.67614405 C8.32931394,8.39101892 7.80923971,8.95345723 7.13964413,9.34944183 C6.47329901,9.75068287 5.77119879,9.95217946 5.05122102,9.95217946 C4.32149186,9.95217946 3.61939164,9.75068287 2.95304652,9.34944183 C2.28345094,8.95170508 1.76337671,8.39101892 1.39119858,7.67614405 C1.01902046,6.96126919 0.832118778,6.20784715 0.832118778,5.42814295 C0.832118778,4.64143017 1.01902046,3.88450385 1.40094997,3.15911612 C1.7780038,2.43372839 2.30295373,1.8800508 2.97905024,1.48231405 C3.64864581,1.09158588 4.33449371,0.897097867 5.05122102,0.897097867 C5.75332124,0.897097867 6.43916914,1.09158588 7.11526565,1.48231405 C7.79136215,1.8800508 8.31143639,2.43372839 8.69336591,3.15911612 C9.07041973,3.88450385 9.25244571,4.64143017 9.25244571,5.42814295 C9.25082048,6.20784715 9.07041973,6.95951705 8.6982416,7.67614405 Z"></path>
                            <path d="M5.9239706,6.12549637 C5.81670529,6.00635056 5.66393348,5.90297405 5.47053087,5.81711898 C5.93697245,5.78032395 6.31565151,5.60160524 6.59681664,5.28271498 C6.87635654,4.96382472 7.02262742,4.59412228 7.02262742,4.16659908 C7.02262742,3.86523026 6.93649013,3.58138289 6.76909123,3.31155267 C6.59844187,3.04172245 6.37253463,2.85599516 6.0864938,2.74736222 C5.7972025,2.63697713 5.33726185,2.58616494 4.69692045,2.58616494 L2.83602982,2.58616494 L2.83602982,8.42430966 L3.7087794,8.42430966 L3.7087794,5.94677766 L4.22235271,5.94677766 C4.53277202,5.94677766 4.76192973,6.01511128 4.92770339,6.14827425 C5.16011156,6.33049725 5.46402995,6.78079833 5.83945854,7.50268177 L6.32215244,8.42255751 L7.39480555,8.42255751 L6.73496136,7.28366374 C6.41316543,6.74049901 6.14987785,6.35502727 5.9239706,6.12549637 Z M4.71804846,4.95155971 L3.65189628,4.95155971 L3.65189628,3.19591115 L4.65141395,3.19591115 C5.0804752,3.19591115 5.37139172,3.22394546 5.53066446,3.29227909 C5.68993719,3.36061271 5.81345482,3.46398922 5.90284258,3.59715219 C5.98897988,3.73381944 6.03936207,3.88800814 6.03936207,4.05971828 C6.03936207,4.32954849 5.94347338,4.54856653 5.7565717,4.7097638 C5.57454572,4.86920893 5.22512084,4.95155971 4.71804846,4.95155971 Z"></path>
                        </g>
                        <g transform="translate(82.3635, 0)" id="Path">
                            <path d="M12.4427761,19.0685861 L2.8604083,19.0685861 C1.28230804,19.0685861 0,20.4475236 0,22.1418472 L0,69.2342287 C0,70.9285522 1.28230804,72.3074898 2.8604083,72.3074898 L12.4427761,72.3074898 C14.0208764,72.3074898 15.3031844,70.9285522 15.3031844,69.2342287 L15.3031844,22.1418472 C15.3015592,20.4475236 14.0192511,19.0685861 12.4427761,19.0685861 Z"></path>
                            <path d="M2.48823017,13.2059114 L12.8117038,13.2059114 C14.0338782,13.2059114 15.0236445,12.1388555 15.0236445,10.8282516 L15.0236445,2.37415549 C15.0236445,1.06355157 14.0338782,0 12.8117038,0 L2.48823017,0 C1.26930618,0 0.279537907,1.06355157 0.279537907,2.37415549 L0.279537907,10.8264995 C0.27791467,12.1388555 1.26930618,13.2059114 2.48823017,13.2059114 Z"></path>
                        </g>
                    </g>
                </g>
            </g>
        </g>
    </g>
</svg>