<?xml version="1.0" encoding="UTF-8"?>
<svg width="153px" height="170px" viewBox="0 0 153 170" version="1.1" xmlns="http://www.w3.org/2000/svg" xmlns:xlink="http://www.w3.org/1999/xlink">
    <title>user 2</title>
    <defs>
        <polygon id="path-1" points="0 0 26 0 26 67.21875 0 67.21875"></polygon>
        <polygon id="path-3" points="0 0 19 0 19 26.4801136 0 26.4801136"></polygon>
    </defs>
    <g id="Page-1" stroke="none" stroke-width="1" fill="none" fill-rule="evenodd">
        <g id="Tein-Soluciones--I" transform="translate(-26, -373)">
            <g id="Users---Left-panel" transform="translate(1, -13.2401)">
                <g id="user-2" transform="translate(25, 387.017)">
                    <path d="M12.1080499,148.696023 L92.8919501,148.696023 C99.5791251,148.696023 105,142.859562 105,135.659722 L105,48.6826078 C105,41.4827674 99.5791251,35.6463068 92.8919501,35.6463068 L12.1080499,35.6463068 C5.42087485,35.6463068 0,41.4827674 0,48.6826078 L0,135.659722 C0,142.859562 5.42087485,148.696023 12.1080499,148.696023" id="Fill-1" fill="#FFDEDE"></path>
                    <path d="M107.913545,50.9194125 C107.913545,50.9194125 109.59005,50.3208969 112.253513,50.3356881 C113.3008,50.3414989 115.355683,50.8665867 116.23045,50.9194125 C117.694217,51.0076315 121.923054,49.5866191 123.603264,47.2712671 C124.532539,45.990243 123.531822,44.5243288 123.577333,42.6791258 C123.623903,40.7948318 123.798009,38.607318 121.89236,36.2808726 C114.747632,27.5567022 114.747632,26.4801136 114.747632,26.4801136 C114.747632,26.4801136 101.079457,44.5422895 107.913545,50.9194125" id="Fill-3" fill="#572A20"></path>
                    <g id="Group-7" transform="translate(126, 91.6619)">
                        <mask id="mask-2" fill="white">
                            <use xlink:href="#path-1"></use>
                        </mask>
                        <g id="Clip-6"></g>
                        <path d="M20.4130498,6.23825983 C20.4130498,6.23825983 23.5475803,11.0015823 21.6583299,17.9904751 C21.6583299,17.9904751 24.0036413,42.323987 23.5607847,44.5006614 C22.8386035,48.048571 29.4905933,52.7087284 23.4267089,58.9158238 C17.3633324,65.1234565 6.99683251,72.1290062 2.93291267,62.3987179 C-1.13049931,52.6689669 0.212798367,27.1157435 0.212798367,27.1157435 L12.6503636,0 L20.4130498,6.23825983 Z" id="Fill-5" fill="#D1D1CF" mask="url(#mask-2)"></path>
                    </g>
                    <path d="M41.1941406,90.6434659 L40.3986577,112.776251 C40.3986577,112.776251 36.9208365,117.365851 39.9005517,123.467166 C42.8797711,129.569025 27.1911646,156.245122 43.6425425,160.948537 C62.3822346,166.306519 63.025064,148.115845 63.025064,148.115845 L67,123.643061 L41.1941406,90.6434659 Z" id="Fill-8" fill="#D1D1CF"></path>
                    <path d="M72.9187115,65.9428037 L68.4870494,97.7139822 L66,152.179015 C66.0548984,157.246997 69.1997215,160.179747 72.8381267,162.419973 C87.6314873,173.012361 105.405479,169.631893 124.210957,161.41791 C128.775081,158.857806 126.449201,157.034834 126.086066,151.735648 L121.927888,96.1281978 L112.088984,64.1633523 L72.9187115,65.9428037 Z" id="Fill-10" fill="#B55743"></path>
                    <path d="M73,65.7521705 C73,65.7521705 83.3903719,61.4819613 83.4064188,59.7517157 C83.4219642,58.0209297 83.871779,50.8707617 83.871779,50.8707617 L104.406303,49.9048295 C104.406303,49.9048295 103.680682,59.2857765 104.31303,60.150629 C104.94588,61.016022 112,63.9840876 112,63.9840876 L104.704174,66.6326984 C101.931569,70.7758824 97.4389369,73.1785507 92.7236538,73.0401743 C87.5836291,72.8893657 80.7441367,74.9179853 78.4153294,70.0002178 L73,65.7521705 Z" id="Fill-12" fill="#B55743"></path>
                    <path d="M85,56.6074196 C85,56.6074196 90.9637764,69.8050156 105.91265,65.2404119 L106,54.9971591 L85,56.6074196 Z" id="Fill-14" fill="#803D2F"></path>
                    <path d="M79.1268405,43.4065094 C79.1268405,43.4065094 80.378405,51.5530773 83.0481109,54.9026595 C85.718314,58.2517022 89.4401892,61.5009426 89.4401892,61.5009426 C90.6305926,62.5075975 96.6750971,64.5851045 100.511836,61.5926528 C104.124815,58.7744507 108.161943,54.5401343 108.161943,54.5401343 C108.161943,54.5401343 111.916139,48.022772 112,40.3288211 C112.083213,32.6348703 95.9804465,18.3323864 95.9804465,18.3323864 C95.9804465,18.3323864 77.291511,23.3111742 79.1268405,43.4065094" id="Fill-16" fill="#B55743"></path>
                    <path d="M107.222143,40.7478647 C107.222143,40.7478647 109.44048,36.187081 112.88287,38.1930869 C115.034192,39.4465689 113.754978,45.229321 111.770054,48.2046428 C110.578826,49.9900533 108.912109,50.4508044 108.200928,49.1962357 C106.30399,45.8509003 107.222143,40.7478647 107.222143,40.7478647" id="Fill-18" fill="#B55743"></path>
                    <path d="M104,42.1300878 C103.9937,43.0569254 102.869706,43.8016627 101.489022,43.7939751 C100.108338,43.7862875 98.9937529,43.0290578 99,42.1022202 C99.0062998,41.1758631 100.119839,42.4068418 101.500523,42.4145294 C102.881207,42.422217 104.006247,41.2032503 104,42.1300878" id="Fill-20" fill="#21173D"></path>
                    <path d="M91,43.1403831 C90.99566,44.0691074 89.8726536,44.8177681 88.4921563,44.8124721 C87.1111181,44.8071761 85.995685,44.0503307 86,43.1220878 C86.0043401,42.1933635 87.1203142,43.4249223 88.5008115,43.4302183 C89.8818497,43.4350328 91.0043151,42.2116587 91,43.1403831" id="Fill-22" fill="#21173D"></path>
                    <path d="M110.005257,44.8125 C110.017699,44.6460273 109.668304,38.8511903 113,38.7017045" id="Stroke-24" stroke="#803D2F" stroke-width="0.998" stroke-linecap="round" stroke-linejoin="round"></path>
                    <path d="M92,49.9048295 C92,49.9048295 92.9804031,49.9605901 93.4087346,50.4449237 C93.8365062,50.9292572 94.8258679,51.2702723 95.3902576,50.3191168 C95.7642777,49.6882389 97,50.0633555 97,50.0633555" id="Stroke-26" stroke="#803D2F" stroke-width="0.998" stroke-linecap="round" stroke-linejoin="round"></path>
                    <path d="M98.0448967,39.20111 C97.8873549,38.770162 98.1591146,38.3048867 98.6302633,38.2028322 C99.6449315,37.9834152 101.276967,37.6633355 102.077969,37.6842102 C102.720937,37.7013739 103.881823,38.2362319 104.830029,38.7349069 C105.151512,38.9037606 104.98117,39.3662526 104.617347,39.3110505 C103.631233,39.161216 102.502347,39.0067427 102.047937,39.0104538 C101.616174,39.013701 100.001862,39.4307325 99.0374106,39.6905074 C98.6209092,39.8027672 98.1856998,39.5870613 98.0448967,39.20111" id="Fill-28" fill="#803D2F"></path>
                    <path d="M89.9644741,39.1424003 C90.1049051,38.6808618 89.8151737,38.1997043 89.3391865,38.1094566 C88.3162576,37.9152278 86.6709975,37.6376181 85.8707872,37.6896086 C85.2282538,37.7317896 84.0885453,38.3399806 83.1597298,38.9020668 C82.8448687,39.0923717 83.0335882,39.5750007 83.3952596,39.5029006 C84.375813,39.3076909 85.4987682,39.1031622 85.9530748,39.0899193 C86.3852081,39.0771669 88.0161787,39.4577767 88.9908191,39.6966389 C89.4121121,39.7996389 89.8388253,39.5553816 89.9644741,39.1424003" id="Fill-30" fill="#803D2F"></path>
                    <path d="M92.8863601,44.8125 C92.8863601,44.8125 93.4678738,44.2255874 92,42.7755682" id="Stroke-32" stroke="#803D2F" stroke-width="0.998" stroke-linecap="round" stroke-linejoin="round"></path>
                    <path d="M96.1136399,44.8125 C96.1136399,44.8125 95.5321262,44.2255874 97,42.7755682" id="Stroke-34" stroke="#803D2F" stroke-width="0.998" stroke-linecap="round" stroke-linejoin="round"></path>
                    <path d="M93.7321735,8.03233378 C93.7321735,8.03233378 86.5330851,2.08214134 82.990523,3.19379926 C79.447961,4.30491438 78.5861055,4.01885787 77.8438108,4.65447868 C77.1020249,5.2900995 68.4534521,8.50728529 69.1570803,13.3767595 C69.8601998,18.2462337 60.2403861,19.1060316 61.9859742,23.7708696 C63.7315624,28.4351648 56.8519812,35.2940073 61.8633608,38.2864732 C66.8747404,41.2789391 63.2268631,44.8945413 67.6806313,46.195637 C72.1349082,47.4967328 76.9783939,51.4684129 79.4937503,46.3199386 C80.536219,44.1861851 80.4797456,25.5024071 88.0095342,24.265362 C95.5393228,23.0283169 97,14.0340924 97,14.0340924 L93.7321735,8.03233378 Z" id="Fill-36" fill="#612F24"></path>
                    <path d="M87,5.24921736 C87,5.24921736 97.9330034,-1.08864354 101.682479,0.163891682 C105.431446,1.4164269 106.736895,1.87734243 107.522402,2.54365412 C108.30791,3.21051062 118.493562,5.64039626 117.749263,10.5007123 C117.004455,15.3610284 127.177897,17.5441118 125.330632,22.1587152 C123.483366,26.7733187 129.965838,31.5268505 125.233461,35.0659844 C120.382036,38.6939235 124.503916,41.843513 119.790361,42.9767332 C117.938008,43.4223938 116.352748,41.3477291 114.770541,42.3229523 C112.326005,43.830462 112.257324,44.3246114 109.875872,43.1156616 C107.877509,42.1012116 104.756846,36.4541792 106.052628,33.4702142 C107.034512,31.2097668 102.914159,30.6175503 101.127943,28.8207425 C99.1351759,26.8163592 99.2944141,23.7125345 97.2334743,23.3159074 C89.2644392,21.7827912 88.6569936,11.6824213 88.6569936,11.6824213 L87,5.24921736 Z" id="Fill-38" fill="#612F24"></path>
                    <path d="M92,58.0525568 C92,58.0525568 93.3356977,60.1694729 96,58.2993376" id="Stroke-40" stroke="#803D2F" stroke-width="1.125" stroke-linecap="round" stroke-linejoin="round"></path>
                    <path d="M81.774693,40.7825861 C81.774693,40.7825861 79.5247576,36.1701299 76.0333349,38.1988633 C72.5423746,40.2270472 78.8584697,52.709912 80.7819657,49.3266748 C82.705924,45.9434377 81.774693,40.7825861 81.774693,40.7825861" id="Fill-42" fill="#B55743"></path>
                    <path d="M86.9605783,23.2928646 C86.9605783,23.2928646 83.612139,26.4510571 84.4128421,30.808355 C85.2135452,35.1651226 81.5601228,34.5854577 82.0283845,38.7258454 C82.4966463,42.8657027 77.0633389,41.854869 82.279922,47.8678977 C82.279922,47.8678977 80.9874215,45.3853622 82.9639274,41.7535735 C84.037252,39.7817583 83.9480126,37.8942676 84.7918644,36.855856 C85.5023474,35.9818508 86.5281104,35.4302941 87.7269586,34.8294155 C90.3502051,33.5152256 85.962764,31.1605027 88.3050534,28.0463287 C90.6468526,24.9316244 93.5216366,22.398176 91.0538235,19.155659 C88.5860105,15.9136723 86.9605783,23.2928646 86.9605783,23.2928646" id="Fill-44" fill="#612F24"></path>
                    <path d="M79,44.8125 C79,44.8125 78.3281508,39.0233837 76,38.7017045" id="Stroke-46" stroke="#803D2F" stroke-width="0.998" stroke-linecap="round" stroke-linejoin="round"></path>
                    <line x1="91" y1="17.3139205" x2="89" y2="9.16619318" id="Stroke-48" stroke="#8A5346" stroke-width="1.995" stroke-linecap="round" stroke-linejoin="round"></line>
                    <path d="M91,55.4345697 C91,55.4345697 92.8844099,53.5319312 93.7950461,54.0767833 C94.7056824,54.6210149 94.6284604,54.8630335 95.4832443,54.320043 C96.3375425,53.7776731 97.3880525,54.0079011 99,55.4345697 C99,55.4345697 96.1539582,57.2987334 94.8416707,57.0021055 C93.5293832,56.704857 91,55.4345697 91,55.4345697" id="Fill-50" fill="#9E4C3B"></path>
                    <path d="M90,54.4018686 C90,54.4018686 92.199979,55.699808 92.6949979,55.8025791 C93.4830642,55.9651994 94.3499371,56.2698857 96.2129824,55.6067094 C96.7651007,55.4102351 99,53.9786932 99,53.9786932" id="Stroke-52" stroke="#592B21" stroke-width="1.125" stroke-linecap="round" stroke-linejoin="round"></path>
                    <path d="M92,53.5449991 C92,53.5449991 93.2151354,52.9968584 93.5191756,53.5449991 C93.8232158,54.0931397 94.8855619,54.2327192 95.3485439,53.3014618 C95.8120386,52.3702043 97,53.640233 97,53.640233" id="Stroke-54" stroke="#803D2F" stroke-width="1.125" stroke-linecap="round" stroke-linejoin="round"></path>
                    <path d="M77.1414175,65.0594936 C77.1414175,65.0594936 78.3173489,79.0262637 80.7072596,84.4373281 C81.9308776,87.2072195 86.4266085,94.511043 95.7447743,93.5741679 C98.3655085,93.3107567 100.562136,92.5156349 102.366618,91.5086979 C106.415413,89.2493355 109.036655,84.8392339 109.454166,79.987579 L110.817293,64.1633523 L121.058753,67.3346064 L122.919545,98.8630312 L125,126.228472 C125,126.228472 90.6296249,135.532592 66.1425525,126.228472 L66,114.28155 L66.4129457,69.252892 L77.1414175,65.0594936 Z" id="Fill-56" fill="#612F24"></path>
                    <path d="M75.4089909,65.9937442 C75.6390937,63.5799751 72.8139988,63.7796793 71.0380511,65.284226 C65.0847743,70.3282456 52.5999227,74.4868557 50.7236218,75.4750939 C48.4114433,76.6928025 42.0952731,81.5197993 41.2818039,95.8016269 C41.1383698,98.3198482 38.386259,100.357481 41.4166219,104.269843 L54.0874817,126.024072 L90.6971435,146.659091 C96.3894006,146.659091 81.7596258,117.381588 78.8635741,94.6098961 C77.6309529,84.9180181 74.5940012,74.5398937 75.4089909,65.9937442" id="Fill-58" fill="#D1D1CF"></path>
                    <path d="M112.61042,64.7122506 C112.297349,62.7376149 114.692719,62.8713595 116.301153,63.7863683 C121.227139,66.5890245 127.620301,71.001509 132.328389,73.4110866 C134.355587,74.4484228 137.332016,75.8288193 137.930608,76.1550256 C140.658083,77.6414392 147.972426,80.9469969 146.891955,102.671796 L134.965199,125.246363 L99.3482283,146.659091 C93.7224661,146.659091 107.379879,116.277863 109.617962,92.6474749 C110.612276,82.1550477 114.093626,74.0624119 112.61042,64.7122506" id="Fill-60" fill="#D1D1CF"></path>
                    <path d="M57.5190784,128.169363 C57.5190784,128.169363 55.1648731,138.176801 60.4836702,141.523709 C60.4836702,141.523709 56.8453076,150.140092 64.6865031,150.521814 C64.6865031,150.521814 61.0850731,157.402464 68.5369787,158.76936 C75.9888844,160.136256 91,148.463954 91,148.463954 L85.2285288,139.462628 L71.8494359,121.197443 L57.5190784,128.169363 Z" id="Fill-62" fill="#D1D1CF"></path>
                    <path d="M136.562542,128.171433 C136.562542,128.171433 138.754946,138.181841 133.323568,141.529743 C133.323568,141.529743 136.838167,150.148683 128.914573,150.530518 C128.914573,150.530518 132.423629,157.413211 124.874926,158.780512 C117.326223,160.147814 97,147.065542 97,147.065542 L108.378734,139.46805 L122.222979,121.197443 L136.562542,128.171433 Z" id="Fill-64" fill="#D1D1CF"></path>
                    <path d="M91.0652403,141.568319 C91.0652403,141.568319 78.8816908,145.943135 73.4060191,152.495275 C68.5750288,158.276223 69.0101372,162.491895 69.0101372,162.491895 C69.0101372,162.491895 80.2163664,165.184256 85.5164499,157.579152 C90.8160184,149.973502 96.9940425,152.612998 97.9229603,146.968303 C98.852393,141.323609 91.0652403,141.568319 91.0652403,141.568319" id="Fill-66" fill="#BABAB8"></path>
                    <g id="Group-70" transform="translate(96, 142.5852)">
                        <mask id="mask-4" fill="white">
                            <use xlink:href="#path-3"></use>
                        </mask>
                        <g id="Clip-69"></g>
                        <path d="M0,5.81780422 C0,5.81780422 1.09373348,18.3001503 9.78281042,22.5184432 C18.4718874,26.7367362 18.8496952,26.4771408 18.8496952,26.4771408 C18.8496952,26.4771408 19.5374862,19.844982 17.9704882,13.3014785 C16.4029877,6.75744411 2.58838534,0 2.58838534,0 L0,5.81780422 Z" id="Fill-68" fill="#BABAB8" mask="url(#mask-4)"></path>
                    </g>
                    <path d="M95.040114,153.788352 L94.8179581,153.788352 C91.5864179,153.788352 88.9686897,150.817395 89.000283,147.18585 L89.0273629,144.0954 C89.0589562,140.463855 91.7288383,137.492898 94.9598771,137.492898 L95.1825344,137.492898 C98.4135732,137.492898 101.031803,140.463855 100.999708,144.0954 L100.97313,147.18585 C100.941035,150.817395 98.2716542,153.788352 95.040114,153.788352" id="Fill-71" fill="#DEDEDC"></path>
                    <path d="M75.8848332,108.975852 C75.8848332,108.975852 53.3480807,131.694136 45.965228,138.034428 C41.504829,141.864473 37.2203706,162.834354 54.5055033,159.55185 C60.1386685,158.48198 67.8647075,142.187846 73.5300944,131.521488 C76.1436294,126.600198 80,122.274133 80,122.274133 L75.8848332,108.975852 Z" id="Fill-73" fill="#B55743"></path>
                    <path d="M111,116.461304 C111,116.461304 120.654798,152.5113 128.184302,154.400514 C136.185875,156.408656 141.428301,150.729013 140.97246,142.741179 C140.516618,134.753345 118.688335,107.957386 118.688335,107.957386 L111,116.461304 Z" id="Fill-75" fill="#B55743"></path>
                    <path d="M99.4846139,119.135506 L87.2573521,119.160511 C85.4516071,119.164309 83.985796,117.539947 84,115.550932 L84.205347,87.1618249 C84.2196548,85.1728103 85.7091478,83.5424704 87.5148928,83.5392098 L99.7421546,83.5142045 C101.548393,83.5104071 103.014204,85.134769 103,87.1237836 L102.79416,115.512348 C102.779852,117.501362 101.290359,119.131702 99.4846139,119.135506" id="Fill-77" fill="#FFFFFF"></path>
                    <path d="M90.9244203,88.5972697 L87.0570276,88.6065341 C86.4709725,88.6077673 85.9952784,87.9865614 86,87.2258004 L86.0019381,86.9460726 C86.0062194,86.1853115 86.4900003,85.5616357 87.0760553,85.5604007 L90.9429724,85.5511364 C91.5290275,85.5499032 92.0047216,86.171109 92,86.93187 L91.9985375,87.2115979 C91.9937806,87.9723589 91.5104754,88.5960347 90.9244203,88.5972697" id="Fill-79" fill="#432E7D"></path>
                    <path d="M89.0496889,89.625 C89.0496889,89.625 80.1981947,91.1964143 79.1042281,91.8065247 C78.0097748,92.4160923 77.5946709,99.7097343 77.5946709,99.7097343 C77.5946709,99.7097343 75.3317951,102.888388 76.165896,104.777342 C76.165896,104.777342 75.9527477,106.398694 75.9556676,107.343714 C75.959074,108.289276 75.2743716,110.856734 75.2743716,110.856734 C75.2743716,110.856734 73.5146815,123.859033 78.9081122,123.210927 C79.8852852,123.093681 80.9213417,121.824066 81.5082295,121.411535 C84.1609039,119.546465 83.9122309,116.374325 83.9122309,116.374325 L86.1191431,112.595331 C86.1191431,112.595331 91.4853219,111.09231 92.4201573,109.906286 C93.4771393,108.565563 93.3559659,106.972437 90.8969742,107.247638 C88.4384692,107.522839 85.294775,107.97825 85.294775,107.97825 L81.4415598,112.145348 L85.294775,107.97825 L90.8969742,107.247638 C90.8969742,107.247638 94.0995518,107.297575 93.8742375,104.934212 C93.6489232,102.571391 89.0175707,103.716705 89.0175707,103.716705 L84.7833164,104.122722 L82.6674059,105.09651 L85.4047556,101.909171 L92.4697946,102.974694 C93.0659285,103.123421 93.7160795,102.800997 93.9331209,102.160489 C94.13167,101.574805 93.9564797,100.804025 92.4615217,100.064185 C90.7534154,99.2190405 89.1903279,98.2702211 88.1640042,97.6123441 C87.360075,97.0961385 86.3911748,97.0114613 85.5166828,97.3789388 L82.075165,99.1501046 L82.22797,95.2435524 C82.22797,95.2435524 88.6194992,94.9895206 90.4030347,91.7831842 C91.4556369,89.8898878 89.0496889,89.625 89.0496889,89.625" id="Fill-81" fill="#B55743"></path>
                    <path d="M103.062022,90.8416843 C103.062022,90.8416843 109.33789,90.3383271 110.456481,90.9358642 C111.575575,91.5339335 116.647425,99.1337758 116.647425,99.1337758 C116.647425,99.1337758 118.926316,102.249163 118.03084,104.101369 C118.03084,104.101369 119.020286,107.584962 118.999683,108.511331 C118.979582,109.438232 118.840386,110.060245 118.840386,110.060245 C118.840386,110.060245 119.512747,122.828278 113.954968,122.192963 C112.947934,122.078031 112.810246,120.811657 112.211755,120.406736 C109.506734,118.579007 109.821307,115.469473 109.821307,115.469473 L106.857493,113.809884 C106.857493,113.809884 97.699217,110.813153 97.9685632,109.092905 C98.237407,107.372126 99.3178071,107.13375 101.851471,107.403519 C104.385638,107.673289 108.671057,107.922307 108.671057,107.922307 L109.513769,109.407903 L108.671057,107.922307 L98.8474562,107.174721 C98.8474562,107.174721 94.737413,107.233251 95.013292,104.916531 C95.2886684,102.600343 100.384639,103.007391 100.384639,103.007391 L108.181108,102.691862 L110.83437,103.705494 L108.181108,102.691862 L96.9730876,102.252888 C96.9730876,102.252888 94.326861,100.630013 97.441931,99.1800676 C100.557001,97.7295901 105.333877,97.4390689 105.333877,97.4390689 L111.045425,98.3101004 L108.286133,94.8201217 C108.286133,94.8201217 102.194687,96.1732267 100.411273,93.0296386 C99.3585106,91.1742406 103.062022,90.8416843 103.062022,90.8416843" id="Fill-83" fill="#B55743"></path>
                    <path d="M103,103.063492 L106.415364,102.868474 C106.791869,102.846931 107.166457,102.927433 107.510868,103.104876 L111,104.901989" id="Stroke-85" stroke="#8A3C2C" stroke-width="0.976" stroke-linecap="round" stroke-linejoin="round"></path>
                    <polyline id="Stroke-87" stroke="#8A3C2C" stroke-width="0.976" stroke-linecap="round" stroke-linejoin="round" points="101 107.957386 107.959803 108.400178 113 109.994318"></polyline>
                    <path d="M82,112.03125 L85.1771761,108.054446 C85.1771761,108.054446 86.8638137,107.085051 90,106.93892" id="Stroke-89" stroke="#8A3C2C" stroke-width="0.976" stroke-linecap="round" stroke-linejoin="round"></path>
                    <path d="M83,104.901989 C82.6885704,105.315331 80,107.957386 80,107.957386" id="Stroke-91" stroke="#8A3C2C" stroke-width="0.976" stroke-linecap="round" stroke-linejoin="round"></path>
                    <line x1="82" y1="99.8096591" x2="79" y2="101.846591" id="Stroke-93" stroke="#8A3C2C" stroke-width="0.976" stroke-linecap="round" stroke-linejoin="round"></line>
                    <path d="M45,126.289773 C45,126.289773 49.8617005,126.747575 51,129.34517" id="Stroke-95" stroke="#969695" stroke-width="1.953" stroke-linecap="round" stroke-linejoin="round"></path>
                    <path d="M139,134.4375 C139,134.4375 142.746536,132.22917 145,134.316093" id="Stroke-97" stroke="#969695" stroke-width="1.953" stroke-linecap="round" stroke-linejoin="round"></path>
                    <path d="M86,142.585227 C86,142.585227 84.1435423,141.365586 74,141.59565" id="Stroke-99" stroke="#969695" stroke-width="1.953" stroke-linecap="round" stroke-linejoin="round"></path>
                    <path d="M102,142.585227 C102,142.585227 106.966401,138.684232 112,139.697991" id="Stroke-101" stroke="#969695" stroke-width="1.953" stroke-linecap="round" stroke-linejoin="round"></path>
                    <path d="M113,50.4140625 C113,51.820127 112.104573,52.9602273 111,52.9602273 C109.895427,52.9602273 109,51.820127 109,50.4140625 C109,49.007998 109.895427,47.8678977 111,47.8678977 C112.104573,47.8678977 113,49.007998 113,50.4140625 Z" id="Stroke-103" stroke="#EDA24C" stroke-width="1.953" stroke-linecap="round" stroke-linejoin="round"></path>
                    <path d="M81,50.4140625 C81,51.820127 80.1045734,52.9602273 79,52.9602273 C77.8954266,52.9602273 77,51.820127 77,50.4140625 C77,49.007998 77.8954266,47.8678977 79,47.8678977 C80.1045734,47.8678977 81,49.007998 81,50.4140625 Z" id="Stroke-105" stroke="#EDA24C" stroke-width="1.953" stroke-linecap="round" stroke-linejoin="round"></path>
                    <path d="M83,56.524858 C83,59.0559329 81.4329036,61.1079545 79.4997479,61.1079545 C77.5670964,61.1079545 76,59.0559329 76,56.524858 C76,53.993783 77.5670964,51.9417614 79.4997479,51.9417614 C81.4329036,51.9417614 83,53.993783 83,56.524858 Z" id="Stroke-107" stroke="#EDA24C" stroke-width="1.953" stroke-linecap="round" stroke-linejoin="round"></path>
                    <path d="M114,56.524858 C114,59.0559329 112.432904,61.1079545 110.499748,61.1079545 C108.567096,61.1079545 107,59.0559329 107,56.524858 C107,53.993783 108.567096,51.9417614 110.499748,51.9417614 C112.432904,51.9417614 114,53.993783 114,56.524858 Z" id="Stroke-109" stroke="#EDA24C" stroke-width="1.953" stroke-linecap="round" stroke-linejoin="round"></path>
                    <path d="M80,62.3984202 C80,62.3984202 83.977377,76.6835424 95.5903264,76.3801789 C107.203276,76.0768154 109,62.1264205 109,62.1264205" id="Stroke-111" stroke="#FFF1BF" stroke-width="0.976" stroke-linecap="round" stroke-linejoin="round"></path>
                    <path d="M101,150.732955 C101,150.732955 104.534044,156.322359 107,156.84375" id="Stroke-113" stroke="#969695" stroke-width="1.953" stroke-linecap="round" stroke-linejoin="round"></path>
                    <path d="M80.0006617,152.769886 C79.9401473,152.443529 84.0430241,148.330272 87,147.677557" id="Stroke-115" stroke="#969695" stroke-width="1.953" stroke-linecap="round" stroke-linejoin="round"></path>
                    <path d="M113,73.3295455 C117.160408,72.3301531 121.500196,70.9953181 126,69.2556818" id="Stroke-117" stroke="#FFFFFF" stroke-width="0.976" stroke-linecap="round" stroke-linejoin="round"></path>
                    <path d="M63,70.2741477 C65.7505241,71.2232998 69.8131706,72.4096202 75,73.3295455" id="Stroke-119" stroke="#FFFFFF" stroke-width="0.976" stroke-linecap="round" stroke-linejoin="round"></path>
                    <path d="M111,84.5326705 C120.355781,83.2695846 130.158207,81.0927019 141,77.4034091" id="Stroke-121" stroke="#FFFFFF" stroke-width="0.976" stroke-linecap="round" stroke-linejoin="round"></path>
                    <path d="M46,79.4403409 C46,79.4403409 57.1017988,83.9335882 76,85.5511364" id="Stroke-123" stroke="#FFFFFF" stroke-width="0.976" stroke-linecap="round" stroke-linejoin="round"></path>
                    <path d="M115,96.7542614 C124.663839,95.3140345 135.041582,93.0345506 146,89.625" id="Stroke-125" stroke="#FFFFFF" stroke-width="0.976" stroke-linecap="round" stroke-linejoin="round"></path>
                    <path d="M42,91.6619318 C42,91.6619318 53.7136626,96.4843859 77,97.7727273" id="Stroke-127" stroke="#FFFFFF" stroke-width="0.976" stroke-linecap="round" stroke-linejoin="round"></path>
                    <path d="M120,108.975852 C128.52265,107.598824 137.549819,105.618043 147,102.865057" id="Stroke-129" stroke="#FFFFFF" stroke-width="0.976" stroke-linecap="round" stroke-linejoin="round"></path>
                    <path d="M42,103.883523 C42,103.883523 52.7580361,108.235726 73,109.994318" id="Stroke-131" stroke="#FFFFFF" stroke-width="0.976" stroke-linecap="round" stroke-linejoin="round"></path>
                    <path d="M129,121.197443 C134.80401,120.115198 140.811529,118.771979 147,117.12358" id="Stroke-133" stroke="#FFFFFF" stroke-width="0.976" stroke-linecap="round" stroke-linejoin="round"></path>
                    <path d="M102,125.271307 C105.239626,125.024465 108.574854,124.689511 112,124.252841" id="Stroke-135" stroke="#FFFFFF" stroke-width="0.976" stroke-linecap="round" stroke-linejoin="round"></path>
                    <path d="M78,124.546668 C80.5651896,124.775823 83.2330481,124.925538 86,124.977479" id="Stroke-137" stroke="#FFFFFF" stroke-width="0.976" stroke-linecap="round" stroke-linejoin="round"></path>
                    <path d="M40,118.142045 C40,118.142045 46.4661003,120.998216 61,123.234375" id="Stroke-139" stroke="#FFFFFF" stroke-width="0.976" stroke-linecap="round" stroke-linejoin="round"></path>
                    <path d="M138,132.400568 C141.597226,131.501413 145.265849,130.486406 149,129.34517" id="Stroke-141" stroke="#FFFFFF" stroke-width="0.976" stroke-linecap="round" stroke-linejoin="round"></path>
                    <path d="M99,138.511364 C104.404238,138.12122 110.079319,137.463673 116,136.474432" id="Stroke-143" stroke="#FFFFFF" stroke-width="0.976" stroke-linecap="round" stroke-linejoin="round"></path>
                    <path d="M70,137.492898 C75.722546,138.207328 82.0797002,138.611895 89,138.489777" id="Stroke-145" stroke="#FFFFFF" stroke-width="0.976" stroke-linecap="round" stroke-linejoin="round"></path>
                    <path d="M41,132.400568 C41,132.400568 41.9516986,133.007111 49,134.4375" id="Stroke-147" stroke="#FFFFFF" stroke-width="0.976" stroke-linecap="round" stroke-linejoin="round"></path>
                    <path d="M142,147.677557 C145.277724,147.069331 148.611734,146.392435 152,145.640625" id="Stroke-149" stroke="#FFFFFF" stroke-width="0.976" stroke-linecap="round" stroke-linejoin="round"></path>
                    <path d="M114,151.75142 C117.251105,151.479433 120.58598,151.142535 124,150.732955" id="Stroke-151" stroke="#FFFFFF" stroke-width="0.976" stroke-linecap="round" stroke-linejoin="round"></path>
                    <path d="M66,151.75142 C68.1954611,152.129001 70.5311797,152.474505 73,152.769886" id="Stroke-153" stroke="#FFFFFF" stroke-width="0.976" stroke-linecap="round" stroke-linejoin="round"></path>
                    <path d="M40,146.659091 C40,146.659091 40.6830855,147.050264 42,147.677557" id="Stroke-155" stroke="#FFFFFF" stroke-width="0.976" stroke-linecap="round" stroke-linejoin="round"></path>
                    <path d="M138,133.419034 C138,133.419034 139.101164,128.107427 145,128.333736" id="Stroke-157" stroke="#969695" stroke-width="1.953" stroke-linecap="round" stroke-linejoin="round"></path>
                    <polyline id="Stroke-159" stroke="#969695" stroke-width="1.953" stroke-linecap="round" stroke-linejoin="round" points="129 117.12358 130.343837 103.274881 132 101.846591"></polyline>
                    <polyline id="Stroke-161" stroke="#969695" stroke-width="1.953" stroke-linecap="round" stroke-linejoin="round" points="57 125.271307 55.9280596 101.722612 53 97.7727273"></polyline>
                    <path d="M43,134.4375 C43,134.4375 47.2796412,128.286521 52,131.10078" id="Stroke-163" stroke="#969695" stroke-width="1.953" stroke-linecap="round" stroke-linejoin="round"></path>
                    <path d="M88,87.0788352 C88,87.3600534 87.7761194,87.5880682 87.5,87.5880682 C87.2238806,87.5880682 87,87.3600534 87,87.0788352 C87,86.797617 87.2238806,86.5696023 87.5,86.5696023 C87.7761194,86.5696023 88,86.797617 88,87.0788352" id="Fill-165" fill="#7461A8"></path>
                </g>
            </g>
        </g>
    </g>
</svg>