<?xml version="1.0" encoding="utf-8"?>
<!-- Generator: Adobe Illustrator 26.1.0, SVG Export Plug-In . SVG Version: 6.00 Build 0)  -->
<svg version="1.1" id="Layer_1" xmlns="http://www.w3.org/2000/svg" xmlns:xlink="http://www.w3.org/1999/xlink" x="0px" y="0px"
	 viewBox="0 0 168 288" style="enable-background:new 0 0 168 288;" xml:space="preserve">
<style type="text/css">
	.st0{fill:#212529;}
	.st1{fill-rule:evenodd;clip-rule:evenodd;fill:#212529;}
	.st2{fill-rule:evenodd;clip-rule:evenodd;fill:#C1C90A;}
	.st3{fill-rule:evenodd;clip-rule:evenodd;fill:#F0812C;}
	.st4{fill-rule:evenodd;clip-rule:evenodd;fill:#E5590D;}
	.st5{fill-rule:evenodd;clip-rule:evenodd;fill:#F2B700;}
</style>
<g id="Page-1">
	<g id="Tein-Soluciones--I" transform="translate(-164, -198)">
		<g id="Dynamic-user---Option-I" transform="translate(117, 198.1407)">
			
				<g id="Users-radial-Copy" transform="translate(131.0181, 143.6857) rotate(-90) translate(-131.0181, -143.6857)translate(-12.6676, 60.4861)">
				<path id="Combined-Shape" class="st0" d="M278.7,31.8c0,74.3-60.2,134.5-134.5,134.5S9.7,106.1,9.7,31.8c0-1.8,0-3.7,0.1-5.5
					l4,0c-0.1,1.8-0.1,3.7-0.1,5.5c0,72.1,58.4,130.5,130.5,130.5s130.5-58.4,130.5-130.5c0-1.8,0-3.7-0.1-5.5l4,0
					C278.7,28.2,278.7,30,278.7,31.8z"/>
				<g id="arrow" transform="translate(0, 1.4072)">
					<g id="Flecha" transform="translate(9.8735, 11.1605) rotate(-95) translate(-9.8735, -11.1605)translate(-0.5422, 2.1605)">
						<path id="Fill-1" class="st1" d="M20.8,9c0,0.2-0.1,0.4-0.3,0.5L0.5,18c0,0-0.1,0-0.1,0c-0.1,0-0.2-0.1-0.3-0.1
							C0,17.7,0,17.5,0,17.3L2.1,9L0,0.7c0-0.2,0-0.4,0.1-0.5C0.2,0,0.4,0,0.5,0l20,8.5C20.7,8.6,20.8,8.8,20.8,9"/>
					</g>
				</g>
				<g id="arrow-copy" transform="translate(275.8735, 12.5677) rotate(9) translate(-275.8735, -12.5677)translate(266, 1.4072)">
					
						<g id="Flecha_00000073715311746065862630000016728194329588924547_" transform="translate(9.8735, 11.1605) rotate(-95) translate(-9.8735, -11.1605)translate(-0.5422, 2.1605)">
						<path id="Fill-1_00000071525584749066090790000015332073704787888805_" class="st1" d="M20.8,9c0,0.2-0.1,0.4-0.3,0.5L0.5,18
							c0,0-0.1,0-0.1,0c-0.1,0-0.2-0.1-0.3-0.1C0,17.7,0,17.5,0,17.3L2.1,9L0,0.7c0-0.2,0-0.4,0.1-0.5C0.2,0,0.4,0,0.5,0l20,8.5
							C20.7,8.6,20.8,8.8,20.8,9"/>
					</g>
				</g>
				
					<ellipse id="Oval" transform="matrix(-2.535182e-06 -1 1 -2.535182e-06 -63.5311 108.9225)" class="st2" cx="22.7" cy="86.2" rx="10.2" ry="10"/>
				
					<ellipse id="Oval_00000031172621866201415230000015399407123764912537_" transform="matrix(-2.535182e-06 -1 1 -2.535182e-06 -56.7184 254.8344)" class="st3" cx="99.1" cy="155.8" rx="10.2" ry="10"/>
				
					<ellipse id="Oval_00000021838453306557338920000015371138985682374063_" transform="matrix(-2.535182e-06 -1 1 -2.535182e-06 34.5485 346.9777)" class="st4" cx="190.8" cy="156.2" rx="10.2" ry="10"/>
				
					<ellipse id="Oval_00000181057618102897268180000016437793018390114487_" transform="matrix(-2.535182e-06 -1 1 -2.535182e-06 179.6428 351.7492)" class="st5" cx="265.7" cy="86.1" rx="10.2" ry="10"/>
			</g>
		</g>
	</g>
</g>
</svg>
