<?xml version="1.0" encoding="utf-8"?>
<!-- Generator: Adobe Illustrator 26.1.0, SVG Export Plug-In . SVG Version: 6.00 Build 0)  -->
<svg version="1.1" id="Layer_1" xmlns="http://www.w3.org/2000/svg" xmlns:xlink="http://www.w3.org/1999/xlink" x="0px" y="0px"
	 viewBox="0 0 70 84" style="enable-background:new 0 0 70 84;" xml:space="preserve">
<style type="text/css">
	.st0{fill:#212529;}
</style>
<g id="Page-1">
	<g id="Tein-Soluciones--I" transform="translate(-170, -282)">
		<g id="Dynamic-user---Option-I" transform="translate(108, 198.1407)">
			<g id="Usuario-Dinámico" transform="translate(0, 49.8593)">
				<g id="user-copy" transform="translate(62, 34)">
					<path id="Shape" class="st0" d="M24.5,13.5c-0.3,0-0.5,0.2-0.5,0.5s0.2,0.5,0.5,0.5h24.2C49,17,51.2,19,53.9,19
						c2.8,0,5.1-2.2,5.1-5s-2.3-5-5.1-5c-2.7,0-4.8,2-5.1,4.5H24.5z M53.9,11.1c1.6,0,3,1.3,3,2.9s-1.3,2.9-3,2.9
						c-1.6,0-3-1.3-3-2.9S52.2,11.1,53.9,11.1z"/>
					<path id="Shape_00000134952671498398156410000012495408843365570962_" class="st0" d="M51.7,29.4l-6.4-6.2
						C45.2,23.1,45,23,44.9,23H20.6c-0.3,0-0.6,0.2-0.6,0.5s0.2,0.5,0.6,0.5h24.1l6.4,6.2c0.1,0.1,0.2,0.2,0.4,0.2h8.1
						c0.3,2.5,2.5,4.5,5.2,4.5c2.9,0,5.2-2.3,5.2-5.1s-2.3-5.1-5.2-5.1c-2.7,0-4.9,2-5.2,4.5h-7.9V29.4z M64.8,27c1.7,0,3,1.3,3,2.9
						s-1.4,2.9-3,2.9c-1.7,0-3-1.3-3-2.9S63.1,27,64.8,27z"/>
					<path id="Path" class="st0" d="M26.3,75.2c-0.7-1.9-1.3-2.5-1.7-2.7c-1.2-0.9-2.7-0.9-6.3-0.7c-1.4,0.1-3.5,0.2-4.6,0.2
						c-0.4,0-1.2-0.2-1.9-0.5C10.5,70.8,10,69.9,10,68c0-1,0.1-1.9,0.4-3.1c0.4-2-0.2-3.1-0.7-3.7c-0.1-0.1-0.2-0.2-0.3-0.3
						c-0.4-0.4-1.1-1.1-1.3-1.4c0.1-0.3,0.4-1,0.6-1.4C9,57.6,8.8,57,8.3,56.7s-1-0.7-1.2-1c0.1-0.1,0.1-0.3,0.2-0.4
						c0.4-0.8,0.8-1.7,0.8-2.8c-0.1-2.1-1.7-2.9-2.8-3.4c-0.2-0.1-0.4-0.2-0.6-0.3c-1.6-0.9-2.4-1.8-2.4-2.7c0-0.7,0.8-1.6,1.5-2.3
						c0.3-0.3,0.6-0.6,0.8-0.9c0.4-0.5,0.9-1,1.4-1.6c0.7-0.8,1.5-1.6,2.1-2.5v-0.1c0.6-1,1.2-2,1.3-2.8c0.2-1.5-0.1-2.6-0.8-4.1
						c-0.5-1.2-0.3-3.6,0-4.9c0.4-1.6,1.1-4.1,2.3-7.9c0.2-0.5,0.5-1.4,1-2.4c2.6-5.9,10.1-15.5,30-14.3c0.6,0,1.1-0.4,1.1-1
						s-0.4-1.1-1-1.1c-9.3-0.6-17,1-23,4.8c-5.1,3.3-7.8,7.5-9.2,10.5c-0.5,1.1-0.9,2-1,2.6c-1.6,5-2.1,7-2.4,8.1
						c-0.2,1.1-0.7,4.3,0.2,6.2c0.6,1.3,0.7,2,0.6,2.9c0,0.3-0.4,0.9-1,1.9v0.1C5.7,38,5,38.7,4.4,39.4c-0.5,0.6-1.1,1.2-1.6,1.8
						c-0.2,0.2-0.4,0.5-0.7,0.8c-0.9,1-2.1,2.3-2,3.9c0.1,2.6,2.7,4,3.5,4.5c0.3,0.1,0.5,0.3,0.7,0.4c1.2,0.6,1.6,0.9,1.6,1.6
						c0,0.5-0.3,1.1-0.6,1.7c-0.1,0.3-0.3,0.5-0.4,0.8c-0.4,1.1,0.5,2.2,1.3,2.9c-0.2,0.4-0.4,1-0.4,1.4c-0.1,1.2,0.9,2.1,1.9,3.2
						c0.1,0.1,0.2,0.2,0.3,0.3c0.3,0.3,0.3,0.9,0.2,1.7c-0.2,1-0.4,2.2-0.4,3.6c0,1.9,0.4,4.2,3.2,5.4c0.8,0.3,1.9,0.7,2.8,0.7l0,0
						c1.2,0,3.2-0.1,4.7-0.2c3.3-0.2,4.3-0.1,4.9,0.3c0,0,0.4,0.3,1,1.8c0.7,1.7,1.3,4.2,1.9,7.2c0.1,0.5,0.6,0.9,1.1,0.9
						c0.1,0,0.1,0,0.2,0c0.6-0.1,1-0.7,0.9-1.3C27.7,79.5,27.1,77,26.3,75.2L26.3,75.2z"/>
					<path id="Shape_00000012466252347560445940000000829584752296061370_" class="st0" d="M48.7,43.5H14.5c-0.3,0-0.5,0.2-0.5,0.5
						s0.2,0.5,0.5,0.5h34.2C49,47,51.2,49,53.9,49c2.8,0,5.1-2.2,5.1-5s-2.3-5-5.1-5C51.2,39,49,41,48.7,43.5z M56.8,44
						c0,1.6-1.3,2.9-3,2.9s-3-1.3-3-2.9s1.3-2.9,3-2.9S56.8,42.4,56.8,44z"/>
					<path id="Shape_00000114034208643957305310000003060954660219308195_" class="st0" d="M53.7,69c-2.7,0-4.9,2-5.2,4.5h-12
						c-0.3,0-0.6,0.2-0.6,0.5s0.2,0.5,0.6,0.5h12C48.8,77,51,79,53.7,79c2.9,0,5.3-2.2,5.3-5S56.6,69,53.7,69z M53.7,76.9
						c-1.7,0-3-1.3-3-2.9s1.4-2.9,3-2.9c1.7,0,3,1.3,3,2.9S55.4,76.9,53.7,76.9z"/>
					<path id="Shape_00000062891936519081701750000004791143048819509406_" class="st0" d="M64.8,53c-2.7,0-4.9,2-5.2,4.5h-8.1
						c-0.1,0-0.3,0.1-0.4,0.2l-6.4,6.2H21.6c-0.3,0-0.6,0.2-0.6,0.5s0.2,0.5,0.6,0.5h23.3c0.1,0,0.3-0.1,0.4-0.2l6.4-6.2h7.9
						c0.3,2.5,2.5,4.5,5.2,4.5c2.9,0,5.2-2.3,5.2-5.1C70,55.3,67.7,53,64.8,53z M64.8,61c-1.7,0-3-1.3-3-2.9c0-1.6,1.4-2.9,3-2.9
						s3,1.3,3,2.9S66.4,61,64.8,61z"/>
				</g>
			</g>
		</g>
	</g>
</g>
</svg>
