<?xml version="1.0" encoding="UTF-8"?>
<svg width="155px" height="170px" viewBox="0 0 155 170" version="1.1" xmlns="http://www.w3.org/2000/svg" xmlns:xlink="http://www.w3.org/1999/xlink">
    <title>user 1</title>
    <defs>
        <polygon id="path-1" points="0 0 103 0 103 111.012784 0 111.012784"></polygon>
    </defs>
    <g id="Page-1" stroke="none" stroke-width="1" fill="none" fill-rule="evenodd">
        <g id="Tein-Soluciones--I" transform="translate(-142, -559)">
            <g id="Users---Left-panel" transform="translate(1, -13.2401)">
                <g id="user-1" transform="translate(141, 572.3778)">
                    <g id="Group-3" transform="translate(52, 8.1477)">
                        <mask id="mask-2" fill="white">
                            <use xlink:href="#path-1"></use>
                        </mask>
                        <g id="Clip-2"></g>
                        <path d="M11.8774375,111.012784 L91.1227109,111.012784 C97.6825207,111.012784 103.000148,105.281485 103.000148,98.2113714 L103.000148,12.8014127 C103.000148,5.73129914 97.6825207,0 91.1227109,0 L11.8774375,0 C5.31762776,0 0,5.73129914 0,12.8014127 L0,98.2113714 C0,105.281485 5.31762776,111.012784 11.8774375,111.012784" id="Fill-1" fill="#FFF9E3" mask="url(#mask-2)"></path>
                    </g>
                    <path d="M75.2223203,61.0195383 C75.9518621,60.7507668 90.7839071,40.8227415 84.4148438,21.5447429 C78.0452872,2.26674436 46.3099693,18.8629769 46.3099693,18.8629769 L44,62.8079231 L52.5719936,66.2002841 L67.8677095,65.1051891 L75.2223203,61.0195383 Z" id="Fill-4" fill="#1F1836"></path>
                    <polygon id="Stroke-6" stroke="#FFFFFF" stroke-width="0.997" stroke-linecap="round" stroke-linejoin="round" points="55.4638085 39.7201705 51 43.8308805 51.0464738 49.9048295 56 45.9675143"></polygon>
                    <path d="M57,4.56965349 C57,4.56965349 57.246559,-2.22202829 69.3205834,0.754380214 C78.37647,2.9866866 82.4535345,11.4178698 84.6357291,19.1458711 C85.3631274,21.7216921 89.7677912,27.8333442 90.2609092,30.4199337 C91.5315231,37.0834705 91.6312272,47.2376109 86.7147816,53.7633112 C81.7983359,60.2890115 79.7742927,61.1079545 79.7742927,61.1079545 L60.3506486,18.7388225 L57,4.56965349 Z" id="Fill-8" fill="#3E2F6B"></path>
                    <path d="M128.931136,138.865727 L127.994746,122.040562 C119.696395,72.7551492 103.940704,69.2800887 93.7198978,65.520011 C84.305827,62.0573193 78.915997,58.0525568 78.915997,58.0525568 L76.1157692,59.3840718 C71.2147496,61.7147607 65.6599958,61.6668993 60.8523668,59.2517807 C60.8523668,59.2517807 50.0086249,63.8206624 44.9650356,66.4643326 C36.9791456,70.6497853 19.4266798,77.7359615 12.0602477,99.5075216 C4.69331872,121.278544 12.941994,134.332876 12.941994,134.332876 L35.4317427,129.708066 L94.4928541,137.358361 L106.47467,146.849439 C106.680328,147.012383 106.88847,147.169949 107.098102,147.322137 C117.792319,155.083751 130.028972,152.875673 128.931136,138.865727" id="Fill-10" fill="#ED917E"></path>
                    <path d="M40.4127862,63.7637661 C44.6745065,74.6312248 20.7268749,63.6657597 10.2640012,105.960054 C7.24507709,118.162649 6.03138967,122.376386 2.68930893,129.121687 C-2.33466628,139.26347 1.22104317,147.677557 1.22104317,147.677557 L21.4619945,132.813795 C21.4619945,132.813795 29.1679229,117.002639 30.002703,116.735398 C30.8374831,116.468692 62.8566295,114.185626 62.8566295,114.185626 L68,81.2490638 C68,81.2490638 49.8603067,72.0948418 51.7459625,61.1079545 L40.4127862,63.7637661 Z" id="Fill-12" fill="#D1D1CF"></path>
                    <path d="M62,53.7005053 L62.6933304,61.4466514 C62.6933304,61.4466514 68.9549707,70.598165 80,60.2518674 L79.4996991,47.8678977 L62,53.7005053 Z" id="Fill-14" fill="#ED917E"></path>
                    <path d="M62,53.8125 L62.5938464,60.0894886 C62.5938464,60.0894886 69.0055864,53.6963778 74.5117983,53.7501776 C80.0185104,53.8039773 80,53.3746449 80,53.3746449 L79.6763108,45.8309659 L62,53.8125 Z" id="Fill-16" fill="#A14B3E"></path>
                    <path d="M50,28.0566588 L53.1535492,37.2400557 C54.156436,42.5637486 56.2095202,47.8344294 56.9950738,48.9530367 C58.7396533,51.4381764 66.4202384,57.3546401 69.3796169,57.0205037 C72.3389953,56.6863672 80.3551902,49.2073874 81.5231714,43.6657562 C82.1663003,40.6156904 84.4781145,20.2949481 83.9113726,20.1080673 C83.3441379,19.921722 58.710577,12.2215909 58.710577,12.2215909 L50,28.0566588 Z" id="Fill-18" fill="#ED917E"></path>
                    <path d="M73.9869748,32.0223765 C74.1766676,33.1395868 72.2426996,34.4794519 71.5523976,34.6076472 C70.8620956,34.7358424 69.0706778,34.2551103 69.0005252,33.1244058 C68.9612397,32.4868031 71.137094,32.4609392 71.827396,32.3327439 C72.5182592,32.2045487 73.7972821,30.9051662 73.9869748,32.0223765" id="Fill-20" fill="#21173D"></path>
                    <path d="M60.9678664,35.1619722 C61.1691873,36.4674531 60.3827406,37.5415496 59.7734798,37.6677592 C59.1648076,37.7939689 57.2163504,37.1451725 57.0144408,35.8396917 C56.8125312,34.5348681 58.7845347,35.5905591 59.3932068,35.4650068 C60.0024676,35.3387972 60.7665454,33.8564914 60.9678664,35.1619722" id="Fill-22" fill="#21173D"></path>
                    <path d="M81.2506528,33.2580707 C81.2506528,33.2580707 80.439259,27.7127212 84.1798039,27.5013085 C87.9203489,27.2898958 88.0463232,39.4289177 83.918432,40.6241915 C79.7905408,41.8194654 81.2506528,33.2580707 81.2506528,33.2580707" id="Fill-24" fill="#ED917E"></path>
                    <path d="M84.6794504,35.9834382 C84.4465962,36.9544332 83.3068366,36.8656092 83.1293986,35.8570985 C82.877362,34.4237774 82.9040044,32.9082528 84.0368369,32.6252299 C85.2996842,32.3091048 85.0982681,34.2356471 84.6794504,35.9834382" id="Fill-26" fill="#C7614A"></path>
                    <path d="M55,10.8948502 C55,10.8948502 76.1458335,29.3239496 83.2786956,26.1020213 C90.411064,22.8800929 81.2685209,16.7508354 81.2685209,16.7508354 C81.2685209,16.7508354 74.4639412,4.19683473 73.2446064,4.07543772 C72.0252715,3.95404071 55,10.8948502 55,10.8948502" id="Fill-28" fill="#3E2F6B"></path>
                    <path d="M60.781362,167.282374 L37.9848704,157.28634 C33.8108998,157.276665 31.1660468,142.657774 31,138.112851 L34.4488169,94.0180737 L61.3801219,75.3664773 C61.3801219,75.3664773 93.2829177,83.8968066 115.657601,77.8157691 C115.657601,77.8157691 116.519557,78.0458101 118.332689,79.417994 C120.145821,80.7901779 142.010964,146.27447 126.430817,152.138366 C119.833058,154.621519 114.087343,164.951328 105.69281,157.035337 L76.6133054,167.743531 C71.4286798,169.652657 65.8143151,169.489263 60.781362,167.282374" id="Fill-30" fill="#D1D1CF"></path>
                    <path d="M89.6210144,132.147027 C89.6210144,132.147027 104.20217,150.53391 113.265489,156.817852 C115.283472,158.216952 118.809611,157.853432 120.058886,157.716244 C123.18728,157.37194 123.971363,155.352026 125.359997,152.285321 C127.206881,148.206524 124.664688,144.262245 122.690348,140.486115 C119.231161,133.869613 92.5912039,122.549229 92.5912039,122.549229 L76.6372839,115.086648 L76,130.25309 L89.6210144,132.147027 Z" id="Fill-32" fill="#ED917E"></path>
                    <path d="M5.3035744,138.970386 C3.37795255,139.932535 1.76934184,142.075335 1.19273489,144.434526 C-0.0605877952,149.562467 4.91050022,160.501829 12.8495192,158.67781 C24.3443627,156.037311 23.9988893,134.043003 23.9988893,134.043003 L18.2926888,122.215909 L5.3035744,138.970386 Z" id="Fill-34" fill="#ED917E"></path>
                    <path d="M80,58.0525568 C80,58.0525568 79.7413494,77.7763684 70.6746612,83.5142045 C70.6746612,83.5142045 58.371721,70.3169727 60.1817955,59.2975294" id="Stroke-36" stroke="#FFFFFF" stroke-width="1.024" stroke-linecap="round" stroke-linejoin="round"></path>
                    <path d="M75,86.5696023 C75,86.5696023 72.1049383,82.9064973 68,86.5109926 C68,86.5109926 68.0333468,82.7912316 71.4126409,82.5089283 C74.7919351,82.226625 75,86.5696023 75,86.5696023" id="Fill-38" fill="#FFFFFF"></path>
                    <path d="M104.142979,123.234375 C104.142979,123.234375 104.117507,118.181893 105.659695,114.320267 C107.202346,110.45864 103,99.8096591 103,99.8096591" id="Stroke-40" stroke="#8A8A88" stroke-width="1.953" stroke-linecap="round" stroke-linejoin="round"></path>
                    <polygon id="Stroke-42" stroke="#FFFFFF" stroke-width="0.997" stroke-linecap="round" stroke-linejoin="round" points="84.5932476 38.7017045 83 44.056416 85.9340836 48.8863636 88 43.4436615"></polygon>
                    <path d="M64,13.2400568 C64.1378945,13.5824161 76.224874,25.4579034 84,26.4801136" id="Stroke-44" stroke="#68559E" stroke-width="1.953" stroke-linecap="round" stroke-linejoin="round"></path>
                    <path d="M62,59.2104796 C62,59.2104796 72.1035834,71.6879732 80,57.0340909" id="Stroke-46" stroke="#FFFFFF" stroke-width="1.024" stroke-linecap="round" stroke-linejoin="round"></path>
                    <path d="M89.8092947,141.563511 L40.4122173,140.028322 C36.4716086,139.905975 32.7734686,136.358977 32.194895,132.145986 L28.0768702,102.15768 C27.4982966,97.944689 30.2492317,94.5982334 34.1903333,94.7205804 L83.5874106,96.2557689 C87.5285121,96.3781158 91.2261593,99.925114 91.804733,104.138105 L95.9232506,134.126411 C96.5013314,138.339402 93.7503962,141.685857 89.8092947,141.563511" id="Fill-48" fill="#FFFFFF"></path>
                    <path d="M88.8096329,143.600442 L39.4122852,142.065254 C35.4711621,141.942907 31.7734947,138.395909 31.1949179,134.182918 L27.0768706,104.194612 C26.4982938,99.9816208 29.249244,96.6351653 33.1903671,96.7575122 L82.5877148,98.2927007 C86.5288379,98.4150477 90.2265053,101.962046 90.8050821,106.175037 L94.9231294,136.163343 C95.5017062,140.376334 92.750756,143.722789 88.8096329,143.600442" id="Fill-50" fill="#3B344F"></path>
                    <path d="M16,127.846003 L16.8650756,119.345746 C17.1088012,116.949711 17.8831065,114.64391 19.1217944,112.622776 L23.4150766,105.618363 C24.4130478,103.989854 25.886936,102.764175 27.5995349,102.13952 L36.5226012,98.8819653 C36.5386489,98.8760571 36.5546967,98.870686 36.5707445,98.865315 C38.1288835,98.33895 38.9849322,100.760229 37.5371217,101.581466 C35.6946361,102.626676 32.8260957,104.249277 31.2669537,105.104351 C29.2985934,106.184473 27.5308303,107.864007 26.5890263,110.015121 L25.7931568,111.832155 L31.2358612,109.106873 C31.5297361,108.959706 31.8461782,108.881825 32.1686383,108.879677 C34.1129269,108.864101 41.1393464,108.969911 41.4221885,111.286991 C41.8504636,114.802357 41.8128516,112.04646 41.9246846,115.346983 C41.9713234,116.723589 39.6268433,116.92769 39.6268433,116.92769 C39.6268433,116.92769 40.4959308,116.228376 41.3765526,116.912651 C41.9898787,117.389065 42.7280765,118.720016 40.4613278,120.11542 C39.3760968,120.783044 34.9724861,122.421758 33.310538,123.368678 C31.5101779,124.394553 30.8517175,125.850113 30.8517175,125.850113 C29.9846359,128.803665 31.2900224,131.026751 29.2785337,133.25306 C26.3773962,136.463886 21.5234447,136.116378 19.1263078,132.526891 L16,127.846003 Z" id="Fill-52" fill="#ED917E"></path>
                    <path d="M42,112.417283 L37.8177722,112.06802 C35.3230028,111.859907 32.8226306,112.53808 30.5855895,114.029668 L29,115.086648" id="Stroke-54" stroke="#7D3F32" stroke-width="0.975" stroke-linecap="round" stroke-linejoin="round"></path>
                    <path d="M41,116.128709 L36.7623911,116.105303 C34.2344418,116.091696 31.7414885,116.810728 29.5521774,118.185653 L28,119.160511" id="Stroke-56" stroke="#7D3F32" stroke-width="0.975" stroke-linecap="round" stroke-linejoin="round"></path>
                    <path d="M80.5298778,105.920455 L75.7138825,105.907122 C74.841201,105.904804 74.0715701,104.989201 74.0047264,103.872512 C73.9374185,102.755824 74.5970358,101.844277 75.4701815,101.846591 L80.2857127,101.859924 C81.1588584,101.862821 81.9280251,102.777845 81.995333,103.894533 C82.0621767,105.011221 81.4030236,105.922768 80.5298778,105.920455" id="Fill-58" fill="#2A2538"></path>
                    <path d="M62.1888468,9.6122368 C62.1888468,9.6122368 50.4413545,27.9904947 48.6266806,34.7192756 C46.8120066,41.4480565 45.98822,54.0321759 53.729878,61.3128306 C61.2015256,68.3390221 64.7595501,90.0376494 64.9989933,91.5451025 C65.0061257,91.5912709 64.9745395,91.6315341 64.9302171,91.635292 C62.2122817,91.8833131 59.6227287,90.382839 58.3684537,87.830154 C56.6668785,84.3659109 53.4838119,79.1719621 47.8798215,73.7348237 C38.042271,64.1897683 34.4715102,65.9871162 36.5862524,53.139944 C38.7015041,40.2927719 40.9889511,27.3350103 40.9283261,24.7646096 C40.8840036,22.9071354 44.982049,8.96426819 52.5387753,2.50176107 C55.4360384,0.0242340444 57.4132281,1.6052345 61.9702912,1.01846591 L62.1888468,9.6122368 Z" id="Fill-60" fill="#3E2F6B"></path>
                    <path d="M53.9406077,14.2585227 C53.9406077,14.2585227 46.5209879,21.9353057 45.0001693,28.3389549 C43.4798348,34.7431389 45.0117896,49.3638505 44.0594018,53.8829407 C43.1070139,58.4020308 53.9062307,64.391644 55,67.21875" id="Stroke-62" stroke="#68559E" stroke-width="1.953" stroke-linecap="round" stroke-linejoin="round"></path>
                    <path d="M82.1652141,33.609375 C82.1652141,33.609375 81.1849375,29.7781284 84,28.5170455" id="Stroke-64" stroke="#BD6A57" stroke-width="1.077" stroke-linecap="round" stroke-linejoin="round"></path>
                    <path d="M69,40.7386364 C69,40.7386364 67.8537818,41.2834922 67.4705425,41.845871 C67.0878864,42.4082498 66.5413183,42.7362585 65.6692592,42.77459 C64.7966168,42.8129216 63.8720591,41.7117105 63,41.7473041" id="Stroke-66" stroke="#BD6A57" stroke-width="1.077" stroke-linecap="round" stroke-linejoin="round"></path>
                    <path d="M67.0798463,29.8970957 C66.8425906,29.3158225 67.153862,28.6552383 67.7515639,28.4781956 C69.0366991,28.0980143 71.107617,27.5320916 72.1387669,27.4993438 C72.9656132,27.473248 74.500171,28.1200167 75.7594513,28.7330143 C76.1863088,28.9407581 76.0043114,29.5905969 75.5328417,29.5424986 C74.2532831,29.4120191 72.6178409,29.5071924 72.0343338,29.5471038 C71.4797232,29.5849684 69.6126018,30.0623697 68.3948919,30.4942311 C67.8686709,30.6804841 67.2922612,30.4174785 67.0798463,29.8970957" id="Fill-68" fill="#544978"></path>
                    <path d="M60.995973,31.675763 C61.0440237,31.0816624 60.6559218,30.5593388 60.1601677,30.555459 C59.0933493,30.5462443 57.3847765,30.5738882 56.5910156,30.8154083 C55.9543435,31.0094004 54.9318796,32.0050646 54.1117832,32.897428 C53.8336434,33.2000556 54.1205617,33.7461432 54.4693914,33.5778551 C55.415159,33.1214888 56.5503573,32.799462 57.004529,32.6820968 C57.4360614,32.5705514 59.1025898,32.4944095 60.129674,32.5681265 C60.5732191,32.6001352 60.9530046,32.2077862 60.995973,31.675763" id="Fill-70" fill="#544978"></path>
                    <path d="M63.0608152,33.609375 C63.0608152,33.609375 64.0558152,33.9420841 63.9278152,34.6278409" id="Stroke-72" stroke="#BD6A57" stroke-width="1.077" stroke-linecap="round" stroke-linejoin="round"></path>
                    <path d="M62,46.9469584 C66.8626946,46.2458371 68.3219986,46.4160547 72,45.8309659 C71.4537524,46.7958971 70.7726777,48.3453698 69.6246654,49.641979 C69.0164568,50.3288699 68.6308119,50.5932271 67.7593933,50.8001154 C66.5548726,51.0858182 64.8095569,50.874004 63.8553584,50.1701461 C62.9016556,49.4662882 62,47.9173628 62,46.9469584" id="Fill-74" fill="#A14B3E"></path>
                    <path d="M64.8982914,45.3311667 C63.8063539,45.8685016 64.4053596,46.042991 63,46.8432157 C63.7914747,48.179042 64.04922,47.5088177 65.2174731,47.4140619 C65.6662474,47.377084 66.1855777,47.9305968 66.6309922,47.8554855 C67.3072735,47.7410851 67.5890174,47.9802858 68.260979,47.7942408 C68.8772637,47.6232181 68.977578,46.9974828 69.8933656,46.8206823 C72.5173754,46.3145474 72.5308146,45.9372574 72.9954281,45.1318327 C73.0880628,44.9717878 71.7441397,45.0301435 71.5819089,45.0266768 C70.4045363,45.0006768 70.2543049,45.0809881 68.6516766,44.8169429 C68.4116903,44.7770761 67.8645216,45.0145435 67.6581335,45.1676551 C67.3024738,45.4311225 66.688109,45.7361901 66.582515,45.69459 C66.0132676,45.4709893 65.4540996,45.0578769 64.8982914,45.3311667" id="Fill-76" fill="#A14B3E"></path>
                    <path d="M72,45.8591436 C72,45.8591436 70.0286292,48.71196 67.1347255,48.876687 C64.2403166,49.0419043 63,47.0367454 63,47.0367454 C63,47.0367454 63.9654766,46.8470152 64.8177838,46.8533886 C66.112159,46.8631938 66.0065679,47.1009693 69.0212193,46.1890878 C70.6768272,45.6880432 72,45.8591436 72,45.8591436" id="Fill-78" fill="#FFFFFF"></path>
                    <path d="M35,92.6803977 C35,92.6803977 38.3537096,89.582157 36.3754617,88.6065341" id="Stroke-80" stroke="#8A8A88" stroke-width="1.953" stroke-linecap="round" stroke-linejoin="round"></path>
                    <path d="M43,70.2741477 C43,70.2741477 46.3387618,71.5869529 45.8467654,78.7479014 C45.354769,85.90885 43.5987125,88.9545367 48.7190825,91.6619318 C48.7190825,91.6619318 45.7190066,85.6624335 48.4304981,83.8265243 C51.1419895,81.9911462 56.6155748,78.7479014 54.5408731,75.0415636 C52.4656703,71.3346946 43,70.2741477 43,70.2741477" id="Fill-82" fill="#3E2F6B"></path>
                </g>
            </g>
        </g>
    </g>
</svg>