<?xml version="1.0" encoding="UTF-8"?>
<svg width="155px" height="170px" viewBox="0 0 155 170" version="1.1" xmlns="http://www.w3.org/2000/svg" xmlns:xlink="http://www.w3.org/1999/xlink">
    <title>user 3 copy</title>
    <defs>
        <polygon id="path-1" points="-3.55271368e-15 0 75 0 75 53.9786932 -3.55271368e-15 53.9786932"></polygon>
        <polygon id="path-3" points="0 0 37 0 37 29.5355114 0 29.5355114"></polygon>
    </defs>
    <g id="Page-1" stroke="none" stroke-width="1" fill="none" fill-rule="evenodd">
        <g id="Tein-Soluciones--I" transform="translate(-203, -337)">
            <g id="Users---Left-panel" transform="translate(1, -13.2401)">
                <g id="user-3-copy" transform="translate(202, 350.3523)">
                    <path d="M67.4161614,109.994318 L143.583839,109.994318 C149.888889,109.994318 155,104.525923 155,97.7801263 L155,16.2880556 C155,9.54225915 149.888889,4.07386364 143.583839,4.07386364 L67.4161614,4.07386364 C61.1111106,4.07386364 56,9.54225915 56,16.2880556 L56,97.7801263 C56,104.525923 61.1111106,109.994318 67.4161614,109.994318" id="Fill-1" fill="#FFF1BF"></path>
                    <path d="M76.6510935,148.418758 C95.6577135,155.258234 106.355698,159.998012 123.65826,150.428308 C126.745601,150.04041 128.714463,132.630317 128.360764,129.249472 C130.787271,110.635504 140.216267,91.2148314 133.80312,63.6575665 L107.171746,52.9602273 C103.862873,60.1371188 99.0314943,66.3496735 92.119312,66.813297 C88.4854307,64.6383877 86.5377342,61.8437684 85.6238549,59.8970649 C84.9126941,58.3825615 83.2373271,57.7401854 81.7684413,58.298079 L69,63.1470655 L69.801467,101.862717 L72.9005667,112.661024 C74.0284527,116.591005 74.2509257,120.765162 73.5487014,124.81208 L71.759511,135.120491 C71.9067288,138.687301 73.4127718,148.825201 76.6510935,148.418758" id="Fill-3" fill="#004E82"></path>
                    <path d="M133.965212,63.1448864 C133.965212,63.1448864 139.333584,64.8960379 142.059095,76.8092353 C142.481839,78.6572865 146.763902,84.8225923 143.372926,88.3442753 C143.372926,88.3442753 143.568148,90.0064779 143.655072,90.5118471 C144.417436,94.9289828 144.974603,99.039021 145.354597,102.850409 C145.731742,106.63397 145.935039,110.12385 145.992038,113.329988 C146.032887,115.635207 147.093547,119.734313 146.993323,121.749827 C146.897375,123.684342 145.993938,124.829747 145.787316,126.503875 C145.384997,129.757221 146.802851,131.073566 146.083237,133.378288 C145.287148,135.92849 141.977396,138.08016 140.966611,139.528686 C139.510757,141.614763 129.891671,139.853673 129.891671,139.853673 C119.447047,139.662855 116.891584,104.465901 118.396837,87.0587393 L133.965212,63.1448864 Z" id="Fill-5" fill="#004E82"></path>
                    <path d="M69.733103,62.1264205 C69.733103,62.1264205 61.3373016,63.5107047 58.694616,71.7164921 C56.7330155,77.8068225 52.6011937,100.442993 49.3718215,112.166736 C48.1385053,116.643802 50.0562105,121.356093 53.896341,123.018275 C57.9129965,124.756957 63.0728178,125.336691 67.046994,120.120646 C67.8824206,119.024147 68.6654561,117.671607 69.3748607,116.019834 C69.5957532,115.50411 69.5702656,114.759406 70.0162984,114.384713 C72.6778637,112.148001 71.4308597,109.715095 71.8849165,107.170822 C75.3163014,87.9334344 69.733103,62.1264205 69.733103,62.1264205" id="Fill-7" fill="#004E82"></path>
                    <polyline id="Stroke-9" stroke="#094064" stroke-width="2.045" stroke-linecap="round" stroke-linejoin="round" points="120.784434 124.252841 123 112.668671 119.008558 95.8386233 119 91.3846453 120.83739 88.6065341"></polyline>
                    <polyline id="Stroke-11" stroke="#094064" stroke-width="2.045" stroke-linecap="round" stroke-linejoin="round" points="74 114.068182 68.8835123 94.7421303 66 92.6803977"></polyline>
                    <path d="M73.43827,169.065341 L103.890036,155.556113 C105.638904,154.780266 105.222851,152.065304 103.330167,151.903375 L42,146.659091 L73.43827,169.065341 Z" id="Fill-13" fill="#BDBDBC"></path>
                    <path d="M73.5030303,95.730057 C77.5332484,97.2586822 80.7854432,96.9179706 83.6909941,95.7448042 C85.6967148,94.935233 87,92.8721484 87,90.6041284 L86.9995185,73.9265534 L70,73.3295455 L70,90.5141195 C70,92.8614694 71.4116114,94.9367585 73.5030303,95.730057" id="Fill-15" fill="#D1D1CF"></path>
                    <path d="M65.1049633,76.3849432 L71.8950367,76.3849432 C72.5024893,76.3849432 73,75.9268038 73,75.3664773 C73,74.8065765 72.5024893,74.3480114 71.8950367,74.3480114 L65.1049633,74.3480114 C64.4970487,74.3480114 64,74.8065765 64,75.3664773 C64,75.9268038 64.4970487,76.3849432 65.1049633,76.3849432" id="Fill-17" fill="#D1D1CF"></path>
                    <path d="M65.1049633,90.6434659 L71.8950367,90.6434659 C72.5024893,90.6434659 73,90.1853266 73,89.625 C73,89.0650992 72.5024893,88.6065341 71.8950367,88.6065341 L65.1049633,88.6065341 C64.4970487,88.6065341 64,89.0650992 64,89.625 C64,90.1853266 64.4970487,90.6434659 65.1049633,90.6434659" id="Fill-19" fill="#D1D1CF"></path>
                    <path d="M66,90.3747555 L66,75.6351877 C66,74.9275636 65.5501672,74.3480114 65,74.3480114 C64.4502508,74.3480114 64,74.9275636 64,75.6351877 L64,90.3747555 C64,91.0823796 64.4502508,91.6619318 65,91.6619318 C65.5501672,91.6619318 66,91.0823796 66,90.3747555" id="Fill-21" fill="#D1D1CF"></path>
                    <path d="M60,93.7725952 L56.6643796,130.330805 C56.2636609,133.279829 54.7911407,135.990585 52.4713178,137.683468 C50.0390041,139.458495 46.7545598,140.189118 43.0032541,138.813587 L43.0032541,138.813587 C36.3798098,136.385489 35.8497025,130.0308 38.4620982,123.975606 C44.3227288,109.111094 47.4314363,104.50031 52.0189403,90.6434659 L60,93.7725952 Z" id="Fill-23" fill="#DE7B66"></path>
                    <path d="M53,89.8891104 L53.865671,83.2475159 C54.2894358,81.5289632 55.0899838,79.9447665 56.2003313,78.6287803 L60.0472411,74.0692013 C60.9412871,73.0093938 62.0111653,71.4998949 63.3224638,71.2657747 L70.0459504,70.2741477 C71.2372365,70.2741477 70.9037136,72.477986 70.0459504,73.0289456 C68.7323261,73.8726807 67.0419186,74.2907883 65.8190013,74.7134079 C64.2741902,75.246821 62.8140391,76.2444639 61.9069685,77.6933021 L61.1408426,78.9175452 L65.3850029,77.6331427 C65.6143289,77.5634581 65.8524931,77.5479169 66.0878663,77.5880232 C67.5056875,77.829162 72.070346,78.90802 72.5801662,80.5478642 C72.9695089,81.8011844 72.1047682,81.7811313 72.2731577,81.9024527 C73.6021325,82.8619946 73.1276648,84.6371974 70.6929942,84.4351621 C70.6929942,84.4351621 71.3977183,84.037609 71.968475,84.6517359 C72.3666558,85.0793687 72.7676275,86.1471976 70.9730231,86.8726193 C70.1143296,87.2195383 67.9555015,87.1277953 66.6474591,87.604057 C65.2310335,88.1199236 63.3843307,89.8149138 63.3843307,89.8149138 C62.4493502,91.8593298 63.1712854,93.6530816 61.4776217,95.0186993 L56.7966721,98.7911932 L53,89.8891104 Z" id="Fill-25" fill="#DE7B66"></path>
                    <path d="M72,82.4957386 L68.8891596,81.755581 C67.0338611,81.3140835 65.0962241,81.3989869 63.2842875,82.0023002 L62,82.4298137" id="Stroke-27" stroke="#7D3F32" stroke-width="0.776" stroke-linecap="round" stroke-linejoin="round"></path>
                    <path d="M71,85.1092309 L67.8478314,84.6579144 C65.9675562,84.3890886 64.0355662,84.5548031 62.2592087,85.1378729 L61,85.5511364" id="Stroke-29" stroke="#7D3F32" stroke-width="0.776" stroke-linecap="round" stroke-linejoin="round"></path>
                    <path d="M69.3434787,150.578804 C69.3434787,150.578804 71.3070353,144.935068 72.1933596,144.181032 C73.0796839,143.427498 80.9097507,141.806622 80.9097507,141.806622 C80.9097507,141.806622 84.1949775,140.967858 85.3030013,142.427298 C85.3030013,142.427298 88.3906881,142.845928 89.1060007,143.203894 C89.8208395,143.561861 90.2538167,143.911304 90.2538167,143.911304 C90.2538167,143.911304 101.187203,146.903883 98.6054458,151.504804 C98.1378872,152.338555 96.3737655,153.104623 95.8337282,153.477129 C94.615802,154.315893 93.431036,154.384077 92.5499226,154.241693 C91.4111071,154.057696 90.2538167,154.423684 89.3428591,155.169197 L88.6791817,155.712163 C88.6791817,155.712163 82.9040989,162.577697 81.6634343,161.71186 C80.4227697,160.846022 80.6425744,159.818749 81.8041282,157.713566 C82.9656821,155.608382 84.7686487,151.972066 84.7686487,151.972066 L86.2438031,151.784559 L84.7686487,151.972066 L80.4980907,160.242894 C80.4980907,160.242894 79.0001979,163.839103 77.2976593,162.748659 C75.594647,161.658716 77.8253799,157.375653 77.8253799,157.375653 L80.5061439,150.477531 L82.2925304,148.541805 L80.5061439,150.477531 L75.956093,160.065916 C75.956093,160.065916 73.6974108,161.771521 73.7357818,158.529268 C73.7746266,155.287015 75.3412085,151.02551 75.3412085,151.02551 L78.1645612,146.376961 L74.4070387,147.49548 C74.4070387,147.49548 73.1753747,153.291127 70.0545278,153.688199 C68.2127164,153.922331 69.3434787,150.578804 69.3434787,150.578804" id="Fill-31" fill="#DE7B66"></path>
                    <path d="M78,153.788352 L79.3369153,150.38402 C79.4838812,150.008739 79.714075,149.672595 80.0090603,149.401857 L83,146.659091" id="Stroke-33" stroke="#8A3C2C" stroke-width="0.936" stroke-linecap="round" stroke-linejoin="round"></path>
                    <polyline id="Stroke-35" stroke="#8A3C2C" stroke-width="0.936" stroke-linecap="round" stroke-linejoin="round" points="81 158.880682 83.8344543 152.6277 87 148.696023"></polyline>
                    <path d="M73.5515497,169.056601 L12.3885518,160.591582 C9.9751012,160.371171 8.35930032,160.520364 7.88252225,157.931058 L1.10893621,121.16977 C0.395199442,117.296987 3.28733522,113.759499 6.89797554,114.089595 L63.4405172,119.257291 C65.8544446,119.478221 67.8435627,121.411494 68.3208175,124.0008 L75.9025424,165.149509 C76.3650171,167.575587 75.1153818,169.199557 73.5515497,169.056601" id="Fill-37" fill="#BDBDBC"></path>
                    <g id="Group-41" transform="translate(0, 115.0866)">
                        <mask id="mask-2" fill="white">
                            <use xlink:href="#path-1"></use>
                        </mask>
                        <g id="Clip-40"></g>
                        <path d="M72.4437728,53.9694706 L11.3866561,46.0893196 C8.97158514,45.8691168 6.8341853,43.4339331 6.35708712,40.8531564 L0.109009353,7.07819411 C-0.605206623,3.21816881 2.28887094,-0.307666383 5.90193545,0.0213424846 L62.482917,5.17201517 C64.897988,5.39221796 66.8884416,7.31912186 67.3660169,9.89989851 L74.9528321,50.9130559 C75.2619918,52.5850427 74.0086548,54.1119547 72.4437728,53.9694706" id="Fill-39" fill="#969696" mask="url(#mask-2)"></path>
                    </g>
                    <path d="M40.131636,142.577126 L25.8688345,141.408376 C24.8407873,141.324244 24,140.605095 24,139.810924 C24,139.016753 24.8407873,138.435325 25.8688345,138.519458 L40.131636,139.688744 C41.1592127,139.772877 42,140.491489 42,141.286196 C42,142.080367 41.1592127,142.661259 40.131636,142.577126" id="Fill-42" fill="#FFFFFF"></path>
                    <path d="M70,73.3295455 C70,75.579413 73.8053809,77.4034091 78.5,77.4034091 C83.1946191,77.4034091 87,75.579413 87,73.3295455 C87,71.0796779 83.1946191,69.2556818 78.5,69.2556818 C73.8053809,69.2556818 70,71.0796779 70,73.3295455" id="Fill-44" fill="#FFFFFF"></path>
                    <path d="M71,72.8203125 C71,74.789204 74.1342916,76.3849432 78.000246,76.3849432 C81.8662004,76.3849432 85,74.789204 85,72.8203125 C85,70.851421 81.8662004,69.2556818 78.000246,69.2556818 C74.1342916,69.2556818 71,70.851421 71,72.8203125" id="Fill-46" fill="#D1D1CF"></path>
                    <path d="M71,72.900931 C71,74.8252936 74.1342916,76.3849432 78.000246,76.3849432 C81.8662004,76.3849432 85,74.8252936 85,72.900931 C81.3052754,70.3544426 71.5407514,71.1998399 71,72.900931" id="Fill-48" fill="#7D5C4C"></path>
                    <path d="M120.449323,132.447023 C119.602453,131.20344 119.993132,129.459813 121.281369,128.746898 C123.505897,127.516368 126.750877,125.977578 128.51778,126.345081 C131.38021,126.940012 133.239402,128.981357 137.044818,130.154151 C140.850234,131.326945 143.617982,137.050842 142.880617,138.983743 C142.143252,140.916644 137.991629,152.66316 132.278246,147.310279 C128.133795,143.427407 122.97224,136.151164 120.449323,132.447023" id="Fill-50" fill="#FFFFFF"></path>
                    <path d="M124,149.177762 C124,149.177762 139.13781,155.663529 141.788048,142.145187 C141.788048,142.145187 143.991092,138.508695 142.456693,136.390594 C141.573758,135.171796 141.134199,132.464461 140.592506,133.763395 C140.130039,134.872727 139.240899,140.527804 138.439098,140.95729 C136.699476,141.88959 133.943286,142.145187 133.943286,142.145187 L124,149.177762 Z" id="Fill-52" fill="#EBEBE8"></path>
                    <path d="M94.4590949,149.714489 C102.545022,149.714489 111.286373,147.453791 125.963178,148.978903 C128.692441,148.97097 131.886734,148.059288 133.770658,146.04502 C135.74597,143.93292 137.529463,141.822407 136.854525,138.039772 C135.66315,131.359741 129.425448,126.970022 123.549966,128.708247 C109.210153,132.442761 99.2345899,139.69127 86,142.33113 L94.4590949,149.714489 Z" id="Fill-54" fill="#DE7B66"></path>
                    <path d="M94,88.6065341 C94,89.7312131 93.1042874,90.6434659 92,90.6434659 C90.8951333,90.6434659 90,89.7312131 90,88.6065341 C90,87.481265 90.8951333,86.5696023 92,86.5696023 C93.1042874,86.5696023 94,87.481265 94,88.6065341" id="Fill-56" fill="#094064"></path>
                    <path d="M94,79.4403409 C94,80.56561 93.1042874,81.4772727 92,81.4772727 C90.8951333,81.4772727 90,80.56561 90,79.4403409 C90,78.3156619 90.8951333,77.4034091 92,77.4034091 C93.1042874,77.4034091 94,78.3156619 94,79.4403409" id="Fill-58" fill="#094064"></path>
                    <path d="M81,61.8072992 C81,61.8072992 84.463724,74.3339897 92.2732619,74.3480114 C105.359656,74.3708024 113,57.0340909 113,57.0340909 L103.839762,60.6801045 C103.839762,60.6801045 94.8249543,67.5625254 92.2732619,66.4965123 C89.7210943,65.4299808 84.2265673,57.4815468 84.2265673,57.4815468 L81,61.8072992 Z" id="Fill-60" fill="#D1D1CF"></path>
                    <polygon id="Fill-62" fill="#FFFFFF" points="87.8892741 50.9232955 82 57.1823469 85.9006823 61.1079545 90 57.6779456"></polygon>
                    <path d="M101.870242,35.6463068 L106,54.5987978 L103.062014,61.8097778 C96.4363251,66.4801493 90.3374512,69.0253512 86.8375293,61.0825044 L85,59.7147199 L85.0398038,59.6871601 C87.0744788,58.2622145 88.1754042,55.688432 87.8682127,53.0738202 L87.1676664,47.117323 L101.870242,35.6463068 Z" id="Fill-64" fill="#DE7B66"></path>
                    <path d="M104.610991,47.9800779 C104.610991,47.9800779 108.329678,47.2304962 110.346237,49.6065894 C112.363296,51.98322 116,58.0970121 116,58.0970121 L111.532977,67.005481 C110.288249,69.4874292 107.190427,70.020465 105.286844,68.0806874 L100,62.6928342 C100,62.6928342 108.515137,54.0610926 104.610991,47.9800779" id="Fill-66" fill="#FFFFFF"></path>
                    <path d="M79.0815429,64.0043582 L81.6468845,57.0340909 L84.9792515,57.8762582 L89.7397758,64.2600623 C91.2560215,66.2937902 93.9338164,66.6964984 95.8872244,65.1845311 L100.19653,61.8495072 L102,63.7388192 L95.4013323,67.6396015 C93.4568269,68.7892349 91.0465772,68.240558 89.6727723,66.3346822 L85.7326888,60.8712059 L80.6914998,65.3310175 C79.8570023,66.0696609 78.6785852,65.0991239 79.0815429,64.0043582" id="Fill-68" fill="#FFFFFF"></path>
                    <path d="M89.0499477,50.7810294 L89,56.015625 C89,56.015625 94.3775604,52.9246452 96,47.8678977 C96,47.8678977 91.4685366,50.9638453 89.0499477,50.7810294" id="Fill-70" fill="#C7614A"></path>
                    <path d="M102.217551,27.7905627 L103,41.2564508 C103,41.2564508 94.3248546,50.738846 90.7685635,52.4958645 C87.1650919,54.2763304 83.8512434,54.6586234 82.0943524,52.500452 C79.4284187,49.2249657 75.4386273,42.8687077 75.5708262,39.3827054 C75.775898,33.9740243 76.2145369,36.3508672 75.3732285,30.4854734 C74.6360911,25.3433779 71.0910112,17.9258746 74.3674891,16.1917936 C77.6434997,14.4577126 95.7108412,11.203125 95.7108412,11.203125 L102.217551,27.7905627 Z" id="Fill-72" fill="#DE7B66"></path>
                    <g id="Group-76" transform="translate(70, 0)">
                        <mask id="mask-4" fill="white">
                            <use xlink:href="#path-3"></use>
                        </mask>
                        <g id="Clip-75"></g>
                        <path d="M32.4108697,29.2772994 C32.4108697,29.2772994 29.414223,30.5781827 28.0284599,24.9174587 C26.6422168,19.2562261 25.7983749,20.0658454 25.7983749,20.0658454 C25.7983749,20.0658454 22.0942067,16.3208475 18.6415589,17.1767453 C13.4969074,18.4522008 7.6130543,24.3626253 4.90920825,23.1156488 C4.90920825,23.1156488 3.62856539,24.9769596 4.02696628,27.0071106 C4.02696628,27.0071106 1.23528005,21.9993709 0.635278705,20.3842007 C-1.14552527,15.5946311 1.36584034,13.5207444 1.5295207,12.2564771 C1.69320107,10.9922097 4.35720702,2.96060293 12.2441046,0.559715471 C20.1305223,-1.84117199 27.1322979,4.28386265 28.8281417,3.83124884 C32.7387104,2.78820283 34.9030353,5.81156143 36.2892784,10.2548052 C36.7601594,11.7657216 38.2419227,23.1181916 34.7023948,26.9043825 C31.1633469,30.6905734 32.4108697,29.2772994 32.4108697,29.2772994" id="Fill-74" fill="#312554" mask="url(#mask-4)"></path>
                    </g>
                    <path d="M99.1187784,35.3250581 C99.1187784,35.3250581 97.9392501,27.4711309 103.014214,25.6766331 C108.088732,23.8821353 108.13786,33.8052232 104.182577,37.4850924 C100.227294,41.164451 99.1187784,35.3250581 99.1187784,35.3250581" id="Fill-77" fill="#DE7B66"></path>
                    <path d="M80.9016579,33.609375 C81.3810698,35.113795 80.9130943,38.2390614 80.4327674,39.4966793 C79.4515283,42.0650312 80.2452112,42.9116699 81.7470331,42.7582233 C82.2383389,42.7083263 82.6527923,42.5725852 83,42.3923123" id="Stroke-79" stroke="#AB503C" stroke-width="1.056" stroke-linecap="round" stroke-linejoin="round"></path>
                    <path d="M88.0391392,32.718768 C88.2576633,33.8755104 89.0856393,34.7262193 89.8883587,34.618669 C90.6916272,34.5115803 91.1649132,33.487314 90.9469381,32.3305715 C90.7284139,31.173829 90.1584941,31.6561897 89.3552256,31.7632784 C88.5525062,31.8703671 87.820615,31.5620255 88.0391392,32.718768" id="Fill-81" fill="#312554"></path>
                    <path d="M76.0404555,34.1920588 C76.2605678,35.6889976 77.0890307,36.7910934 77.8915004,36.6531074 C78.6939701,36.5157188 79.1657183,35.1902171 78.9461591,33.6932783 C78.7260468,32.1969368 78.1376059,32.6114921 77.3356892,32.7488808 C76.5332195,32.8868667 75.8203432,32.69512 76.0404555,34.1920588" id="Fill-83" fill="#312554"></path>
                    <path d="M87.3552025,30.5465276 C89.1382358,29.5740498 90.9798164,29.3212393 92.8857105,29.8600066 C93.5616664,29.7762982 94.060206,29.0071925 93.9941185,28.1510076 L93.9941185,28.1510076 C93.9280309,27.2948227 93.3208238,26.6627964 92.6448679,26.7465048 C90.9270351,26.2790862 89.1067444,26.378525 87.11436,27.4330257 C86.4384041,27.5172959 85.9394209,28.2864016 86.005952,29.1425866 C86.0720395,29.9987715 86.6792466,30.6302359 87.3552025,30.5465276" id="Fill-85" fill="#312554"></path>
                    <path d="M75.8521285,31.4126671 C76.640071,30.9667474 77.4615023,30.8583745 78.3197711,31.1327866 C79.1029295,31.3828397 79.9678961,30.8489292 79.9989928,29.9983511 C80.0013849,29.9367078 79.9994712,29.8740703 79.9937303,29.8109356 C79.9224471,29.0533196 79.2675028,28.4940558 78.5384048,28.5681272 C77.4021793,28.4438463 76.4003872,28.5422767 75.2019683,28.9081595 C74.4728704,28.9822309 73.9346583,29.6627928 74.0064199,30.4204088 C74.0183802,30.5486667 74.0470848,30.670959 74.0901418,30.7852974 C74.3566166,31.4961838 75.2072309,31.7775556 75.8521285,31.4126671" id="Fill-87" fill="#312554"></path>
                    <path d="M102.729471,34.1588247 C102.125123,35.0558209 100.861026,34.5729668 101.012494,33.4974127 C101.227497,31.9689199 101.788132,30.4539826 103.174217,30.5591541 C104.720412,30.6764788 103.816686,32.5447924 102.729471,34.1588247" id="Fill-89" fill="#C7614A"></path>
                    <path d="M86,45.6280334 C86,45.6280334 89.727293,46.9650071 91,42.7755682" id="Stroke-91" stroke="#AB503C" stroke-width="1.056" stroke-linecap="round" stroke-linejoin="round"></path>
                    <path d="M86,41.7571023 C86,41.7571023 87.5413791,41.1451037 86.7968224,40.7386364" id="Stroke-93" stroke="#AB503C" stroke-width="1.056" stroke-linecap="round" stroke-linejoin="round"></path>
                    <path d="M100.00858,34.6278409 C100.00858,34.6278409 99.6242598,29.9152212 104,28.5170455" id="Stroke-95" stroke="#AB503C" stroke-width="1.056" stroke-linecap="round" stroke-linejoin="round"></path>
                    <path d="M100,32.5953529 C100,32.5953529 102.34326,32.3983437 101.957004,34.6278409" id="Stroke-97" stroke="#AB503C" stroke-width="1.056" stroke-linecap="round" stroke-linejoin="round"></path>
                    <line x1="93" y1="16.2954545" x2="98" y2="8.14772727" id="Stroke-99" stroke="#4E4270" stroke-width="2.111" stroke-linecap="round" stroke-linejoin="round"></line>
                    <path d="M102.142905,35.5375726 L102.143937,35.5381079 C103.041938,35.8769668 104.044705,35.3930357 104.372423,34.4615754 L104.895224,32.9755215 C105.222943,32.0429906 104.755879,31.0023246 103.856847,30.6623951 L103.856331,30.6623951 C102.958331,30.323001 101.955564,30.8074674 101.627845,31.7383923 L101.105044,33.2249816 C100.776809,34.1569772 101.243873,35.1976431 102.142905,35.5375726" id="Fill-101" fill="#FFFFFF"></path>
                    <path d="M101.3453,38.6243002 L101.3453,38.6243002 C101.930944,38.8667048 102.585159,38.5204877 102.798752,37.8549289 L103.931583,34.3221449 C104.14564,33.6555321 103.840308,32.9114553 103.254201,32.6685237 L103.254201,32.6685237 C102.668558,32.4255921 102.014342,32.7723361 101.800749,33.4378949 L101.073792,37.3253275 C100.837495,38.2411954 101.234565,38.5721305 101.3453,38.6243002" id="Fill-103" fill="#FFFFFF"></path>
                    <path d="M84.6870909,32.5909091 C84.6870909,32.5909091 83.9640909,33.9165227 84.5280909,34.6278409" id="Stroke-105" stroke="#AB503C" stroke-width="1.056" stroke-linecap="round" stroke-linejoin="round"></path>
                    <line x1="96" y1="38.7017045" x2="97" y2="36.6647727" id="Stroke-107" stroke="#AB503C" stroke-width="1.056" stroke-linecap="round" stroke-linejoin="round"></line>
                    <path d="M86,110.206139 C86,110.206139 98.4929426,107.80652 104,119.160511" id="Stroke-109" stroke="#094064" stroke-width="2.045" stroke-linecap="round" stroke-linejoin="round"></path>
                    <path d="M134,102.865057 C134,102.865057 126.914853,106.924952 125,119.160511" id="Stroke-111" stroke="#094064" stroke-width="2.045" stroke-linecap="round" stroke-linejoin="round"></path>
                    <path d="M125,121.197443 C125,121.197443 127.320661,112.705638 135,112.03125" id="Stroke-113" stroke="#094064" stroke-width="2.045" stroke-linecap="round" stroke-linejoin="round"></path>
                    <path d="M89,74.5019421 C89,74.5019421 95.869788,78.5130282 106,69.2556818" id="Stroke-115" stroke="#094064" stroke-width="2.045" stroke-linecap="round" stroke-linejoin="round"></path>
                    <path d="M88,52.9602273 C91.2291064,52.2760871 100.65104,45.694205 101,41.7571023" id="Stroke-117" stroke="#AB503C" stroke-width="1.056" stroke-linecap="round" stroke-linejoin="round"></path>
                    <path d="M90,58.0525568 C90,58.0525568 90.9836419,60.3441051 93,58.0525568" id="Stroke-119" stroke="#AB503C" stroke-width="1.056" stroke-linecap="round" stroke-linejoin="round"></path>
                    <path d="M73,18.3323864 C73,18.3323864 73.2725389,23.6481468 76,23.4174164" id="Stroke-121" stroke="#4E4270" stroke-width="2.111" stroke-linecap="round" stroke-linejoin="round"></path>
                    <path d="M74,17.3139205 C74,17.3139205 76.7126782,16.2994287 81.3643411,12.8488542 C86.016004,9.39882246 90.5976494,9.19581555 92,12.8488542" id="Stroke-123" stroke="#4E4270" stroke-width="2.111" stroke-linecap="round" stroke-linejoin="round"></path>
                </g>
            </g>
        </g>
    </g>
</svg>