<?xml version="1.0" encoding="UTF-8"?>
<svg width="368px" height="131px" viewBox="0 0 368 131" version="1.1" xmlns="http://www.w3.org/2000/svg" xmlns:xlink="http://www.w3.org/1999/xlink">
    <title>Usuarios</title>
    <defs>
        <linearGradient x1="50%" y1="43.789332%" x2="89.8248522%" y2="56.210668%" id="linearGradient-1">
            <stop stop-color="#FCB527" stop-opacity="0.963559878" offset="0%"></stop>
            <stop stop-color="#C3860A" stop-opacity="0.981177713" offset="96.9237606%"></stop>
            <stop stop-color="#32322E" offset="100%"></stop>
        </linearGradient>
    </defs>
    <g id="Page-1" stroke="none" stroke-width="1" fill="none" fill-rule="evenodd">
        <g id="Tein-Soluciones--I" transform="translate(-73, -228)" fill="url(#linearGradient-1)" fill-rule="nonzero">
            <g id="Users---Left-panel" transform="translate(1, -13.2401)">
                <g id="Usuarios-dinámicos---Título" transform="translate(73, 242.3949)">
                    <path id="Usuarios" d="M367,128.84517 L367,129.84517 L363.706129,129.84517 L363.706129,128.84517 L367,128.84517 Z M358.706129,128.84517 L358.706129,129.84517 L354.706129,129.84517 L354.706129,128.84517 L358.706129,128.84517 Z M349.706129,128.84517 L349.706129,129.84517 L345.706129,129.84517 L345.706129,128.84517 L349.706129,128.84517 Z M340.706129,128.84517 L340.706129,129.84517 L336.706129,129.84517 L336.706129,128.84517 L340.706129,128.84517 Z M331.706129,128.84517 L331.706129,129.84517 L327.706129,129.84517 L327.706129,128.84517 L331.706129,128.84517 Z M322.706129,128.84517 L322.706129,129.84517 L318.706129,129.84517 L318.706129,128.84517 L322.706129,128.84517 Z M313.706129,128.84517 L313.706129,129.84517 L309.706129,129.84517 L309.706129,128.84517 L313.706129,128.84517 Z M304.706129,128.84517 L304.706129,129.84517 L300.706129,129.84517 L300.706129,128.84517 L304.706129,128.84517 Z M295.706129,128.84517 L295.706129,129.84517 L291.706129,129.84517 L291.706129,128.84517 L295.706129,128.84517 Z M286.706129,128.84517 L286.706129,129.84517 L282.706129,129.84517 L282.706129,128.84517 L286.706129,128.84517 Z M277.706129,128.84517 L277.706129,129.84517 L273.706129,129.84517 L273.706129,128.84517 L277.706129,128.84517 Z M268.706129,128.84517 L268.706129,129.84517 L264.706129,129.84517 L264.706129,128.84517 L268.706129,128.84517 Z M259.706129,128.84517 L259.706129,129.84517 L255.706129,129.84517 L255.706129,128.84517 L259.706129,128.84517 Z M250.706129,128.84517 L250.706129,129.84517 L246.706129,129.84517 L246.706129,128.84517 L250.706129,128.84517 Z M245.320894,122.230405 L245.320894,126.230405 L244.320894,126.230405 L244.320894,122.230405 L245.320894,122.230405 Z M245.320894,113.230405 L245.320894,117.230405 L244.320894,117.230405 L244.320894,113.230405 L245.320894,113.230405 Z M245.320894,104.230405 L245.320894,108.230405 L244.320894,108.230405 L244.320894,104.230405 L245.320894,104.230405 Z M245.320894,95.2304054 L245.320894,99.2304054 L244.320894,99.2304054 L244.320894,95.2304054 L245.320894,95.2304054 Z M245.320894,86.2304054 L245.320894,90.2304054 L244.320894,90.2304054 L244.320894,86.2304054 L245.320894,86.2304054 Z M245.320894,77.2304054 L245.320894,81.2304054 L244.320894,81.2304054 L244.320894,77.2304054 L245.320894,77.2304054 Z M245.320894,68.2304054 L245.320894,72.2304054 L244.320894,72.2304054 L244.320894,68.2304054 L245.320894,68.2304054 Z M118.577238,50.8714627 L118.577945,54.3990053 C120.82758,54.6480491 122.577238,56.5554286 122.577238,58.8714627 C122.577238,61.3567441 120.562519,63.3714627 118.077238,63.3714627 C115.591956,63.3714627 113.577238,61.3567441 113.577238,58.8714627 C113.577238,56.5552971 115.327095,54.6478324 117.576914,54.3989629 L117.577238,50.8714627 L118.577238,50.8714627 Z M245.320894,59.2304054 L245.320894,63.2304054 L244.320894,63.2304054 L244.320894,59.2304054 L245.320894,59.2304054 Z M245.320894,50.2304054 L245.320894,54.2304054 L244.320894,54.2304054 L244.320894,50.2304054 L245.320894,50.2304054 Z M118.577238,42.1774429 L118.577238,45.8714627 L117.577238,45.8714627 L117.577,43.177 L117.271258,43.1774429 L117.271258,42.1774429 L118.577238,42.1774429 Z M245.320894,41.2304054 L245.320894,45.2304054 L244.320894,45.2304054 L244.320894,41.2304054 L245.320894,41.2304054 Z M112.271258,42.1774429 L112.271258,43.1774429 L108.271258,43.1774429 L108.271258,42.1774429 L112.271258,42.1774429 Z M103.271258,42.1774429 L103.271258,43.1774429 L99.2712577,43.1774429 L99.2712577,42.1774429 L103.271258,42.1774429 Z M94.2712577,42.1774429 L94.2712577,43.1774429 L90.2712577,43.1774429 L90.2712577,42.1774429 L94.2712577,42.1774429 Z M85.2712577,42.1774429 L85.2712577,43.1774429 L81.2712577,43.1774429 L81.2712577,42.1774429 L85.2712577,42.1774429 Z M76.2712577,42.1774429 L76.2712577,43.1774429 L72.2712577,43.1774429 L72.2712577,42.1774429 L76.2712577,42.1774429 Z M67.2712577,42.1774429 L67.2712577,43.1774429 L63.2712577,43.1774429 L63.2712577,42.1774429 L67.2712577,42.1774429 Z M58.2712577,42.1774429 L58.2712577,43.1774429 L54.2712577,43.1774429 L54.2712577,42.1774429 L58.2712577,42.1774429 Z M49.2712577,42.1774429 L49.2712577,43.1774429 L45.2712577,43.1774429 L45.2712577,42.1774429 L49.2712577,42.1774429 Z M40.2712577,42.1774429 L40.2712577,43.1774429 L36.2712577,43.1774429 L36.2712577,42.1774429 L40.2712577,42.1774429 Z M31.2712577,42.1774429 L31.2712577,43.1774429 L27.2712577,43.1774429 L27.2712577,42.1774429 L31.2712577,42.1774429 Z M22.2712577,42.1774429 L22.2712577,43.1774429 L18.2712577,43.1774429 L18.2712577,42.1774429 L22.2712577,42.1774429 Z M13.2712577,42.1774429 L13.2712577,43.1774429 L9.27125768,43.1774429 L9.27125768,42.1774429 L13.2712577,42.1774429 Z M4.27125768,42.1774429 L4.27125768,43.1774429 L0.271257675,43.1774429 L0.271257675,42.1774429 L4.27125768,42.1774429 Z M0.5,33.9487005 L0.5,37.9487005 L-0.5,37.9487005 L-0.5,33.9487005 L0.5,33.9487005 Z M245.320894,32.2304054 L245.320894,36.2304054 L244.320894,36.2304054 L244.320894,32.2304054 L245.320894,32.2304054 Z M0.5,24.9487005 L0.5,28.9487005 L-0.5,28.9487005 L-0.5,24.9487005 L0.5,24.9487005 Z M245.320894,23.2304054 L245.320894,27.2304054 L244.320894,27.2304054 L244.320894,23.2304054 L245.320894,23.2304054 Z M0.5,15.9487005 L0.5,19.9487005 L-0.5,19.9487005 L-0.5,15.9487005 L0.5,15.9487005 Z M245.320894,14.2304054 L245.320894,18.2304054 L244.320894,18.2304054 L244.320894,14.2304054 L245.320894,14.2304054 Z M0.5,6.94870053 L0.5,10.9487005 L-0.5,10.9487005 L-0.5,6.94870053 L0.5,6.94870053 Z M245.320894,5.23040542 L245.320894,9.23040542 L244.320894,9.23040542 L244.320894,5.23040542 L245.320894,5.23040542 Z M2.05129947,-0.5 L2.05129947,0.5 L0.5,0.5 L0.5,1.94870053 L-0.5,1.94870053 L-0.5,-0.5 L2.05129947,-0.5 Z M245.320894,-0.5 L245.320894,0.230405416 L244.82,0.23 L244.820894,0.5 L241.051299,0.5 L241.051299,-0.5 L245.320894,-0.5 Z M20.0512995,-0.5 L20.0512995,0.5 L16.0512995,0.5 L16.0512995,-0.5 L20.0512995,-0.5 Z M236.051299,-0.5 L236.051299,0.5 L232.051299,0.5 L232.051299,-0.5 L236.051299,-0.5 Z M227.051299,-0.5 L227.051299,0.5 L223.051299,0.5 L223.051299,-0.5 L227.051299,-0.5 Z M218.051299,-0.5 L218.051299,0.5 L214.051299,0.5 L214.051299,-0.5 L218.051299,-0.5 Z M209.051299,-0.5 L209.051299,0.5 L205.051299,0.5 L205.051299,-0.5 L209.051299,-0.5 Z M200.051299,-0.5 L200.051299,0.5 L196.051299,0.5 L196.051299,-0.5 L200.051299,-0.5 Z M191.051299,-0.5 L191.051299,0.5 L187.051299,0.5 L187.051299,-0.5 L191.051299,-0.5 Z M182.051299,-0.5 L182.051299,0.5 L178.051299,0.5 L178.051299,-0.5 L182.051299,-0.5 Z M173.051299,-0.5 L173.051299,0.5 L169.051299,0.5 L169.051299,-0.5 L173.051299,-0.5 Z M11.0512995,-0.5 L11.0512995,0.5 L7.05129947,0.5 L7.05129947,-0.5 L11.0512995,-0.5 Z M155.051299,-0.5 L155.051299,0.5 L151.051299,0.5 L151.051299,-0.5 L155.051299,-0.5 Z M146.051299,-0.5 L146.051299,0.5 L142.051299,0.5 L142.051299,-0.5 L146.051299,-0.5 Z M137.051299,-0.5 L137.051299,0.5 L133.051299,0.5 L133.051299,-0.5 L137.051299,-0.5 Z M128.051299,-0.5 L128.051299,0.5 L124.051299,0.5 L124.051299,-0.5 L128.051299,-0.5 Z M119.051299,-0.5 L119.051299,0.5 L115.051299,0.5 L115.051299,-0.5 L119.051299,-0.5 Z M110.051299,-0.5 L110.051299,0.5 L106.051299,0.5 L106.051299,-0.5 L110.051299,-0.5 Z M101.051299,-0.5 L101.051299,0.5 L97.0512995,0.5 L97.0512995,-0.5 L101.051299,-0.5 Z M92.0512995,-0.5 L92.0512995,0.5 L88.0512995,0.5 L88.0512995,-0.5 L92.0512995,-0.5 Z M83.0512995,-0.5 L83.0512995,0.5 L79.0512995,0.5 L79.0512995,-0.5 L83.0512995,-0.5 Z M74.0512995,-0.5 L74.0512995,0.5 L70.0512995,0.5 L70.0512995,-0.5 L74.0512995,-0.5 Z M65.0512995,-0.5 L65.0512995,0.5 L61.0512995,0.5 L61.0512995,-0.5 L65.0512995,-0.5 Z M56.0512995,-0.5 L56.0512995,0.5 L52.0512995,0.5 L52.0512995,-0.5 L56.0512995,-0.5 Z M47.0512995,-0.5 L47.0512995,0.5 L43.0512995,0.5 L43.0512995,-0.5 L47.0512995,-0.5 Z M38.0512995,-0.5 L38.0512995,0.5 L34.0512995,0.5 L34.0512995,-0.5 L38.0512995,-0.5 Z M29.0512995,-0.5 L29.0512995,0.5 L25.0512995,0.5 L25.0512995,-0.5 L29.0512995,-0.5 Z M164.051299,-0.5 L164.051299,0.5 L160.051299,0.5 L160.051299,-0.5 L164.051299,-0.5 Z"></path>
                </g>
            </g>
        </g>
    </g>
</svg>